<svg width="759" height="386" viewBox="0 0 759 386" fill="none" xmlns="http://www.w3.org/2000/svg">
<rect width="759" height="386" fill="white"/>
<mask id="path-1-outside-1_1_5" maskUnits="userSpaceOnUse" x="537" y="125" width="162" height="52" fill="black">
<rect fill="white" x="537" y="125" width="162" height="52"/>
<path fill-rule="evenodd" clip-rule="evenodd" d="M618 126H538V176H618H698V126H618Z"/>
</mask>
<path fill-rule="evenodd" clip-rule="evenodd" d="M618 126H538V176H618H698V126H618Z" fill="#D9D9D9"/>
<path d="M538 126V125H537V126H538ZM538 176H537V177H538V176ZM698 176V177H699V176H698ZM698 126H699V125H698V126ZM538 127H618V125H538V127ZM539 176V126H537V176H539ZM618 175H538V177H618V175ZM698 175H618V177H698V175ZM697 126V176H699V126H697ZM618 127H698V125H618V127Z" fill="black" mask="url(#path-1-outside-1_1_5)"/>
<mask id="path-3-outside-2_1_5" maskUnits="userSpaceOnUse" x="377" y="125" width="162" height="52" fill="black">
<rect fill="white" x="377" y="125" width="162" height="52"/>
<path fill-rule="evenodd" clip-rule="evenodd" d="M458 126H378V176H458H538V126H458Z"/>
</mask>
<path fill-rule="evenodd" clip-rule="evenodd" d="M458 126H378V176H458H538V126H458Z" fill="#D9D9D9"/>
<path d="M378 126V125H377V126H378ZM378 176H377V177H378V176ZM538 176V177H539V176H538ZM538 126H539V125H538V126ZM378 127H458V125H378V127ZM379 176V126H377V176H379ZM458 175H378V177H458V175ZM538 175H458V177H538V175ZM537 126V176H539V126H537ZM458 127H538V125H458V127Z" fill="black" mask="url(#path-3-outside-2_1_5)"/>
<mask id="path-5-outside-3_1_5" maskUnits="userSpaceOnUse" x="57" y="125" width="162" height="52" fill="black">
<rect fill="white" x="57" y="125" width="162" height="52"/>
<path fill-rule="evenodd" clip-rule="evenodd" d="M138 126H58V176H138H218V126H138Z"/>
</mask>
<path fill-rule="evenodd" clip-rule="evenodd" d="M138 126H58V176H138H218V126H138Z" fill="#D9D9D9"/>
<path d="M58 126V125H57V126H58ZM58 176H57V177H58V176ZM218 176V177H219V176H218ZM218 126H219V125H218V126ZM58 127H138V125H58V127ZM59 176V126H57V176H59ZM138 175H58V177H138V175ZM218 175H138V177H218V175ZM217 126V176H219V126H217ZM138 127H218V125H138V127Z" fill="black" mask="url(#path-5-outside-3_1_5)"/>
<rect x="217.5" y="125.5" width="81" height="51" fill="#D9D9D9" stroke="black"/>
<rect x="297.5" y="125.5" width="81" height="51" fill="#D9D9D9" stroke="black"/>
<rect x="58.5" y="176.5" width="639" height="166" fill="#D9D9D9" stroke="black"/>
<path d="M289.375 296.906C287.932 296.818 286.716 296.409 285.727 295.68C284.737 294.956 283.945 293.977 283.352 292.742C282.763 291.508 282.469 290.271 282.469 289.031C282.469 287.792 282.763 286.555 283.352 285.32C283.945 284.086 284.737 283.107 285.727 282.383C286.716 281.654 287.932 281.242 289.375 281.148V282.367C288.286 282.466 287.349 282.833 286.562 283.469C285.781 284.099 285.167 284.904 284.719 285.883C284.271 286.862 284.047 287.911 284.047 289.031C284.047 290.151 284.271 291.201 284.719 292.18C285.167 293.159 285.781 293.964 286.562 294.594C287.349 295.224 288.286 295.591 289.375 295.695V296.906ZM299 285.273V294H297.547V292.086C297.078 292.805 296.557 293.344 295.984 293.703C295.411 294.062 294.839 294.242 294.266 294.242C293.755 294.242 293.286 294.107 292.859 293.836C292.438 293.56 292.143 293.201 291.977 292.758C291.81 292.31 291.727 291.44 291.727 290.148V285.273H293.18V290.328C293.18 291.167 293.219 291.721 293.297 291.992C293.38 292.258 293.529 292.477 293.742 292.648C293.961 292.82 294.195 292.906 294.445 292.906C294.956 292.906 295.503 292.667 296.086 292.188C296.674 291.703 297.161 291.094 297.547 290.359V285.273H299ZM308.727 293.648C308.044 293.935 307.549 294.104 307.242 294.156C306.935 294.214 306.638 294.242 306.352 294.242C305.742 294.242 305.185 294.125 304.68 293.891C304.174 293.656 303.792 293.31 303.531 292.852C303.276 292.393 303.148 291.685 303.148 290.727V287.211H300.969V286H303.148V282.484H304.602V286H308.484V287.211H304.602V290.703C304.602 291.406 304.685 291.904 304.852 292.195C305.018 292.482 305.24 292.693 305.516 292.828C305.797 292.964 306.128 293.031 306.508 293.031C307.211 293.031 307.951 292.81 308.727 292.367V293.648ZM313.07 294V287.211H311.133V286H313.07V285.594C313.07 284.443 313.201 283.591 313.461 283.039C313.721 282.487 314.122 282.034 314.664 281.68C315.211 281.326 315.932 281.148 316.828 281.148C317.505 281.148 318.193 281.219 318.891 281.359V282.742C318.135 282.492 317.466 282.367 316.883 282.367C316.419 282.367 316.01 282.453 315.656 282.625C315.302 282.797 315.023 283.078 314.82 283.469C314.622 283.854 314.523 284.51 314.523 285.438V286H317.984V287.211H314.523V294H313.07ZM323.023 287.461L322.758 287.266C322.388 287.005 322.026 286.622 321.672 286.117C321.318 285.607 321.141 285.047 321.141 284.438C321.141 283.63 321.458 282.943 322.094 282.375C322.729 281.802 323.536 281.516 324.516 281.516C325.115 281.516 325.654 281.625 326.133 281.844C326.612 282.057 326.982 282.375 327.242 282.797C327.503 283.219 327.633 283.68 327.633 284.18C327.633 284.523 327.573 284.857 327.453 285.18C327.333 285.497 327.154 285.815 326.914 286.133C326.68 286.445 326.211 286.888 325.508 287.461L326.164 287.984C326.93 288.609 327.445 289.148 327.711 289.602C327.977 290.055 328.109 290.562 328.109 291.125C328.109 292 327.792 292.76 327.156 293.406C326.521 294.047 325.568 294.367 324.297 294.367C323.021 294.367 322.065 294.068 321.43 293.469C320.794 292.865 320.477 292.117 320.477 291.227C320.477 289.898 321.326 288.643 323.023 287.461ZM324.516 286.719C325.25 286.161 325.708 285.695 325.891 285.32C326.078 284.945 326.172 284.596 326.172 284.273C326.172 283.883 326 283.529 325.656 283.211C325.312 282.888 324.87 282.727 324.328 282.727C323.745 282.727 323.299 282.901 322.992 283.25C322.69 283.599 322.539 283.961 322.539 284.336C322.539 284.701 322.667 285.044 322.922 285.367C323.177 285.69 323.586 286.052 324.148 286.453L324.516 286.719ZM324.117 288.234C322.742 289.292 322.055 290.281 322.055 291.203C322.055 291.75 322.281 292.211 322.734 292.586C323.188 292.961 323.724 293.148 324.344 293.148C324.911 293.148 325.419 292.969 325.867 292.609C326.315 292.25 326.539 291.802 326.539 291.266C326.539 290.74 326.266 290.206 325.719 289.664C325.177 289.122 324.799 288.768 324.586 288.602L324.117 288.234ZM330.119 291.088C330.119 290.848 330.903 290.496 330.903 290.496V290.48C332.311 288.88 333.735 286.656 334.871 284.464L333.879 283.904C332.919 286.08 331.367 288.368 330.887 288.96C330.423 289.552 330.087 289.968 329.767 290.032C329.895 290.32 330.071 290.864 330.119 291.088ZM330.119 291.088C330.423 290.912 330.919 290.752 334.455 289.92C334.423 289.68 334.375 289.248 334.375 288.928L330.583 289.728L330.055 290.128L330.119 291.088ZM330.023 287.248C330.023 287.008 330.727 286.624 330.727 286.624V286.592C331.767 285.136 332.855 283.008 333.623 280.96L332.487 280.56C331.911 282.512 330.839 284.608 330.503 285.136C330.183 285.696 329.911 286.08 329.639 286.144C329.767 286.448 329.959 287.008 330.023 287.248ZM330.023 287.248C330.279 287.12 330.711 287.008 333.223 286.688C333.239 286.448 333.271 286 333.335 285.696L330.551 285.984L329.991 286.352L330.023 287.248ZM329.687 293.152L329.975 294.24C331.271 293.712 332.951 293.04 334.567 292.368L334.359 291.408C332.615 292.064 330.855 292.752 329.687 293.152ZM339.015 287.968V294.768H339.831V287.968H339.015ZM340.967 287.952V294.752H341.783V287.952H340.967ZM342.967 287.408V294.112C342.967 294.24 342.935 294.272 342.823 294.272C342.711 294.272 342.407 294.272 342.055 294.272C342.183 294.512 342.295 294.912 342.343 295.168C342.903 295.168 343.287 295.152 343.575 294.992C343.863 294.832 343.927 294.56 343.927 294.128V287.408H342.967ZM335.671 282.304V285.76C335.671 288.224 335.527 291.776 334.055 294.336C334.311 294.464 334.791 294.816 334.983 295.024C336.519 292.32 336.775 288.384 336.775 285.76V282.304H335.671ZM336.247 282.304V283.312H342.647V285.04H336.247V286.048H343.767V282.304H336.247ZM336.743 287.408V295.152H337.703V288.4H343.479V287.408H336.743ZM337.223 290.768V291.728H343.399V290.768H337.223ZM338.727 280.8C339.063 281.424 339.431 282.272 339.575 282.832L340.743 282.448C340.583 281.904 340.215 281.072 339.847 280.464L338.727 280.8ZM358.919 287.584V287.792C358.599 291.904 358.231 293.536 357.767 293.968C357.623 294.128 357.447 294.16 357.175 294.16C356.871 294.16 356.167 294.16 355.399 294.064C355.575 294.384 355.703 294.848 355.719 295.184C356.503 295.216 357.239 295.216 357.639 295.184C358.119 295.168 358.439 295.04 358.743 294.704C359.319 294.112 359.671 292.448 360.039 288.128C360.055 287.952 360.071 287.584 360.071 287.584H358.919ZM352.135 281.504V282.608H358.071V281.504H352.135ZM352.903 283.616C352.791 285.184 352.567 287.328 352.359 288.624H353.495C353.671 287.376 353.895 285.28 354.023 283.68L352.903 283.616ZM352.695 287.584V288.624H359.271V287.584H352.695ZM351.591 290.736V291.808H357.719V290.736H351.591ZM357.575 281.504V281.648C357.463 283.152 357.143 286.176 356.855 288.272L357.991 288.352C358.279 286.256 358.583 283.44 358.727 281.552L357.895 281.456L357.703 281.504H357.575ZM345.847 281.424V282.528H351.351V281.424H345.847ZM347.415 286.352V287.424H349.831V292.192H347.415V293.264H350.887V286.352H347.415ZM347.911 281.952C347.479 284.624 346.727 287.12 345.495 288.752C345.703 289.072 345.975 289.76 346.055 290.048C347.527 288.128 348.455 285.216 349.031 282.192L347.911 281.952ZM346.887 286.352V294.56H347.943V286.352H346.887ZM363.143 283.136V284.208H366.887V292.512H363.143V293.6H368.007V283.136H363.143ZM362.423 283.136V294.88H363.543V283.136H362.423ZM363.063 287.584V288.656H367.479V287.584H363.063ZM364.871 280.528C364.743 281.36 364.439 282.576 364.167 283.344L365.127 283.584C365.447 282.864 365.847 281.76 366.167 280.768L364.871 280.528ZM370.279 283.088V284.208H375.191V283.088H370.279ZM374.775 283.088V283.344C374.551 290.4 374.295 293.056 373.767 293.632C373.591 293.84 373.399 293.888 373.079 293.888C372.711 293.888 371.751 293.872 370.711 293.792C370.935 294.112 371.079 294.608 371.111 294.96C372.007 295.008 372.951 295.04 373.495 294.976C374.055 294.928 374.423 294.784 374.775 294.32C375.415 293.536 375.639 291.056 375.895 283.712C375.895 283.536 375.895 283.088 375.895 283.088H374.775ZM370.615 280.496C370.103 282.72 369.223 284.928 368.135 286.336C368.423 286.496 368.919 286.832 369.127 287.024C370.231 285.504 371.175 283.152 371.767 280.768L370.615 280.496ZM369.879 287.248C370.759 288.416 371.831 290 372.311 290.976L373.335 290.336C372.823 289.392 371.719 287.84 370.807 286.704L369.879 287.248ZM378.391 297.422V296.062C379.203 296.302 379.888 296.422 380.445 296.422C380.93 296.422 381.341 296.336 381.68 296.164C382.018 295.997 382.281 295.714 382.469 295.312C382.661 294.911 382.758 294.214 382.758 293.219V286.484H379.055V285.273H384.211V292.945C384.211 294.424 384.036 295.451 383.688 296.023C383.339 296.602 382.917 297.016 382.422 297.266C381.927 297.516 381.25 297.641 380.391 297.641C379.771 297.641 379.104 297.568 378.391 297.422ZM382.516 282.125C382.516 281.797 382.625 281.552 382.844 281.391C383.068 281.229 383.281 281.148 383.484 281.148C383.688 281.148 383.898 281.229 384.117 281.391C384.341 281.552 384.453 281.797 384.453 282.125C384.453 282.448 384.341 282.69 384.117 282.852C383.898 283.013 383.688 283.094 383.484 283.094C383.281 283.094 383.068 283.013 382.844 282.852C382.625 282.69 382.516 282.448 382.516 282.125ZM387.969 293.539V292C388.552 292.38 389.169 292.648 389.82 292.805C390.471 292.956 391.023 293.031 391.477 293.031C392.211 293.031 392.74 292.914 393.062 292.68C393.385 292.44 393.547 292.143 393.547 291.789C393.547 291.555 393.471 291.354 393.32 291.188C393.169 291.021 392.794 290.815 392.195 290.57L391.695 290.367L390.688 289.969C389.604 289.547 388.922 289.156 388.641 288.797C388.354 288.443 388.211 288.01 388.211 287.5C388.211 286.781 388.487 286.19 389.039 285.727C389.596 285.263 390.497 285.031 391.742 285.031C392.674 285.031 393.557 285.167 394.391 285.438V286.758C393.432 286.414 392.531 286.242 391.688 286.242C391.073 286.242 390.591 286.352 390.242 286.57C389.898 286.784 389.727 287.052 389.727 287.375C389.727 287.688 389.878 287.938 390.18 288.125C390.477 288.312 390.961 288.529 391.633 288.773L392.617 289.133C393.518 289.461 394.151 289.818 394.516 290.203C394.88 290.589 395.062 291.07 395.062 291.648C395.062 292.404 394.771 293.026 394.188 293.516C393.609 294 392.682 294.242 391.406 294.242C390.292 294.242 389.146 294.008 387.969 293.539ZM401.07 294.242C399.82 294.242 398.82 293.807 398.07 292.938C397.32 292.062 396.945 290.961 396.945 289.633C396.945 288.305 397.32 287.206 398.07 286.336C398.82 285.466 399.82 285.031 401.07 285.031C402.315 285.031 403.312 285.466 404.062 286.336C404.812 287.206 405.188 288.305 405.188 289.633C405.188 290.961 404.812 292.062 404.062 292.938C403.312 293.807 402.315 294.242 401.07 294.242ZM401.07 293.031C401.846 293.031 402.464 292.729 402.922 292.125C403.38 291.521 403.609 290.69 403.609 289.633C403.609 288.581 403.38 287.753 402.922 287.148C402.464 286.544 401.846 286.242 401.07 286.242C400.289 286.242 399.669 286.544 399.211 287.148C398.753 287.753 398.523 288.581 398.523 289.633C398.523 290.69 398.753 291.521 399.211 292.125C399.669 292.729 400.289 293.031 401.07 293.031ZM407.086 294V285.273H408.539V287.18C408.956 286.508 409.458 285.982 410.047 285.602C410.635 285.221 411.224 285.031 411.812 285.031C412.328 285.031 412.797 285.169 413.219 285.445C413.641 285.716 413.935 286.073 414.102 286.516C414.273 286.958 414.359 287.828 414.359 289.125V294H412.906V288.945C412.906 288.107 412.865 287.555 412.781 287.289C412.703 287.018 412.555 286.797 412.336 286.625C412.122 286.453 411.888 286.367 411.633 286.367C411.122 286.367 410.573 286.609 409.984 287.094C409.401 287.578 408.919 288.185 408.539 288.914V294H407.086ZM419.212 285.2V286.304H426.892V285.2H419.212ZM416.604 289.216V290.352H430.396V289.216H416.604ZM422.86 288.016V293.776C422.86 294 422.78 294.064 422.492 294.08C422.204 294.096 421.164 294.096 420.076 294.064C420.284 294.4 420.524 294.912 420.604 295.264C421.964 295.264 422.812 295.248 423.372 295.056C423.948 294.864 424.124 294.512 424.124 293.792V288.016H422.86ZM426.524 285.2V285.44C425.804 286.336 424.38 287.536 423.132 288.208C423.324 288.368 423.644 288.672 423.788 288.896C425.26 288.144 426.844 286.896 427.9 285.728L427.116 285.136L426.844 285.2H426.524ZM422.828 280.544V283.12H424.092V280.544H422.828ZM416.764 282.304V286.064H417.948V283.44H428.956V286.064H430.188V282.304H416.764ZM436.876 287.088V288.192H446.572V287.088H436.876ZM435.644 285.216C434.812 286.96 433.484 288.688 432.14 289.84C432.396 290.064 432.812 290.576 432.972 290.816C434.38 289.536 435.836 287.552 436.78 285.584L435.644 285.216ZM443.212 285.344V293.744C443.212 294.016 443.132 294.096 442.812 294.096C442.508 294.112 441.452 294.128 440.3 294.096C440.476 294.416 440.668 294.928 440.716 295.248C442.172 295.248 443.116 295.232 443.66 295.056C444.204 294.864 444.38 294.512 444.38 293.76V285.344H443.212ZM434.156 282.096V283.12H439.068V282.096H434.156ZM440.3 282.096V283.12H446.428V282.096H440.3ZM434.396 280.512C433.9 282.128 433.052 283.712 432.044 284.752C432.332 284.912 432.844 285.248 433.068 285.424C434.028 284.288 434.972 282.544 435.548 280.8L434.396 280.512ZM440.684 280.512C440.204 282.128 439.34 283.648 438.268 284.624C438.556 284.8 439.052 285.136 439.276 285.312C440.316 284.224 441.276 282.56 441.836 280.784L440.684 280.512ZM435.276 282.912C435.66 283.664 436.14 284.704 436.38 285.296L437.452 284.912C437.196 284.336 436.684 283.328 436.3 282.608L435.276 282.912ZM441.804 282.912C442.268 283.584 442.86 284.512 443.132 285.072L444.188 284.64C443.884 284.08 443.276 283.184 442.796 282.528L441.804 282.912ZM437.804 289.584C438.508 290.608 439.404 291.984 439.82 292.784L440.828 292.176C440.38 291.392 439.468 290.064 438.764 289.072L437.804 289.584ZM434.524 287.856V295.28H435.676V286.736V286.72L434.524 287.856ZM454.796 280.576V295.264H456.06V280.576H454.796ZM449.148 288.112V293.312H450.38V289.232H460.604V293.28H461.884V288.112H449.148ZM451.004 283.504H459.884V285.712H451.004V283.504ZM449.788 282.416V286.768H461.164V282.416H449.788ZM449.9 291.552V292.64H461.116V291.552H449.9ZM464.711 281.148C466.154 281.242 467.37 281.654 468.359 282.383C469.349 283.107 470.138 284.086 470.727 285.32C471.32 286.555 471.617 287.792 471.617 289.031C471.617 290.271 471.32 291.508 470.727 292.742C470.138 293.977 469.349 294.956 468.359 295.68C467.37 296.409 466.154 296.818 464.711 296.906V295.695C465.799 295.591 466.734 295.224 467.516 294.594C468.302 293.964 468.919 293.159 469.367 292.18C469.82 291.201 470.047 290.151 470.047 289.031C470.047 287.911 469.82 286.862 469.367 285.883C468.919 284.904 468.302 284.099 467.516 283.469C466.734 282.833 465.799 282.466 464.711 282.367V281.148Z" fill="black"/>
<path d="M242.656 158V150.484H240.234V149.273H244.109V156.789H246.539V158H242.656ZM242.414 146.125C242.414 145.797 242.526 145.552 242.75 145.391C242.974 145.229 243.185 145.148 243.383 145.148C243.586 145.148 243.799 145.229 244.023 145.391C244.247 145.552 244.359 145.797 244.359 146.125C244.359 146.448 244.247 146.69 244.023 146.852C243.799 147.013 243.586 147.094 243.383 147.094C243.185 147.094 242.974 147.013 242.75 146.852C242.526 146.69 242.414 146.448 242.414 146.125ZM249.82 158V149.273H251.273V151.18C251.69 150.508 252.193 149.982 252.781 149.602C253.37 149.221 253.958 149.031 254.547 149.031C255.062 149.031 255.531 149.169 255.953 149.445C256.375 149.716 256.669 150.073 256.836 150.516C257.008 150.958 257.094 151.828 257.094 153.125V158H255.641V152.945C255.641 152.107 255.599 151.555 255.516 151.289C255.438 151.018 255.289 150.797 255.07 150.625C254.857 150.453 254.622 150.367 254.367 150.367C253.857 150.367 253.307 150.609 252.719 151.094C252.135 151.578 251.654 152.185 251.273 152.914V158H249.82ZM266.727 157.648C266.044 157.935 265.549 158.104 265.242 158.156C264.935 158.214 264.638 158.242 264.352 158.242C263.742 158.242 263.185 158.125 262.68 157.891C262.174 157.656 261.792 157.31 261.531 156.852C261.276 156.393 261.148 155.685 261.148 154.727V151.211H258.969V150H261.148V146.484H262.602V150H266.484V151.211H262.602V154.703C262.602 155.406 262.685 155.904 262.852 156.195C263.018 156.482 263.24 156.693 263.516 156.828C263.797 156.964 264.128 157.031 264.508 157.031C265.211 157.031 265.951 156.81 266.727 156.367V157.648ZM272.266 156.789V147.43C271.828 147.779 271.404 148.076 270.992 148.32C270.581 148.565 270.016 148.815 269.297 149.07V147.758C270.438 147.273 271.427 146.646 272.266 145.875H273.719V156.789H276.633V158H269.297V156.789H272.266ZM279.719 152.312C280.094 151.755 280.557 151.302 281.109 150.953C281.667 150.599 282.279 150.422 282.945 150.422C283.576 150.422 284.172 150.576 284.734 150.883C285.302 151.19 285.734 151.62 286.031 152.172C286.328 152.719 286.477 153.357 286.477 154.086C286.477 155.237 286.107 156.24 285.367 157.094C284.633 157.943 283.664 158.367 282.461 158.367C281.044 158.367 279.984 157.776 279.281 156.594C278.583 155.406 278.234 153.898 278.234 152.07C278.234 150.049 278.68 148.453 279.57 147.281C280.461 146.104 281.667 145.516 283.188 145.516C284.005 145.516 284.799 145.635 285.57 145.875V147.344C284.706 146.932 283.891 146.727 283.125 146.727C282.042 146.727 281.203 147.224 280.609 148.219C280.016 149.214 279.719 150.474 279.719 152V152.312ZM282.57 157.156C282.961 157.156 283.354 157.042 283.75 156.812C284.146 156.578 284.456 156.221 284.68 155.742C284.909 155.258 285.023 154.732 285.023 154.164C285.023 153.424 284.831 152.818 284.445 152.344C284.065 151.87 283.521 151.633 282.812 151.633C282.078 151.633 281.474 151.909 281 152.461C280.531 153.008 280.297 153.674 280.297 154.461C280.297 155.253 280.526 155.901 280.984 156.406C281.448 156.906 281.977 157.156 282.57 157.156Z" fill="black"/>
<path d="M317.656 158V150.484H315.234V149.273H319.109V156.789H321.539V158H317.656ZM317.414 146.125C317.414 145.797 317.526 145.552 317.75 145.391C317.974 145.229 318.185 145.148 318.383 145.148C318.586 145.148 318.799 145.229 319.023 145.391C319.247 145.552 319.359 145.797 319.359 146.125C319.359 146.448 319.247 146.69 319.023 146.852C318.799 147.013 318.586 147.094 318.383 147.094C318.185 147.094 317.974 147.013 317.75 146.852C317.526 146.69 317.414 146.448 317.414 146.125ZM324.82 158V149.273H326.273V151.18C326.69 150.508 327.193 149.982 327.781 149.602C328.37 149.221 328.958 149.031 329.547 149.031C330.062 149.031 330.531 149.169 330.953 149.445C331.375 149.716 331.669 150.073 331.836 150.516C332.008 150.958 332.094 151.828 332.094 153.125V158H330.641V152.945C330.641 152.107 330.599 151.555 330.516 151.289C330.438 151.018 330.289 150.797 330.07 150.625C329.857 150.453 329.622 150.367 329.367 150.367C328.857 150.367 328.307 150.609 327.719 151.094C327.135 151.578 326.654 152.185 326.273 152.914V158H324.82ZM341.727 157.648C341.044 157.935 340.549 158.104 340.242 158.156C339.935 158.214 339.638 158.242 339.352 158.242C338.742 158.242 338.185 158.125 337.68 157.891C337.174 157.656 336.792 157.31 336.531 156.852C336.276 156.393 336.148 155.685 336.148 154.727V151.211H333.969V150H336.148V146.484H337.602V150H341.484V151.211H337.602V154.703C337.602 155.406 337.685 155.904 337.852 156.195C338.018 156.482 338.24 156.693 338.516 156.828C338.797 156.964 339.128 157.031 339.508 157.031C340.211 157.031 340.951 156.81 341.727 156.367V157.648ZM347.266 156.789V147.43C346.828 147.779 346.404 148.076 345.992 148.32C345.581 148.565 345.016 148.815 344.297 149.07V147.758C345.438 147.273 346.427 146.646 347.266 145.875H348.719V156.789H351.633V158H344.297V156.789H347.266ZM354.719 152.312C355.094 151.755 355.557 151.302 356.109 150.953C356.667 150.599 357.279 150.422 357.945 150.422C358.576 150.422 359.172 150.576 359.734 150.883C360.302 151.19 360.734 151.62 361.031 152.172C361.328 152.719 361.477 153.357 361.477 154.086C361.477 155.237 361.107 156.24 360.367 157.094C359.633 157.943 358.664 158.367 357.461 158.367C356.044 158.367 354.984 157.776 354.281 156.594C353.583 155.406 353.234 153.898 353.234 152.07C353.234 150.049 353.68 148.453 354.57 147.281C355.461 146.104 356.667 145.516 358.188 145.516C359.005 145.516 359.799 145.635 360.57 145.875V147.344C359.706 146.932 358.891 146.727 358.125 146.727C357.042 146.727 356.203 147.224 355.609 148.219C355.016 149.214 354.719 150.474 354.719 152V152.312ZM357.57 157.156C357.961 157.156 358.354 157.042 358.75 156.812C359.146 156.578 359.456 156.221 359.68 155.742C359.909 155.258 360.023 154.732 360.023 154.164C360.023 153.424 359.831 152.818 359.445 152.344C359.065 151.87 358.521 151.633 357.812 151.633C357.078 151.633 356.474 151.909 356 152.461C355.531 153.008 355.297 153.674 355.297 154.461C355.297 155.253 355.526 155.901 355.984 156.406C356.448 156.906 356.977 157.156 357.57 157.156Z" fill="black"/>
<path d="M306.555 101.234C307.003 100.505 307.536 99.9557 308.156 99.5859C308.776 99.2161 309.346 99.0312 309.867 99.0312C310.596 99.0312 311.253 99.3464 311.836 99.9766C312.419 100.607 312.711 101.562 312.711 102.844C312.711 103.854 312.516 104.758 312.125 105.555C311.74 106.346 311.224 106.974 310.578 107.438C309.932 107.896 309.133 108.125 308.18 108.125C307.909 108.125 307.492 108.096 306.93 108.039C306.846 108.029 306.721 108.016 306.555 108V111.391H305.102V99.2734H306.555V101.234ZM306.555 102.961V106.703C307.081 106.839 307.565 106.906 308.008 106.906C308.888 106.906 309.628 106.562 310.227 105.875C310.831 105.182 311.133 104.237 311.133 103.039C311.133 102.169 310.969 101.516 310.641 101.078C310.312 100.641 309.94 100.422 309.523 100.422C309.07 100.422 308.57 100.651 308.023 101.109C307.482 101.568 306.992 102.185 306.555 102.961ZM315.562 108V99.2734H317.016V101.18C317.469 100.461 317.987 99.9245 318.57 99.5703C319.159 99.2109 319.812 99.0312 320.531 99.0312C321.057 99.0312 321.583 99.112 322.109 99.2734V102.422H320.711V100.43C320.466 100.388 320.273 100.367 320.133 100.367C319.591 100.367 319.06 100.581 318.539 101.008C318.018 101.435 317.51 102.076 317.016 102.93V108H315.562ZM328.023 108.242C326.773 108.242 325.773 107.807 325.023 106.938C324.273 106.062 323.898 104.961 323.898 103.633C323.898 102.305 324.273 101.206 325.023 100.336C325.773 99.4661 326.773 99.0312 328.023 99.0312C329.268 99.0312 330.266 99.4661 331.016 100.336C331.766 101.206 332.141 102.305 332.141 103.633C332.141 104.961 331.766 106.062 331.016 106.938C330.266 107.807 329.268 108.242 328.023 108.242ZM328.023 107.031C328.799 107.031 329.417 106.729 329.875 106.125C330.333 105.521 330.562 104.69 330.562 103.633C330.562 102.581 330.333 101.753 329.875 101.148C329.417 100.544 328.799 100.242 328.023 100.242C327.242 100.242 326.622 100.544 326.164 101.148C325.706 101.753 325.477 102.581 325.477 103.633C325.477 104.69 325.706 105.521 326.164 106.125C326.622 106.729 327.242 107.031 328.023 107.031ZM341.336 107.648C340.654 107.935 340.159 108.104 339.852 108.156C339.544 108.214 339.247 108.242 338.961 108.242C338.352 108.242 337.794 108.125 337.289 107.891C336.784 107.656 336.401 107.31 336.141 106.852C335.885 106.393 335.758 105.685 335.758 104.727V101.211H333.578V100H335.758V96.4844H337.211V100H341.094V101.211H337.211V104.703C337.211 105.406 337.294 105.904 337.461 106.195C337.628 106.482 337.849 106.693 338.125 106.828C338.406 106.964 338.737 107.031 339.117 107.031C339.82 107.031 340.56 106.81 341.336 106.367V107.648ZM347.242 108.242C345.992 108.242 344.992 107.807 344.242 106.938C343.492 106.062 343.117 104.961 343.117 103.633C343.117 102.305 343.492 101.206 344.242 100.336C344.992 99.4661 345.992 99.0312 347.242 99.0312C348.487 99.0312 349.484 99.4661 350.234 100.336C350.984 101.206 351.359 102.305 351.359 103.633C351.359 104.961 350.984 106.062 350.234 106.938C349.484 107.807 348.487 108.242 347.242 108.242ZM347.242 107.031C348.018 107.031 348.635 106.729 349.094 106.125C349.552 105.521 349.781 104.69 349.781 103.633C349.781 102.581 349.552 101.753 349.094 101.148C348.635 100.544 348.018 100.242 347.242 100.242C346.461 100.242 345.841 100.544 345.383 101.148C344.924 101.753 344.695 102.581 344.695 103.633C344.695 104.69 344.924 105.521 345.383 106.125C345.841 106.729 346.461 107.031 347.242 107.031ZM359.883 95.875H361.398L357.664 108H356.062L352.305 95.875H353.969L356.602 104.344L356.945 105.578L357.25 104.352L359.883 95.875ZM370.125 107.422C368.964 107.974 367.865 108.25 366.828 108.25C366.042 108.25 365.339 108.055 364.719 107.664C364.099 107.273 363.602 106.716 363.227 105.992C362.857 105.263 362.672 104.484 362.672 103.656C362.672 102.859 362.849 102.094 363.203 101.359C363.557 100.625 364.052 100.055 364.688 99.6484C365.323 99.237 366.031 99.0312 366.812 99.0312C367.849 99.0312 368.68 99.401 369.305 100.141C369.935 100.88 370.25 102.021 370.25 103.562V103.875H364.234C364.234 104.479 364.359 105.031 364.609 105.531C364.865 106.031 365.198 106.406 365.609 106.656C366.021 106.906 366.49 107.031 367.016 107.031C367.953 107.031 368.99 106.719 370.125 106.094V107.422ZM364.32 102.789H368.672V102.578C368.672 101.865 368.497 101.297 368.148 100.875C367.799 100.453 367.333 100.242 366.75 100.242C366.161 100.242 365.651 100.458 365.219 100.891C364.792 101.318 364.492 101.951 364.32 102.789ZM373.219 108V99.2734H374.672V101.18C375.125 100.461 375.643 99.9245 376.227 99.5703C376.815 99.2109 377.469 99.0312 378.188 99.0312C378.714 99.0312 379.24 99.112 379.766 99.2734V102.422H378.367V100.43C378.122 100.388 377.93 100.367 377.789 100.367C377.247 100.367 376.716 100.581 376.195 101.008C375.674 101.435 375.167 102.076 374.672 102.93V108H373.219Z" fill="black"/>
<path d="M452.805 108.242C451.555 108.242 450.555 107.807 449.805 106.938C449.055 106.062 448.68 104.961 448.68 103.633C448.68 102.305 449.055 101.206 449.805 100.336C450.555 99.4661 451.555 99.0312 452.805 99.0312C454.049 99.0312 455.047 99.4661 455.797 100.336C456.547 101.206 456.922 102.305 456.922 103.633C456.922 104.961 456.547 106.062 455.797 106.938C455.047 107.807 454.049 108.242 452.805 108.242ZM452.805 107.031C453.581 107.031 454.198 106.729 454.656 106.125C455.115 105.521 455.344 104.69 455.344 103.633C455.344 102.581 455.115 101.753 454.656 101.148C454.198 100.544 453.581 100.242 452.805 100.242C452.023 100.242 451.404 100.544 450.945 101.148C450.487 101.753 450.258 102.581 450.258 103.633C450.258 104.69 450.487 105.521 450.945 106.125C451.404 106.729 452.023 107.031 452.805 107.031ZM460.164 101.234C460.612 100.505 461.146 99.9557 461.766 99.5859C462.385 99.2161 462.956 99.0312 463.477 99.0312C464.206 99.0312 464.862 99.3464 465.445 99.9766C466.029 100.607 466.32 101.562 466.32 102.844C466.32 103.854 466.125 104.758 465.734 105.555C465.349 106.346 464.833 106.974 464.188 107.438C463.542 107.896 462.742 108.125 461.789 108.125C461.518 108.125 461.102 108.096 460.539 108.039C460.456 108.029 460.331 108.016 460.164 108V111.391H458.711V99.2734H460.164V101.234ZM460.164 102.961V106.703C460.69 106.839 461.174 106.906 461.617 106.906C462.497 106.906 463.237 106.562 463.836 105.875C464.44 105.182 464.742 104.237 464.742 103.039C464.742 102.169 464.578 101.516 464.25 101.078C463.922 100.641 463.549 100.422 463.133 100.422C462.68 100.422 462.18 100.651 461.633 101.109C461.091 101.568 460.602 102.185 460.164 102.961Z" fill="black"/>
<path d="M604.312 107.539V106C604.896 106.38 605.513 106.648 606.164 106.805C606.815 106.956 607.367 107.031 607.82 107.031C608.555 107.031 609.083 106.914 609.406 106.68C609.729 106.44 609.891 106.143 609.891 105.789C609.891 105.555 609.815 105.354 609.664 105.188C609.513 105.021 609.138 104.815 608.539 104.57L608.039 104.367L607.031 103.969C605.948 103.547 605.266 103.156 604.984 102.797C604.698 102.443 604.555 102.01 604.555 101.5C604.555 100.781 604.831 100.19 605.383 99.7266C605.94 99.263 606.841 99.0312 608.086 99.0312C609.018 99.0312 609.901 99.1667 610.734 99.4375V100.758C609.776 100.414 608.875 100.242 608.031 100.242C607.417 100.242 606.935 100.352 606.586 100.57C606.242 100.784 606.07 101.052 606.07 101.375C606.07 101.688 606.221 101.938 606.523 102.125C606.82 102.312 607.305 102.529 607.977 102.773L608.961 103.133C609.862 103.461 610.495 103.818 610.859 104.203C611.224 104.589 611.406 105.07 611.406 105.648C611.406 106.404 611.115 107.026 610.531 107.516C609.953 108 609.026 108.242 607.75 108.242C606.635 108.242 605.49 108.008 604.312 107.539ZM621.078 107.422C619.917 107.974 618.818 108.25 617.781 108.25C616.995 108.25 616.292 108.055 615.672 107.664C615.052 107.273 614.555 106.716 614.18 105.992C613.81 105.263 613.625 104.484 613.625 103.656C613.625 102.859 613.802 102.094 614.156 101.359C614.51 100.625 615.005 100.055 615.641 99.6484C616.276 99.237 616.984 99.0312 617.766 99.0312C618.802 99.0312 619.633 99.401 620.258 100.141C620.888 100.88 621.203 102.021 621.203 103.562V103.875H615.188C615.188 104.479 615.312 105.031 615.562 105.531C615.818 106.031 616.151 106.406 616.562 106.656C616.974 106.906 617.443 107.031 617.969 107.031C618.906 107.031 619.943 106.719 621.078 106.094V107.422ZM615.273 102.789H619.625V102.578C619.625 101.865 619.451 101.297 619.102 100.875C618.753 100.453 618.286 100.242 617.703 100.242C617.115 100.242 616.604 100.458 616.172 100.891C615.745 101.318 615.445 101.951 615.273 102.789ZM629.258 106.039C628.815 106.768 628.281 107.318 627.656 107.688C627.036 108.057 626.466 108.242 625.945 108.242C625.216 108.242 624.56 107.927 623.977 107.297C623.398 106.667 623.109 105.711 623.109 104.43C623.109 103.419 623.302 102.518 623.688 101.727C624.073 100.93 624.589 100.302 625.234 99.8438C625.88 99.3802 626.68 99.1484 627.633 99.1484C627.909 99.1484 628.326 99.1771 628.883 99.2344C628.966 99.2448 629.091 99.2578 629.258 99.2734H630.719V111.391H629.258V106.039ZM629.258 104.312V100.57C628.742 100.435 628.263 100.367 627.82 100.367C626.924 100.367 626.177 100.714 625.578 101.406C624.984 102.099 624.688 103.042 624.688 104.234C624.688 105.099 624.849 105.753 625.172 106.195C625.5 106.633 625.872 106.852 626.289 106.852C626.742 106.852 627.242 106.622 627.789 106.164C628.336 105.706 628.826 105.089 629.258 104.312Z" fill="black"/>
<path d="M97.5547 101.234C98.0026 100.505 98.5365 99.9557 99.1562 99.5859C99.776 99.2161 100.346 99.0312 100.867 99.0312C101.596 99.0312 102.253 99.3464 102.836 99.9766C103.419 100.607 103.711 101.562 103.711 102.844C103.711 103.854 103.516 104.758 103.125 105.555C102.74 106.346 102.224 106.974 101.578 107.438C100.932 107.896 100.133 108.125 99.1797 108.125C98.9089 108.125 98.4922 108.096 97.9297 108.039C97.8464 108.029 97.7214 108.016 97.5547 108V111.391H96.1016V99.2734H97.5547V101.234ZM97.5547 102.961V106.703C98.0807 106.839 98.5651 106.906 99.0078 106.906C99.888 106.906 100.628 106.562 101.227 105.875C101.831 105.182 102.133 104.237 102.133 103.039C102.133 102.169 101.969 101.516 101.641 101.078C101.312 100.641 100.94 100.422 100.523 100.422C100.07 100.422 99.5703 100.651 99.0234 101.109C98.4818 101.568 97.9922 102.185 97.5547 102.961ZM111.555 106.039C111.112 106.768 110.578 107.318 109.953 107.688C109.333 108.057 108.763 108.242 108.242 108.242C107.513 108.242 106.857 107.927 106.273 107.297C105.695 106.667 105.406 105.711 105.406 104.43C105.406 103.419 105.599 102.518 105.984 101.727C106.37 100.93 106.885 100.302 107.531 99.8438C108.177 99.3802 108.977 99.1484 109.93 99.1484C110.206 99.1484 110.622 99.1771 111.18 99.2344C111.263 99.2448 111.388 99.2578 111.555 99.2734H113.016V105.438C113.016 106.49 113.125 107.344 113.344 108H111.828C111.714 107.521 111.622 106.867 111.555 106.039ZM111.555 104.312V100.57C111.039 100.435 110.56 100.367 110.117 100.367C109.221 100.367 108.474 100.714 107.875 101.406C107.281 102.099 106.984 103.042 106.984 104.234C106.984 105.099 107.146 105.753 107.469 106.195C107.797 106.633 108.169 106.852 108.586 106.852C109.039 106.852 109.539 106.622 110.086 106.164C110.633 105.706 111.122 105.089 111.555 104.312ZM122.773 107.75C121.799 108.078 120.872 108.242 119.992 108.242C119.117 108.242 118.339 108.042 117.656 107.641C116.979 107.234 116.451 106.688 116.07 106C115.69 105.307 115.5 104.521 115.5 103.641C115.5 102.318 115.93 101.219 116.789 100.344C117.654 99.4688 118.695 99.0312 119.914 99.0312C120.815 99.0312 121.768 99.2005 122.773 99.5391V100.938C121.758 100.474 120.849 100.242 120.047 100.242C119.516 100.242 119.016 100.375 118.547 100.641C118.078 100.901 117.716 101.31 117.461 101.867C117.206 102.424 117.078 102.997 117.078 103.586C117.078 104.372 117.323 105.122 117.812 105.836C118.307 106.549 119.081 106.906 120.133 106.906C120.451 106.906 120.763 106.885 121.07 106.844C121.378 106.797 121.945 106.633 122.773 106.352V107.75ZM125.43 108V95.3906H126.883V103.312L131.078 99.2734H133.016L128.828 103.312L133.125 108H131.125L126.883 103.312V108H125.43ZM141.906 107.422C140.745 107.974 139.646 108.25 138.609 108.25C137.823 108.25 137.12 108.055 136.5 107.664C135.88 107.273 135.383 106.716 135.008 105.992C134.638 105.263 134.453 104.484 134.453 103.656C134.453 102.859 134.63 102.094 134.984 101.359C135.339 100.625 135.833 100.055 136.469 99.6484C137.104 99.237 137.812 99.0312 138.594 99.0312C139.63 99.0312 140.461 99.401 141.086 100.141C141.716 100.88 142.031 102.021 142.031 103.562V103.875H136.016C136.016 104.479 136.141 105.031 136.391 105.531C136.646 106.031 136.979 106.406 137.391 106.656C137.802 106.906 138.271 107.031 138.797 107.031C139.734 107.031 140.771 106.719 141.906 106.094V107.422ZM136.102 102.789H140.453V102.578C140.453 101.865 140.279 101.297 139.93 100.875C139.581 100.453 139.115 100.242 138.531 100.242C137.943 100.242 137.432 100.458 137 100.891C136.573 101.318 136.273 101.951 136.102 102.789ZM151.555 107.648C150.872 107.935 150.378 108.104 150.07 108.156C149.763 108.214 149.466 108.242 149.18 108.242C148.57 108.242 148.013 108.125 147.508 107.891C147.003 107.656 146.62 107.31 146.359 106.852C146.104 106.393 145.977 105.685 145.977 104.727V101.211H143.797V100H145.977V96.4844H147.43V100H151.312V101.211H147.43V104.703C147.43 105.406 147.513 105.904 147.68 106.195C147.846 106.482 148.068 106.693 148.344 106.828C148.625 106.964 148.956 107.031 149.336 107.031C150.039 107.031 150.779 106.81 151.555 106.367V107.648ZM160.914 106.664V108H154.367V95.875H155.945V106.664H160.914ZM170.734 107.422C169.573 107.974 168.474 108.25 167.438 108.25C166.651 108.25 165.948 108.055 165.328 107.664C164.708 107.273 164.211 106.716 163.836 105.992C163.466 105.263 163.281 104.484 163.281 103.656C163.281 102.859 163.458 102.094 163.812 101.359C164.167 100.625 164.661 100.055 165.297 99.6484C165.932 99.237 166.641 99.0312 167.422 99.0312C168.458 99.0312 169.289 99.401 169.914 100.141C170.544 100.88 170.859 102.021 170.859 103.562V103.875H164.844C164.844 104.479 164.969 105.031 165.219 105.531C165.474 106.031 165.807 106.406 166.219 106.656C166.63 106.906 167.099 107.031 167.625 107.031C168.562 107.031 169.599 106.719 170.734 106.094V107.422ZM164.93 102.789H169.281V102.578C169.281 101.865 169.107 101.297 168.758 100.875C168.409 100.453 167.943 100.242 167.359 100.242C166.771 100.242 166.26 100.458 165.828 100.891C165.401 101.318 165.102 101.951 164.93 102.789ZM173.086 108V99.2734H174.539V101.18C174.956 100.508 175.458 99.9818 176.047 99.6016C176.635 99.2214 177.224 99.0312 177.812 99.0312C178.328 99.0312 178.797 99.1693 179.219 99.4453C179.641 99.7161 179.935 100.073 180.102 100.516C180.273 100.958 180.359 101.828 180.359 103.125V108H178.906V102.945C178.906 102.107 178.865 101.555 178.781 101.289C178.703 101.018 178.555 100.797 178.336 100.625C178.122 100.453 177.888 100.367 177.633 100.367C177.122 100.367 176.573 100.609 175.984 101.094C175.401 101.578 174.919 102.185 174.539 102.914V108H173.086Z" fill="black"/>
<path d="M240.211 108V95.3906H241.664V101.18C242.081 100.508 242.583 99.9818 243.172 99.6016C243.76 99.2214 244.349 99.0312 244.938 99.0312C245.432 99.0312 245.883 99.1589 246.289 99.4141C246.701 99.6641 246.987 99.9688 247.148 100.328C247.279 100.604 247.367 100.898 247.414 101.211C247.461 101.518 247.484 102.156 247.484 103.125V108H246.031V102.945C246.031 102.107 245.99 101.555 245.906 101.289C245.828 101.018 245.68 100.797 245.461 100.625C245.247 100.453 245.013 100.367 244.758 100.367C244.247 100.367 243.698 100.609 243.109 101.094C242.526 101.578 242.044 102.185 241.664 102.914V108H240.211ZM256.867 106.664V108H250.32V95.875H251.898V106.664H256.867ZM266.688 107.422C265.526 107.974 264.427 108.25 263.391 108.25C262.604 108.25 261.901 108.055 261.281 107.664C260.661 107.273 260.164 106.716 259.789 105.992C259.419 105.263 259.234 104.484 259.234 103.656C259.234 102.859 259.411 102.094 259.766 101.359C260.12 100.625 260.615 100.055 261.25 99.6484C261.885 99.237 262.594 99.0312 263.375 99.0312C264.411 99.0312 265.242 99.401 265.867 100.141C266.497 100.88 266.812 102.021 266.812 103.562V103.875H260.797C260.797 104.479 260.922 105.031 261.172 105.531C261.427 106.031 261.76 106.406 262.172 106.656C262.583 106.906 263.052 107.031 263.578 107.031C264.516 107.031 265.552 106.719 266.688 106.094V107.422ZM260.883 102.789H265.234V102.578C265.234 101.865 265.06 101.297 264.711 100.875C264.362 100.453 263.896 100.242 263.312 100.242C262.724 100.242 262.214 100.458 261.781 100.891C261.354 101.318 261.055 101.951 260.883 102.789ZM269.039 108V99.2734H270.492V101.18C270.909 100.508 271.411 99.9818 272 99.6016C272.589 99.2214 273.177 99.0312 273.766 99.0312C274.281 99.0312 274.75 99.1693 275.172 99.4453C275.594 99.7161 275.888 100.073 276.055 100.516C276.227 100.958 276.312 101.828 276.312 103.125V108H274.859V102.945C274.859 102.107 274.818 101.555 274.734 101.289C274.656 101.018 274.508 100.797 274.289 100.625C274.076 100.453 273.841 100.367 273.586 100.367C273.076 100.367 272.526 100.609 271.938 101.094C271.354 101.578 270.872 102.185 270.492 102.914V108H269.039Z" fill="black"/>
<path d="M344.109 225.469C345.005 224.01 346.073 222.911 347.312 222.172C348.552 221.432 349.693 221.062 350.734 221.062C352.193 221.062 353.505 221.693 354.672 222.953C355.839 224.214 356.422 226.125 356.422 228.688C356.422 230.708 356.031 232.516 355.25 234.109C354.479 235.693 353.448 236.948 352.156 237.875C350.865 238.792 349.266 239.25 347.359 239.25C346.818 239.25 345.984 239.193 344.859 239.078C344.693 239.057 344.443 239.031 344.109 239H341.203V213.781H344.109V225.469ZM344.109 228.922V236.406C345.161 236.677 346.13 236.812 347.016 236.812C348.776 236.812 350.255 236.125 351.453 234.75C352.661 233.365 353.266 231.474 353.266 229.078C353.266 227.339 352.938 226.031 352.281 225.156C351.625 224.281 350.88 223.844 350.047 223.844C349.141 223.844 348.141 224.302 347.047 225.219C345.964 226.135 344.984 227.37 344.109 228.922ZM367.828 239.484C365.328 239.484 363.328 238.615 361.828 236.875C360.328 235.125 359.578 232.922 359.578 230.266C359.578 227.609 360.328 225.411 361.828 223.672C363.328 221.932 365.328 221.062 367.828 221.062C370.318 221.062 372.312 221.932 373.812 223.672C375.312 225.411 376.062 227.609 376.062 230.266C376.062 232.922 375.312 235.125 373.812 236.875C372.312 238.615 370.318 239.484 367.828 239.484ZM367.828 237.062C369.38 237.062 370.615 236.458 371.531 235.25C372.448 234.042 372.906 232.38 372.906 230.266C372.906 228.161 372.448 226.505 371.531 225.297C370.615 224.089 369.38 223.484 367.828 223.484C366.266 223.484 365.026 224.089 364.109 225.297C363.193 226.505 362.734 228.161 362.734 230.266C362.734 232.38 363.193 234.042 364.109 235.25C365.026 236.458 366.266 237.062 367.828 237.062ZM391.516 235.078C390.63 236.536 389.562 237.635 388.312 238.375C387.073 239.115 385.932 239.484 384.891 239.484C383.432 239.484 382.12 238.854 380.953 237.594C379.797 236.333 379.219 234.422 379.219 231.859C379.219 229.839 379.604 228.036 380.375 226.453C381.146 224.859 382.177 223.604 383.469 222.688C384.76 221.76 386.359 221.297 388.266 221.297C388.818 221.297 389.651 221.354 390.766 221.469C390.932 221.49 391.182 221.516 391.516 221.547V213.781H394.438V239H391.516V235.078ZM391.516 231.625V224.141C390.484 223.87 389.526 223.734 388.641 223.734C386.849 223.734 385.354 224.427 384.156 225.812C382.969 227.198 382.375 229.083 382.375 231.469C382.375 233.198 382.698 234.505 383.344 235.391C384 236.266 384.745 236.703 385.578 236.703C386.484 236.703 387.484 236.245 388.578 235.328C389.672 234.411 390.651 233.177 391.516 231.625ZM405.5 238.297L397.438 221.547H400.641L407.062 234.641L412.438 221.547H415.359L408.594 237.766C407.167 241.193 405.807 243.469 404.516 244.594C403.234 245.719 401.573 246.281 399.531 246.281C398.646 246.281 397.854 246.203 397.156 246.047V243.484C397.958 243.734 398.724 243.859 399.453 243.859C400.391 243.859 401.224 243.677 401.953 243.312C402.682 242.948 403.349 242.302 403.953 241.375C404.557 240.448 404.984 239.646 405.234 238.969L405.5 238.297Z" fill="black"/>
<path d="M117.656 158V150.484H115.234V149.273H119.109V156.789H121.539V158H117.656ZM117.414 146.125C117.414 145.797 117.526 145.552 117.75 145.391C117.974 145.229 118.185 145.148 118.383 145.148C118.586 145.148 118.799 145.229 119.023 145.391C119.247 145.552 119.359 145.797 119.359 146.125C119.359 146.448 119.247 146.69 119.023 146.852C118.799 147.013 118.586 147.094 118.383 147.094C118.185 147.094 117.974 147.013 117.75 146.852C117.526 146.69 117.414 146.448 117.414 146.125ZM124.82 158V149.273H126.273V151.18C126.69 150.508 127.193 149.982 127.781 149.602C128.37 149.221 128.958 149.031 129.547 149.031C130.062 149.031 130.531 149.169 130.953 149.445C131.375 149.716 131.669 150.073 131.836 150.516C132.008 150.958 132.094 151.828 132.094 153.125V158H130.641V152.945C130.641 152.107 130.599 151.555 130.516 151.289C130.438 151.018 130.289 150.797 130.07 150.625C129.857 150.453 129.622 150.367 129.367 150.367C128.857 150.367 128.307 150.609 127.719 151.094C127.135 151.578 126.654 152.185 126.273 152.914V158H124.82ZM141.727 157.648C141.044 157.935 140.549 158.104 140.242 158.156C139.935 158.214 139.638 158.242 139.352 158.242C138.742 158.242 138.185 158.125 137.68 157.891C137.174 157.656 136.792 157.31 136.531 156.852C136.276 156.393 136.148 155.685 136.148 154.727V151.211H133.969V150H136.148V146.484H137.602V150H141.484V151.211H137.602V154.703C137.602 155.406 137.685 155.904 137.852 156.195C138.018 156.482 138.24 156.693 138.516 156.828C138.797 156.964 139.128 157.031 139.508 157.031C140.211 157.031 140.951 156.81 141.727 156.367V157.648ZM143.961 157.781V156.25C145.154 156.854 146.188 157.156 147.062 157.156C147.865 157.156 148.526 156.914 149.047 156.43C149.573 155.94 149.836 155.312 149.836 154.547C149.836 153.776 149.547 153.148 148.969 152.664C148.396 152.18 147.419 151.938 146.039 151.938H145.234V150.727H146.352C147.367 150.727 148.102 150.5 148.555 150.047C149.008 149.589 149.234 149.081 149.234 148.523C149.234 148.018 149.049 147.594 148.68 147.25C148.31 146.901 147.742 146.727 146.977 146.727C146.117 146.727 145.193 146.969 144.203 147.453V146.07C145.193 145.701 146.099 145.516 146.922 145.516C148.396 145.516 149.411 145.807 149.969 146.391C150.531 146.969 150.812 147.63 150.812 148.375C150.812 148.927 150.664 149.445 150.367 149.93C150.07 150.414 149.523 150.846 148.727 151.227C149.43 151.435 149.961 151.69 150.32 151.992C150.68 152.294 150.951 152.651 151.133 153.062C151.32 153.474 151.414 153.935 151.414 154.445C151.414 155.581 150.992 156.518 150.148 157.258C149.31 157.997 148.224 158.367 146.891 158.367C146.505 158.367 146.083 158.339 145.625 158.281C145.172 158.224 144.617 158.057 143.961 157.781ZM160.938 158H153.602V156.664C153.602 156.32 153.672 155.953 153.812 155.562C153.953 155.167 154.221 154.724 154.617 154.234C155.013 153.745 155.432 153.273 155.875 152.82L156.703 151.977C156.87 151.805 157.234 151.406 157.797 150.781C158.359 150.156 158.729 149.677 158.906 149.344C159.089 149.01 159.18 148.682 159.18 148.359C159.18 147.839 158.971 147.438 158.555 147.156C158.138 146.87 157.669 146.727 157.148 146.727C156.852 146.727 156.518 146.76 156.148 146.828C155.784 146.896 155.464 146.977 155.188 147.07C154.911 147.159 154.464 147.344 153.844 147.625V146.336C154.5 146.023 155.156 145.81 155.812 145.695C156.474 145.576 157.018 145.516 157.445 145.516C158.076 145.516 158.654 145.62 159.18 145.828C159.711 146.031 160.104 146.349 160.359 146.781C160.62 147.214 160.75 147.674 160.75 148.164C160.75 148.711 160.583 149.271 160.25 149.844C159.922 150.417 159.299 151.154 158.383 152.055L157.492 152.938L156.742 153.672C156.268 154.151 155.885 154.615 155.594 155.062C155.302 155.51 155.141 156.044 155.109 156.664H160.938V158Z" fill="black"/>
<path d="M436.656 158V150.484H434.234V149.273H438.109V156.789H440.539V158H436.656ZM436.414 146.125C436.414 145.797 436.526 145.552 436.75 145.391C436.974 145.229 437.185 145.148 437.383 145.148C437.586 145.148 437.799 145.229 438.023 145.391C438.247 145.552 438.359 145.797 438.359 146.125C438.359 146.448 438.247 146.69 438.023 146.852C437.799 147.013 437.586 147.094 437.383 147.094C437.185 147.094 436.974 147.013 436.75 146.852C436.526 146.69 436.414 146.448 436.414 146.125ZM443.82 158V149.273H445.273V151.18C445.69 150.508 446.193 149.982 446.781 149.602C447.37 149.221 447.958 149.031 448.547 149.031C449.062 149.031 449.531 149.169 449.953 149.445C450.375 149.716 450.669 150.073 450.836 150.516C451.008 150.958 451.094 151.828 451.094 153.125V158H449.641V152.945C449.641 152.107 449.599 151.555 449.516 151.289C449.438 151.018 449.289 150.797 449.07 150.625C448.857 150.453 448.622 150.367 448.367 150.367C447.857 150.367 447.307 150.609 446.719 151.094C446.135 151.578 445.654 152.185 445.273 152.914V158H443.82ZM460.727 157.648C460.044 157.935 459.549 158.104 459.242 158.156C458.935 158.214 458.638 158.242 458.352 158.242C457.742 158.242 457.185 158.125 456.68 157.891C456.174 157.656 455.792 157.31 455.531 156.852C455.276 156.393 455.148 155.685 455.148 154.727V151.211H452.969V150H455.148V146.484H456.602V150H460.484V151.211H456.602V154.703C456.602 155.406 456.685 155.904 456.852 156.195C457.018 156.482 457.24 156.693 457.516 156.828C457.797 156.964 458.128 157.031 458.508 157.031C459.211 157.031 459.951 156.81 460.727 156.367V157.648ZM462.961 157.781V156.25C464.154 156.854 465.188 157.156 466.062 157.156C466.865 157.156 467.526 156.914 468.047 156.43C468.573 155.94 468.836 155.312 468.836 154.547C468.836 153.776 468.547 153.148 467.969 152.664C467.396 152.18 466.419 151.938 465.039 151.938H464.234V150.727H465.352C466.367 150.727 467.102 150.5 467.555 150.047C468.008 149.589 468.234 149.081 468.234 148.523C468.234 148.018 468.049 147.594 467.68 147.25C467.31 146.901 466.742 146.727 465.977 146.727C465.117 146.727 464.193 146.969 463.203 147.453V146.07C464.193 145.701 465.099 145.516 465.922 145.516C467.396 145.516 468.411 145.807 468.969 146.391C469.531 146.969 469.812 147.63 469.812 148.375C469.812 148.927 469.664 149.445 469.367 149.93C469.07 150.414 468.523 150.846 467.727 151.227C468.43 151.435 468.961 151.69 469.32 151.992C469.68 152.294 469.951 152.651 470.133 153.062C470.32 153.474 470.414 153.935 470.414 154.445C470.414 155.581 469.992 156.518 469.148 157.258C468.31 157.997 467.224 158.367 465.891 158.367C465.505 158.367 465.083 158.339 464.625 158.281C464.172 158.224 463.617 158.057 462.961 157.781ZM479.938 158H472.602V156.664C472.602 156.32 472.672 155.953 472.812 155.562C472.953 155.167 473.221 154.724 473.617 154.234C474.013 153.745 474.432 153.273 474.875 152.82L475.703 151.977C475.87 151.805 476.234 151.406 476.797 150.781C477.359 150.156 477.729 149.677 477.906 149.344C478.089 149.01 478.18 148.682 478.18 148.359C478.18 147.839 477.971 147.438 477.555 147.156C477.138 146.87 476.669 146.727 476.148 146.727C475.852 146.727 475.518 146.76 475.148 146.828C474.784 146.896 474.464 146.977 474.188 147.07C473.911 147.159 473.464 147.344 472.844 147.625V146.336C473.5 146.023 474.156 145.81 474.812 145.695C475.474 145.576 476.018 145.516 476.445 145.516C477.076 145.516 477.654 145.62 478.18 145.828C478.711 146.031 479.104 146.349 479.359 146.781C479.62 147.214 479.75 147.674 479.75 148.164C479.75 148.711 479.583 149.271 479.25 149.844C478.922 150.417 478.299 151.154 477.383 152.055L476.492 152.938L475.742 153.672C475.268 154.151 474.885 154.615 474.594 155.062C474.302 155.51 474.141 156.044 474.109 156.664H479.938V158Z" fill="black"/>
<path d="M596.656 158V150.484H594.234V149.273H598.109V156.789H600.539V158H596.656ZM596.414 146.125C596.414 145.797 596.526 145.552 596.75 145.391C596.974 145.229 597.185 145.148 597.383 145.148C597.586 145.148 597.799 145.229 598.023 145.391C598.247 145.552 598.359 145.797 598.359 146.125C598.359 146.448 598.247 146.69 598.023 146.852C597.799 147.013 597.586 147.094 597.383 147.094C597.185 147.094 596.974 147.013 596.75 146.852C596.526 146.69 596.414 146.448 596.414 146.125ZM603.82 158V149.273H605.273V151.18C605.69 150.508 606.193 149.982 606.781 149.602C607.37 149.221 607.958 149.031 608.547 149.031C609.062 149.031 609.531 149.169 609.953 149.445C610.375 149.716 610.669 150.073 610.836 150.516C611.008 150.958 611.094 151.828 611.094 153.125V158H609.641V152.945C609.641 152.107 609.599 151.555 609.516 151.289C609.438 151.018 609.289 150.797 609.07 150.625C608.857 150.453 608.622 150.367 608.367 150.367C607.857 150.367 607.307 150.609 606.719 151.094C606.135 151.578 605.654 152.185 605.273 152.914V158H603.82ZM620.727 157.648C620.044 157.935 619.549 158.104 619.242 158.156C618.935 158.214 618.638 158.242 618.352 158.242C617.742 158.242 617.185 158.125 616.68 157.891C616.174 157.656 615.792 157.31 615.531 156.852C615.276 156.393 615.148 155.685 615.148 154.727V151.211H612.969V150H615.148V146.484H616.602V150H620.484V151.211H616.602V154.703C616.602 155.406 616.685 155.904 616.852 156.195C617.018 156.482 617.24 156.693 617.516 156.828C617.797 156.964 618.128 157.031 618.508 157.031C619.211 157.031 619.951 156.81 620.727 156.367V157.648ZM622.961 157.781V156.25C624.154 156.854 625.188 157.156 626.062 157.156C626.865 157.156 627.526 156.914 628.047 156.43C628.573 155.94 628.836 155.312 628.836 154.547C628.836 153.776 628.547 153.148 627.969 152.664C627.396 152.18 626.419 151.938 625.039 151.938H624.234V150.727H625.352C626.367 150.727 627.102 150.5 627.555 150.047C628.008 149.589 628.234 149.081 628.234 148.523C628.234 148.018 628.049 147.594 627.68 147.25C627.31 146.901 626.742 146.727 625.977 146.727C625.117 146.727 624.193 146.969 623.203 147.453V146.07C624.193 145.701 625.099 145.516 625.922 145.516C627.396 145.516 628.411 145.807 628.969 146.391C629.531 146.969 629.812 147.63 629.812 148.375C629.812 148.927 629.664 149.445 629.367 149.93C629.07 150.414 628.523 150.846 627.727 151.227C628.43 151.435 628.961 151.69 629.32 151.992C629.68 152.294 629.951 152.651 630.133 153.062C630.32 153.474 630.414 153.935 630.414 154.445C630.414 155.581 629.992 156.518 629.148 157.258C628.31 157.997 627.224 158.367 625.891 158.367C625.505 158.367 625.083 158.339 624.625 158.281C624.172 158.224 623.617 158.057 622.961 157.781ZM639.938 158H632.602V156.664C632.602 156.32 632.672 155.953 632.812 155.562C632.953 155.167 633.221 154.724 633.617 154.234C634.013 153.745 634.432 153.273 634.875 152.82L635.703 151.977C635.87 151.805 636.234 151.406 636.797 150.781C637.359 150.156 637.729 149.677 637.906 149.344C638.089 149.01 638.18 148.682 638.18 148.359C638.18 147.839 637.971 147.438 637.555 147.156C637.138 146.87 636.669 146.727 636.148 146.727C635.852 146.727 635.518 146.76 635.148 146.828C634.784 146.896 634.464 146.977 634.188 147.07C633.911 147.159 633.464 147.344 632.844 147.625V146.336C633.5 146.023 634.156 145.81 634.812 145.695C635.474 145.576 636.018 145.516 636.445 145.516C637.076 145.516 637.654 145.62 638.18 145.828C638.711 146.031 639.104 146.349 639.359 146.781C639.62 147.214 639.75 147.674 639.75 148.164C639.75 148.711 639.583 149.271 639.25 149.844C638.922 150.417 638.299 151.154 637.383 152.055L636.492 152.938L635.742 153.672C635.268 154.151 634.885 154.615 634.594 155.062C634.302 155.51 634.141 156.044 634.109 156.664H639.938V158Z" fill="black"/>
<path d="M197.109 39.4688C198.005 38.0104 199.073 36.9115 200.312 36.1719C201.552 35.4323 202.693 35.0625 203.734 35.0625C205.193 35.0625 206.505 35.6927 207.672 36.9531C208.839 38.2135 209.422 40.125 209.422 42.6875C209.422 44.7083 209.031 46.5156 208.25 48.1094C207.479 49.6927 206.448 50.9479 205.156 51.875C203.865 52.7917 202.266 53.25 200.359 53.25C199.818 53.25 198.984 53.1927 197.859 53.0781C197.693 53.0573 197.443 53.0312 197.109 53V59.7812H194.203V35.5469H197.109V39.4688ZM197.109 42.9219V50.4062C198.161 50.6771 199.13 50.8125 200.016 50.8125C201.776 50.8125 203.255 50.125 204.453 48.75C205.661 47.3646 206.266 45.474 206.266 43.0781C206.266 41.3385 205.938 40.0312 205.281 39.1562C204.625 38.2812 203.88 37.8438 203.047 37.8438C202.141 37.8438 201.141 38.3021 200.047 39.2188C198.964 40.1354 197.984 41.3698 197.109 42.9219ZM225.109 49.0781C224.224 50.5365 223.156 51.6354 221.906 52.375C220.667 53.1146 219.526 53.4844 218.484 53.4844C217.026 53.4844 215.714 52.8542 214.547 51.5938C213.391 50.3333 212.812 48.4219 212.812 45.8594C212.812 43.8385 213.198 42.0365 213.969 40.4531C214.74 38.8594 215.771 37.6042 217.062 36.6875C218.354 35.7604 219.953 35.2969 221.859 35.2969C222.411 35.2969 223.245 35.3542 224.359 35.4688C224.526 35.4896 224.776 35.5156 225.109 35.5469H228.031V47.875C228.031 49.9792 228.25 51.6875 228.688 53H225.656C225.427 52.0417 225.245 50.7344 225.109 49.0781ZM225.109 45.625V38.1406C224.078 37.8698 223.12 37.7344 222.234 37.7344C220.443 37.7344 218.948 38.4271 217.75 39.8125C216.562 41.1979 215.969 43.0833 215.969 45.4688C215.969 47.1979 216.292 48.5052 216.938 49.3906C217.594 50.2656 218.339 50.7031 219.172 50.7031C220.078 50.7031 221.078 50.2448 222.172 49.3281C223.266 48.4115 224.245 47.1771 225.109 45.625ZM247.547 52.5C245.599 53.1562 243.745 53.4844 241.984 53.4844C240.234 53.4844 238.677 53.0833 237.312 52.2812C235.958 51.4688 234.901 50.375 234.141 49C233.38 47.6146 233 46.0417 233 44.2812C233 41.6354 233.859 39.4375 235.578 37.6875C237.307 35.9375 239.391 35.0625 241.828 35.0625C243.63 35.0625 245.536 35.401 247.547 36.0781V38.875C245.516 37.9479 243.698 37.4844 242.094 37.4844C241.031 37.4844 240.031 37.75 239.094 38.2812C238.156 38.8021 237.432 39.6198 236.922 40.7344C236.411 41.849 236.156 42.9948 236.156 44.1719C236.156 45.7448 236.646 47.2448 237.625 48.6719C238.615 50.099 240.161 50.8125 242.266 50.8125C242.901 50.8125 243.526 50.7708 244.141 50.6875C244.755 50.5938 245.891 50.2656 247.547 49.7031V52.5ZM252.859 53V27.7812H255.766V43.625L264.156 35.5469H268.031L259.656 43.625L268.25 53H264.25L255.766 43.625V53H252.859ZM285.812 51.8438C283.49 52.9479 281.292 53.5 279.219 53.5C277.646 53.5 276.24 53.1094 275 52.3281C273.76 51.5469 272.766 50.4323 272.016 48.9844C271.276 47.526 270.906 45.9688 270.906 44.3125C270.906 42.7188 271.26 41.1875 271.969 39.7188C272.677 38.25 273.667 37.1094 274.938 36.2969C276.208 35.474 277.625 35.0625 279.188 35.0625C281.26 35.0625 282.922 35.8021 284.172 37.2812C285.432 38.7604 286.062 41.0417 286.062 44.125V44.75H274.031C274.031 45.9583 274.281 47.0625 274.781 48.0625C275.292 49.0625 275.958 49.8125 276.781 50.3125C277.604 50.8125 278.542 51.0625 279.594 51.0625C281.469 51.0625 283.542 50.4375 285.812 49.1875V51.8438ZM274.203 42.5781H282.906V42.1562C282.906 40.7292 282.557 39.5938 281.859 38.75C281.161 37.9062 280.229 37.4844 279.062 37.4844C277.885 37.4844 276.865 37.9167 276 38.7812C275.146 39.6354 274.547 40.901 274.203 42.5781ZM305.109 52.2969C303.745 52.8698 302.755 53.2083 302.141 53.3125C301.526 53.4271 300.932 53.4844 300.359 53.4844C299.141 53.4844 298.026 53.25 297.016 52.7812C296.005 52.3125 295.24 51.6198 294.719 50.7031C294.208 49.7865 293.953 48.3698 293.953 46.4531V39.4219H289.594V37H293.953V29.9688H296.859V37H304.625V39.4219H296.859V46.4062C296.859 47.8125 297.026 48.8073 297.359 49.3906C297.693 49.9635 298.135 50.3854 298.688 50.6562C299.25 50.9271 299.911 51.0625 300.672 51.0625C302.078 51.0625 303.557 50.6198 305.109 49.7344V52.2969ZM309.457 47.176C309.457 46.696 311.025 45.992 311.025 45.992V45.96C313.841 42.76 316.689 38.312 318.961 33.928L316.977 32.808C315.057 37.16 311.953 41.736 310.993 42.92C310.065 44.104 309.393 44.936 308.753 45.064C309.009 45.64 309.361 46.728 309.457 47.176ZM309.457 47.176C310.065 46.824 311.057 46.504 318.129 44.84C318.065 44.36 317.969 43.496 317.969 42.856L310.385 44.456L309.329 45.256L309.457 47.176ZM309.265 39.496C309.265 39.016 310.673 38.248 310.673 38.248V38.184C312.753 35.272 314.929 31.016 316.465 26.92L314.193 26.12C313.041 30.024 310.897 34.216 310.225 35.272C309.585 36.392 309.041 37.16 308.497 37.288C308.753 37.896 309.137 39.016 309.265 39.496ZM309.265 39.496C309.777 39.24 310.641 39.016 315.665 38.376C315.697 37.896 315.76 37 315.889 36.392L310.321 36.968L309.201 37.704L309.265 39.496ZM308.593 51.304L309.169 53.48C311.761 52.424 315.121 51.08 318.353 49.736L317.937 47.816C314.449 49.128 310.929 50.504 308.593 51.304ZM327.249 40.936V54.536H328.881V40.936H327.249ZM331.153 40.904V54.504H332.785V40.904H331.153ZM335.153 39.816V53.224C335.153 53.48 335.089 53.544 334.865 53.544C334.641 53.544 334.033 53.544 333.329 53.544C333.585 54.024 333.809 54.824 333.905 55.336C335.025 55.336 335.793 55.304 336.369 54.984C336.945 54.664 337.073 54.12 337.073 53.256V39.816H335.153ZM320.561 29.608V36.52C320.561 41.448 320.273 48.552 317.329 53.672C317.841 53.928 318.801 54.632 319.185 55.048C322.257 49.64 322.769 41.768 322.769 36.52V29.608H320.561ZM321.713 29.608V31.624H334.513V35.08H321.713V37.096H336.753V29.608H321.713ZM322.705 39.816V55.304H324.625V41.8H336.177V39.816H322.705ZM323.665 46.536V48.456H336.017V46.536H323.665ZM326.673 26.6C327.345 27.848 328.081 29.544 328.369 30.664L330.705 29.896C330.385 28.808 329.649 27.144 328.913 25.928L326.673 26.6ZM367.057 40.168V40.584C366.417 48.808 365.681 52.072 364.753 52.936C364.465 53.256 364.113 53.32 363.569 53.32C362.961 53.32 361.553 53.32 360.017 53.128C360.369 53.768 360.625 54.696 360.657 55.368C362.225 55.432 363.697 55.432 364.497 55.368C365.457 55.336 366.097 55.08 366.705 54.408C367.857 53.224 368.561 49.896 369.297 41.256C369.329 40.904 369.361 40.168 369.361 40.168H367.057ZM353.489 28.008V30.216H365.361V28.008H353.489ZM355.025 32.232C354.801 35.368 354.353 39.656 353.937 42.248H356.208C356.561 39.752 357.009 35.56 357.265 32.36L355.025 32.232ZM354.609 40.168V42.248H367.761V40.168H354.609ZM352.401 46.472V48.616H364.657V46.472H352.401ZM364.369 28.008V28.296C364.145 31.304 363.505 37.352 362.929 41.544L365.201 41.704C365.777 37.512 366.385 31.88 366.673 28.104L365.009 27.912L364.625 28.008H364.369ZM340.913 27.848V30.056H351.921V27.848H340.913ZM344.049 37.704V39.848H348.881V49.384H344.049V51.528H350.993V37.704H344.049ZM345.041 28.904C344.177 34.248 342.673 39.24 340.209 42.504C340.625 43.144 341.169 44.52 341.329 45.096C344.273 41.256 346.129 35.432 347.281 29.384L345.041 28.904ZM342.993 37.704V54.12H345.105V37.704H342.993ZM373.329 47.144C373.329 46.632 374.993 45.864 374.993 45.864V45.8C378.193 42.76 381.457 38.504 384.177 34.216L382.001 32.872C379.697 37.16 376.177 41.576 375.025 42.696C374.001 43.848 373.233 44.648 372.497 44.776C372.785 45.416 373.201 46.632 373.329 47.144ZM373.329 47.144C374.065 46.728 375.217 46.44 384.177 44.808C384.081 44.296 384.017 43.368 384.017 42.728L374.481 44.296L373.201 45.128L373.329 47.144ZM373.105 39.368C373.105 38.824 374.737 38.024 374.737 38.024V37.96C376.913 35.208 379.185 31.208 380.849 27.336L378.417 26.344C377.105 30.056 374.801 34.024 374.097 35.048C373.424 36.104 372.849 36.808 372.241 36.968C372.561 37.608 372.945 38.824 373.105 39.368ZM373.105 39.368C373.681 39.08 374.673 38.888 380.817 38.216C380.817 37.736 380.881 36.808 381.009 36.2L374.257 36.808L373.041 37.544L373.105 39.368ZM372.433 51.336L372.849 53.8C376.016 53.064 380.273 52.2 384.305 51.272L384.113 49.032C379.825 49.928 375.377 50.824 372.433 51.336ZM384.369 30.408V32.744H401.457V30.408H384.369ZM385.169 37.704V40.008H400.913V37.704H385.169ZM387.281 51.976V54.184H398.897V51.976H387.281ZM391.729 26.12V38.888H394.225V26.12H391.729ZM386.001 43.272V55.56H388.337V45.48H397.713V55.432H400.145V43.272H386.001ZM404.849 33V35.272H416.369V33H404.849ZM409.809 26.12V55.528H412.113V26.12H409.809ZM409.713 34.408C408.689 38.888 406.321 44.328 404.017 47.112C404.433 47.688 405.009 48.648 405.265 49.288C407.729 46.12 410.129 40.008 411.249 34.984L409.713 34.408ZM411.985 37.64L410.769 38.76C411.793 40.04 414.321 43.624 415.185 45.16L416.689 43.208C415.985 42.28 412.849 38.536 411.985 37.64ZM420.017 26.12C418.865 30.664 416.881 35.08 414.385 37.896C414.961 38.248 415.953 39.048 416.401 39.432C418.929 36.328 421.073 31.624 422.417 26.664L420.017 26.12ZM419.569 31.368L418.513 33.64H431.921V31.368H419.569ZM430.993 31.368V31.944C430.577 46.312 430.065 51.624 429.105 52.744C428.753 53.16 428.433 53.288 427.857 53.256C427.217 53.256 425.649 53.256 423.953 53.096C424.369 53.768 424.657 54.792 424.689 55.464C426.257 55.56 427.857 55.592 428.849 55.496C429.873 55.368 430.577 55.112 431.217 54.184C432.433 52.648 432.881 47.656 433.329 32.648C433.329 32.296 433.361 31.368 433.361 31.368H430.993ZM423.825 42.152C425.169 44.584 426.513 47.784 426.929 49.8L428.945 49.064C428.433 47.08 427.057 43.944 425.649 41.544L423.825 42.152ZM420.977 36.072C420.305 39.4 418.993 44.168 417.841 47.016L419.76 47.528C420.944 44.744 422.321 40.2 423.312 36.584L420.977 36.072ZM415.473 46.792L415.985 49.032C419.089 48.584 423.121 48.008 427.089 47.368L427.025 45.48C422.737 46.024 418.353 46.536 415.473 46.792ZM452.062 58.8125C449.177 58.6354 446.745 57.8177 444.766 56.3594C442.786 54.9115 441.203 52.9531 440.016 50.4844C438.839 48.0156 438.25 45.5417 438.25 43.0625C438.25 40.5833 438.839 38.1094 440.016 35.6406C441.203 33.1719 442.786 31.2135 444.766 29.7656C446.745 28.3073 449.177 27.4844 452.062 27.2969V29.7344C449.885 29.9323 448.01 30.6667 446.438 31.9375C444.875 33.1979 443.646 34.8073 442.75 36.7656C441.854 38.724 441.406 40.8229 441.406 43.0625C441.406 45.3021 441.854 47.401 442.75 49.3594C443.646 51.3177 444.875 52.9271 446.438 54.1875C448.01 55.4479 449.885 56.1823 452.062 56.3906V58.8125ZM456.195 37.736V40.04H484.899V37.736H456.195ZM458.179 28.264V30.568H483.043V28.264H458.179ZM470.883 41.352V51.56C470.883 54.44 471.811 55.24 475.139 55.24C475.843 55.24 480.483 55.24 481.219 55.24C484.323 55.24 485.059 53.896 485.411 48.744C484.739 48.616 483.651 48.2 483.075 47.752C482.883 52.168 482.659 52.872 481.059 52.872C480.035 52.872 476.131 52.872 475.395 52.872C473.699 52.872 473.379 52.648 473.379 51.56V41.352H470.883ZM468.867 29.192C468.707 40.744 468.707 49.672 455.811 53.608C456.355 54.12 457.059 55.016 457.347 55.656C470.755 51.272 471.075 41.544 471.299 29.192H468.867ZM491.491 27.656V29.992H517.091V27.656H491.491ZM490.211 27.656V38.024C490.211 42.856 490.019 49.544 487.523 54.248C488.099 54.504 489.091 55.208 489.507 55.592C492.099 50.6 492.483 43.144 492.483 38.024V27.656H490.211ZM492.675 51.912V54.216H516.995V51.912H492.675ZM494.755 38.6V40.904H515.459V38.6H494.755ZM503.491 31.72V53.32H505.955V31.72H503.491ZM508.419 44.36C510.147 45.864 512.035 48.008 512.931 49.416L514.755 48.04C513.827 46.632 511.939 44.68 510.147 43.208L508.419 44.36ZM520.739 47.176C520.739 46.728 522.275 46.024 522.275 46.024V45.992C525.027 42.856 527.811 38.536 530.051 34.248L528.131 33.16C526.211 37.384 523.203 41.896 522.243 43.016C521.347 44.2 520.643 45 520.003 45.096C520.259 45.672 520.611 46.728 520.739 47.176ZM520.739 47.176C521.283 46.824 522.243 46.504 528.707 44.872C528.643 44.392 528.579 43.56 528.611 42.92L521.603 44.488L520.579 45.288L520.739 47.176ZM520.515 39.496C520.515 39.016 521.923 38.28 521.923 38.28V38.216C524.131 35.304 526.275 31.176 527.907 27.208L525.795 26.248C524.515 30.088 522.243 34.248 521.571 35.336C520.867 36.424 520.355 37.192 519.779 37.32C520.067 37.928 520.387 39.016 520.515 39.496ZM520.515 39.496C521.059 39.24 521.923 39.048 526.947 38.472C526.947 37.992 527.011 37.128 527.139 36.52L521.603 37.032L520.483 37.736L520.515 39.496ZM519.939 51.304L520.515 53.576C523.171 52.584 526.627 51.208 529.923 49.928L529.507 47.944C525.955 49.224 522.371 50.536 519.939 51.304ZM540.931 35.56C540.739 37.192 540.227 39.592 539.811 41.096L541.795 41.544C542.275 40.104 542.819 37.96 543.331 36.008L540.931 35.56ZM530.339 29.224V34.44H532.515V31.272H546.659V33.992H548.931V29.224H530.339ZM533.635 33.448C532.803 36.84 530.979 41.032 528.611 43.688C528.995 44.072 529.603 44.84 529.859 45.288C532.547 42.376 534.595 37.864 535.747 33.96L533.635 33.448ZM536.035 34.856V36.84H548.483V34.856H536.035ZM537.507 45.96V47.88H546.851V45.96H537.507ZM536.483 40.104V55.528H538.563V42.056H545.859V55.368H548.035V40.104H536.483ZM531.907 39.88V55.56H533.987V38.024L533.859 37.928L531.907 39.88ZM537.379 26.728C538.051 27.88 538.819 29.448 539.171 30.408L541.283 29.608C540.931 28.648 540.131 27.144 539.395 26.024L537.379 26.728ZM537.571 52.104V54.056H546.851V52.104H537.571ZM552.984 27.2969C555.87 27.4844 558.302 28.3073 560.281 29.7656C562.26 31.2135 563.839 33.1719 565.016 35.6406C566.203 38.1094 566.797 40.5833 566.797 43.0625C566.797 45.5417 566.203 48.0156 565.016 50.4844C563.839 52.9531 562.26 54.9115 560.281 56.3594C558.302 57.8177 555.87 58.6354 552.984 58.8125V56.3906C555.161 56.1823 557.031 55.4479 558.594 54.1875C560.167 52.9271 561.401 51.3177 562.297 49.3594C563.203 47.401 563.656 45.3021 563.656 43.0625C563.656 40.8229 563.203 38.724 562.297 36.7656C561.401 34.8073 560.167 33.1979 558.594 31.9375C557.031 30.6667 555.161 29.9323 552.984 29.7344V27.2969Z" fill="black"/>
</svg>
