<svg width="760" height="296" viewBox="0 0 760 296" fill="none" xmlns="http://www.w3.org/2000/svg">
<rect width="760" height="296" fill="white"/>
<mask id="path-1-outside-1_1_5" maskUnits="userSpaceOnUse" x="537" y="47" width="162" height="52" fill="black">
<rect fill="white" x="537" y="47" width="162" height="52"/>
<path fill-rule="evenodd" clip-rule="evenodd" d="M618 48H538V98H618H698V48H618Z"/>
</mask>
<path fill-rule="evenodd" clip-rule="evenodd" d="M618 48H538V98H618H698V48H618Z" fill="#D9D9D9"/>
<path d="M538 48V47H537V48H538ZM538 98H537V99H538V98ZM698 98V99H699V98H698ZM698 48H699V47H698V48ZM538 49H618V47H538V49ZM539 98V48H537V98H539ZM618 97H538V99H618V97ZM698 97H618V99H698V97ZM697 48V98H699V48H697ZM618 49H698V47H618V49Z" fill="black" mask="url(#path-1-outside-1_1_5)"/>
<mask id="path-3-outside-2_1_5" maskUnits="userSpaceOnUse" x="377" y="47" width="162" height="52" fill="black">
<rect fill="white" x="377" y="47" width="162" height="52"/>
<path fill-rule="evenodd" clip-rule="evenodd" d="M458 48H378V98H458H538V48H458Z"/>
</mask>
<path fill-rule="evenodd" clip-rule="evenodd" d="M458 48H378V98H458H538V48H458Z" fill="#D9D9D9"/>
<path d="M378 48V47H377V48H378ZM378 98H377V99H378V98ZM538 98V99H539V98H538ZM538 48H539V47H538V48ZM378 49H458V47H378V49ZM379 98V48H377V98H379ZM458 97H378V99H458V97ZM538 97H458V99H538V97ZM537 48V98H539V48H537ZM458 49H538V47H458V49Z" fill="black" mask="url(#path-3-outside-2_1_5)"/>
<mask id="path-5-outside-3_1_5" maskUnits="userSpaceOnUse" x="57" y="47" width="162" height="52" fill="black">
<rect fill="white" x="57" y="47" width="162" height="52"/>
<path fill-rule="evenodd" clip-rule="evenodd" d="M138 48H58V98H138H218V48H138Z"/>
</mask>
<path fill-rule="evenodd" clip-rule="evenodd" d="M138 48H58V98H138H218V48H138Z" fill="#D9D9D9"/>
<path d="M58 48V47H57V48H58ZM58 98H57V99H58V98ZM218 98V99H219V98H218ZM218 48H219V47H218V48ZM58 49H138V47H58V49ZM59 98V48H57V98H59ZM138 97H58V99H138V97ZM218 97H138V99H218V97ZM217 48V98H219V48H217ZM138 49H218V47H138V49Z" fill="black" mask="url(#path-5-outside-3_1_5)"/>
<rect x="217.5" y="47.5" width="81" height="51" fill="#D9D9D9" stroke="black"/>
<rect x="297.5" y="47.5" width="81" height="51" fill="#D9D9D9" stroke="black"/>
<rect x="58.5" y="98.5" width="639" height="166" fill="#D9D9D9" stroke="black"/>
<path d="M242.656 80V72.4844H240.234V71.2734H244.109V78.7891H246.539V80H242.656ZM242.414 68.125C242.414 67.7969 242.526 67.5521 242.75 67.3906C242.974 67.2292 243.185 67.1484 243.383 67.1484C243.586 67.1484 243.799 67.2292 244.023 67.3906C244.247 67.5521 244.359 67.7969 244.359 68.125C244.359 68.4479 244.247 68.6901 244.023 68.8516C243.799 69.013 243.586 69.0938 243.383 69.0938C243.185 69.0938 242.974 69.013 242.75 68.8516C242.526 68.6901 242.414 68.4479 242.414 68.125ZM249.82 80V71.2734H251.273V73.1797C251.69 72.5078 252.193 71.9818 252.781 71.6016C253.37 71.2214 253.958 71.0312 254.547 71.0312C255.062 71.0312 255.531 71.1693 255.953 71.4453C256.375 71.7161 256.669 72.0729 256.836 72.5156C257.008 72.9583 257.094 73.8281 257.094 75.125V80H255.641V74.9453C255.641 74.1068 255.599 73.5547 255.516 73.2891C255.438 73.0182 255.289 72.7969 255.07 72.625C254.857 72.4531 254.622 72.3672 254.367 72.3672C253.857 72.3672 253.307 72.6094 252.719 73.0938C252.135 73.5781 251.654 74.1849 251.273 74.9141V80H249.82ZM266.727 79.6484C266.044 79.9349 265.549 80.1042 265.242 80.1562C264.935 80.2135 264.638 80.2422 264.352 80.2422C263.742 80.2422 263.185 80.125 262.68 79.8906C262.174 79.6562 261.792 79.3099 261.531 78.8516C261.276 78.3932 261.148 77.6849 261.148 76.7266V73.2109H258.969V72H261.148V68.4844H262.602V72H266.484V73.2109H262.602V76.7031C262.602 77.4062 262.685 77.9036 262.852 78.1953C263.018 78.4818 263.24 78.6927 263.516 78.8281C263.797 78.9635 264.128 79.0312 264.508 79.0312C265.211 79.0312 265.951 78.8099 266.727 78.3672V79.6484ZM272.266 78.7891V69.4297C271.828 69.7786 271.404 70.0755 270.992 70.3203C270.581 70.5651 270.016 70.8151 269.297 71.0703V69.7578C270.438 69.2734 271.427 68.6458 272.266 67.875H273.719V78.7891H276.633V80H269.297V78.7891H272.266ZM279.719 74.3125C280.094 73.7552 280.557 73.3021 281.109 72.9531C281.667 72.599 282.279 72.4219 282.945 72.4219C283.576 72.4219 284.172 72.5755 284.734 72.8828C285.302 73.1901 285.734 73.6198 286.031 74.1719C286.328 74.7188 286.477 75.3568 286.477 76.0859C286.477 77.237 286.107 78.2396 285.367 79.0938C284.633 79.9427 283.664 80.3672 282.461 80.3672C281.044 80.3672 279.984 79.776 279.281 78.5938C278.583 77.4062 278.234 75.8984 278.234 74.0703C278.234 72.0495 278.68 70.4531 279.57 69.2812C280.461 68.1042 281.667 67.5156 283.188 67.5156C284.005 67.5156 284.799 67.6354 285.57 67.875V69.3438C284.706 68.9323 283.891 68.7266 283.125 68.7266C282.042 68.7266 281.203 69.224 280.609 70.2188C280.016 71.2135 279.719 72.474 279.719 74V74.3125ZM282.57 79.1562C282.961 79.1562 283.354 79.0417 283.75 78.8125C284.146 78.5781 284.456 78.2214 284.68 77.7422C284.909 77.2578 285.023 76.7318 285.023 76.1641C285.023 75.4245 284.831 74.8177 284.445 74.3438C284.065 73.8698 283.521 73.6328 282.812 73.6328C282.078 73.6328 281.474 73.9089 281 74.4609C280.531 75.0078 280.297 75.6745 280.297 76.4609C280.297 77.2526 280.526 77.901 280.984 78.4062C281.448 78.9062 281.977 79.1562 282.57 79.1562Z" fill="black"/>
<path d="M317.656 80V72.4844H315.234V71.2734H319.109V78.7891H321.539V80H317.656ZM317.414 68.125C317.414 67.7969 317.526 67.5521 317.75 67.3906C317.974 67.2292 318.185 67.1484 318.383 67.1484C318.586 67.1484 318.799 67.2292 319.023 67.3906C319.247 67.5521 319.359 67.7969 319.359 68.125C319.359 68.4479 319.247 68.6901 319.023 68.8516C318.799 69.013 318.586 69.0938 318.383 69.0938C318.185 69.0938 317.974 69.013 317.75 68.8516C317.526 68.6901 317.414 68.4479 317.414 68.125ZM324.82 80V71.2734H326.273V73.1797C326.69 72.5078 327.193 71.9818 327.781 71.6016C328.37 71.2214 328.958 71.0312 329.547 71.0312C330.062 71.0312 330.531 71.1693 330.953 71.4453C331.375 71.7161 331.669 72.0729 331.836 72.5156C332.008 72.9583 332.094 73.8281 332.094 75.125V80H330.641V74.9453C330.641 74.1068 330.599 73.5547 330.516 73.2891C330.438 73.0182 330.289 72.7969 330.07 72.625C329.857 72.4531 329.622 72.3672 329.367 72.3672C328.857 72.3672 328.307 72.6094 327.719 73.0938C327.135 73.5781 326.654 74.1849 326.273 74.9141V80H324.82ZM341.727 79.6484C341.044 79.9349 340.549 80.1042 340.242 80.1562C339.935 80.2135 339.638 80.2422 339.352 80.2422C338.742 80.2422 338.185 80.125 337.68 79.8906C337.174 79.6562 336.792 79.3099 336.531 78.8516C336.276 78.3932 336.148 77.6849 336.148 76.7266V73.2109H333.969V72H336.148V68.4844H337.602V72H341.484V73.2109H337.602V76.7031C337.602 77.4062 337.685 77.9036 337.852 78.1953C338.018 78.4818 338.24 78.6927 338.516 78.8281C338.797 78.9635 339.128 79.0312 339.508 79.0312C340.211 79.0312 340.951 78.8099 341.727 78.3672V79.6484ZM347.266 78.7891V69.4297C346.828 69.7786 346.404 70.0755 345.992 70.3203C345.581 70.5651 345.016 70.8151 344.297 71.0703V69.7578C345.438 69.2734 346.427 68.6458 347.266 67.875H348.719V78.7891H351.633V80H344.297V78.7891H347.266ZM354.719 74.3125C355.094 73.7552 355.557 73.3021 356.109 72.9531C356.667 72.599 357.279 72.4219 357.945 72.4219C358.576 72.4219 359.172 72.5755 359.734 72.8828C360.302 73.1901 360.734 73.6198 361.031 74.1719C361.328 74.7188 361.477 75.3568 361.477 76.0859C361.477 77.237 361.107 78.2396 360.367 79.0938C359.633 79.9427 358.664 80.3672 357.461 80.3672C356.044 80.3672 354.984 79.776 354.281 78.5938C353.583 77.4062 353.234 75.8984 353.234 74.0703C353.234 72.0495 353.68 70.4531 354.57 69.2812C355.461 68.1042 356.667 67.5156 358.188 67.5156C359.005 67.5156 359.799 67.6354 360.57 67.875V69.3438C359.706 68.9323 358.891 68.7266 358.125 68.7266C357.042 68.7266 356.203 69.224 355.609 70.2188C355.016 71.2135 354.719 72.474 354.719 74V74.3125ZM357.57 79.1562C357.961 79.1562 358.354 79.0417 358.75 78.8125C359.146 78.5781 359.456 78.2214 359.68 77.7422C359.909 77.2578 360.023 76.7318 360.023 76.1641C360.023 75.4245 359.831 74.8177 359.445 74.3438C359.065 73.8698 358.521 73.6328 357.812 73.6328C357.078 73.6328 356.474 73.9089 356 74.4609C355.531 75.0078 355.297 75.6745 355.297 76.4609C355.297 77.2526 355.526 77.901 355.984 78.4062C356.448 78.9062 356.977 79.1562 357.57 79.1562Z" fill="black"/>
<path d="M320.211 30V17.3906H321.664V23.1797C322.081 22.5078 322.583 21.9818 323.172 21.6016C323.76 21.2214 324.349 21.0312 324.938 21.0312C325.432 21.0312 325.883 21.1589 326.289 21.4141C326.701 21.6641 326.987 21.9688 327.148 22.3281C327.279 22.6042 327.367 22.8984 327.414 23.2109C327.461 23.5182 327.484 24.1562 327.484 25.125V30H326.031V24.9453C326.031 24.1068 325.99 23.5547 325.906 23.2891C325.828 23.0182 325.68 22.7969 325.461 22.625C325.247 22.4531 325.013 22.3672 324.758 22.3672C324.247 22.3672 323.698 22.6094 323.109 23.0938C322.526 23.5781 322.044 24.1849 321.664 24.9141V30H320.211ZM336.742 28.6641V30H330.195V17.875H336.617V19.0938H331.773V23.2109H336.133V24.4219H331.773V28.6641H336.742ZM339.43 30V21.2734H340.883V23.1797C341.299 22.5078 341.802 21.9818 342.391 21.6016C342.979 21.2214 343.568 21.0312 344.156 21.0312C344.672 21.0312 345.141 21.1693 345.562 21.4453C345.984 21.7161 346.279 22.0729 346.445 22.5156C346.617 22.9583 346.703 23.8281 346.703 25.125V30H345.25V24.9453C345.25 24.1068 345.208 23.5547 345.125 23.2891C345.047 23.0182 344.898 22.7969 344.68 22.625C344.466 22.4531 344.232 22.3672 343.977 22.3672C343.466 22.3672 342.917 22.6094 342.328 23.0938C341.745 23.5781 341.263 24.1849 340.883 24.9141V30H339.43ZM356.383 29.75C355.409 30.0781 354.482 30.2422 353.602 30.2422C352.727 30.2422 351.948 30.0417 351.266 29.6406C350.589 29.2344 350.06 28.6875 349.68 28C349.299 27.3073 349.109 26.5208 349.109 25.6406C349.109 24.3177 349.539 23.2188 350.398 22.3438C351.263 21.4688 352.305 21.0312 353.523 21.0312C354.424 21.0312 355.378 21.2005 356.383 21.5391V22.9375C355.367 22.474 354.458 22.2422 353.656 22.2422C353.125 22.2422 352.625 22.375 352.156 22.6406C351.688 22.901 351.326 23.3099 351.07 23.8672C350.815 24.4245 350.688 24.9974 350.688 25.5859C350.688 26.3724 350.932 27.1224 351.422 27.8359C351.917 28.5495 352.69 28.9062 353.742 28.9062C354.06 28.9062 354.372 28.8854 354.68 28.8438C354.987 28.7969 355.555 28.6328 356.383 28.3516V29.75Z" fill="black"/>
<path d="M452.805 30.2422C451.555 30.2422 450.555 29.8073 449.805 28.9375C449.055 28.0625 448.68 26.9609 448.68 25.6328C448.68 24.3047 449.055 23.2057 449.805 22.3359C450.555 21.4661 451.555 21.0312 452.805 21.0312C454.049 21.0312 455.047 21.4661 455.797 22.3359C456.547 23.2057 456.922 24.3047 456.922 25.6328C456.922 26.9609 456.547 28.0625 455.797 28.9375C455.047 29.8073 454.049 30.2422 452.805 30.2422ZM452.805 29.0312C453.581 29.0312 454.198 28.7292 454.656 28.125C455.115 27.5208 455.344 26.6901 455.344 25.6328C455.344 24.5807 455.115 23.7526 454.656 23.1484C454.198 22.5443 453.581 22.2422 452.805 22.2422C452.023 22.2422 451.404 22.5443 450.945 23.1484C450.487 23.7526 450.258 24.5807 450.258 25.6328C450.258 26.6901 450.487 27.5208 450.945 28.125C451.404 28.7292 452.023 29.0312 452.805 29.0312ZM460.164 23.2344C460.612 22.5052 461.146 21.9557 461.766 21.5859C462.385 21.2161 462.956 21.0312 463.477 21.0312C464.206 21.0312 464.862 21.3464 465.445 21.9766C466.029 22.6068 466.32 23.5625 466.32 24.8438C466.32 25.8542 466.125 26.7578 465.734 27.5547C465.349 28.3464 464.833 28.974 464.188 29.4375C463.542 29.8958 462.742 30.125 461.789 30.125C461.518 30.125 461.102 30.0964 460.539 30.0391C460.456 30.0286 460.331 30.0156 460.164 30V33.3906H458.711V21.2734H460.164V23.2344ZM460.164 24.9609V28.7031C460.69 28.8385 461.174 28.9062 461.617 28.9062C462.497 28.9062 463.237 28.5625 463.836 27.875C464.44 27.1823 464.742 26.237 464.742 25.0391C464.742 24.1693 464.578 23.5156 464.25 23.0781C463.922 22.6406 463.549 22.4219 463.133 22.4219C462.68 22.4219 462.18 22.651 461.633 23.1094C461.091 23.5677 460.602 24.1849 460.164 24.9609Z" fill="black"/>
<path d="M604.312 29.5391V28C604.896 28.3802 605.513 28.6484 606.164 28.8047C606.815 28.9557 607.367 29.0312 607.82 29.0312C608.555 29.0312 609.083 28.9141 609.406 28.6797C609.729 28.4401 609.891 28.1432 609.891 27.7891C609.891 27.5547 609.815 27.3542 609.664 27.1875C609.513 27.0208 609.138 26.8151 608.539 26.5703L608.039 26.3672L607.031 25.9688C605.948 25.5469 605.266 25.1562 604.984 24.7969C604.698 24.4427 604.555 24.0104 604.555 23.5C604.555 22.7812 604.831 22.1901 605.383 21.7266C605.94 21.263 606.841 21.0312 608.086 21.0312C609.018 21.0312 609.901 21.1667 610.734 21.4375V22.7578C609.776 22.4141 608.875 22.2422 608.031 22.2422C607.417 22.2422 606.935 22.3516 606.586 22.5703C606.242 22.7839 606.07 23.0521 606.07 23.375C606.07 23.6875 606.221 23.9375 606.523 24.125C606.82 24.3125 607.305 24.5286 607.977 24.7734L608.961 25.1328C609.862 25.4609 610.495 25.8177 610.859 26.2031C611.224 26.5885 611.406 27.0703 611.406 27.6484C611.406 28.4036 611.115 29.026 610.531 29.5156C609.953 30 609.026 30.2422 607.75 30.2422C606.635 30.2422 605.49 30.0078 604.312 29.5391ZM621.078 29.4219C619.917 29.974 618.818 30.25 617.781 30.25C616.995 30.25 616.292 30.0547 615.672 29.6641C615.052 29.2734 614.555 28.7161 614.18 27.9922C613.81 27.263 613.625 26.4844 613.625 25.6562C613.625 24.8594 613.802 24.0938 614.156 23.3594C614.51 22.625 615.005 22.0547 615.641 21.6484C616.276 21.237 616.984 21.0312 617.766 21.0312C618.802 21.0312 619.633 21.401 620.258 22.1406C620.888 22.8802 621.203 24.0208 621.203 25.5625V25.875H615.188C615.188 26.4792 615.312 27.0312 615.562 27.5312C615.818 28.0312 616.151 28.4062 616.562 28.6562C616.974 28.9062 617.443 29.0312 617.969 29.0312C618.906 29.0312 619.943 28.7188 621.078 28.0938V29.4219ZM615.273 24.7891H619.625V24.5781C619.625 23.8646 619.451 23.2969 619.102 22.875C618.753 22.4531 618.286 22.2422 617.703 22.2422C617.115 22.2422 616.604 22.4583 616.172 22.8906C615.745 23.3177 615.445 23.9505 615.273 24.7891ZM629.258 28.0391C628.815 28.7682 628.281 29.3177 627.656 29.6875C627.036 30.0573 626.466 30.2422 625.945 30.2422C625.216 30.2422 624.56 29.9271 623.977 29.2969C623.398 28.6667 623.109 27.7109 623.109 26.4297C623.109 25.4193 623.302 24.5182 623.688 23.7266C624.073 22.9297 624.589 22.3021 625.234 21.8438C625.88 21.3802 626.68 21.1484 627.633 21.1484C627.909 21.1484 628.326 21.1771 628.883 21.2344C628.966 21.2448 629.091 21.2578 629.258 21.2734H630.719V33.3906H629.258V28.0391ZM629.258 26.3125V22.5703C628.742 22.4349 628.263 22.3672 627.82 22.3672C626.924 22.3672 626.177 22.7135 625.578 23.4062C624.984 24.099 624.688 25.0417 624.688 26.2344C624.688 27.099 624.849 27.7526 625.172 28.1953C625.5 28.6328 625.872 28.8516 626.289 28.8516C626.742 28.8516 627.242 28.6224 627.789 28.1641C628.336 27.7057 628.826 27.0885 629.258 26.3125Z" fill="black"/>
<path d="M97.5547 23.2344C98.0026 22.5052 98.5365 21.9557 99.1562 21.5859C99.776 21.2161 100.346 21.0312 100.867 21.0312C101.596 21.0312 102.253 21.3464 102.836 21.9766C103.419 22.6068 103.711 23.5625 103.711 24.8438C103.711 25.8542 103.516 26.7578 103.125 27.5547C102.74 28.3464 102.224 28.974 101.578 29.4375C100.932 29.8958 100.133 30.125 99.1797 30.125C98.9089 30.125 98.4922 30.0964 97.9297 30.0391C97.8464 30.0286 97.7214 30.0156 97.5547 30V33.3906H96.1016V21.2734H97.5547V23.2344ZM97.5547 24.9609V28.7031C98.0807 28.8385 98.5651 28.9062 99.0078 28.9062C99.888 28.9062 100.628 28.5625 101.227 27.875C101.831 27.1823 102.133 26.237 102.133 25.0391C102.133 24.1693 101.969 23.5156 101.641 23.0781C101.312 22.6406 100.94 22.4219 100.523 22.4219C100.07 22.4219 99.5703 22.651 99.0234 23.1094C98.4818 23.5677 97.9922 24.1849 97.5547 24.9609ZM111.555 28.0391C111.112 28.7682 110.578 29.3177 109.953 29.6875C109.333 30.0573 108.763 30.2422 108.242 30.2422C107.513 30.2422 106.857 29.9271 106.273 29.2969C105.695 28.6667 105.406 27.7109 105.406 26.4297C105.406 25.4193 105.599 24.5182 105.984 23.7266C106.37 22.9297 106.885 22.3021 107.531 21.8438C108.177 21.3802 108.977 21.1484 109.93 21.1484C110.206 21.1484 110.622 21.1771 111.18 21.2344C111.263 21.2448 111.388 21.2578 111.555 21.2734H113.016V27.4375C113.016 28.4896 113.125 29.3438 113.344 30H111.828C111.714 29.5208 111.622 28.8672 111.555 28.0391ZM111.555 26.3125V22.5703C111.039 22.4349 110.56 22.3672 110.117 22.3672C109.221 22.3672 108.474 22.7135 107.875 23.4062C107.281 24.099 106.984 25.0417 106.984 26.2344C106.984 27.099 107.146 27.7526 107.469 28.1953C107.797 28.6328 108.169 28.8516 108.586 28.8516C109.039 28.8516 109.539 28.6224 110.086 28.1641C110.633 27.7057 111.122 27.0885 111.555 26.3125ZM122.773 29.75C121.799 30.0781 120.872 30.2422 119.992 30.2422C119.117 30.2422 118.339 30.0417 117.656 29.6406C116.979 29.2344 116.451 28.6875 116.07 28C115.69 27.3073 115.5 26.5208 115.5 25.6406C115.5 24.3177 115.93 23.2188 116.789 22.3438C117.654 21.4688 118.695 21.0312 119.914 21.0312C120.815 21.0312 121.768 21.2005 122.773 21.5391V22.9375C121.758 22.474 120.849 22.2422 120.047 22.2422C119.516 22.2422 119.016 22.375 118.547 22.6406C118.078 22.901 117.716 23.3099 117.461 23.8672C117.206 24.4245 117.078 24.9974 117.078 25.5859C117.078 26.3724 117.323 27.1224 117.812 27.8359C118.307 28.5495 119.081 28.9062 120.133 28.9062C120.451 28.9062 120.763 28.8854 121.07 28.8438C121.378 28.7969 121.945 28.6328 122.773 28.3516V29.75ZM125.43 30V17.3906H126.883V25.3125L131.078 21.2734H133.016L128.828 25.3125L133.125 30H131.125L126.883 25.3125V30H125.43ZM141.906 29.4219C140.745 29.974 139.646 30.25 138.609 30.25C137.823 30.25 137.12 30.0547 136.5 29.6641C135.88 29.2734 135.383 28.7161 135.008 27.9922C134.638 27.263 134.453 26.4844 134.453 25.6562C134.453 24.8594 134.63 24.0938 134.984 23.3594C135.339 22.625 135.833 22.0547 136.469 21.6484C137.104 21.237 137.812 21.0312 138.594 21.0312C139.63 21.0312 140.461 21.401 141.086 22.1406C141.716 22.8802 142.031 24.0208 142.031 25.5625V25.875H136.016C136.016 26.4792 136.141 27.0312 136.391 27.5312C136.646 28.0312 136.979 28.4062 137.391 28.6562C137.802 28.9062 138.271 29.0312 138.797 29.0312C139.734 29.0312 140.771 28.7188 141.906 28.0938V29.4219ZM136.102 24.7891H140.453V24.5781C140.453 23.8646 140.279 23.2969 139.93 22.875C139.581 22.4531 139.115 22.2422 138.531 22.2422C137.943 22.2422 137.432 22.4583 137 22.8906C136.573 23.3177 136.273 23.9505 136.102 24.7891ZM151.555 29.6484C150.872 29.9349 150.378 30.1042 150.07 30.1562C149.763 30.2135 149.466 30.2422 149.18 30.2422C148.57 30.2422 148.013 30.125 147.508 29.8906C147.003 29.6562 146.62 29.3099 146.359 28.8516C146.104 28.3932 145.977 27.6849 145.977 26.7266V23.2109H143.797V22H145.977V18.4844H147.43V22H151.312V23.2109H147.43V26.7031C147.43 27.4062 147.513 27.9036 147.68 28.1953C147.846 28.4818 148.068 28.6927 148.344 28.8281C148.625 28.9635 148.956 29.0312 149.336 29.0312C150.039 29.0312 150.779 28.8099 151.555 28.3672V29.6484ZM160.914 28.6641V30H154.367V17.875H155.945V28.6641H160.914ZM170.734 29.4219C169.573 29.974 168.474 30.25 167.438 30.25C166.651 30.25 165.948 30.0547 165.328 29.6641C164.708 29.2734 164.211 28.7161 163.836 27.9922C163.466 27.263 163.281 26.4844 163.281 25.6562C163.281 24.8594 163.458 24.0938 163.812 23.3594C164.167 22.625 164.661 22.0547 165.297 21.6484C165.932 21.237 166.641 21.0312 167.422 21.0312C168.458 21.0312 169.289 21.401 169.914 22.1406C170.544 22.8802 170.859 24.0208 170.859 25.5625V25.875H164.844C164.844 26.4792 164.969 27.0312 165.219 27.5312C165.474 28.0312 165.807 28.4062 166.219 28.6562C166.63 28.9062 167.099 29.0312 167.625 29.0312C168.562 29.0312 169.599 28.7188 170.734 28.0938V29.4219ZM164.93 24.7891H169.281V24.5781C169.281 23.8646 169.107 23.2969 168.758 22.875C168.409 22.4531 167.943 22.2422 167.359 22.2422C166.771 22.2422 166.26 22.4583 165.828 22.8906C165.401 23.3177 165.102 23.9505 164.93 24.7891ZM173.086 30V21.2734H174.539V23.1797C174.956 22.5078 175.458 21.9818 176.047 21.6016C176.635 21.2214 177.224 21.0312 177.812 21.0312C178.328 21.0312 178.797 21.1693 179.219 21.4453C179.641 21.7161 179.935 22.0729 180.102 22.5156C180.273 22.9583 180.359 23.8281 180.359 25.125V30H178.906V24.9453C178.906 24.1068 178.865 23.5547 178.781 23.2891C178.703 23.0182 178.555 22.7969 178.336 22.625C178.122 22.4531 177.888 22.3672 177.633 22.3672C177.122 22.3672 176.573 22.6094 175.984 23.0938C175.401 23.5781 174.919 24.1849 174.539 24.9141V30H173.086Z" fill="black"/>
<path d="M240.211 30V17.3906H241.664V23.1797C242.081 22.5078 242.583 21.9818 243.172 21.6016C243.76 21.2214 244.349 21.0312 244.938 21.0312C245.432 21.0312 245.883 21.1589 246.289 21.4141C246.701 21.6641 246.987 21.9688 247.148 22.3281C247.279 22.6042 247.367 22.8984 247.414 23.2109C247.461 23.5182 247.484 24.1562 247.484 25.125V30H246.031V24.9453C246.031 24.1068 245.99 23.5547 245.906 23.2891C245.828 23.0182 245.68 22.7969 245.461 22.625C245.247 22.4531 245.013 22.3672 244.758 22.3672C244.247 22.3672 243.698 22.6094 243.109 23.0938C242.526 23.5781 242.044 24.1849 241.664 24.9141V30H240.211ZM256.867 28.6641V30H250.32V17.875H251.898V28.6641H256.867ZM266.688 29.4219C265.526 29.974 264.427 30.25 263.391 30.25C262.604 30.25 261.901 30.0547 261.281 29.6641C260.661 29.2734 260.164 28.7161 259.789 27.9922C259.419 27.263 259.234 26.4844 259.234 25.6562C259.234 24.8594 259.411 24.0938 259.766 23.3594C260.12 22.625 260.615 22.0547 261.25 21.6484C261.885 21.237 262.594 21.0312 263.375 21.0312C264.411 21.0312 265.242 21.401 265.867 22.1406C266.497 22.8802 266.812 24.0208 266.812 25.5625V25.875H260.797C260.797 26.4792 260.922 27.0312 261.172 27.5312C261.427 28.0312 261.76 28.4062 262.172 28.6562C262.583 28.9062 263.052 29.0312 263.578 29.0312C264.516 29.0312 265.552 28.7188 266.688 28.0938V29.4219ZM260.883 24.7891H265.234V24.5781C265.234 23.8646 265.06 23.2969 264.711 22.875C264.362 22.4531 263.896 22.2422 263.312 22.2422C262.724 22.2422 262.214 22.4583 261.781 22.8906C261.354 23.3177 261.055 23.9505 260.883 24.7891ZM269.039 30V21.2734H270.492V23.1797C270.909 22.5078 271.411 21.9818 272 21.6016C272.589 21.2214 273.177 21.0312 273.766 21.0312C274.281 21.0312 274.75 21.1693 275.172 21.4453C275.594 21.7161 275.888 22.0729 276.055 22.5156C276.227 22.9583 276.312 23.8281 276.312 25.125V30H274.859V24.9453C274.859 24.1068 274.818 23.5547 274.734 23.2891C274.656 23.0182 274.508 22.7969 274.289 22.625C274.076 22.4531 273.841 22.3672 273.586 22.3672C273.076 22.3672 272.526 22.6094 271.938 23.0938C271.354 23.5781 270.872 24.1849 270.492 24.9141V30H269.039Z" fill="black"/>
<path d="M362.555 181.234C363.003 180.505 363.536 179.956 364.156 179.586C364.776 179.216 365.346 179.031 365.867 179.031C366.596 179.031 367.253 179.346 367.836 179.977C368.419 180.607 368.711 181.562 368.711 182.844C368.711 183.854 368.516 184.758 368.125 185.555C367.74 186.346 367.224 186.974 366.578 187.438C365.932 187.896 365.133 188.125 364.18 188.125C363.909 188.125 363.492 188.096 362.93 188.039C362.846 188.029 362.721 188.016 362.555 188H361.102V175.391H362.555V181.234ZM362.555 182.961V186.703C363.081 186.839 363.565 186.906 364.008 186.906C364.888 186.906 365.628 186.562 366.227 185.875C366.831 185.182 367.133 184.237 367.133 183.039C367.133 182.169 366.969 181.516 366.641 181.078C366.312 180.641 365.94 180.422 365.523 180.422C365.07 180.422 364.57 180.651 364.023 181.109C363.482 181.568 362.992 182.185 362.555 182.961ZM374.414 188.242C373.164 188.242 372.164 187.807 371.414 186.938C370.664 186.062 370.289 184.961 370.289 183.633C370.289 182.305 370.664 181.206 371.414 180.336C372.164 179.466 373.164 179.031 374.414 179.031C375.659 179.031 376.656 179.466 377.406 180.336C378.156 181.206 378.531 182.305 378.531 183.633C378.531 184.961 378.156 186.062 377.406 186.938C376.656 187.807 375.659 188.242 374.414 188.242ZM374.414 187.031C375.19 187.031 375.807 186.729 376.266 186.125C376.724 185.521 376.953 184.69 376.953 183.633C376.953 182.581 376.724 181.753 376.266 181.148C375.807 180.544 375.19 180.242 374.414 180.242C373.633 180.242 373.013 180.544 372.555 181.148C372.096 181.753 371.867 182.581 371.867 183.633C371.867 184.69 372.096 185.521 372.555 186.125C373.013 186.729 373.633 187.031 374.414 187.031ZM386.258 186.039C385.815 186.768 385.281 187.318 384.656 187.688C384.036 188.057 383.466 188.242 382.945 188.242C382.216 188.242 381.56 187.927 380.977 187.297C380.398 186.667 380.109 185.711 380.109 184.43C380.109 183.419 380.302 182.518 380.688 181.727C381.073 180.93 381.589 180.302 382.234 179.844C382.88 179.38 383.68 179.148 384.633 179.148C384.909 179.148 385.326 179.177 385.883 179.234C385.966 179.245 386.091 179.258 386.258 179.273V175.391H387.719V188H386.258V186.039ZM386.258 184.312V180.57C385.742 180.435 385.263 180.367 384.82 180.367C383.924 180.367 383.177 180.714 382.578 181.406C381.984 182.099 381.688 183.042 381.688 184.234C381.688 185.099 381.849 185.753 382.172 186.195C382.5 186.633 382.872 186.852 383.289 186.852C383.742 186.852 384.242 186.622 384.789 186.164C385.336 185.706 385.826 185.089 386.258 184.312ZM393.25 187.648L389.219 179.273H390.82L394.031 185.82L396.719 179.273H398.18L394.797 187.383C394.083 189.096 393.404 190.234 392.758 190.797C392.117 191.359 391.286 191.641 390.266 191.641C389.823 191.641 389.427 191.602 389.078 191.523V190.242C389.479 190.367 389.862 190.43 390.227 190.43C390.695 190.43 391.112 190.339 391.477 190.156C391.841 189.974 392.174 189.651 392.477 189.188C392.779 188.724 392.992 188.323 393.117 187.984L393.25 187.648Z" fill="black"/>
<path d="M117.656 80V72.4844H115.234V71.2734H119.109V78.7891H121.539V80H117.656ZM117.414 68.125C117.414 67.7969 117.526 67.5521 117.75 67.3906C117.974 67.2292 118.185 67.1484 118.383 67.1484C118.586 67.1484 118.799 67.2292 119.023 67.3906C119.247 67.5521 119.359 67.7969 119.359 68.125C119.359 68.4479 119.247 68.6901 119.023 68.8516C118.799 69.013 118.586 69.0938 118.383 69.0938C118.185 69.0938 117.974 69.013 117.75 68.8516C117.526 68.6901 117.414 68.4479 117.414 68.125ZM124.82 80V71.2734H126.273V73.1797C126.69 72.5078 127.193 71.9818 127.781 71.6016C128.37 71.2214 128.958 71.0312 129.547 71.0312C130.062 71.0312 130.531 71.1693 130.953 71.4453C131.375 71.7161 131.669 72.0729 131.836 72.5156C132.008 72.9583 132.094 73.8281 132.094 75.125V80H130.641V74.9453C130.641 74.1068 130.599 73.5547 130.516 73.2891C130.438 73.0182 130.289 72.7969 130.07 72.625C129.857 72.4531 129.622 72.3672 129.367 72.3672C128.857 72.3672 128.307 72.6094 127.719 73.0938C127.135 73.5781 126.654 74.1849 126.273 74.9141V80H124.82ZM141.727 79.6484C141.044 79.9349 140.549 80.1042 140.242 80.1562C139.935 80.2135 139.638 80.2422 139.352 80.2422C138.742 80.2422 138.185 80.125 137.68 79.8906C137.174 79.6562 136.792 79.3099 136.531 78.8516C136.276 78.3932 136.148 77.6849 136.148 76.7266V73.2109H133.969V72H136.148V68.4844H137.602V72H141.484V73.2109H137.602V76.7031C137.602 77.4062 137.685 77.9036 137.852 78.1953C138.018 78.4818 138.24 78.6927 138.516 78.8281C138.797 78.9635 139.128 79.0312 139.508 79.0312C140.211 79.0312 140.951 78.8099 141.727 78.3672V79.6484ZM143.961 79.7812V78.25C145.154 78.8542 146.188 79.1562 147.062 79.1562C147.865 79.1562 148.526 78.9141 149.047 78.4297C149.573 77.9401 149.836 77.3125 149.836 76.5469C149.836 75.776 149.547 75.1484 148.969 74.6641C148.396 74.1797 147.419 73.9375 146.039 73.9375H145.234V72.7266H146.352C147.367 72.7266 148.102 72.5 148.555 72.0469C149.008 71.5885 149.234 71.0807 149.234 70.5234C149.234 70.0182 149.049 69.5938 148.68 69.25C148.31 68.901 147.742 68.7266 146.977 68.7266C146.117 68.7266 145.193 68.9688 144.203 69.4531V68.0703C145.193 67.7005 146.099 67.5156 146.922 67.5156C148.396 67.5156 149.411 67.8073 149.969 68.3906C150.531 68.9688 150.812 69.6302 150.812 70.375C150.812 70.9271 150.664 71.4453 150.367 71.9297C150.07 72.4141 149.523 72.8464 148.727 73.2266C149.43 73.4349 149.961 73.6901 150.32 73.9922C150.68 74.2943 150.951 74.651 151.133 75.0625C151.32 75.474 151.414 75.9349 151.414 76.4453C151.414 77.5807 150.992 78.5182 150.148 79.2578C149.31 79.9974 148.224 80.3672 146.891 80.3672C146.505 80.3672 146.083 80.3385 145.625 80.2812C145.172 80.224 144.617 80.0573 143.961 79.7812ZM160.938 80H153.602V78.6641C153.602 78.3203 153.672 77.9531 153.812 77.5625C153.953 77.1667 154.221 76.724 154.617 76.2344C155.013 75.7448 155.432 75.2734 155.875 74.8203L156.703 73.9766C156.87 73.8047 157.234 73.4062 157.797 72.7812C158.359 72.1562 158.729 71.6771 158.906 71.3438C159.089 71.0104 159.18 70.6823 159.18 70.3594C159.18 69.8385 158.971 69.4375 158.555 69.1562C158.138 68.8698 157.669 68.7266 157.148 68.7266C156.852 68.7266 156.518 68.7604 156.148 68.8281C155.784 68.8958 155.464 68.9766 155.188 69.0703C154.911 69.1589 154.464 69.3438 153.844 69.625V68.3359C154.5 68.0234 155.156 67.8099 155.812 67.6953C156.474 67.5755 157.018 67.5156 157.445 67.5156C158.076 67.5156 158.654 67.6198 159.18 67.8281C159.711 68.0312 160.104 68.349 160.359 68.7812C160.62 69.2135 160.75 69.6745 160.75 70.1641C160.75 70.7109 160.583 71.2708 160.25 71.8438C159.922 72.4167 159.299 73.1536 158.383 74.0547L157.492 74.9375L156.742 75.6719C156.268 76.151 155.885 76.6146 155.594 77.0625C155.302 77.5104 155.141 78.0443 155.109 78.6641H160.938V80Z" fill="black"/>
<path d="M436.656 80V72.4844H434.234V71.2734H438.109V78.7891H440.539V80H436.656ZM436.414 68.125C436.414 67.7969 436.526 67.5521 436.75 67.3906C436.974 67.2292 437.185 67.1484 437.383 67.1484C437.586 67.1484 437.799 67.2292 438.023 67.3906C438.247 67.5521 438.359 67.7969 438.359 68.125C438.359 68.4479 438.247 68.6901 438.023 68.8516C437.799 69.013 437.586 69.0938 437.383 69.0938C437.185 69.0938 436.974 69.013 436.75 68.8516C436.526 68.6901 436.414 68.4479 436.414 68.125ZM443.82 80V71.2734H445.273V73.1797C445.69 72.5078 446.193 71.9818 446.781 71.6016C447.37 71.2214 447.958 71.0312 448.547 71.0312C449.062 71.0312 449.531 71.1693 449.953 71.4453C450.375 71.7161 450.669 72.0729 450.836 72.5156C451.008 72.9583 451.094 73.8281 451.094 75.125V80H449.641V74.9453C449.641 74.1068 449.599 73.5547 449.516 73.2891C449.438 73.0182 449.289 72.7969 449.07 72.625C448.857 72.4531 448.622 72.3672 448.367 72.3672C447.857 72.3672 447.307 72.6094 446.719 73.0938C446.135 73.5781 445.654 74.1849 445.273 74.9141V80H443.82ZM460.727 79.6484C460.044 79.9349 459.549 80.1042 459.242 80.1562C458.935 80.2135 458.638 80.2422 458.352 80.2422C457.742 80.2422 457.185 80.125 456.68 79.8906C456.174 79.6562 455.792 79.3099 455.531 78.8516C455.276 78.3932 455.148 77.6849 455.148 76.7266V73.2109H452.969V72H455.148V68.4844H456.602V72H460.484V73.2109H456.602V76.7031C456.602 77.4062 456.685 77.9036 456.852 78.1953C457.018 78.4818 457.24 78.6927 457.516 78.8281C457.797 78.9635 458.128 79.0312 458.508 79.0312C459.211 79.0312 459.951 78.8099 460.727 78.3672V79.6484ZM462.961 79.7812V78.25C464.154 78.8542 465.188 79.1562 466.062 79.1562C466.865 79.1562 467.526 78.9141 468.047 78.4297C468.573 77.9401 468.836 77.3125 468.836 76.5469C468.836 75.776 468.547 75.1484 467.969 74.6641C467.396 74.1797 466.419 73.9375 465.039 73.9375H464.234V72.7266H465.352C466.367 72.7266 467.102 72.5 467.555 72.0469C468.008 71.5885 468.234 71.0807 468.234 70.5234C468.234 70.0182 468.049 69.5938 467.68 69.25C467.31 68.901 466.742 68.7266 465.977 68.7266C465.117 68.7266 464.193 68.9688 463.203 69.4531V68.0703C464.193 67.7005 465.099 67.5156 465.922 67.5156C467.396 67.5156 468.411 67.8073 468.969 68.3906C469.531 68.9688 469.812 69.6302 469.812 70.375C469.812 70.9271 469.664 71.4453 469.367 71.9297C469.07 72.4141 468.523 72.8464 467.727 73.2266C468.43 73.4349 468.961 73.6901 469.32 73.9922C469.68 74.2943 469.951 74.651 470.133 75.0625C470.32 75.474 470.414 75.9349 470.414 76.4453C470.414 77.5807 469.992 78.5182 469.148 79.2578C468.31 79.9974 467.224 80.3672 465.891 80.3672C465.505 80.3672 465.083 80.3385 464.625 80.2812C464.172 80.224 463.617 80.0573 462.961 79.7812ZM479.938 80H472.602V78.6641C472.602 78.3203 472.672 77.9531 472.812 77.5625C472.953 77.1667 473.221 76.724 473.617 76.2344C474.013 75.7448 474.432 75.2734 474.875 74.8203L475.703 73.9766C475.87 73.8047 476.234 73.4062 476.797 72.7812C477.359 72.1562 477.729 71.6771 477.906 71.3438C478.089 71.0104 478.18 70.6823 478.18 70.3594C478.18 69.8385 477.971 69.4375 477.555 69.1562C477.138 68.8698 476.669 68.7266 476.148 68.7266C475.852 68.7266 475.518 68.7604 475.148 68.8281C474.784 68.8958 474.464 68.9766 474.188 69.0703C473.911 69.1589 473.464 69.3438 472.844 69.625V68.3359C473.5 68.0234 474.156 67.8099 474.812 67.6953C475.474 67.5755 476.018 67.5156 476.445 67.5156C477.076 67.5156 477.654 67.6198 478.18 67.8281C478.711 68.0312 479.104 68.349 479.359 68.7812C479.62 69.2135 479.75 69.6745 479.75 70.1641C479.75 70.7109 479.583 71.2708 479.25 71.8438C478.922 72.4167 478.299 73.1536 477.383 74.0547L476.492 74.9375L475.742 75.6719C475.268 76.151 474.885 76.6146 474.594 77.0625C474.302 77.5104 474.141 78.0443 474.109 78.6641H479.938V80Z" fill="black"/>
<path d="M596.656 80V72.4844H594.234V71.2734H598.109V78.7891H600.539V80H596.656ZM596.414 68.125C596.414 67.7969 596.526 67.5521 596.75 67.3906C596.974 67.2292 597.185 67.1484 597.383 67.1484C597.586 67.1484 597.799 67.2292 598.023 67.3906C598.247 67.5521 598.359 67.7969 598.359 68.125C598.359 68.4479 598.247 68.6901 598.023 68.8516C597.799 69.013 597.586 69.0938 597.383 69.0938C597.185 69.0938 596.974 69.013 596.75 68.8516C596.526 68.6901 596.414 68.4479 596.414 68.125ZM603.82 80V71.2734H605.273V73.1797C605.69 72.5078 606.193 71.9818 606.781 71.6016C607.37 71.2214 607.958 71.0312 608.547 71.0312C609.062 71.0312 609.531 71.1693 609.953 71.4453C610.375 71.7161 610.669 72.0729 610.836 72.5156C611.008 72.9583 611.094 73.8281 611.094 75.125V80H609.641V74.9453C609.641 74.1068 609.599 73.5547 609.516 73.2891C609.438 73.0182 609.289 72.7969 609.07 72.625C608.857 72.4531 608.622 72.3672 608.367 72.3672C607.857 72.3672 607.307 72.6094 606.719 73.0938C606.135 73.5781 605.654 74.1849 605.273 74.9141V80H603.82ZM620.727 79.6484C620.044 79.9349 619.549 80.1042 619.242 80.1562C618.935 80.2135 618.638 80.2422 618.352 80.2422C617.742 80.2422 617.185 80.125 616.68 79.8906C616.174 79.6562 615.792 79.3099 615.531 78.8516C615.276 78.3932 615.148 77.6849 615.148 76.7266V73.2109H612.969V72H615.148V68.4844H616.602V72H620.484V73.2109H616.602V76.7031C616.602 77.4062 616.685 77.9036 616.852 78.1953C617.018 78.4818 617.24 78.6927 617.516 78.8281C617.797 78.9635 618.128 79.0312 618.508 79.0312C619.211 79.0312 619.951 78.8099 620.727 78.3672V79.6484ZM622.961 79.7812V78.25C624.154 78.8542 625.188 79.1562 626.062 79.1562C626.865 79.1562 627.526 78.9141 628.047 78.4297C628.573 77.9401 628.836 77.3125 628.836 76.5469C628.836 75.776 628.547 75.1484 627.969 74.6641C627.396 74.1797 626.419 73.9375 625.039 73.9375H624.234V72.7266H625.352C626.367 72.7266 627.102 72.5 627.555 72.0469C628.008 71.5885 628.234 71.0807 628.234 70.5234C628.234 70.0182 628.049 69.5938 627.68 69.25C627.31 68.901 626.742 68.7266 625.977 68.7266C625.117 68.7266 624.193 68.9688 623.203 69.4531V68.0703C624.193 67.7005 625.099 67.5156 625.922 67.5156C627.396 67.5156 628.411 67.8073 628.969 68.3906C629.531 68.9688 629.812 69.6302 629.812 70.375C629.812 70.9271 629.664 71.4453 629.367 71.9297C629.07 72.4141 628.523 72.8464 627.727 73.2266C628.43 73.4349 628.961 73.6901 629.32 73.9922C629.68 74.2943 629.951 74.651 630.133 75.0625C630.32 75.474 630.414 75.9349 630.414 76.4453C630.414 77.5807 629.992 78.5182 629.148 79.2578C628.31 79.9974 627.224 80.3672 625.891 80.3672C625.505 80.3672 625.083 80.3385 624.625 80.2812C624.172 80.224 623.617 80.0573 622.961 79.7812ZM639.938 80H632.602V78.6641C632.602 78.3203 632.672 77.9531 632.812 77.5625C632.953 77.1667 633.221 76.724 633.617 76.2344C634.013 75.7448 634.432 75.2734 634.875 74.8203L635.703 73.9766C635.87 73.8047 636.234 73.4062 636.797 72.7812C637.359 72.1562 637.729 71.6771 637.906 71.3438C638.089 71.0104 638.18 70.6823 638.18 70.3594C638.18 69.8385 637.971 69.4375 637.555 69.1562C637.138 68.8698 636.669 68.7266 636.148 68.7266C635.852 68.7266 635.518 68.7604 635.148 68.8281C634.784 68.8958 634.464 68.9766 634.188 69.0703C633.911 69.1589 633.464 69.3438 632.844 69.625V68.3359C633.5 68.0234 634.156 67.8099 634.812 67.6953C635.474 67.5755 636.018 67.5156 636.445 67.5156C637.076 67.5156 637.654 67.6198 638.18 67.8281C638.711 68.0312 639.104 68.349 639.359 68.7812C639.62 69.2135 639.75 69.6745 639.75 70.1641C639.75 70.7109 639.583 71.2708 639.25 71.8438C638.922 72.4167 638.299 73.1536 637.383 74.0547L636.492 74.9375L635.742 75.6719C635.268 76.151 634.885 76.6146 634.594 77.0625C634.302 77.5104 634.141 78.0443 634.109 78.6641H639.938V80Z" fill="black"/>
</svg>
