<svg width="759" height="443" viewBox="0 0 759 443" fill="none" xmlns="http://www.w3.org/2000/svg">
<rect width="759" height="443" fill="white"/>
<mask id="path-1-outside-1_1_5" maskUnits="userSpaceOnUse" x="537" y="124" width="162" height="52" fill="black">
<rect fill="white" x="537" y="124" width="162" height="52"/>
<path fill-rule="evenodd" clip-rule="evenodd" d="M618 125H538V175H618H698V125H618Z"/>
</mask>
<path fill-rule="evenodd" clip-rule="evenodd" d="M618 125H538V175H618H698V125H618Z" fill="#D9D9D9"/>
<path d="M538 125V124H537V125H538ZM538 175H537V176H538V175ZM698 175V176H699V175H698ZM698 125H699V124H698V125ZM538 126H618V124H538V126ZM539 175V125H537V175H539ZM618 174H538V176H618V174ZM698 174H618V176H698V174ZM697 125V175H699V125H697ZM618 126H698V124H618V126Z" fill="black" mask="url(#path-1-outside-1_1_5)"/>
<mask id="path-3-outside-2_1_5" maskUnits="userSpaceOnUse" x="377" y="124" width="162" height="52" fill="black">
<rect fill="white" x="377" y="124" width="162" height="52"/>
<path fill-rule="evenodd" clip-rule="evenodd" d="M458 125H378V175H458H538V125H458Z"/>
</mask>
<path fill-rule="evenodd" clip-rule="evenodd" d="M458 125H378V175H458H538V125H458Z" fill="#D9D9D9"/>
<path d="M378 125V124H377V125H378ZM378 175H377V176H378V175ZM538 175V176H539V175H538ZM538 125H539V124H538V125ZM378 126H458V124H378V126ZM379 175V125H377V175H379ZM458 174H378V176H458V174ZM538 174H458V176H538V174ZM537 125V175H539V125H537ZM458 126H538V124H458V126Z" fill="black" mask="url(#path-3-outside-2_1_5)"/>
<mask id="path-5-outside-3_1_5" maskUnits="userSpaceOnUse" x="57" y="124" width="162" height="52" fill="black">
<rect fill="white" x="57" y="124" width="162" height="52"/>
<path fill-rule="evenodd" clip-rule="evenodd" d="M138 125H58V175H138H218V125H138Z"/>
</mask>
<path fill-rule="evenodd" clip-rule="evenodd" d="M138 125H58V175H138H218V125H138Z" fill="#D9D9D9"/>
<path d="M58 125V124H57V125H58ZM58 175H57V176H58V175ZM218 175V176H219V175H218ZM218 125H219V124H218V125ZM58 126H138V124H58V126ZM59 175V125H57V175H59ZM138 174H58V176H138V174ZM218 174H138V176H218V174ZM217 125V175H219V125H217ZM138 126H218V124H138V126Z" fill="black" mask="url(#path-5-outside-3_1_5)"/>
<rect x="217.5" y="124.5" width="81" height="51" fill="#D9D9D9" stroke="black"/>
<rect x="297.5" y="124.5" width="81" height="51" fill="#D9D9D9" stroke="black"/>
<rect x="58.5" y="175.5" width="639" height="166" fill="#D9D9D9" stroke="black"/>
<path d="M242.656 157V149.484H240.234V148.273H244.109V155.789H246.539V157H242.656ZM242.414 145.125C242.414 144.797 242.526 144.552 242.75 144.391C242.974 144.229 243.185 144.148 243.383 144.148C243.586 144.148 243.799 144.229 244.023 144.391C244.247 144.552 244.359 144.797 244.359 145.125C244.359 145.448 244.247 145.69 244.023 145.852C243.799 146.013 243.586 146.094 243.383 146.094C243.185 146.094 242.974 146.013 242.75 145.852C242.526 145.69 242.414 145.448 242.414 145.125ZM249.82 157V148.273H251.273V150.18C251.69 149.508 252.193 148.982 252.781 148.602C253.37 148.221 253.958 148.031 254.547 148.031C255.062 148.031 255.531 148.169 255.953 148.445C256.375 148.716 256.669 149.073 256.836 149.516C257.008 149.958 257.094 150.828 257.094 152.125V157H255.641V151.945C255.641 151.107 255.599 150.555 255.516 150.289C255.438 150.018 255.289 149.797 255.07 149.625C254.857 149.453 254.622 149.367 254.367 149.367C253.857 149.367 253.307 149.609 252.719 150.094C252.135 150.578 251.654 151.185 251.273 151.914V157H249.82ZM266.727 156.648C266.044 156.935 265.549 157.104 265.242 157.156C264.935 157.214 264.638 157.242 264.352 157.242C263.742 157.242 263.185 157.125 262.68 156.891C262.174 156.656 261.792 156.31 261.531 155.852C261.276 155.393 261.148 154.685 261.148 153.727V150.211H258.969V149H261.148V145.484H262.602V149H266.484V150.211H262.602V153.703C262.602 154.406 262.685 154.904 262.852 155.195C263.018 155.482 263.24 155.693 263.516 155.828C263.797 155.964 264.128 156.031 264.508 156.031C265.211 156.031 265.951 155.81 266.727 155.367V156.648ZM272.266 155.789V146.43C271.828 146.779 271.404 147.076 270.992 147.32C270.581 147.565 270.016 147.815 269.297 148.07V146.758C270.438 146.273 271.427 145.646 272.266 144.875H273.719V155.789H276.633V157H269.297V155.789H272.266ZM279.719 151.312C280.094 150.755 280.557 150.302 281.109 149.953C281.667 149.599 282.279 149.422 282.945 149.422C283.576 149.422 284.172 149.576 284.734 149.883C285.302 150.19 285.734 150.62 286.031 151.172C286.328 151.719 286.477 152.357 286.477 153.086C286.477 154.237 286.107 155.24 285.367 156.094C284.633 156.943 283.664 157.367 282.461 157.367C281.044 157.367 279.984 156.776 279.281 155.594C278.583 154.406 278.234 152.898 278.234 151.07C278.234 149.049 278.68 147.453 279.57 146.281C280.461 145.104 281.667 144.516 283.188 144.516C284.005 144.516 284.799 144.635 285.57 144.875V146.344C284.706 145.932 283.891 145.727 283.125 145.727C282.042 145.727 281.203 146.224 280.609 147.219C280.016 148.214 279.719 149.474 279.719 151V151.312ZM282.57 156.156C282.961 156.156 283.354 156.042 283.75 155.812C284.146 155.578 284.456 155.221 284.68 154.742C284.909 154.258 285.023 153.732 285.023 153.164C285.023 152.424 284.831 151.818 284.445 151.344C284.065 150.87 283.521 150.633 282.812 150.633C282.078 150.633 281.474 150.909 281 151.461C280.531 152.008 280.297 152.674 280.297 153.461C280.297 154.253 280.526 154.901 280.984 155.406C281.448 155.906 281.977 156.156 282.57 156.156Z" fill="black"/>
<path d="M317.656 157V149.484H315.234V148.273H319.109V155.789H321.539V157H317.656ZM317.414 145.125C317.414 144.797 317.526 144.552 317.75 144.391C317.974 144.229 318.185 144.148 318.383 144.148C318.586 144.148 318.799 144.229 319.023 144.391C319.247 144.552 319.359 144.797 319.359 145.125C319.359 145.448 319.247 145.69 319.023 145.852C318.799 146.013 318.586 146.094 318.383 146.094C318.185 146.094 317.974 146.013 317.75 145.852C317.526 145.69 317.414 145.448 317.414 145.125ZM324.82 157V148.273H326.273V150.18C326.69 149.508 327.193 148.982 327.781 148.602C328.37 148.221 328.958 148.031 329.547 148.031C330.062 148.031 330.531 148.169 330.953 148.445C331.375 148.716 331.669 149.073 331.836 149.516C332.008 149.958 332.094 150.828 332.094 152.125V157H330.641V151.945C330.641 151.107 330.599 150.555 330.516 150.289C330.438 150.018 330.289 149.797 330.07 149.625C329.857 149.453 329.622 149.367 329.367 149.367C328.857 149.367 328.307 149.609 327.719 150.094C327.135 150.578 326.654 151.185 326.273 151.914V157H324.82ZM341.727 156.648C341.044 156.935 340.549 157.104 340.242 157.156C339.935 157.214 339.638 157.242 339.352 157.242C338.742 157.242 338.185 157.125 337.68 156.891C337.174 156.656 336.792 156.31 336.531 155.852C336.276 155.393 336.148 154.685 336.148 153.727V150.211H333.969V149H336.148V145.484H337.602V149H341.484V150.211H337.602V153.703C337.602 154.406 337.685 154.904 337.852 155.195C338.018 155.482 338.24 155.693 338.516 155.828C338.797 155.964 339.128 156.031 339.508 156.031C340.211 156.031 340.951 155.81 341.727 155.367V156.648ZM347.266 155.789V146.43C346.828 146.779 346.404 147.076 345.992 147.32C345.581 147.565 345.016 147.815 344.297 148.07V146.758C345.438 146.273 346.427 145.646 347.266 144.875H348.719V155.789H351.633V157H344.297V155.789H347.266ZM354.719 151.312C355.094 150.755 355.557 150.302 356.109 149.953C356.667 149.599 357.279 149.422 357.945 149.422C358.576 149.422 359.172 149.576 359.734 149.883C360.302 150.19 360.734 150.62 361.031 151.172C361.328 151.719 361.477 152.357 361.477 153.086C361.477 154.237 361.107 155.24 360.367 156.094C359.633 156.943 358.664 157.367 357.461 157.367C356.044 157.367 354.984 156.776 354.281 155.594C353.583 154.406 353.234 152.898 353.234 151.07C353.234 149.049 353.68 147.453 354.57 146.281C355.461 145.104 356.667 144.516 358.188 144.516C359.005 144.516 359.799 144.635 360.57 144.875V146.344C359.706 145.932 358.891 145.727 358.125 145.727C357.042 145.727 356.203 146.224 355.609 147.219C355.016 148.214 354.719 149.474 354.719 151V151.312ZM357.57 156.156C357.961 156.156 358.354 156.042 358.75 155.812C359.146 155.578 359.456 155.221 359.68 154.742C359.909 154.258 360.023 153.732 360.023 153.164C360.023 152.424 359.831 151.818 359.445 151.344C359.065 150.87 358.521 150.633 357.812 150.633C357.078 150.633 356.474 150.909 356 151.461C355.531 152.008 355.297 152.674 355.297 153.461C355.297 154.253 355.526 154.901 355.984 155.406C356.448 155.906 356.977 156.156 357.57 156.156Z" fill="black"/>
<path d="M306.555 100.234C307.003 99.5052 307.536 98.9557 308.156 98.5859C308.776 98.2161 309.346 98.0312 309.867 98.0312C310.596 98.0312 311.253 98.3464 311.836 98.9766C312.419 99.6068 312.711 100.562 312.711 101.844C312.711 102.854 312.516 103.758 312.125 104.555C311.74 105.346 311.224 105.974 310.578 106.438C309.932 106.896 309.133 107.125 308.18 107.125C307.909 107.125 307.492 107.096 306.93 107.039C306.846 107.029 306.721 107.016 306.555 107H305.102V94.3906H306.555V100.234ZM306.555 101.961V105.703C307.081 105.839 307.565 105.906 308.008 105.906C308.888 105.906 309.628 105.562 310.227 104.875C310.831 104.182 311.133 103.237 311.133 102.039C311.133 101.169 310.969 100.516 310.641 100.078C310.312 99.6406 309.94 99.4219 309.523 99.4219C309.07 99.4219 308.57 99.651 308.023 100.109C307.482 100.568 306.992 101.185 306.555 101.961ZM318.414 107.242C317.164 107.242 316.164 106.807 315.414 105.938C314.664 105.062 314.289 103.961 314.289 102.633C314.289 101.305 314.664 100.206 315.414 99.3359C316.164 98.4661 317.164 98.0312 318.414 98.0312C319.659 98.0312 320.656 98.4661 321.406 99.3359C322.156 100.206 322.531 101.305 322.531 102.633C322.531 103.961 322.156 105.062 321.406 105.938C320.656 106.807 319.659 107.242 318.414 107.242ZM318.414 106.031C319.19 106.031 319.807 105.729 320.266 105.125C320.724 104.521 320.953 103.69 320.953 102.633C320.953 101.581 320.724 100.753 320.266 100.148C319.807 99.5443 319.19 99.2422 318.414 99.2422C317.633 99.2422 317.013 99.5443 316.555 100.148C316.096 100.753 315.867 101.581 315.867 102.633C315.867 103.69 316.096 104.521 316.555 105.125C317.013 105.729 317.633 106.031 318.414 106.031ZM330.258 105.039C329.815 105.768 329.281 106.318 328.656 106.688C328.036 107.057 327.466 107.242 326.945 107.242C326.216 107.242 325.56 106.927 324.977 106.297C324.398 105.667 324.109 104.711 324.109 103.43C324.109 102.419 324.302 101.518 324.688 100.727C325.073 99.9297 325.589 99.3021 326.234 98.8438C326.88 98.3802 327.68 98.1484 328.633 98.1484C328.909 98.1484 329.326 98.1771 329.883 98.2344C329.966 98.2448 330.091 98.2578 330.258 98.2734V94.3906H331.719V107H330.258V105.039ZM330.258 103.312V99.5703C329.742 99.4349 329.263 99.3672 328.82 99.3672C327.924 99.3672 327.177 99.7135 326.578 100.406C325.984 101.099 325.688 102.042 325.688 103.234C325.688 104.099 325.849 104.753 326.172 105.195C326.5 105.633 326.872 105.852 327.289 105.852C327.742 105.852 328.242 105.622 328.789 105.164C329.336 104.706 329.826 104.089 330.258 103.312ZM337.25 106.648L333.219 98.2734H334.82L338.031 104.82L340.719 98.2734H342.18L338.797 106.383C338.083 108.096 337.404 109.234 336.758 109.797C336.117 110.359 335.286 110.641 334.266 110.641C333.823 110.641 333.427 110.602 333.078 110.523V109.242C333.479 109.367 333.862 109.43 334.227 109.43C334.695 109.43 335.112 109.339 335.477 109.156C335.841 108.974 336.174 108.651 336.477 108.188C336.779 107.724 336.992 107.323 337.117 106.984L337.25 106.648ZM350.57 105.664V107H344.023V94.875H350.445V96.0938H345.602V100.211H349.961V101.422H345.602V105.664H350.57ZM353.258 107V98.2734H354.711V100.18C355.128 99.5078 355.63 98.9818 356.219 98.6016C356.807 98.2214 357.396 98.0312 357.984 98.0312C358.5 98.0312 358.969 98.1693 359.391 98.4453C359.812 98.7161 360.107 99.0729 360.273 99.5156C360.445 99.9583 360.531 100.828 360.531 102.125V107H359.078V101.945C359.078 101.107 359.036 100.555 358.953 100.289C358.875 100.018 358.727 99.7969 358.508 99.625C358.294 99.4531 358.06 99.3672 357.805 99.3672C357.294 99.3672 356.745 99.6094 356.156 100.094C355.573 100.578 355.091 101.185 354.711 101.914V107H353.258ZM370.211 106.75C369.237 107.078 368.31 107.242 367.43 107.242C366.555 107.242 365.776 107.042 365.094 106.641C364.417 106.234 363.888 105.688 363.508 105C363.128 104.307 362.938 103.521 362.938 102.641C362.938 101.318 363.367 100.219 364.227 99.3438C365.091 98.4688 366.133 98.0312 367.352 98.0312C368.253 98.0312 369.206 98.2005 370.211 98.5391V99.9375C369.195 99.474 368.286 99.2422 367.484 99.2422C366.953 99.2422 366.453 99.375 365.984 99.6406C365.516 99.901 365.154 100.31 364.898 100.867C364.643 101.424 364.516 101.997 364.516 102.586C364.516 103.372 364.76 104.122 365.25 104.836C365.745 105.549 366.518 105.906 367.57 105.906C367.888 105.906 368.201 105.885 368.508 105.844C368.815 105.797 369.383 105.633 370.211 105.352V106.75Z" fill="black"/>
<path d="M452.805 107.242C451.555 107.242 450.555 106.807 449.805 105.938C449.055 105.062 448.68 103.961 448.68 102.633C448.68 101.305 449.055 100.206 449.805 99.3359C450.555 98.4661 451.555 98.0312 452.805 98.0312C454.049 98.0312 455.047 98.4661 455.797 99.3359C456.547 100.206 456.922 101.305 456.922 102.633C456.922 103.961 456.547 105.062 455.797 105.938C455.047 106.807 454.049 107.242 452.805 107.242ZM452.805 106.031C453.581 106.031 454.198 105.729 454.656 105.125C455.115 104.521 455.344 103.69 455.344 102.633C455.344 101.581 455.115 100.753 454.656 100.148C454.198 99.5443 453.581 99.2422 452.805 99.2422C452.023 99.2422 451.404 99.5443 450.945 100.148C450.487 100.753 450.258 101.581 450.258 102.633C450.258 103.69 450.487 104.521 450.945 105.125C451.404 105.729 452.023 106.031 452.805 106.031ZM460.164 100.234C460.612 99.5052 461.146 98.9557 461.766 98.5859C462.385 98.2161 462.956 98.0312 463.477 98.0312C464.206 98.0312 464.862 98.3464 465.445 98.9766C466.029 99.6068 466.32 100.562 466.32 101.844C466.32 102.854 466.125 103.758 465.734 104.555C465.349 105.346 464.833 105.974 464.188 106.438C463.542 106.896 462.742 107.125 461.789 107.125C461.518 107.125 461.102 107.096 460.539 107.039C460.456 107.029 460.331 107.016 460.164 107V110.391H458.711V98.2734H460.164V100.234ZM460.164 101.961V105.703C460.69 105.839 461.174 105.906 461.617 105.906C462.497 105.906 463.237 105.562 463.836 104.875C464.44 104.182 464.742 103.237 464.742 102.039C464.742 101.169 464.578 100.516 464.25 100.078C463.922 99.6406 463.549 99.4219 463.133 99.4219C462.68 99.4219 462.18 99.651 461.633 100.109C461.091 100.568 460.602 101.185 460.164 101.961Z" fill="black"/>
<path d="M604.312 106.539V105C604.896 105.38 605.513 105.648 606.164 105.805C606.815 105.956 607.367 106.031 607.82 106.031C608.555 106.031 609.083 105.914 609.406 105.68C609.729 105.44 609.891 105.143 609.891 104.789C609.891 104.555 609.815 104.354 609.664 104.188C609.513 104.021 609.138 103.815 608.539 103.57L608.039 103.367L607.031 102.969C605.948 102.547 605.266 102.156 604.984 101.797C604.698 101.443 604.555 101.01 604.555 100.5C604.555 99.7812 604.831 99.1901 605.383 98.7266C605.94 98.263 606.841 98.0312 608.086 98.0312C609.018 98.0312 609.901 98.1667 610.734 98.4375V99.7578C609.776 99.4141 608.875 99.2422 608.031 99.2422C607.417 99.2422 606.935 99.3516 606.586 99.5703C606.242 99.7839 606.07 100.052 606.07 100.375C606.07 100.688 606.221 100.938 606.523 101.125C606.82 101.312 607.305 101.529 607.977 101.773L608.961 102.133C609.862 102.461 610.495 102.818 610.859 103.203C611.224 103.589 611.406 104.07 611.406 104.648C611.406 105.404 611.115 106.026 610.531 106.516C609.953 107 609.026 107.242 607.75 107.242C606.635 107.242 605.49 107.008 604.312 106.539ZM621.078 106.422C619.917 106.974 618.818 107.25 617.781 107.25C616.995 107.25 616.292 107.055 615.672 106.664C615.052 106.273 614.555 105.716 614.18 104.992C613.81 104.263 613.625 103.484 613.625 102.656C613.625 101.859 613.802 101.094 614.156 100.359C614.51 99.625 615.005 99.0547 615.641 98.6484C616.276 98.237 616.984 98.0312 617.766 98.0312C618.802 98.0312 619.633 98.401 620.258 99.1406C620.888 99.8802 621.203 101.021 621.203 102.562V102.875H615.188C615.188 103.479 615.312 104.031 615.562 104.531C615.818 105.031 616.151 105.406 616.562 105.656C616.974 105.906 617.443 106.031 617.969 106.031C618.906 106.031 619.943 105.719 621.078 105.094V106.422ZM615.273 101.789H619.625V101.578C619.625 100.865 619.451 100.297 619.102 99.875C618.753 99.4531 618.286 99.2422 617.703 99.2422C617.115 99.2422 616.604 99.4583 616.172 99.8906C615.745 100.318 615.445 100.951 615.273 101.789ZM629.258 105.039C628.815 105.768 628.281 106.318 627.656 106.688C627.036 107.057 626.466 107.242 625.945 107.242C625.216 107.242 624.56 106.927 623.977 106.297C623.398 105.667 623.109 104.711 623.109 103.43C623.109 102.419 623.302 101.518 623.688 100.727C624.073 99.9297 624.589 99.3021 625.234 98.8438C625.88 98.3802 626.68 98.1484 627.633 98.1484C627.909 98.1484 628.326 98.1771 628.883 98.2344C628.966 98.2448 629.091 98.2578 629.258 98.2734H630.719V110.391H629.258V105.039ZM629.258 103.312V99.5703C628.742 99.4349 628.263 99.3672 627.82 99.3672C626.924 99.3672 626.177 99.7135 625.578 100.406C624.984 101.099 624.688 102.042 624.688 103.234C624.688 104.099 624.849 104.753 625.172 105.195C625.5 105.633 625.872 105.852 626.289 105.852C626.742 105.852 627.242 105.622 627.789 105.164C628.336 104.706 628.826 104.089 629.258 103.312Z" fill="black"/>
<path d="M97.5547 100.234C98.0026 99.5052 98.5365 98.9557 99.1562 98.5859C99.776 98.2161 100.346 98.0312 100.867 98.0312C101.596 98.0312 102.253 98.3464 102.836 98.9766C103.419 99.6068 103.711 100.562 103.711 101.844C103.711 102.854 103.516 103.758 103.125 104.555C102.74 105.346 102.224 105.974 101.578 106.438C100.932 106.896 100.133 107.125 99.1797 107.125C98.9089 107.125 98.4922 107.096 97.9297 107.039C97.8464 107.029 97.7214 107.016 97.5547 107V110.391H96.1016V98.2734H97.5547V100.234ZM97.5547 101.961V105.703C98.0807 105.839 98.5651 105.906 99.0078 105.906C99.888 105.906 100.628 105.562 101.227 104.875C101.831 104.182 102.133 103.237 102.133 102.039C102.133 101.169 101.969 100.516 101.641 100.078C101.312 99.6406 100.94 99.4219 100.523 99.4219C100.07 99.4219 99.5703 99.651 99.0234 100.109C98.4818 100.568 97.9922 101.185 97.5547 101.961ZM111.555 105.039C111.112 105.768 110.578 106.318 109.953 106.688C109.333 107.057 108.763 107.242 108.242 107.242C107.513 107.242 106.857 106.927 106.273 106.297C105.695 105.667 105.406 104.711 105.406 103.43C105.406 102.419 105.599 101.518 105.984 100.727C106.37 99.9297 106.885 99.3021 107.531 98.8438C108.177 98.3802 108.977 98.1484 109.93 98.1484C110.206 98.1484 110.622 98.1771 111.18 98.2344C111.263 98.2448 111.388 98.2578 111.555 98.2734H113.016V104.438C113.016 105.49 113.125 106.344 113.344 107H111.828C111.714 106.521 111.622 105.867 111.555 105.039ZM111.555 103.312V99.5703C111.039 99.4349 110.56 99.3672 110.117 99.3672C109.221 99.3672 108.474 99.7135 107.875 100.406C107.281 101.099 106.984 102.042 106.984 103.234C106.984 104.099 107.146 104.753 107.469 105.195C107.797 105.633 108.169 105.852 108.586 105.852C109.039 105.852 109.539 105.622 110.086 105.164C110.633 104.706 111.122 104.089 111.555 103.312ZM122.773 106.75C121.799 107.078 120.872 107.242 119.992 107.242C119.117 107.242 118.339 107.042 117.656 106.641C116.979 106.234 116.451 105.688 116.07 105C115.69 104.307 115.5 103.521 115.5 102.641C115.5 101.318 115.93 100.219 116.789 99.3438C117.654 98.4688 118.695 98.0312 119.914 98.0312C120.815 98.0312 121.768 98.2005 122.773 98.5391V99.9375C121.758 99.474 120.849 99.2422 120.047 99.2422C119.516 99.2422 119.016 99.375 118.547 99.6406C118.078 99.901 117.716 100.31 117.461 100.867C117.206 101.424 117.078 101.997 117.078 102.586C117.078 103.372 117.323 104.122 117.812 104.836C118.307 105.549 119.081 105.906 120.133 105.906C120.451 105.906 120.763 105.885 121.07 105.844C121.378 105.797 121.945 105.633 122.773 105.352V106.75ZM125.43 107V94.3906H126.883V102.312L131.078 98.2734H133.016L128.828 102.312L133.125 107H131.125L126.883 102.312V107H125.43ZM141.906 106.422C140.745 106.974 139.646 107.25 138.609 107.25C137.823 107.25 137.12 107.055 136.5 106.664C135.88 106.273 135.383 105.716 135.008 104.992C134.638 104.263 134.453 103.484 134.453 102.656C134.453 101.859 134.63 101.094 134.984 100.359C135.339 99.625 135.833 99.0547 136.469 98.6484C137.104 98.237 137.812 98.0312 138.594 98.0312C139.63 98.0312 140.461 98.401 141.086 99.1406C141.716 99.8802 142.031 101.021 142.031 102.562V102.875H136.016C136.016 103.479 136.141 104.031 136.391 104.531C136.646 105.031 136.979 105.406 137.391 105.656C137.802 105.906 138.271 106.031 138.797 106.031C139.734 106.031 140.771 105.719 141.906 105.094V106.422ZM136.102 101.789H140.453V101.578C140.453 100.865 140.279 100.297 139.93 99.875C139.581 99.4531 139.115 99.2422 138.531 99.2422C137.943 99.2422 137.432 99.4583 137 99.8906C136.573 100.318 136.273 100.951 136.102 101.789ZM151.555 106.648C150.872 106.935 150.378 107.104 150.07 107.156C149.763 107.214 149.466 107.242 149.18 107.242C148.57 107.242 148.013 107.125 147.508 106.891C147.003 106.656 146.62 106.31 146.359 105.852C146.104 105.393 145.977 104.685 145.977 103.727V100.211H143.797V99H145.977V95.4844H147.43V99H151.312V100.211H147.43V103.703C147.43 104.406 147.513 104.904 147.68 105.195C147.846 105.482 148.068 105.693 148.344 105.828C148.625 105.964 148.956 106.031 149.336 106.031C150.039 106.031 150.779 105.81 151.555 105.367V106.648ZM160.914 105.664V107H154.367V94.875H155.945V105.664H160.914ZM170.734 106.422C169.573 106.974 168.474 107.25 167.438 107.25C166.651 107.25 165.948 107.055 165.328 106.664C164.708 106.273 164.211 105.716 163.836 104.992C163.466 104.263 163.281 103.484 163.281 102.656C163.281 101.859 163.458 101.094 163.812 100.359C164.167 99.625 164.661 99.0547 165.297 98.6484C165.932 98.237 166.641 98.0312 167.422 98.0312C168.458 98.0312 169.289 98.401 169.914 99.1406C170.544 99.8802 170.859 101.021 170.859 102.562V102.875H164.844C164.844 103.479 164.969 104.031 165.219 104.531C165.474 105.031 165.807 105.406 166.219 105.656C166.63 105.906 167.099 106.031 167.625 106.031C168.562 106.031 169.599 105.719 170.734 105.094V106.422ZM164.93 101.789H169.281V101.578C169.281 100.865 169.107 100.297 168.758 99.875C168.409 99.4531 167.943 99.2422 167.359 99.2422C166.771 99.2422 166.26 99.4583 165.828 99.8906C165.401 100.318 165.102 100.951 164.93 101.789ZM173.086 107V98.2734H174.539V100.18C174.956 99.5078 175.458 98.9818 176.047 98.6016C176.635 98.2214 177.224 98.0312 177.812 98.0312C178.328 98.0312 178.797 98.1693 179.219 98.4453C179.641 98.7161 179.935 99.0729 180.102 99.5156C180.273 99.9583 180.359 100.828 180.359 102.125V107H178.906V101.945C178.906 101.107 178.865 100.555 178.781 100.289C178.703 100.018 178.555 99.7969 178.336 99.625C178.122 99.4531 177.888 99.3672 177.633 99.3672C177.122 99.3672 176.573 99.6094 175.984 100.094C175.401 100.578 174.919 101.185 174.539 101.914V107H173.086Z" fill="black"/>
<path d="M240.211 107V94.3906H241.664V100.18C242.081 99.5078 242.583 98.9818 243.172 98.6016C243.76 98.2214 244.349 98.0312 244.938 98.0312C245.432 98.0312 245.883 98.1589 246.289 98.4141C246.701 98.6641 246.987 98.9688 247.148 99.3281C247.279 99.6042 247.367 99.8984 247.414 100.211C247.461 100.518 247.484 101.156 247.484 102.125V107H246.031V101.945C246.031 101.107 245.99 100.555 245.906 100.289C245.828 100.018 245.68 99.7969 245.461 99.625C245.247 99.4531 245.013 99.3672 244.758 99.3672C244.247 99.3672 243.698 99.6094 243.109 100.094C242.526 100.578 242.044 101.185 241.664 101.914V107H240.211ZM256.867 105.664V107H250.32V94.875H251.898V105.664H256.867ZM266.688 106.422C265.526 106.974 264.427 107.25 263.391 107.25C262.604 107.25 261.901 107.055 261.281 106.664C260.661 106.273 260.164 105.716 259.789 104.992C259.419 104.263 259.234 103.484 259.234 102.656C259.234 101.859 259.411 101.094 259.766 100.359C260.12 99.625 260.615 99.0547 261.25 98.6484C261.885 98.237 262.594 98.0312 263.375 98.0312C264.411 98.0312 265.242 98.401 265.867 99.1406C266.497 99.8802 266.812 101.021 266.812 102.562V102.875H260.797C260.797 103.479 260.922 104.031 261.172 104.531C261.427 105.031 261.76 105.406 262.172 105.656C262.583 105.906 263.052 106.031 263.578 106.031C264.516 106.031 265.552 105.719 266.688 105.094V106.422ZM260.883 101.789H265.234V101.578C265.234 100.865 265.06 100.297 264.711 99.875C264.362 99.4531 263.896 99.2422 263.312 99.2422C262.724 99.2422 262.214 99.4583 261.781 99.8906C261.354 100.318 261.055 100.951 260.883 101.789ZM269.039 107V98.2734H270.492V100.18C270.909 99.5078 271.411 98.9818 272 98.6016C272.589 98.2214 273.177 98.0312 273.766 98.0312C274.281 98.0312 274.75 98.1693 275.172 98.4453C275.594 98.7161 275.888 99.0729 276.055 99.5156C276.227 99.9583 276.312 100.828 276.312 102.125V107H274.859V101.945C274.859 101.107 274.818 100.555 274.734 100.289C274.656 100.018 274.508 99.7969 274.289 99.625C274.076 99.4531 273.841 99.3672 273.586 99.3672C273.076 99.3672 272.526 99.6094 271.938 100.094C271.354 100.578 270.872 101.185 270.492 101.914V107H269.039Z" fill="black"/>
<path d="M362.555 258.234C363.003 257.505 363.536 256.956 364.156 256.586C364.776 256.216 365.346 256.031 365.867 256.031C366.596 256.031 367.253 256.346 367.836 256.977C368.419 257.607 368.711 258.562 368.711 259.844C368.711 260.854 368.516 261.758 368.125 262.555C367.74 263.346 367.224 263.974 366.578 264.438C365.932 264.896 365.133 265.125 364.18 265.125C363.909 265.125 363.492 265.096 362.93 265.039C362.846 265.029 362.721 265.016 362.555 265H361.102V252.391H362.555V258.234ZM362.555 259.961V263.703C363.081 263.839 363.565 263.906 364.008 263.906C364.888 263.906 365.628 263.562 366.227 262.875C366.831 262.182 367.133 261.237 367.133 260.039C367.133 259.169 366.969 258.516 366.641 258.078C366.312 257.641 365.94 257.422 365.523 257.422C365.07 257.422 364.57 257.651 364.023 258.109C363.482 258.568 362.992 259.185 362.555 259.961ZM374.414 265.242C373.164 265.242 372.164 264.807 371.414 263.938C370.664 263.062 370.289 261.961 370.289 260.633C370.289 259.305 370.664 258.206 371.414 257.336C372.164 256.466 373.164 256.031 374.414 256.031C375.659 256.031 376.656 256.466 377.406 257.336C378.156 258.206 378.531 259.305 378.531 260.633C378.531 261.961 378.156 263.062 377.406 263.938C376.656 264.807 375.659 265.242 374.414 265.242ZM374.414 264.031C375.19 264.031 375.807 263.729 376.266 263.125C376.724 262.521 376.953 261.69 376.953 260.633C376.953 259.581 376.724 258.753 376.266 258.148C375.807 257.544 375.19 257.242 374.414 257.242C373.633 257.242 373.013 257.544 372.555 258.148C372.096 258.753 371.867 259.581 371.867 260.633C371.867 261.69 372.096 262.521 372.555 263.125C373.013 263.729 373.633 264.031 374.414 264.031ZM386.258 263.039C385.815 263.768 385.281 264.318 384.656 264.688C384.036 265.057 383.466 265.242 382.945 265.242C382.216 265.242 381.56 264.927 380.977 264.297C380.398 263.667 380.109 262.711 380.109 261.43C380.109 260.419 380.302 259.518 380.688 258.727C381.073 257.93 381.589 257.302 382.234 256.844C382.88 256.38 383.68 256.148 384.633 256.148C384.909 256.148 385.326 256.177 385.883 256.234C385.966 256.245 386.091 256.258 386.258 256.273V252.391H387.719V265H386.258V263.039ZM386.258 261.312V257.57C385.742 257.435 385.263 257.367 384.82 257.367C383.924 257.367 383.177 257.714 382.578 258.406C381.984 259.099 381.688 260.042 381.688 261.234C381.688 262.099 381.849 262.753 382.172 263.195C382.5 263.633 382.872 263.852 383.289 263.852C383.742 263.852 384.242 263.622 384.789 263.164C385.336 262.706 385.826 262.089 386.258 261.312ZM393.25 264.648L389.219 256.273H390.82L394.031 262.82L396.719 256.273H398.18L394.797 264.383C394.083 266.096 393.404 267.234 392.758 267.797C392.117 268.359 391.286 268.641 390.266 268.641C389.823 268.641 389.427 268.602 389.078 268.523V267.242C389.479 267.367 389.862 267.43 390.227 267.43C390.695 267.43 391.112 267.339 391.477 267.156C391.841 266.974 392.174 266.651 392.477 266.188C392.779 265.724 392.992 265.323 393.117 264.984L393.25 264.648Z" fill="black"/>
<path d="M117.656 157V149.484H115.234V148.273H119.109V155.789H121.539V157H117.656ZM117.414 145.125C117.414 144.797 117.526 144.552 117.75 144.391C117.974 144.229 118.185 144.148 118.383 144.148C118.586 144.148 118.799 144.229 119.023 144.391C119.247 144.552 119.359 144.797 119.359 145.125C119.359 145.448 119.247 145.69 119.023 145.852C118.799 146.013 118.586 146.094 118.383 146.094C118.185 146.094 117.974 146.013 117.75 145.852C117.526 145.69 117.414 145.448 117.414 145.125ZM124.82 157V148.273H126.273V150.18C126.69 149.508 127.193 148.982 127.781 148.602C128.37 148.221 128.958 148.031 129.547 148.031C130.062 148.031 130.531 148.169 130.953 148.445C131.375 148.716 131.669 149.073 131.836 149.516C132.008 149.958 132.094 150.828 132.094 152.125V157H130.641V151.945C130.641 151.107 130.599 150.555 130.516 150.289C130.438 150.018 130.289 149.797 130.07 149.625C129.857 149.453 129.622 149.367 129.367 149.367C128.857 149.367 128.307 149.609 127.719 150.094C127.135 150.578 126.654 151.185 126.273 151.914V157H124.82ZM141.727 156.648C141.044 156.935 140.549 157.104 140.242 157.156C139.935 157.214 139.638 157.242 139.352 157.242C138.742 157.242 138.185 157.125 137.68 156.891C137.174 156.656 136.792 156.31 136.531 155.852C136.276 155.393 136.148 154.685 136.148 153.727V150.211H133.969V149H136.148V145.484H137.602V149H141.484V150.211H137.602V153.703C137.602 154.406 137.685 154.904 137.852 155.195C138.018 155.482 138.24 155.693 138.516 155.828C138.797 155.964 139.128 156.031 139.508 156.031C140.211 156.031 140.951 155.81 141.727 155.367V156.648ZM143.961 156.781V155.25C145.154 155.854 146.188 156.156 147.062 156.156C147.865 156.156 148.526 155.914 149.047 155.43C149.573 154.94 149.836 154.312 149.836 153.547C149.836 152.776 149.547 152.148 148.969 151.664C148.396 151.18 147.419 150.938 146.039 150.938H145.234V149.727H146.352C147.367 149.727 148.102 149.5 148.555 149.047C149.008 148.589 149.234 148.081 149.234 147.523C149.234 147.018 149.049 146.594 148.68 146.25C148.31 145.901 147.742 145.727 146.977 145.727C146.117 145.727 145.193 145.969 144.203 146.453V145.07C145.193 144.701 146.099 144.516 146.922 144.516C148.396 144.516 149.411 144.807 149.969 145.391C150.531 145.969 150.812 146.63 150.812 147.375C150.812 147.927 150.664 148.445 150.367 148.93C150.07 149.414 149.523 149.846 148.727 150.227C149.43 150.435 149.961 150.69 150.32 150.992C150.68 151.294 150.951 151.651 151.133 152.062C151.32 152.474 151.414 152.935 151.414 153.445C151.414 154.581 150.992 155.518 150.148 156.258C149.31 156.997 148.224 157.367 146.891 157.367C146.505 157.367 146.083 157.339 145.625 157.281C145.172 157.224 144.617 157.057 143.961 156.781ZM160.938 157H153.602V155.664C153.602 155.32 153.672 154.953 153.812 154.562C153.953 154.167 154.221 153.724 154.617 153.234C155.013 152.745 155.432 152.273 155.875 151.82L156.703 150.977C156.87 150.805 157.234 150.406 157.797 149.781C158.359 149.156 158.729 148.677 158.906 148.344C159.089 148.01 159.18 147.682 159.18 147.359C159.18 146.839 158.971 146.438 158.555 146.156C158.138 145.87 157.669 145.727 157.148 145.727C156.852 145.727 156.518 145.76 156.148 145.828C155.784 145.896 155.464 145.977 155.188 146.07C154.911 146.159 154.464 146.344 153.844 146.625V145.336C154.5 145.023 155.156 144.81 155.812 144.695C156.474 144.576 157.018 144.516 157.445 144.516C158.076 144.516 158.654 144.62 159.18 144.828C159.711 145.031 160.104 145.349 160.359 145.781C160.62 146.214 160.75 146.674 160.75 147.164C160.75 147.711 160.583 148.271 160.25 148.844C159.922 149.417 159.299 150.154 158.383 151.055L157.492 151.938L156.742 152.672C156.268 153.151 155.885 153.615 155.594 154.062C155.302 154.51 155.141 155.044 155.109 155.664H160.938V157Z" fill="black"/>
<path d="M436.656 157V149.484H434.234V148.273H438.109V155.789H440.539V157H436.656ZM436.414 145.125C436.414 144.797 436.526 144.552 436.75 144.391C436.974 144.229 437.185 144.148 437.383 144.148C437.586 144.148 437.799 144.229 438.023 144.391C438.247 144.552 438.359 144.797 438.359 145.125C438.359 145.448 438.247 145.69 438.023 145.852C437.799 146.013 437.586 146.094 437.383 146.094C437.185 146.094 436.974 146.013 436.75 145.852C436.526 145.69 436.414 145.448 436.414 145.125ZM443.82 157V148.273H445.273V150.18C445.69 149.508 446.193 148.982 446.781 148.602C447.37 148.221 447.958 148.031 448.547 148.031C449.062 148.031 449.531 148.169 449.953 148.445C450.375 148.716 450.669 149.073 450.836 149.516C451.008 149.958 451.094 150.828 451.094 152.125V157H449.641V151.945C449.641 151.107 449.599 150.555 449.516 150.289C449.438 150.018 449.289 149.797 449.07 149.625C448.857 149.453 448.622 149.367 448.367 149.367C447.857 149.367 447.307 149.609 446.719 150.094C446.135 150.578 445.654 151.185 445.273 151.914V157H443.82ZM460.727 156.648C460.044 156.935 459.549 157.104 459.242 157.156C458.935 157.214 458.638 157.242 458.352 157.242C457.742 157.242 457.185 157.125 456.68 156.891C456.174 156.656 455.792 156.31 455.531 155.852C455.276 155.393 455.148 154.685 455.148 153.727V150.211H452.969V149H455.148V145.484H456.602V149H460.484V150.211H456.602V153.703C456.602 154.406 456.685 154.904 456.852 155.195C457.018 155.482 457.24 155.693 457.516 155.828C457.797 155.964 458.128 156.031 458.508 156.031C459.211 156.031 459.951 155.81 460.727 155.367V156.648ZM462.961 156.781V155.25C464.154 155.854 465.188 156.156 466.062 156.156C466.865 156.156 467.526 155.914 468.047 155.43C468.573 154.94 468.836 154.312 468.836 153.547C468.836 152.776 468.547 152.148 467.969 151.664C467.396 151.18 466.419 150.938 465.039 150.938H464.234V149.727H465.352C466.367 149.727 467.102 149.5 467.555 149.047C468.008 148.589 468.234 148.081 468.234 147.523C468.234 147.018 468.049 146.594 467.68 146.25C467.31 145.901 466.742 145.727 465.977 145.727C465.117 145.727 464.193 145.969 463.203 146.453V145.07C464.193 144.701 465.099 144.516 465.922 144.516C467.396 144.516 468.411 144.807 468.969 145.391C469.531 145.969 469.812 146.63 469.812 147.375C469.812 147.927 469.664 148.445 469.367 148.93C469.07 149.414 468.523 149.846 467.727 150.227C468.43 150.435 468.961 150.69 469.32 150.992C469.68 151.294 469.951 151.651 470.133 152.062C470.32 152.474 470.414 152.935 470.414 153.445C470.414 154.581 469.992 155.518 469.148 156.258C468.31 156.997 467.224 157.367 465.891 157.367C465.505 157.367 465.083 157.339 464.625 157.281C464.172 157.224 463.617 157.057 462.961 156.781ZM479.938 157H472.602V155.664C472.602 155.32 472.672 154.953 472.812 154.562C472.953 154.167 473.221 153.724 473.617 153.234C474.013 152.745 474.432 152.273 474.875 151.82L475.703 150.977C475.87 150.805 476.234 150.406 476.797 149.781C477.359 149.156 477.729 148.677 477.906 148.344C478.089 148.01 478.18 147.682 478.18 147.359C478.18 146.839 477.971 146.438 477.555 146.156C477.138 145.87 476.669 145.727 476.148 145.727C475.852 145.727 475.518 145.76 475.148 145.828C474.784 145.896 474.464 145.977 474.188 146.07C473.911 146.159 473.464 146.344 472.844 146.625V145.336C473.5 145.023 474.156 144.81 474.812 144.695C475.474 144.576 476.018 144.516 476.445 144.516C477.076 144.516 477.654 144.62 478.18 144.828C478.711 145.031 479.104 145.349 479.359 145.781C479.62 146.214 479.75 146.674 479.75 147.164C479.75 147.711 479.583 148.271 479.25 148.844C478.922 149.417 478.299 150.154 477.383 151.055L476.492 151.938L475.742 152.672C475.268 153.151 474.885 153.615 474.594 154.062C474.302 154.51 474.141 155.044 474.109 155.664H479.938V157Z" fill="black"/>
<path d="M596.656 157V149.484H594.234V148.273H598.109V155.789H600.539V157H596.656ZM596.414 145.125C596.414 144.797 596.526 144.552 596.75 144.391C596.974 144.229 597.185 144.148 597.383 144.148C597.586 144.148 597.799 144.229 598.023 144.391C598.247 144.552 598.359 144.797 598.359 145.125C598.359 145.448 598.247 145.69 598.023 145.852C597.799 146.013 597.586 146.094 597.383 146.094C597.185 146.094 596.974 146.013 596.75 145.852C596.526 145.69 596.414 145.448 596.414 145.125ZM603.82 157V148.273H605.273V150.18C605.69 149.508 606.193 148.982 606.781 148.602C607.37 148.221 607.958 148.031 608.547 148.031C609.062 148.031 609.531 148.169 609.953 148.445C610.375 148.716 610.669 149.073 610.836 149.516C611.008 149.958 611.094 150.828 611.094 152.125V157H609.641V151.945C609.641 151.107 609.599 150.555 609.516 150.289C609.438 150.018 609.289 149.797 609.07 149.625C608.857 149.453 608.622 149.367 608.367 149.367C607.857 149.367 607.307 149.609 606.719 150.094C606.135 150.578 605.654 151.185 605.273 151.914V157H603.82ZM620.727 156.648C620.044 156.935 619.549 157.104 619.242 157.156C618.935 157.214 618.638 157.242 618.352 157.242C617.742 157.242 617.185 157.125 616.68 156.891C616.174 156.656 615.792 156.31 615.531 155.852C615.276 155.393 615.148 154.685 615.148 153.727V150.211H612.969V149H615.148V145.484H616.602V149H620.484V150.211H616.602V153.703C616.602 154.406 616.685 154.904 616.852 155.195C617.018 155.482 617.24 155.693 617.516 155.828C617.797 155.964 618.128 156.031 618.508 156.031C619.211 156.031 619.951 155.81 620.727 155.367V156.648ZM622.961 156.781V155.25C624.154 155.854 625.188 156.156 626.062 156.156C626.865 156.156 627.526 155.914 628.047 155.43C628.573 154.94 628.836 154.312 628.836 153.547C628.836 152.776 628.547 152.148 627.969 151.664C627.396 151.18 626.419 150.938 625.039 150.938H624.234V149.727H625.352C626.367 149.727 627.102 149.5 627.555 149.047C628.008 148.589 628.234 148.081 628.234 147.523C628.234 147.018 628.049 146.594 627.68 146.25C627.31 145.901 626.742 145.727 625.977 145.727C625.117 145.727 624.193 145.969 623.203 146.453V145.07C624.193 144.701 625.099 144.516 625.922 144.516C627.396 144.516 628.411 144.807 628.969 145.391C629.531 145.969 629.812 146.63 629.812 147.375C629.812 147.927 629.664 148.445 629.367 148.93C629.07 149.414 628.523 149.846 627.727 150.227C628.43 150.435 628.961 150.69 629.32 150.992C629.68 151.294 629.951 151.651 630.133 152.062C630.32 152.474 630.414 152.935 630.414 153.445C630.414 154.581 629.992 155.518 629.148 156.258C628.31 156.997 627.224 157.367 625.891 157.367C625.505 157.367 625.083 157.339 624.625 157.281C624.172 157.224 623.617 157.057 622.961 156.781ZM639.938 157H632.602V155.664C632.602 155.32 632.672 154.953 632.812 154.562C632.953 154.167 633.221 153.724 633.617 153.234C634.013 152.745 634.432 152.273 634.875 151.82L635.703 150.977C635.87 150.805 636.234 150.406 636.797 149.781C637.359 149.156 637.729 148.677 637.906 148.344C638.089 148.01 638.18 147.682 638.18 147.359C638.18 146.839 637.971 146.438 637.555 146.156C637.138 145.87 636.669 145.727 636.148 145.727C635.852 145.727 635.518 145.76 635.148 145.828C634.784 145.896 634.464 145.977 634.188 146.07C633.911 146.159 633.464 146.344 632.844 146.625V145.336C633.5 145.023 634.156 144.81 634.812 144.695C635.474 144.576 636.018 144.516 636.445 144.516C637.076 144.516 637.654 144.62 638.18 144.828C638.711 145.031 639.104 145.349 639.359 145.781C639.62 146.214 639.75 146.674 639.75 147.164C639.75 147.711 639.583 148.271 639.25 148.844C638.922 149.417 638.299 150.154 637.383 151.055L636.492 151.938L635.742 152.672C635.268 153.151 634.885 153.615 634.594 154.062C634.302 154.51 634.141 155.044 634.109 155.664H639.938V157Z" fill="black"/>
</svg>
