<svg width="828" height="475" viewBox="0 0 828 475" fill="none" xmlns="http://www.w3.org/2000/svg">
<rect width="828" height="475" fill="white"/>
<path d="M306.555 101.234C307.003 100.505 307.536 99.9557 308.156 99.5859C308.776 99.2161 309.346 99.0312 309.867 99.0312C310.596 99.0312 311.253 99.3464 311.836 99.9766C312.419 100.607 312.711 101.562 312.711 102.844C312.711 103.854 312.516 104.758 312.125 105.555C311.74 106.346 311.224 106.974 310.578 107.438C309.932 107.896 309.133 108.125 308.18 108.125C307.909 108.125 307.492 108.096 306.93 108.039C306.846 108.029 306.721 108.016 306.555 108V111.391H305.102V99.2734H306.555V101.234ZM306.555 102.961V106.703C307.081 106.839 307.565 106.906 308.008 106.906C308.888 106.906 309.628 106.562 310.227 105.875C310.831 105.182 311.133 104.237 311.133 103.039C311.133 102.169 310.969 101.516 310.641 101.078C310.312 100.641 309.94 100.422 309.523 100.422C309.07 100.422 308.57 100.651 308.023 101.109C307.482 101.568 306.992 102.185 306.555 102.961ZM315.562 108V99.2734H317.016V101.18C317.469 100.461 317.987 99.9245 318.57 99.5703C319.159 99.2109 319.812 99.0312 320.531 99.0312C321.057 99.0312 321.583 99.112 322.109 99.2734V102.422H320.711V100.43C320.466 100.388 320.273 100.367 320.133 100.367C319.591 100.367 319.06 100.581 318.539 101.008C318.018 101.435 317.51 102.076 317.016 102.93V108H315.562ZM328.023 108.242C326.773 108.242 325.773 107.807 325.023 106.938C324.273 106.062 323.898 104.961 323.898 103.633C323.898 102.305 324.273 101.206 325.023 100.336C325.773 99.4661 326.773 99.0312 328.023 99.0312C329.268 99.0312 330.266 99.4661 331.016 100.336C331.766 101.206 332.141 102.305 332.141 103.633C332.141 104.961 331.766 106.062 331.016 106.938C330.266 107.807 329.268 108.242 328.023 108.242ZM328.023 107.031C328.799 107.031 329.417 106.729 329.875 106.125C330.333 105.521 330.562 104.69 330.562 103.633C330.562 102.581 330.333 101.753 329.875 101.148C329.417 100.544 328.799 100.242 328.023 100.242C327.242 100.242 326.622 100.544 326.164 101.148C325.706 101.753 325.477 102.581 325.477 103.633C325.477 104.69 325.706 105.521 326.164 106.125C326.622 106.729 327.242 107.031 328.023 107.031ZM341.336 107.648C340.654 107.935 340.159 108.104 339.852 108.156C339.544 108.214 339.247 108.242 338.961 108.242C338.352 108.242 337.794 108.125 337.289 107.891C336.784 107.656 336.401 107.31 336.141 106.852C335.885 106.393 335.758 105.685 335.758 104.727V101.211H333.578V100H335.758V96.4844H337.211V100H341.094V101.211H337.211V104.703C337.211 105.406 337.294 105.904 337.461 106.195C337.628 106.482 337.849 106.693 338.125 106.828C338.406 106.964 338.737 107.031 339.117 107.031C339.82 107.031 340.56 106.81 341.336 106.367V107.648ZM347.242 108.242C345.992 108.242 344.992 107.807 344.242 106.938C343.492 106.062 343.117 104.961 343.117 103.633C343.117 102.305 343.492 101.206 344.242 100.336C344.992 99.4661 345.992 99.0312 347.242 99.0312C348.487 99.0312 349.484 99.4661 350.234 100.336C350.984 101.206 351.359 102.305 351.359 103.633C351.359 104.961 350.984 106.062 350.234 106.938C349.484 107.807 348.487 108.242 347.242 108.242ZM347.242 107.031C348.018 107.031 348.635 106.729 349.094 106.125C349.552 105.521 349.781 104.69 349.781 103.633C349.781 102.581 349.552 101.753 349.094 101.148C348.635 100.544 348.018 100.242 347.242 100.242C346.461 100.242 345.841 100.544 345.383 101.148C344.924 101.753 344.695 102.581 344.695 103.633C344.695 104.69 344.924 105.521 345.383 106.125C345.841 106.729 346.461 107.031 347.242 107.031ZM359.883 95.875H361.398L357.664 108H356.062L352.305 95.875H353.969L356.602 104.344L356.945 105.578L357.25 104.352L359.883 95.875ZM370.125 107.422C368.964 107.974 367.865 108.25 366.828 108.25C366.042 108.25 365.339 108.055 364.719 107.664C364.099 107.273 363.602 106.716 363.227 105.992C362.857 105.263 362.672 104.484 362.672 103.656C362.672 102.859 362.849 102.094 363.203 101.359C363.557 100.625 364.052 100.055 364.688 99.6484C365.323 99.237 366.031 99.0312 366.812 99.0312C367.849 99.0312 368.68 99.401 369.305 100.141C369.935 100.88 370.25 102.021 370.25 103.562V103.875H364.234C364.234 104.479 364.359 105.031 364.609 105.531C364.865 106.031 365.198 106.406 365.609 106.656C366.021 106.906 366.49 107.031 367.016 107.031C367.953 107.031 368.99 106.719 370.125 106.094V107.422ZM364.32 102.789H368.672V102.578C368.672 101.865 368.497 101.297 368.148 100.875C367.799 100.453 367.333 100.242 366.75 100.242C366.161 100.242 365.651 100.458 365.219 100.891C364.792 101.318 364.492 101.951 364.32 102.789ZM373.219 108V99.2734H374.672V101.18C375.125 100.461 375.643 99.9245 376.227 99.5703C376.815 99.2109 377.469 99.0312 378.188 99.0312C378.714 99.0312 379.24 99.112 379.766 99.2734V102.422H378.367V100.43C378.122 100.388 377.93 100.367 377.789 100.367C377.247 100.367 376.716 100.581 376.195 101.008C375.674 101.435 375.167 102.076 374.672 102.93V108H373.219Z" fill="black"/>
<path d="M452.805 108.242C451.555 108.242 450.555 107.807 449.805 106.938C449.055 106.062 448.68 104.961 448.68 103.633C448.68 102.305 449.055 101.206 449.805 100.336C450.555 99.4661 451.555 99.0312 452.805 99.0312C454.049 99.0312 455.047 99.4661 455.797 100.336C456.547 101.206 456.922 102.305 456.922 103.633C456.922 104.961 456.547 106.062 455.797 106.938C455.047 107.807 454.049 108.242 452.805 108.242ZM452.805 107.031C453.581 107.031 454.198 106.729 454.656 106.125C455.115 105.521 455.344 104.69 455.344 103.633C455.344 102.581 455.115 101.753 454.656 101.148C454.198 100.544 453.581 100.242 452.805 100.242C452.023 100.242 451.404 100.544 450.945 101.148C450.487 101.753 450.258 102.581 450.258 103.633C450.258 104.69 450.487 105.521 450.945 106.125C451.404 106.729 452.023 107.031 452.805 107.031ZM460.164 101.234C460.612 100.505 461.146 99.9557 461.766 99.5859C462.385 99.2161 462.956 99.0312 463.477 99.0312C464.206 99.0312 464.862 99.3464 465.445 99.9766C466.029 100.607 466.32 101.562 466.32 102.844C466.32 103.854 466.125 104.758 465.734 105.555C465.349 106.346 464.833 106.974 464.188 107.438C463.542 107.896 462.742 108.125 461.789 108.125C461.518 108.125 461.102 108.096 460.539 108.039C460.456 108.029 460.331 108.016 460.164 108V111.391H458.711V99.2734H460.164V101.234ZM460.164 102.961V106.703C460.69 106.839 461.174 106.906 461.617 106.906C462.497 106.906 463.237 106.562 463.836 105.875C464.44 105.182 464.742 104.237 464.742 103.039C464.742 102.169 464.578 101.516 464.25 101.078C463.922 100.641 463.549 100.422 463.133 100.422C462.68 100.422 462.18 100.651 461.633 101.109C461.091 101.568 460.602 102.185 460.164 102.961Z" fill="black"/>
<path d="M604.312 107.539V106C604.896 106.38 605.513 106.648 606.164 106.805C606.815 106.956 607.367 107.031 607.82 107.031C608.555 107.031 609.083 106.914 609.406 106.68C609.729 106.44 609.891 106.143 609.891 105.789C609.891 105.555 609.815 105.354 609.664 105.188C609.513 105.021 609.138 104.815 608.539 104.57L608.039 104.367L607.031 103.969C605.948 103.547 605.266 103.156 604.984 102.797C604.698 102.443 604.555 102.01 604.555 101.5C604.555 100.781 604.831 100.19 605.383 99.7266C605.94 99.263 606.841 99.0312 608.086 99.0312C609.018 99.0312 609.901 99.1667 610.734 99.4375V100.758C609.776 100.414 608.875 100.242 608.031 100.242C607.417 100.242 606.935 100.352 606.586 100.57C606.242 100.784 606.07 101.052 606.07 101.375C606.07 101.688 606.221 101.938 606.523 102.125C606.82 102.312 607.305 102.529 607.977 102.773L608.961 103.133C609.862 103.461 610.495 103.818 610.859 104.203C611.224 104.589 611.406 105.07 611.406 105.648C611.406 106.404 611.115 107.026 610.531 107.516C609.953 108 609.026 108.242 607.75 108.242C606.635 108.242 605.49 108.008 604.312 107.539ZM621.078 107.422C619.917 107.974 618.818 108.25 617.781 108.25C616.995 108.25 616.292 108.055 615.672 107.664C615.052 107.273 614.555 106.716 614.18 105.992C613.81 105.263 613.625 104.484 613.625 103.656C613.625 102.859 613.802 102.094 614.156 101.359C614.51 100.625 615.005 100.055 615.641 99.6484C616.276 99.237 616.984 99.0312 617.766 99.0312C618.802 99.0312 619.633 99.401 620.258 100.141C620.888 100.88 621.203 102.021 621.203 103.562V103.875H615.188C615.188 104.479 615.312 105.031 615.562 105.531C615.818 106.031 616.151 106.406 616.562 106.656C616.974 106.906 617.443 107.031 617.969 107.031C618.906 107.031 619.943 106.719 621.078 106.094V107.422ZM615.273 102.789H619.625V102.578C619.625 101.865 619.451 101.297 619.102 100.875C618.753 100.453 618.286 100.242 617.703 100.242C617.115 100.242 616.604 100.458 616.172 100.891C615.745 101.318 615.445 101.951 615.273 102.789ZM629.258 106.039C628.815 106.768 628.281 107.318 627.656 107.688C627.036 108.057 626.466 108.242 625.945 108.242C625.216 108.242 624.56 107.927 623.977 107.297C623.398 106.667 623.109 105.711 623.109 104.43C623.109 103.419 623.302 102.518 623.688 101.727C624.073 100.93 624.589 100.302 625.234 99.8438C625.88 99.3802 626.68 99.1484 627.633 99.1484C627.909 99.1484 628.326 99.1771 628.883 99.2344C628.966 99.2448 629.091 99.2578 629.258 99.2734H630.719V111.391H629.258V106.039ZM629.258 104.312V100.57C628.742 100.435 628.263 100.367 627.82 100.367C626.924 100.367 626.177 100.714 625.578 101.406C624.984 102.099 624.688 103.042 624.688 104.234C624.688 105.099 624.849 105.753 625.172 106.195C625.5 106.633 625.872 106.852 626.289 106.852C626.742 106.852 627.242 106.622 627.789 106.164C628.336 105.706 628.826 105.089 629.258 104.312Z" fill="black"/>
<path d="M97.5547 101.234C98.0026 100.505 98.5365 99.9557 99.1562 99.5859C99.776 99.2161 100.346 99.0312 100.867 99.0312C101.596 99.0312 102.253 99.3464 102.836 99.9766C103.419 100.607 103.711 101.562 103.711 102.844C103.711 103.854 103.516 104.758 103.125 105.555C102.74 106.346 102.224 106.974 101.578 107.438C100.932 107.896 100.133 108.125 99.1797 108.125C98.9089 108.125 98.4922 108.096 97.9297 108.039C97.8464 108.029 97.7214 108.016 97.5547 108V111.391H96.1016V99.2734H97.5547V101.234ZM97.5547 102.961V106.703C98.0807 106.839 98.5651 106.906 99.0078 106.906C99.888 106.906 100.628 106.562 101.227 105.875C101.831 105.182 102.133 104.237 102.133 103.039C102.133 102.169 101.969 101.516 101.641 101.078C101.312 100.641 100.94 100.422 100.523 100.422C100.07 100.422 99.5703 100.651 99.0234 101.109C98.4818 101.568 97.9922 102.185 97.5547 102.961ZM111.555 106.039C111.112 106.768 110.578 107.318 109.953 107.688C109.333 108.057 108.763 108.242 108.242 108.242C107.513 108.242 106.857 107.927 106.273 107.297C105.695 106.667 105.406 105.711 105.406 104.43C105.406 103.419 105.599 102.518 105.984 101.727C106.37 100.93 106.885 100.302 107.531 99.8438C108.177 99.3802 108.977 99.1484 109.93 99.1484C110.206 99.1484 110.622 99.1771 111.18 99.2344C111.263 99.2448 111.388 99.2578 111.555 99.2734H113.016V105.438C113.016 106.49 113.125 107.344 113.344 108H111.828C111.714 107.521 111.622 106.867 111.555 106.039ZM111.555 104.312V100.57C111.039 100.435 110.56 100.367 110.117 100.367C109.221 100.367 108.474 100.714 107.875 101.406C107.281 102.099 106.984 103.042 106.984 104.234C106.984 105.099 107.146 105.753 107.469 106.195C107.797 106.633 108.169 106.852 108.586 106.852C109.039 106.852 109.539 106.622 110.086 106.164C110.633 105.706 111.122 105.089 111.555 104.312ZM122.773 107.75C121.799 108.078 120.872 108.242 119.992 108.242C119.117 108.242 118.339 108.042 117.656 107.641C116.979 107.234 116.451 106.688 116.07 106C115.69 105.307 115.5 104.521 115.5 103.641C115.5 102.318 115.93 101.219 116.789 100.344C117.654 99.4688 118.695 99.0312 119.914 99.0312C120.815 99.0312 121.768 99.2005 122.773 99.5391V100.938C121.758 100.474 120.849 100.242 120.047 100.242C119.516 100.242 119.016 100.375 118.547 100.641C118.078 100.901 117.716 101.31 117.461 101.867C117.206 102.424 117.078 102.997 117.078 103.586C117.078 104.372 117.323 105.122 117.812 105.836C118.307 106.549 119.081 106.906 120.133 106.906C120.451 106.906 120.763 106.885 121.07 106.844C121.378 106.797 121.945 106.633 122.773 106.352V107.75ZM125.43 108V95.3906H126.883V103.312L131.078 99.2734H133.016L128.828 103.312L133.125 108H131.125L126.883 103.312V108H125.43ZM141.906 107.422C140.745 107.974 139.646 108.25 138.609 108.25C137.823 108.25 137.12 108.055 136.5 107.664C135.88 107.273 135.383 106.716 135.008 105.992C134.638 105.263 134.453 104.484 134.453 103.656C134.453 102.859 134.63 102.094 134.984 101.359C135.339 100.625 135.833 100.055 136.469 99.6484C137.104 99.237 137.812 99.0312 138.594 99.0312C139.63 99.0312 140.461 99.401 141.086 100.141C141.716 100.88 142.031 102.021 142.031 103.562V103.875H136.016C136.016 104.479 136.141 105.031 136.391 105.531C136.646 106.031 136.979 106.406 137.391 106.656C137.802 106.906 138.271 107.031 138.797 107.031C139.734 107.031 140.771 106.719 141.906 106.094V107.422ZM136.102 102.789H140.453V102.578C140.453 101.865 140.279 101.297 139.93 100.875C139.581 100.453 139.115 100.242 138.531 100.242C137.943 100.242 137.432 100.458 137 100.891C136.573 101.318 136.273 101.951 136.102 102.789ZM151.555 107.648C150.872 107.935 150.378 108.104 150.07 108.156C149.763 108.214 149.466 108.242 149.18 108.242C148.57 108.242 148.013 108.125 147.508 107.891C147.003 107.656 146.62 107.31 146.359 106.852C146.104 106.393 145.977 105.685 145.977 104.727V101.211H143.797V100H145.977V96.4844H147.43V100H151.312V101.211H147.43V104.703C147.43 105.406 147.513 105.904 147.68 106.195C147.846 106.482 148.068 106.693 148.344 106.828C148.625 106.964 148.956 107.031 149.336 107.031C150.039 107.031 150.779 106.81 151.555 106.367V107.648ZM160.914 106.664V108H154.367V95.875H155.945V106.664H160.914ZM170.734 107.422C169.573 107.974 168.474 108.25 167.438 108.25C166.651 108.25 165.948 108.055 165.328 107.664C164.708 107.273 164.211 106.716 163.836 105.992C163.466 105.263 163.281 104.484 163.281 103.656C163.281 102.859 163.458 102.094 163.812 101.359C164.167 100.625 164.661 100.055 165.297 99.6484C165.932 99.237 166.641 99.0312 167.422 99.0312C168.458 99.0312 169.289 99.401 169.914 100.141C170.544 100.88 170.859 102.021 170.859 103.562V103.875H164.844C164.844 104.479 164.969 105.031 165.219 105.531C165.474 106.031 165.807 106.406 166.219 106.656C166.63 106.906 167.099 107.031 167.625 107.031C168.562 107.031 169.599 106.719 170.734 106.094V107.422ZM164.93 102.789H169.281V102.578C169.281 101.865 169.107 101.297 168.758 100.875C168.409 100.453 167.943 100.242 167.359 100.242C166.771 100.242 166.26 100.458 165.828 100.891C165.401 101.318 165.102 101.951 164.93 102.789ZM173.086 108V99.2734H174.539V101.18C174.956 100.508 175.458 99.9818 176.047 99.6016C176.635 99.2214 177.224 99.0312 177.812 99.0312C178.328 99.0312 178.797 99.1693 179.219 99.4453C179.641 99.7161 179.935 100.073 180.102 100.516C180.273 100.958 180.359 101.828 180.359 103.125V108H178.906V102.945C178.906 102.107 178.865 101.555 178.781 101.289C178.703 101.018 178.555 100.797 178.336 100.625C178.122 100.453 177.888 100.367 177.633 100.367C177.122 100.367 176.573 100.609 175.984 101.094C175.401 101.578 174.919 102.185 174.539 102.914V108H173.086Z" fill="black"/>
<path d="M240.211 108V95.3906H241.664V101.18C242.081 100.508 242.583 99.9818 243.172 99.6016C243.76 99.2214 244.349 99.0312 244.938 99.0312C245.432 99.0312 245.883 99.1589 246.289 99.4141C246.701 99.6641 246.987 99.9688 247.148 100.328C247.279 100.604 247.367 100.898 247.414 101.211C247.461 101.518 247.484 102.156 247.484 103.125V108H246.031V102.945C246.031 102.107 245.99 101.555 245.906 101.289C245.828 101.018 245.68 100.797 245.461 100.625C245.247 100.453 245.013 100.367 244.758 100.367C244.247 100.367 243.698 100.609 243.109 101.094C242.526 101.578 242.044 102.185 241.664 102.914V108H240.211ZM256.867 106.664V108H250.32V95.875H251.898V106.664H256.867ZM266.688 107.422C265.526 107.974 264.427 108.25 263.391 108.25C262.604 108.25 261.901 108.055 261.281 107.664C260.661 107.273 260.164 106.716 259.789 105.992C259.419 105.263 259.234 104.484 259.234 103.656C259.234 102.859 259.411 102.094 259.766 101.359C260.12 100.625 260.615 100.055 261.25 99.6484C261.885 99.237 262.594 99.0312 263.375 99.0312C264.411 99.0312 265.242 99.401 265.867 100.141C266.497 100.88 266.812 102.021 266.812 103.562V103.875H260.797C260.797 104.479 260.922 105.031 261.172 105.531C261.427 106.031 261.76 106.406 262.172 106.656C262.583 106.906 263.052 107.031 263.578 107.031C264.516 107.031 265.552 106.719 266.688 106.094V107.422ZM260.883 102.789H265.234V102.578C265.234 101.865 265.06 101.297 264.711 100.875C264.362 100.453 263.896 100.242 263.312 100.242C262.724 100.242 262.214 100.458 261.781 100.891C261.354 101.318 261.055 101.951 260.883 102.789ZM269.039 108V99.2734H270.492V101.18C270.909 100.508 271.411 99.9818 272 99.6016C272.589 99.2214 273.177 99.0312 273.766 99.0312C274.281 99.0312 274.75 99.1693 275.172 99.4453C275.594 99.7161 275.888 100.073 276.055 100.516C276.227 100.958 276.312 101.828 276.312 103.125V108H274.859V102.945C274.859 102.107 274.818 101.555 274.734 101.289C274.656 101.018 274.508 100.797 274.289 100.625C274.076 100.453 273.841 100.367 273.586 100.367C273.076 100.367 272.526 100.609 271.938 101.094C271.354 101.578 270.872 102.185 270.492 102.914V108H269.039Z" fill="black"/>
<path d="M261.109 39.4688C262.005 38.0104 263.073 36.9115 264.312 36.1719C265.552 35.4323 266.693 35.0625 267.734 35.0625C269.193 35.0625 270.505 35.6927 271.672 36.9531C272.839 38.2135 273.422 40.125 273.422 42.6875C273.422 44.7083 273.031 46.5156 272.25 48.1094C271.479 49.6927 270.448 50.9479 269.156 51.875C267.865 52.7917 266.266 53.25 264.359 53.25C263.818 53.25 262.984 53.1927 261.859 53.0781C261.693 53.0573 261.443 53.0312 261.109 53V59.7812H258.203V35.5469H261.109V39.4688ZM261.109 42.9219V50.4062C262.161 50.6771 263.13 50.8125 264.016 50.8125C265.776 50.8125 267.255 50.125 268.453 48.75C269.661 47.3646 270.266 45.474 270.266 43.0781C270.266 41.3385 269.938 40.0312 269.281 39.1562C268.625 38.2812 267.88 37.8438 267.047 37.8438C266.141 37.8438 265.141 38.3021 264.047 39.2188C262.964 40.1354 261.984 41.3698 261.109 42.9219ZM289.109 49.0781C288.224 50.5365 287.156 51.6354 285.906 52.375C284.667 53.1146 283.526 53.4844 282.484 53.4844C281.026 53.4844 279.714 52.8542 278.547 51.5938C277.391 50.3333 276.812 48.4219 276.812 45.8594C276.812 43.8385 277.198 42.0365 277.969 40.4531C278.74 38.8594 279.771 37.6042 281.062 36.6875C282.354 35.7604 283.953 35.2969 285.859 35.2969C286.411 35.2969 287.245 35.3542 288.359 35.4688C288.526 35.4896 288.776 35.5156 289.109 35.5469H292.031V47.875C292.031 49.9792 292.25 51.6875 292.688 53H289.656C289.427 52.0417 289.245 50.7344 289.109 49.0781ZM289.109 45.625V38.1406C288.078 37.8698 287.12 37.7344 286.234 37.7344C284.443 37.7344 282.948 38.4271 281.75 39.8125C280.562 41.1979 279.969 43.0833 279.969 45.4688C279.969 47.1979 280.292 48.5052 280.938 49.3906C281.594 50.2656 282.339 50.7031 283.172 50.7031C284.078 50.7031 285.078 50.2448 286.172 49.3281C287.266 48.4115 288.245 47.1771 289.109 45.625ZM311.547 52.5C309.599 53.1562 307.745 53.4844 305.984 53.4844C304.234 53.4844 302.677 53.0833 301.312 52.2812C299.958 51.4688 298.901 50.375 298.141 49C297.38 47.6146 297 46.0417 297 44.2812C297 41.6354 297.859 39.4375 299.578 37.6875C301.307 35.9375 303.391 35.0625 305.828 35.0625C307.63 35.0625 309.536 35.401 311.547 36.0781V38.875C309.516 37.9479 307.698 37.4844 306.094 37.4844C305.031 37.4844 304.031 37.75 303.094 38.2812C302.156 38.8021 301.432 39.6198 300.922 40.7344C300.411 41.849 300.156 42.9948 300.156 44.1719C300.156 45.7448 300.646 47.2448 301.625 48.6719C302.615 50.099 304.161 50.8125 306.266 50.8125C306.901 50.8125 307.526 50.7708 308.141 50.6875C308.755 50.5938 309.891 50.2656 311.547 49.7031V52.5ZM316.859 53V27.7812H319.766V43.625L328.156 35.5469H332.031L323.656 43.625L332.25 53H328.25L319.766 43.625V53H316.859ZM349.812 51.8438C347.49 52.9479 345.292 53.5 343.219 53.5C341.646 53.5 340.24 53.1094 339 52.3281C337.76 51.5469 336.766 50.4323 336.016 48.9844C335.276 47.526 334.906 45.9688 334.906 44.3125C334.906 42.7188 335.26 41.1875 335.969 39.7188C336.677 38.25 337.667 37.1094 338.938 36.2969C340.208 35.474 341.625 35.0625 343.188 35.0625C345.26 35.0625 346.922 35.8021 348.172 37.2812C349.432 38.7604 350.062 41.0417 350.062 44.125V44.75H338.031C338.031 45.9583 338.281 47.0625 338.781 48.0625C339.292 49.0625 339.958 49.8125 340.781 50.3125C341.604 50.8125 342.542 51.0625 343.594 51.0625C345.469 51.0625 347.542 50.4375 349.812 49.1875V51.8438ZM338.203 42.5781H346.906V42.1562C346.906 40.7292 346.557 39.5938 345.859 38.75C345.161 37.9062 344.229 37.4844 343.062 37.4844C341.885 37.4844 340.865 37.9167 340 38.7812C339.146 39.6354 338.547 40.901 338.203 42.5781ZM369.109 52.2969C367.745 52.8698 366.755 53.2083 366.141 53.3125C365.526 53.4271 364.932 53.4844 364.359 53.4844C363.141 53.4844 362.026 53.25 361.016 52.7812C360.005 52.3125 359.24 51.6198 358.719 50.7031C358.208 49.7865 357.953 48.3698 357.953 46.4531V39.4219H353.594V37H357.953V29.9688H360.859V37H368.625V39.4219H360.859V46.4062C360.859 47.8125 361.026 48.8073 361.359 49.3906C361.693 49.9635 362.135 50.3854 362.688 50.6562C363.25 50.9271 363.911 51.0625 364.672 51.0625C366.078 51.0625 367.557 50.6198 369.109 49.7344V52.2969ZM373.457 47.176C373.457 46.696 375.025 45.992 375.025 45.992V45.96C377.841 42.76 380.689 38.312 382.961 33.928L380.977 32.808C379.057 37.16 375.953 41.736 374.993 42.92C374.065 44.104 373.393 44.936 372.753 45.064C373.009 45.64 373.361 46.728 373.457 47.176ZM373.457 47.176C374.065 46.824 375.057 46.504 382.129 44.84C382.065 44.36 381.969 43.496 381.969 42.856L374.385 44.456L373.329 45.256L373.457 47.176ZM373.265 39.496C373.265 39.016 374.673 38.248 374.673 38.248V38.184C376.753 35.272 378.929 31.016 380.465 26.92L378.193 26.12C377.041 30.024 374.897 34.216 374.225 35.272C373.585 36.392 373.041 37.16 372.497 37.288C372.753 37.896 373.137 39.016 373.265 39.496ZM373.265 39.496C373.777 39.24 374.641 39.016 379.665 38.376C379.697 37.896 379.76 37 379.889 36.392L374.321 36.968L373.201 37.704L373.265 39.496ZM372.593 51.304L373.169 53.48C375.761 52.424 379.121 51.08 382.353 49.736L381.937 47.816C378.449 49.128 374.929 50.504 372.593 51.304ZM391.249 40.936V54.536H392.881V40.936H391.249ZM395.153 40.904V54.504H396.785V40.904H395.153ZM399.153 39.816V53.224C399.153 53.48 399.089 53.544 398.865 53.544C398.641 53.544 398.033 53.544 397.329 53.544C397.585 54.024 397.809 54.824 397.905 55.336C399.025 55.336 399.793 55.304 400.369 54.984C400.945 54.664 401.073 54.12 401.073 53.256V39.816H399.153ZM384.561 29.608V36.52C384.561 41.448 384.273 48.552 381.329 53.672C381.841 53.928 382.801 54.632 383.185 55.048C386.257 49.64 386.769 41.768 386.769 36.52V29.608H384.561ZM385.713 29.608V31.624H398.513V35.08H385.713V37.096H400.753V29.608H385.713ZM386.705 39.816V55.304H388.625V41.8H400.177V39.816H386.705ZM387.665 46.536V48.456H400.017V46.536H387.665ZM390.673 26.6C391.345 27.848 392.081 29.544 392.369 30.664L394.705 29.896C394.385 28.808 393.649 27.144 392.913 25.928L390.673 26.6ZM431.057 40.168V40.584C430.417 48.808 429.681 52.072 428.753 52.936C428.465 53.256 428.113 53.32 427.569 53.32C426.961 53.32 425.553 53.32 424.017 53.128C424.369 53.768 424.625 54.696 424.657 55.368C426.225 55.432 427.697 55.432 428.497 55.368C429.457 55.336 430.097 55.08 430.705 54.408C431.857 53.224 432.561 49.896 433.297 41.256C433.329 40.904 433.361 40.168 433.361 40.168H431.057ZM417.489 28.008V30.216H429.361V28.008H417.489ZM419.025 32.232C418.801 35.368 418.353 39.656 417.937 42.248H420.208C420.561 39.752 421.009 35.56 421.265 32.36L419.025 32.232ZM418.609 40.168V42.248H431.761V40.168H418.609ZM416.401 46.472V48.616H428.657V46.472H416.401ZM428.369 28.008V28.296C428.145 31.304 427.505 37.352 426.929 41.544L429.201 41.704C429.777 37.512 430.385 31.88 430.673 28.104L429.009 27.912L428.625 28.008H428.369ZM404.913 27.848V30.056H415.921V27.848H404.913ZM408.049 37.704V39.848H412.881V49.384H408.049V51.528H414.993V37.704H408.049ZM409.041 28.904C408.177 34.248 406.673 39.24 404.209 42.504C404.625 43.144 405.169 44.52 405.329 45.096C408.273 41.256 410.129 35.432 411.281 29.384L409.041 28.904ZM406.993 37.704V54.12H409.105V37.704H406.993ZM437.329 47.144C437.329 46.632 438.993 45.864 438.993 45.864V45.8C442.193 42.76 445.457 38.504 448.177 34.216L446.001 32.872C443.697 37.16 440.177 41.576 439.025 42.696C438.001 43.848 437.233 44.648 436.497 44.776C436.785 45.416 437.201 46.632 437.329 47.144ZM437.329 47.144C438.065 46.728 439.217 46.44 448.177 44.808C448.081 44.296 448.017 43.368 448.017 42.728L438.481 44.296L437.201 45.128L437.329 47.144ZM437.105 39.368C437.105 38.824 438.737 38.024 438.737 38.024V37.96C440.913 35.208 443.185 31.208 444.849 27.336L442.417 26.344C441.105 30.056 438.801 34.024 438.097 35.048C437.424 36.104 436.849 36.808 436.241 36.968C436.561 37.608 436.945 38.824 437.105 39.368ZM437.105 39.368C437.681 39.08 438.673 38.888 444.817 38.216C444.817 37.736 444.881 36.808 445.009 36.2L438.257 36.808L437.041 37.544L437.105 39.368ZM436.433 51.336L436.849 53.8C440.016 53.064 444.273 52.2 448.305 51.272L448.113 49.032C443.825 49.928 439.377 50.824 436.433 51.336ZM448.369 30.408V32.744H465.457V30.408H448.369ZM449.169 37.704V40.008H464.913V37.704H449.169ZM451.281 51.976V54.184H462.897V51.976H451.281ZM455.729 26.12V38.888H458.225V26.12H455.729ZM450.001 43.272V55.56H452.337V45.48H461.713V55.432H464.145V43.272H450.001ZM468.849 33V35.272H480.369V33H468.849ZM473.809 26.12V55.528H476.113V26.12H473.809ZM473.713 34.408C472.689 38.888 470.321 44.328 468.017 47.112C468.433 47.688 469.009 48.648 469.265 49.288C471.729 46.12 474.129 40.008 475.249 34.984L473.713 34.408ZM475.985 37.64L474.769 38.76C475.793 40.04 478.321 43.624 479.185 45.16L480.689 43.208C479.985 42.28 476.849 38.536 475.985 37.64ZM484.017 26.12C482.865 30.664 480.881 35.08 478.385 37.896C478.961 38.248 479.953 39.048 480.401 39.432C482.929 36.328 485.073 31.624 486.417 26.664L484.017 26.12ZM483.569 31.368L482.513 33.64H495.921V31.368H483.569ZM494.993 31.368V31.944C494.577 46.312 494.065 51.624 493.105 52.744C492.753 53.16 492.433 53.288 491.857 53.256C491.217 53.256 489.649 53.256 487.953 53.096C488.369 53.768 488.657 54.792 488.689 55.464C490.257 55.56 491.857 55.592 492.849 55.496C493.873 55.368 494.577 55.112 495.217 54.184C496.433 52.648 496.881 47.656 497.329 32.648C497.329 32.296 497.361 31.368 497.361 31.368H494.993ZM487.825 42.152C489.169 44.584 490.513 47.784 490.929 49.8L492.945 49.064C492.433 47.08 491.057 43.944 489.649 41.544L487.825 42.152ZM484.977 36.072C484.305 39.4 482.993 44.168 481.841 47.016L483.76 47.528C484.944 44.744 486.321 40.2 487.312 36.584L484.977 36.072ZM479.473 46.792L479.985 49.032C483.089 48.584 487.121 48.008 491.089 47.368L491.025 45.48C486.737 46.024 482.353 46.536 479.473 46.792ZM516.062 58.8125C513.177 58.6354 510.745 57.8177 508.766 56.3594C506.786 54.9115 505.203 52.9531 504.016 50.4844C502.839 48.0156 502.25 45.5417 502.25 43.0625C502.25 40.5833 502.839 38.1094 504.016 35.6406C505.203 33.1719 506.786 31.2135 508.766 29.7656C510.745 28.3073 513.177 27.4844 516.062 27.2969V29.7344C513.885 29.9323 512.01 30.6667 510.438 31.9375C508.875 33.1979 507.646 34.8073 506.75 36.7656C505.854 38.724 505.406 40.8229 505.406 43.0625C505.406 45.3021 505.854 47.401 506.75 49.3594C507.646 51.3177 508.875 52.9271 510.438 54.1875C512.01 55.4479 513.885 56.1823 516.062 56.3906V58.8125ZM523.641 39.4688C524.536 38.0104 525.604 36.9115 526.844 36.1719C528.083 35.4323 529.224 35.0625 530.266 35.0625C531.724 35.0625 533.036 35.6927 534.203 36.9531C535.37 38.2135 535.953 40.125 535.953 42.6875C535.953 44.7083 535.562 46.5156 534.781 48.1094C534.01 49.6927 532.979 50.9479 531.688 51.875C530.396 52.7917 528.797 53.25 526.891 53.25C526.349 53.25 525.516 53.1927 524.391 53.0781C524.224 53.0573 523.974 53.0312 523.641 53H520.734V27.7812H523.641V39.4688ZM523.641 42.9219V50.4062C524.693 50.6771 525.661 50.8125 526.547 50.8125C528.307 50.8125 529.786 50.125 530.984 48.75C532.193 47.3646 532.797 45.474 532.797 43.0781C532.797 41.3385 532.469 40.0312 531.812 39.1562C531.156 38.2812 530.411 37.8438 529.578 37.8438C528.672 37.8438 527.672 38.3021 526.578 39.2188C525.495 40.1354 524.516 41.3698 523.641 42.9219ZM541.656 53V35.5469H544.562V39.3594C545.469 37.9219 546.505 36.849 547.672 36.1406C548.849 35.4219 550.156 35.0625 551.594 35.0625C552.646 35.0625 553.698 35.224 554.75 35.5469V41.8438H551.953V37.8594C551.464 37.776 551.078 37.7344 550.797 37.7344C549.714 37.7344 548.651 38.1615 547.609 39.0156C546.568 39.8698 545.552 41.151 544.562 42.8594V53H541.656ZM561.929 27.656V29.992H587.529V27.656H561.929ZM560.649 27.656V38.024C560.649 42.856 560.457 49.544 557.961 54.248C558.537 54.504 559.529 55.208 559.945 55.592C562.537 50.6 562.921 43.144 562.921 38.024V27.656H560.649ZM563.113 51.912V54.216H587.433V51.912H563.113ZM565.193 38.6V40.904H585.897V38.6H565.193ZM573.929 31.72V53.32H576.393V31.72H573.929ZM578.857 44.36C580.585 45.864 582.473 48.008 583.369 49.416L585.193 48.04C584.265 46.632 582.377 44.68 580.585 43.208L578.857 44.36ZM591.177 47.176C591.177 46.728 592.713 46.024 592.713 46.024V45.992C595.465 42.856 598.249 38.536 600.489 34.248L598.569 33.16C596.649 37.384 593.641 41.896 592.681 43.016C591.785 44.2 591.081 45 590.441 45.096C590.697 45.672 591.049 46.728 591.177 47.176ZM591.177 47.176C591.721 46.824 592.681 46.504 599.145 44.872C599.081 44.392 599.017 43.56 599.049 42.92L592.041 44.488L591.017 45.288L591.177 47.176ZM590.953 39.496C590.953 39.016 592.361 38.28 592.361 38.28V38.216C594.569 35.304 596.713 31.176 598.345 27.208L596.233 26.248C594.953 30.088 592.681 34.248 592.009 35.336C591.305 36.424 590.793 37.192 590.217 37.32C590.505 37.928 590.825 39.016 590.953 39.496ZM590.953 39.496C591.497 39.24 592.361 39.048 597.385 38.472C597.385 37.992 597.449 37.128 597.577 36.52L592.041 37.032L590.921 37.736L590.953 39.496ZM590.377 51.304L590.953 53.576C593.609 52.584 597.065 51.208 600.361 49.928L599.945 47.944C596.393 49.224 592.809 50.536 590.377 51.304ZM611.369 35.56C611.177 37.192 610.665 39.592 610.249 41.096L612.233 41.544C612.713 40.104 613.257 37.96 613.769 36.008L611.369 35.56ZM600.777 29.224V34.44H602.953V31.272H617.097V33.992H619.369V29.224H600.777ZM604.073 33.448C603.241 36.84 601.417 41.032 599.049 43.688C599.433 44.072 600.041 44.84 600.297 45.288C602.985 42.376 605.033 37.864 606.185 33.96L604.073 33.448ZM606.473 34.856V36.84H618.921V34.856H606.473ZM607.945 45.96V47.88H617.289V45.96H607.945ZM606.921 40.104V55.528H609.001V42.056H616.297V55.368H618.473V40.104H606.921ZM602.345 39.88V55.56H604.425V38.024L604.297 37.928L602.345 39.88ZM607.817 26.728C608.489 27.88 609.257 29.448 609.609 30.408L611.721 29.608C611.369 28.648 610.569 27.144 609.833 26.024L607.817 26.728ZM608.009 52.104V54.056H617.289V52.104H608.009ZM623.422 27.2969C626.307 27.4844 628.74 28.3073 630.719 29.7656C632.698 31.2135 634.276 33.1719 635.453 35.6406C636.641 38.1094 637.234 40.5833 637.234 43.0625C637.234 45.5417 636.641 48.0156 635.453 50.4844C634.276 52.9531 632.698 54.9115 630.719 56.3594C628.74 57.8177 626.307 58.6354 623.422 58.8125V56.3906C625.599 56.1823 627.469 55.4479 629.031 54.1875C630.604 52.9271 631.839 51.3177 632.734 49.3594C633.641 47.401 634.094 45.3021 634.094 43.0625C634.094 40.8229 633.641 38.724 632.734 36.7656C631.839 34.8073 630.604 33.1979 629.031 31.9375C627.469 30.6667 625.599 29.9323 623.422 29.7344V27.2969Z" fill="black"/>
<mask id="path-7-outside-1_3_85" maskUnits="userSpaceOnUse" x="537" y="125" width="162" height="52" fill="black">
<rect fill="white" x="537" y="125" width="162" height="52"/>
<path fill-rule="evenodd" clip-rule="evenodd" d="M618 126H538V176H618V126ZM698 126H618V176H698V126Z"/>
</mask>
<path fill-rule="evenodd" clip-rule="evenodd" d="M618 126H538V176H618V126ZM698 126H618V176H698V126Z" fill="#D9D9D9"/>
<path d="M538 126V125H537V126H538ZM618 126H619V125H618V126ZM538 176H537V177H538V176ZM618 176V177H619V176H618ZM618 126V125H617V126H618ZM698 126H699V125H698V126ZM618 176H617V177H618V176ZM698 176V177H699V176H698ZM538 127H618V125H538V127ZM539 176V126H537V176H539ZM618 175H538V177H618V175ZM617 126V176H619V126H617ZM618 127H698V125H618V127ZM619 176V126H617V176H619ZM698 175H618V177H698V175ZM697 126V176H699V126H697Z" fill="black" mask="url(#path-7-outside-1_3_85)"/>
<mask id="path-9-outside-2_3_85" maskUnits="userSpaceOnUse" x="377" y="125" width="162" height="52" fill="black">
<rect fill="white" x="377" y="125" width="162" height="52"/>
<path fill-rule="evenodd" clip-rule="evenodd" d="M458 126H378V176H458H538V126H458Z"/>
</mask>
<path fill-rule="evenodd" clip-rule="evenodd" d="M458 126H378V176H458H538V126H458Z" fill="#D9D9D9"/>
<path d="M378 126V125H377V126H378ZM378 176H377V177H378V176ZM538 176V177H539V176H538ZM538 126H539V125H538V126ZM378 127H458V125H378V127ZM379 176V126H377V176H379ZM458 175H378V177H458V175ZM538 175H458V177H538V175ZM537 126V176H539V126H537ZM458 127H538V125H458V127Z" fill="black" mask="url(#path-9-outside-2_3_85)"/>
<mask id="path-11-outside-3_3_85" maskUnits="userSpaceOnUse" x="57" y="125" width="162" height="52" fill="black">
<rect fill="white" x="57" y="125" width="162" height="52"/>
<path fill-rule="evenodd" clip-rule="evenodd" d="M138 126H58V176H138H218V126H138Z"/>
</mask>
<path fill-rule="evenodd" clip-rule="evenodd" d="M138 126H58V176H138H218V126H138Z" fill="#D9D9D9"/>
<path d="M58 126V125H57V126H58ZM58 176H57V177H58V176ZM218 176V177H219V176H218ZM218 126H219V125H218V126ZM58 127H138V125H58V127ZM59 176V126H57V176H59ZM138 175H58V177H138V175ZM218 175H138V177H218V175ZM217 126V176H219V126H217ZM138 127H218V125H138V127Z" fill="black" mask="url(#path-11-outside-3_3_85)"/>
<rect x="217.5" y="125.5" width="81" height="51" fill="#D9D9D9" stroke="black"/>
<rect x="297.5" y="125.5" width="81" height="51" fill="#D9D9D9" stroke="black"/>
<path d="M242.656 158V150.484H240.234V149.273H244.109V156.789H246.539V158H242.656ZM242.414 146.125C242.414 145.797 242.526 145.552 242.75 145.391C242.974 145.229 243.185 145.148 243.383 145.148C243.586 145.148 243.799 145.229 244.023 145.391C244.247 145.552 244.359 145.797 244.359 146.125C244.359 146.448 244.247 146.69 244.023 146.852C243.799 147.013 243.586 147.094 243.383 147.094C243.185 147.094 242.974 147.013 242.75 146.852C242.526 146.69 242.414 146.448 242.414 146.125ZM249.82 158V149.273H251.273V151.18C251.69 150.508 252.193 149.982 252.781 149.602C253.37 149.221 253.958 149.031 254.547 149.031C255.062 149.031 255.531 149.169 255.953 149.445C256.375 149.716 256.669 150.073 256.836 150.516C257.008 150.958 257.094 151.828 257.094 153.125V158H255.641V152.945C255.641 152.107 255.599 151.555 255.516 151.289C255.438 151.018 255.289 150.797 255.07 150.625C254.857 150.453 254.622 150.367 254.367 150.367C253.857 150.367 253.307 150.609 252.719 151.094C252.135 151.578 251.654 152.185 251.273 152.914V158H249.82ZM266.727 157.648C266.044 157.935 265.549 158.104 265.242 158.156C264.935 158.214 264.638 158.242 264.352 158.242C263.742 158.242 263.185 158.125 262.68 157.891C262.174 157.656 261.792 157.31 261.531 156.852C261.276 156.393 261.148 155.685 261.148 154.727V151.211H258.969V150H261.148V146.484H262.602V150H266.484V151.211H262.602V154.703C262.602 155.406 262.685 155.904 262.852 156.195C263.018 156.482 263.24 156.693 263.516 156.828C263.797 156.964 264.128 157.031 264.508 157.031C265.211 157.031 265.951 156.81 266.727 156.367V157.648ZM272.266 156.789V147.43C271.828 147.779 271.404 148.076 270.992 148.32C270.581 148.565 270.016 148.815 269.297 149.07V147.758C270.438 147.273 271.427 146.646 272.266 145.875H273.719V156.789H276.633V158H269.297V156.789H272.266ZM279.719 152.312C280.094 151.755 280.557 151.302 281.109 150.953C281.667 150.599 282.279 150.422 282.945 150.422C283.576 150.422 284.172 150.576 284.734 150.883C285.302 151.19 285.734 151.62 286.031 152.172C286.328 152.719 286.477 153.357 286.477 154.086C286.477 155.237 286.107 156.24 285.367 157.094C284.633 157.943 283.664 158.367 282.461 158.367C281.044 158.367 279.984 157.776 279.281 156.594C278.583 155.406 278.234 153.898 278.234 152.07C278.234 150.049 278.68 148.453 279.57 147.281C280.461 146.104 281.667 145.516 283.188 145.516C284.005 145.516 284.799 145.635 285.57 145.875V147.344C284.706 146.932 283.891 146.727 283.125 146.727C282.042 146.727 281.203 147.224 280.609 148.219C280.016 149.214 279.719 150.474 279.719 152V152.312ZM282.57 157.156C282.961 157.156 283.354 157.042 283.75 156.812C284.146 156.578 284.456 156.221 284.68 155.742C284.909 155.258 285.023 154.732 285.023 154.164C285.023 153.424 284.831 152.818 284.445 152.344C284.065 151.87 283.521 151.633 282.812 151.633C282.078 151.633 281.474 151.909 281 152.461C280.531 153.008 280.297 153.674 280.297 154.461C280.297 155.253 280.526 155.901 280.984 156.406C281.448 156.906 281.977 157.156 282.57 157.156Z" fill="black"/>
<path d="M335.133 157.781V156.25C336.326 156.854 337.359 157.156 338.234 157.156C339.036 157.156 339.698 156.914 340.219 156.43C340.745 155.94 341.008 155.312 341.008 154.547C341.008 153.776 340.719 153.148 340.141 152.664C339.568 152.18 338.591 151.938 337.211 151.938H336.406V150.727H337.523C338.539 150.727 339.273 150.5 339.727 150.047C340.18 149.589 340.406 149.081 340.406 148.523C340.406 148.018 340.221 147.594 339.852 147.25C339.482 146.901 338.914 146.727 338.148 146.727C337.289 146.727 336.365 146.969 335.375 147.453V146.07C336.365 145.701 337.271 145.516 338.094 145.516C339.568 145.516 340.583 145.807 341.141 146.391C341.703 146.969 341.984 147.63 341.984 148.375C341.984 148.927 341.836 149.445 341.539 149.93C341.242 150.414 340.695 150.846 339.898 151.227C340.602 151.435 341.133 151.69 341.492 151.992C341.852 152.294 342.122 152.651 342.305 153.062C342.492 153.474 342.586 153.935 342.586 154.445C342.586 155.581 342.164 156.518 341.32 157.258C340.482 157.997 339.396 158.367 338.062 158.367C337.677 158.367 337.255 158.339 336.797 158.281C336.344 158.224 335.789 158.057 335.133 157.781Z" fill="black"/>
<path d="M117.656 158V150.484H115.234V149.273H119.109V156.789H121.539V158H117.656ZM117.414 146.125C117.414 145.797 117.526 145.552 117.75 145.391C117.974 145.229 118.185 145.148 118.383 145.148C118.586 145.148 118.799 145.229 119.023 145.391C119.247 145.552 119.359 145.797 119.359 146.125C119.359 146.448 119.247 146.69 119.023 146.852C118.799 147.013 118.586 147.094 118.383 147.094C118.185 147.094 117.974 147.013 117.75 146.852C117.526 146.69 117.414 146.448 117.414 146.125ZM124.82 158V149.273H126.273V151.18C126.69 150.508 127.193 149.982 127.781 149.602C128.37 149.221 128.958 149.031 129.547 149.031C130.062 149.031 130.531 149.169 130.953 149.445C131.375 149.716 131.669 150.073 131.836 150.516C132.008 150.958 132.094 151.828 132.094 153.125V158H130.641V152.945C130.641 152.107 130.599 151.555 130.516 151.289C130.438 151.018 130.289 150.797 130.07 150.625C129.857 150.453 129.622 150.367 129.367 150.367C128.857 150.367 128.307 150.609 127.719 151.094C127.135 151.578 126.654 152.185 126.273 152.914V158H124.82ZM141.727 157.648C141.044 157.935 140.549 158.104 140.242 158.156C139.935 158.214 139.638 158.242 139.352 158.242C138.742 158.242 138.185 158.125 137.68 157.891C137.174 157.656 136.792 157.31 136.531 156.852C136.276 156.393 136.148 155.685 136.148 154.727V151.211H133.969V150H136.148V146.484H137.602V150H141.484V151.211H137.602V154.703C137.602 155.406 137.685 155.904 137.852 156.195C138.018 156.482 138.24 156.693 138.516 156.828C138.797 156.964 139.128 157.031 139.508 157.031C140.211 157.031 140.951 156.81 141.727 156.367V157.648ZM143.961 157.781V156.25C145.154 156.854 146.188 157.156 147.062 157.156C147.865 157.156 148.526 156.914 149.047 156.43C149.573 155.94 149.836 155.312 149.836 154.547C149.836 153.776 149.547 153.148 148.969 152.664C148.396 152.18 147.419 151.938 146.039 151.938H145.234V150.727H146.352C147.367 150.727 148.102 150.5 148.555 150.047C149.008 149.589 149.234 149.081 149.234 148.523C149.234 148.018 149.049 147.594 148.68 147.25C148.31 146.901 147.742 146.727 146.977 146.727C146.117 146.727 145.193 146.969 144.203 147.453V146.07C145.193 145.701 146.099 145.516 146.922 145.516C148.396 145.516 149.411 145.807 149.969 146.391C150.531 146.969 150.812 147.63 150.812 148.375C150.812 148.927 150.664 149.445 150.367 149.93C150.07 150.414 149.523 150.846 148.727 151.227C149.43 151.435 149.961 151.69 150.32 151.992C150.68 152.294 150.951 152.651 151.133 153.062C151.32 153.474 151.414 153.935 151.414 154.445C151.414 155.581 150.992 156.518 150.148 157.258C149.31 157.997 148.224 158.367 146.891 158.367C146.505 158.367 146.083 158.339 145.625 158.281C145.172 158.224 144.617 158.057 143.961 157.781ZM160.938 158H153.602V156.664C153.602 156.32 153.672 155.953 153.812 155.562C153.953 155.167 154.221 154.724 154.617 154.234C155.013 153.745 155.432 153.273 155.875 152.82L156.703 151.977C156.87 151.805 157.234 151.406 157.797 150.781C158.359 150.156 158.729 149.677 158.906 149.344C159.089 149.01 159.18 148.682 159.18 148.359C159.18 147.839 158.971 147.438 158.555 147.156C158.138 146.87 157.669 146.727 157.148 146.727C156.852 146.727 156.518 146.76 156.148 146.828C155.784 146.896 155.464 146.977 155.188 147.07C154.911 147.159 154.464 147.344 153.844 147.625V146.336C154.5 146.023 155.156 145.81 155.812 145.695C156.474 145.576 157.018 145.516 157.445 145.516C158.076 145.516 158.654 145.62 159.18 145.828C159.711 146.031 160.104 146.349 160.359 146.781C160.62 147.214 160.75 147.674 160.75 148.164C160.75 148.711 160.583 149.271 160.25 149.844C159.922 150.417 159.299 151.154 158.383 152.055L157.492 152.938L156.742 153.672C156.268 154.151 155.885 154.615 155.594 155.062C155.302 155.51 155.141 156.044 155.109 156.664H160.938V158Z" fill="black"/>
<path d="M436.656 158V150.484H434.234V149.273H438.109V156.789H440.539V158H436.656ZM436.414 146.125C436.414 145.797 436.526 145.552 436.75 145.391C436.974 145.229 437.185 145.148 437.383 145.148C437.586 145.148 437.799 145.229 438.023 145.391C438.247 145.552 438.359 145.797 438.359 146.125C438.359 146.448 438.247 146.69 438.023 146.852C437.799 147.013 437.586 147.094 437.383 147.094C437.185 147.094 436.974 147.013 436.75 146.852C436.526 146.69 436.414 146.448 436.414 146.125ZM443.82 158V149.273H445.273V151.18C445.69 150.508 446.193 149.982 446.781 149.602C447.37 149.221 447.958 149.031 448.547 149.031C449.062 149.031 449.531 149.169 449.953 149.445C450.375 149.716 450.669 150.073 450.836 150.516C451.008 150.958 451.094 151.828 451.094 153.125V158H449.641V152.945C449.641 152.107 449.599 151.555 449.516 151.289C449.438 151.018 449.289 150.797 449.07 150.625C448.857 150.453 448.622 150.367 448.367 150.367C447.857 150.367 447.307 150.609 446.719 151.094C446.135 151.578 445.654 152.185 445.273 152.914V158H443.82ZM460.727 157.648C460.044 157.935 459.549 158.104 459.242 158.156C458.935 158.214 458.638 158.242 458.352 158.242C457.742 158.242 457.185 158.125 456.68 157.891C456.174 157.656 455.792 157.31 455.531 156.852C455.276 156.393 455.148 155.685 455.148 154.727V151.211H452.969V150H455.148V146.484H456.602V150H460.484V151.211H456.602V154.703C456.602 155.406 456.685 155.904 456.852 156.195C457.018 156.482 457.24 156.693 457.516 156.828C457.797 156.964 458.128 157.031 458.508 157.031C459.211 157.031 459.951 156.81 460.727 156.367V157.648ZM462.961 157.781V156.25C464.154 156.854 465.188 157.156 466.062 157.156C466.865 157.156 467.526 156.914 468.047 156.43C468.573 155.94 468.836 155.312 468.836 154.547C468.836 153.776 468.547 153.148 467.969 152.664C467.396 152.18 466.419 151.938 465.039 151.938H464.234V150.727H465.352C466.367 150.727 467.102 150.5 467.555 150.047C468.008 149.589 468.234 149.081 468.234 148.523C468.234 148.018 468.049 147.594 467.68 147.25C467.31 146.901 466.742 146.727 465.977 146.727C465.117 146.727 464.193 146.969 463.203 147.453V146.07C464.193 145.701 465.099 145.516 465.922 145.516C467.396 145.516 468.411 145.807 468.969 146.391C469.531 146.969 469.812 147.63 469.812 148.375C469.812 148.927 469.664 149.445 469.367 149.93C469.07 150.414 468.523 150.846 467.727 151.227C468.43 151.435 468.961 151.69 469.32 151.992C469.68 152.294 469.951 152.651 470.133 153.062C470.32 153.474 470.414 153.935 470.414 154.445C470.414 155.581 469.992 156.518 469.148 157.258C468.31 157.997 467.224 158.367 465.891 158.367C465.505 158.367 465.083 158.339 464.625 158.281C464.172 158.224 463.617 158.057 462.961 157.781ZM479.938 158H472.602V156.664C472.602 156.32 472.672 155.953 472.812 155.562C472.953 155.167 473.221 154.724 473.617 154.234C474.013 153.745 474.432 153.273 474.875 152.82L475.703 151.977C475.87 151.805 476.234 151.406 476.797 150.781C477.359 150.156 477.729 149.677 477.906 149.344C478.089 149.01 478.18 148.682 478.18 148.359C478.18 147.839 477.971 147.438 477.555 147.156C477.138 146.87 476.669 146.727 476.148 146.727C475.852 146.727 475.518 146.76 475.148 146.828C474.784 146.896 474.464 146.977 474.188 147.07C473.911 147.159 473.464 147.344 472.844 147.625V146.336C473.5 146.023 474.156 145.81 474.812 145.695C475.474 145.576 476.018 145.516 476.445 145.516C477.076 145.516 477.654 145.62 478.18 145.828C478.711 146.031 479.104 146.349 479.359 146.781C479.62 147.214 479.75 147.674 479.75 148.164C479.75 148.711 479.583 149.271 479.25 149.844C478.922 150.417 478.299 151.154 477.383 152.055L476.492 152.938L475.742 153.672C475.268 154.151 474.885 154.615 474.594 155.062C474.302 155.51 474.141 156.044 474.109 156.664H479.938V158Z" fill="black"/>
<path d="M596.656 158V150.484H594.234V149.273H598.109V156.789H600.539V158H596.656ZM596.414 146.125C596.414 145.797 596.526 145.552 596.75 145.391C596.974 145.229 597.185 145.148 597.383 145.148C597.586 145.148 597.799 145.229 598.023 145.391C598.247 145.552 598.359 145.797 598.359 146.125C598.359 146.448 598.247 146.69 598.023 146.852C597.799 147.013 597.586 147.094 597.383 147.094C597.185 147.094 596.974 147.013 596.75 146.852C596.526 146.69 596.414 146.448 596.414 146.125ZM603.82 158V149.273H605.273V151.18C605.69 150.508 606.193 149.982 606.781 149.602C607.37 149.221 607.958 149.031 608.547 149.031C609.062 149.031 609.531 149.169 609.953 149.445C610.375 149.716 610.669 150.073 610.836 150.516C611.008 150.958 611.094 151.828 611.094 153.125V158H609.641V152.945C609.641 152.107 609.599 151.555 609.516 151.289C609.438 151.018 609.289 150.797 609.07 150.625C608.857 150.453 608.622 150.367 608.367 150.367C607.857 150.367 607.307 150.609 606.719 151.094C606.135 151.578 605.654 152.185 605.273 152.914V158H603.82ZM620.727 157.648C620.044 157.935 619.549 158.104 619.242 158.156C618.935 158.214 618.638 158.242 618.352 158.242C617.742 158.242 617.185 158.125 616.68 157.891C616.174 157.656 615.792 157.31 615.531 156.852C615.276 156.393 615.148 155.685 615.148 154.727V151.211H612.969V150H615.148V146.484H616.602V150H620.484V151.211H616.602V154.703C616.602 155.406 616.685 155.904 616.852 156.195C617.018 156.482 617.24 156.693 617.516 156.828C617.797 156.964 618.128 157.031 618.508 157.031C619.211 157.031 619.951 156.81 620.727 156.367V157.648ZM622.961 157.781V156.25C624.154 156.854 625.188 157.156 626.062 157.156C626.865 157.156 627.526 156.914 628.047 156.43C628.573 155.94 628.836 155.312 628.836 154.547C628.836 153.776 628.547 153.148 627.969 152.664C627.396 152.18 626.419 151.938 625.039 151.938H624.234V150.727H625.352C626.367 150.727 627.102 150.5 627.555 150.047C628.008 149.589 628.234 149.081 628.234 148.523C628.234 148.018 628.049 147.594 627.68 147.25C627.31 146.901 626.742 146.727 625.977 146.727C625.117 146.727 624.193 146.969 623.203 147.453V146.07C624.193 145.701 625.099 145.516 625.922 145.516C627.396 145.516 628.411 145.807 628.969 146.391C629.531 146.969 629.812 147.63 629.812 148.375C629.812 148.927 629.664 149.445 629.367 149.93C629.07 150.414 628.523 150.846 627.727 151.227C628.43 151.435 628.961 151.69 629.32 151.992C629.68 152.294 629.951 152.651 630.133 153.062C630.32 153.474 630.414 153.935 630.414 154.445C630.414 155.581 629.992 156.518 629.148 157.258C628.31 157.997 627.224 158.367 625.891 158.367C625.505 158.367 625.083 158.339 624.625 158.281C624.172 158.224 623.617 158.057 622.961 157.781ZM639.938 158H632.602V156.664C632.602 156.32 632.672 155.953 632.812 155.562C632.953 155.167 633.221 154.724 633.617 154.234C634.013 153.745 634.432 153.273 634.875 152.82L635.703 151.977C635.87 151.805 636.234 151.406 636.797 150.781C637.359 150.156 637.729 149.677 637.906 149.344C638.089 149.01 638.18 148.682 638.18 148.359C638.18 147.839 637.971 147.438 637.555 147.156C637.138 146.87 636.669 146.727 636.148 146.727C635.852 146.727 635.518 146.76 635.148 146.828C634.784 146.896 634.464 146.977 634.188 147.07C633.911 147.159 633.464 147.344 632.844 147.625V146.336C633.5 146.023 634.156 145.81 634.812 145.695C635.474 145.576 636.018 145.516 636.445 145.516C637.076 145.516 637.654 145.62 638.18 145.828C638.711 146.031 639.104 146.349 639.359 146.781C639.62 147.214 639.75 147.674 639.75 148.164C639.75 148.711 639.583 149.271 639.25 149.844C638.922 150.417 638.299 151.154 637.383 152.055L636.492 152.938L635.742 153.672C635.268 154.151 634.885 154.615 634.594 155.062C634.302 155.51 634.141 156.044 634.109 156.664H639.938V158Z" fill="black"/>
<mask id="path-22-outside-4_3_85" maskUnits="userSpaceOnUse" x="537" y="179" width="162" height="52" fill="black">
<rect fill="white" x="537" y="179" width="162" height="52"/>
<path fill-rule="evenodd" clip-rule="evenodd" d="M618 180H538V230H618H698V180H618Z"/>
</mask>
<path fill-rule="evenodd" clip-rule="evenodd" d="M618 180H538V230H618H698V180H618Z" fill="#D9D9D9"/>
<path d="M538 180V179H537V180H538ZM538 230H537V231H538V230ZM698 230V231H699V230H698ZM698 180H699V179H698V180ZM538 181H618V179H538V181ZM539 230V180H537V230H539ZM618 229H538V231H618V229ZM698 229H618V231H698V229ZM697 180V230H699V180H697ZM618 181H698V179H618V181Z" fill="black" mask="url(#path-22-outside-4_3_85)"/>
<mask id="path-24-outside-5_3_85" maskUnits="userSpaceOnUse" x="377" y="179" width="162" height="52" fill="black">
<rect fill="white" x="377" y="179" width="162" height="52"/>
<path fill-rule="evenodd" clip-rule="evenodd" d="M458 180H378V230H458H538V180H458Z"/>
</mask>
<path fill-rule="evenodd" clip-rule="evenodd" d="M458 180H378V230H458H538V180H458Z" fill="#D9D9D9"/>
<path d="M378 180V179H377V180H378ZM378 230H377V231H378V230ZM538 230V231H539V230H538ZM538 180H539V179H538V180ZM378 181H458V179H378V181ZM379 230V180H377V230H379ZM458 229H378V231H458V229ZM538 229H458V231H538V229ZM537 180V230H539V180H537ZM458 181H538V179H458V181Z" fill="black" mask="url(#path-24-outside-5_3_85)"/>
<mask id="path-26-outside-6_3_85" maskUnits="userSpaceOnUse" x="57" y="179" width="162" height="52" fill="black">
<rect fill="white" x="57" y="179" width="162" height="52"/>
<path fill-rule="evenodd" clip-rule="evenodd" d="M138 180H58V230H138H218V180H138Z"/>
</mask>
<path fill-rule="evenodd" clip-rule="evenodd" d="M138 180H58V230H138H218V180H138Z" fill="#D9D9D9"/>
<path d="M58 180V179H57V180H58ZM58 230H57V231H58V230ZM218 230V231H219V230H218ZM218 180H219V179H218V180ZM58 181H138V179H58V181ZM59 230V180H57V230H59ZM138 229H58V231H138V229ZM218 229H138V231H218V229ZM217 180V230H219V180H217ZM138 181H218V179H138V181Z" fill="black" mask="url(#path-26-outside-6_3_85)"/>
<rect x="217.5" y="179.5" width="81" height="51" fill="#D9D9D9" stroke="black"/>
<rect x="297.5" y="179.5" width="81" height="51" fill="#D9D9D9" stroke="black"/>
<rect x="58.5" y="230.5" width="639" height="166" fill="#D9D9D9" stroke="black"/>
<path d="M289.375 350.906C287.932 350.818 286.716 350.409 285.727 349.68C284.737 348.956 283.945 347.977 283.352 346.742C282.763 345.508 282.469 344.271 282.469 343.031C282.469 341.792 282.763 340.555 283.352 339.32C283.945 338.086 284.737 337.107 285.727 336.383C286.716 335.654 287.932 335.242 289.375 335.148V336.367C288.286 336.466 287.349 336.833 286.562 337.469C285.781 338.099 285.167 338.904 284.719 339.883C284.271 340.862 284.047 341.911 284.047 343.031C284.047 344.151 284.271 345.201 284.719 346.18C285.167 347.159 285.781 347.964 286.562 348.594C287.349 349.224 288.286 349.591 289.375 349.695V350.906ZM299 339.273V348H297.547V346.086C297.078 346.805 296.557 347.344 295.984 347.703C295.411 348.062 294.839 348.242 294.266 348.242C293.755 348.242 293.286 348.107 292.859 347.836C292.438 347.56 292.143 347.201 291.977 346.758C291.81 346.31 291.727 345.44 291.727 344.148V339.273H293.18V344.328C293.18 345.167 293.219 345.721 293.297 345.992C293.38 346.258 293.529 346.477 293.742 346.648C293.961 346.82 294.195 346.906 294.445 346.906C294.956 346.906 295.503 346.667 296.086 346.188C296.674 345.703 297.161 345.094 297.547 344.359V339.273H299ZM308.727 347.648C308.044 347.935 307.549 348.104 307.242 348.156C306.935 348.214 306.638 348.242 306.352 348.242C305.742 348.242 305.185 348.125 304.68 347.891C304.174 347.656 303.792 347.31 303.531 346.852C303.276 346.393 303.148 345.685 303.148 344.727V341.211H300.969V340H303.148V336.484H304.602V340H308.484V341.211H304.602V344.703C304.602 345.406 304.685 345.904 304.852 346.195C305.018 346.482 305.24 346.693 305.516 346.828C305.797 346.964 306.128 347.031 306.508 347.031C307.211 347.031 307.951 346.81 308.727 346.367V347.648ZM313.07 348V341.211H311.133V340H313.07V339.594C313.07 338.443 313.201 337.591 313.461 337.039C313.721 336.487 314.122 336.034 314.664 335.68C315.211 335.326 315.932 335.148 316.828 335.148C317.505 335.148 318.193 335.219 318.891 335.359V336.742C318.135 336.492 317.466 336.367 316.883 336.367C316.419 336.367 316.01 336.453 315.656 336.625C315.302 336.797 315.023 337.078 314.82 337.469C314.622 337.854 314.523 338.51 314.523 339.438V340H317.984V341.211H314.523V348H313.07ZM323.023 341.461L322.758 341.266C322.388 341.005 322.026 340.622 321.672 340.117C321.318 339.607 321.141 339.047 321.141 338.438C321.141 337.63 321.458 336.943 322.094 336.375C322.729 335.802 323.536 335.516 324.516 335.516C325.115 335.516 325.654 335.625 326.133 335.844C326.612 336.057 326.982 336.375 327.242 336.797C327.503 337.219 327.633 337.68 327.633 338.18C327.633 338.523 327.573 338.857 327.453 339.18C327.333 339.497 327.154 339.815 326.914 340.133C326.68 340.445 326.211 340.888 325.508 341.461L326.164 341.984C326.93 342.609 327.445 343.148 327.711 343.602C327.977 344.055 328.109 344.562 328.109 345.125C328.109 346 327.792 346.76 327.156 347.406C326.521 348.047 325.568 348.367 324.297 348.367C323.021 348.367 322.065 348.068 321.43 347.469C320.794 346.865 320.477 346.117 320.477 345.227C320.477 343.898 321.326 342.643 323.023 341.461ZM324.516 340.719C325.25 340.161 325.708 339.695 325.891 339.32C326.078 338.945 326.172 338.596 326.172 338.273C326.172 337.883 326 337.529 325.656 337.211C325.312 336.888 324.87 336.727 324.328 336.727C323.745 336.727 323.299 336.901 322.992 337.25C322.69 337.599 322.539 337.961 322.539 338.336C322.539 338.701 322.667 339.044 322.922 339.367C323.177 339.69 323.586 340.052 324.148 340.453L324.516 340.719ZM324.117 342.234C322.742 343.292 322.055 344.281 322.055 345.203C322.055 345.75 322.281 346.211 322.734 346.586C323.188 346.961 323.724 347.148 324.344 347.148C324.911 347.148 325.419 346.969 325.867 346.609C326.315 346.25 326.539 345.802 326.539 345.266C326.539 344.74 326.266 344.206 325.719 343.664C325.177 343.122 324.799 342.768 324.586 342.602L324.117 342.234ZM330.119 345.088C330.119 344.848 330.903 344.496 330.903 344.496V344.48C332.311 342.88 333.735 340.656 334.871 338.464L333.879 337.904C332.919 340.08 331.367 342.368 330.887 342.96C330.423 343.552 330.087 343.968 329.767 344.032C329.895 344.32 330.071 344.864 330.119 345.088ZM330.119 345.088C330.423 344.912 330.919 344.752 334.455 343.92C334.423 343.68 334.375 343.248 334.375 342.928L330.583 343.728L330.055 344.128L330.119 345.088ZM330.023 341.248C330.023 341.008 330.727 340.624 330.727 340.624V340.592C331.767 339.136 332.855 337.008 333.623 334.96L332.487 334.56C331.911 336.512 330.839 338.608 330.503 339.136C330.183 339.696 329.911 340.08 329.639 340.144C329.767 340.448 329.959 341.008 330.023 341.248ZM330.023 341.248C330.279 341.12 330.711 341.008 333.223 340.688C333.239 340.448 333.271 340 333.335 339.696L330.551 339.984L329.991 340.352L330.023 341.248ZM329.687 347.152L329.975 348.24C331.271 347.712 332.951 347.04 334.567 346.368L334.359 345.408C332.615 346.064 330.855 346.752 329.687 347.152ZM339.015 341.968V348.768H339.831V341.968H339.015ZM340.967 341.952V348.752H341.783V341.952H340.967ZM342.967 341.408V348.112C342.967 348.24 342.935 348.272 342.823 348.272C342.711 348.272 342.407 348.272 342.055 348.272C342.183 348.512 342.295 348.912 342.343 349.168C342.903 349.168 343.287 349.152 343.575 348.992C343.863 348.832 343.927 348.56 343.927 348.128V341.408H342.967ZM335.671 336.304V339.76C335.671 342.224 335.527 345.776 334.055 348.336C334.311 348.464 334.791 348.816 334.983 349.024C336.519 346.32 336.775 342.384 336.775 339.76V336.304H335.671ZM336.247 336.304V337.312H342.647V339.04H336.247V340.048H343.767V336.304H336.247ZM336.743 341.408V349.152H337.703V342.4H343.479V341.408H336.743ZM337.223 344.768V345.728H343.399V344.768H337.223ZM338.727 334.8C339.063 335.424 339.431 336.272 339.575 336.832L340.743 336.448C340.583 335.904 340.215 335.072 339.847 334.464L338.727 334.8ZM358.919 341.584V341.792C358.599 345.904 358.231 347.536 357.767 347.968C357.623 348.128 357.447 348.16 357.175 348.16C356.871 348.16 356.167 348.16 355.399 348.064C355.575 348.384 355.703 348.848 355.719 349.184C356.503 349.216 357.239 349.216 357.639 349.184C358.119 349.168 358.439 349.04 358.743 348.704C359.319 348.112 359.671 346.448 360.039 342.128C360.055 341.952 360.071 341.584 360.071 341.584H358.919ZM352.135 335.504V336.608H358.071V335.504H352.135ZM352.903 337.616C352.791 339.184 352.567 341.328 352.359 342.624H353.495C353.671 341.376 353.895 339.28 354.023 337.68L352.903 337.616ZM352.695 341.584V342.624H359.271V341.584H352.695ZM351.591 344.736V345.808H357.719V344.736H351.591ZM357.575 335.504V335.648C357.463 337.152 357.143 340.176 356.855 342.272L357.991 342.352C358.279 340.256 358.583 337.44 358.727 335.552L357.895 335.456L357.703 335.504H357.575ZM345.847 335.424V336.528H351.351V335.424H345.847ZM347.415 340.352V341.424H349.831V346.192H347.415V347.264H350.887V340.352H347.415ZM347.911 335.952C347.479 338.624 346.727 341.12 345.495 342.752C345.703 343.072 345.975 343.76 346.055 344.048C347.527 342.128 348.455 339.216 349.031 336.192L347.911 335.952ZM346.887 340.352V348.56H347.943V340.352H346.887ZM363.143 337.136V338.208H366.887V346.512H363.143V347.6H368.007V337.136H363.143ZM362.423 337.136V348.88H363.543V337.136H362.423ZM363.063 341.584V342.656H367.479V341.584H363.063ZM364.871 334.528C364.743 335.36 364.439 336.576 364.167 337.344L365.127 337.584C365.447 336.864 365.847 335.76 366.167 334.768L364.871 334.528ZM370.279 337.088V338.208H375.191V337.088H370.279ZM374.775 337.088V337.344C374.551 344.4 374.295 347.056 373.767 347.632C373.591 347.84 373.399 347.888 373.079 347.888C372.711 347.888 371.751 347.872 370.711 347.792C370.935 348.112 371.079 348.608 371.111 348.96C372.007 349.008 372.951 349.04 373.495 348.976C374.055 348.928 374.423 348.784 374.775 348.32C375.415 347.536 375.639 345.056 375.895 337.712C375.895 337.536 375.895 337.088 375.895 337.088H374.775ZM370.615 334.496C370.103 336.72 369.223 338.928 368.135 340.336C368.423 340.496 368.919 340.832 369.127 341.024C370.231 339.504 371.175 337.152 371.767 334.768L370.615 334.496ZM369.879 341.248C370.759 342.416 371.831 344 372.311 344.976L373.335 344.336C372.823 343.392 371.719 341.84 370.807 340.704L369.879 341.248ZM378.391 351.422V350.062C379.203 350.302 379.888 350.422 380.445 350.422C380.93 350.422 381.341 350.336 381.68 350.164C382.018 349.997 382.281 349.714 382.469 349.312C382.661 348.911 382.758 348.214 382.758 347.219V340.484H379.055V339.273H384.211V346.945C384.211 348.424 384.036 349.451 383.688 350.023C383.339 350.602 382.917 351.016 382.422 351.266C381.927 351.516 381.25 351.641 380.391 351.641C379.771 351.641 379.104 351.568 378.391 351.422ZM382.516 336.125C382.516 335.797 382.625 335.552 382.844 335.391C383.068 335.229 383.281 335.148 383.484 335.148C383.688 335.148 383.898 335.229 384.117 335.391C384.341 335.552 384.453 335.797 384.453 336.125C384.453 336.448 384.341 336.69 384.117 336.852C383.898 337.013 383.688 337.094 383.484 337.094C383.281 337.094 383.068 337.013 382.844 336.852C382.625 336.69 382.516 336.448 382.516 336.125ZM387.969 347.539V346C388.552 346.38 389.169 346.648 389.82 346.805C390.471 346.956 391.023 347.031 391.477 347.031C392.211 347.031 392.74 346.914 393.062 346.68C393.385 346.44 393.547 346.143 393.547 345.789C393.547 345.555 393.471 345.354 393.32 345.188C393.169 345.021 392.794 344.815 392.195 344.57L391.695 344.367L390.688 343.969C389.604 343.547 388.922 343.156 388.641 342.797C388.354 342.443 388.211 342.01 388.211 341.5C388.211 340.781 388.487 340.19 389.039 339.727C389.596 339.263 390.497 339.031 391.742 339.031C392.674 339.031 393.557 339.167 394.391 339.438V340.758C393.432 340.414 392.531 340.242 391.688 340.242C391.073 340.242 390.591 340.352 390.242 340.57C389.898 340.784 389.727 341.052 389.727 341.375C389.727 341.688 389.878 341.938 390.18 342.125C390.477 342.312 390.961 342.529 391.633 342.773L392.617 343.133C393.518 343.461 394.151 343.818 394.516 344.203C394.88 344.589 395.062 345.07 395.062 345.648C395.062 346.404 394.771 347.026 394.188 347.516C393.609 348 392.682 348.242 391.406 348.242C390.292 348.242 389.146 348.008 387.969 347.539ZM401.07 348.242C399.82 348.242 398.82 347.807 398.07 346.938C397.32 346.062 396.945 344.961 396.945 343.633C396.945 342.305 397.32 341.206 398.07 340.336C398.82 339.466 399.82 339.031 401.07 339.031C402.315 339.031 403.312 339.466 404.062 340.336C404.812 341.206 405.188 342.305 405.188 343.633C405.188 344.961 404.812 346.062 404.062 346.938C403.312 347.807 402.315 348.242 401.07 348.242ZM401.07 347.031C401.846 347.031 402.464 346.729 402.922 346.125C403.38 345.521 403.609 344.69 403.609 343.633C403.609 342.581 403.38 341.753 402.922 341.148C402.464 340.544 401.846 340.242 401.07 340.242C400.289 340.242 399.669 340.544 399.211 341.148C398.753 341.753 398.523 342.581 398.523 343.633C398.523 344.69 398.753 345.521 399.211 346.125C399.669 346.729 400.289 347.031 401.07 347.031ZM407.086 348V339.273H408.539V341.18C408.956 340.508 409.458 339.982 410.047 339.602C410.635 339.221 411.224 339.031 411.812 339.031C412.328 339.031 412.797 339.169 413.219 339.445C413.641 339.716 413.935 340.073 414.102 340.516C414.273 340.958 414.359 341.828 414.359 343.125V348H412.906V342.945C412.906 342.107 412.865 341.555 412.781 341.289C412.703 341.018 412.555 340.797 412.336 340.625C412.122 340.453 411.888 340.367 411.633 340.367C411.122 340.367 410.573 340.609 409.984 341.094C409.401 341.578 408.919 342.185 408.539 342.914V348H407.086ZM419.212 339.2V340.304H426.892V339.2H419.212ZM416.604 343.216V344.352H430.396V343.216H416.604ZM422.86 342.016V347.776C422.86 348 422.78 348.064 422.492 348.08C422.204 348.096 421.164 348.096 420.076 348.064C420.284 348.4 420.524 348.912 420.604 349.264C421.964 349.264 422.812 349.248 423.372 349.056C423.948 348.864 424.124 348.512 424.124 347.792V342.016H422.86ZM426.524 339.2V339.44C425.804 340.336 424.38 341.536 423.132 342.208C423.324 342.368 423.644 342.672 423.788 342.896C425.26 342.144 426.844 340.896 427.9 339.728L427.116 339.136L426.844 339.2H426.524ZM422.828 334.544V337.12H424.092V334.544H422.828ZM416.764 336.304V340.064H417.948V337.44H428.956V340.064H430.188V336.304H416.764ZM436.876 341.088V342.192H446.572V341.088H436.876ZM435.644 339.216C434.812 340.96 433.484 342.688 432.14 343.84C432.396 344.064 432.812 344.576 432.972 344.816C434.38 343.536 435.836 341.552 436.78 339.584L435.644 339.216ZM443.212 339.344V347.744C443.212 348.016 443.132 348.096 442.812 348.096C442.508 348.112 441.452 348.128 440.3 348.096C440.476 348.416 440.668 348.928 440.716 349.248C442.172 349.248 443.116 349.232 443.66 349.056C444.204 348.864 444.38 348.512 444.38 347.76V339.344H443.212ZM434.156 336.096V337.12H439.068V336.096H434.156ZM440.3 336.096V337.12H446.428V336.096H440.3ZM434.396 334.512C433.9 336.128 433.052 337.712 432.044 338.752C432.332 338.912 432.844 339.248 433.068 339.424C434.028 338.288 434.972 336.544 435.548 334.8L434.396 334.512ZM440.684 334.512C440.204 336.128 439.34 337.648 438.268 338.624C438.556 338.8 439.052 339.136 439.276 339.312C440.316 338.224 441.276 336.56 441.836 334.784L440.684 334.512ZM435.276 336.912C435.66 337.664 436.14 338.704 436.38 339.296L437.452 338.912C437.196 338.336 436.684 337.328 436.3 336.608L435.276 336.912ZM441.804 336.912C442.268 337.584 442.86 338.512 443.132 339.072L444.188 338.64C443.884 338.08 443.276 337.184 442.796 336.528L441.804 336.912ZM437.804 343.584C438.508 344.608 439.404 345.984 439.82 346.784L440.828 346.176C440.38 345.392 439.468 344.064 438.764 343.072L437.804 343.584ZM434.524 341.856V349.28H435.676V340.736V340.72L434.524 341.856ZM454.796 334.576V349.264H456.06V334.576H454.796ZM449.148 342.112V347.312H450.38V343.232H460.604V347.28H461.884V342.112H449.148ZM451.004 337.504H459.884V339.712H451.004V337.504ZM449.788 336.416V340.768H461.164V336.416H449.788ZM449.9 345.552V346.64H461.116V345.552H449.9ZM464.711 335.148C466.154 335.242 467.37 335.654 468.359 336.383C469.349 337.107 470.138 338.086 470.727 339.32C471.32 340.555 471.617 341.792 471.617 343.031C471.617 344.271 471.32 345.508 470.727 346.742C470.138 347.977 469.349 348.956 468.359 349.68C467.37 350.409 466.154 350.818 464.711 350.906V349.695C465.799 349.591 466.734 349.224 467.516 348.594C468.302 347.964 468.919 347.159 469.367 346.18C469.82 345.201 470.047 344.151 470.047 343.031C470.047 341.911 469.82 340.862 469.367 339.883C468.919 338.904 468.302 338.099 467.516 337.469C466.734 336.833 465.799 336.466 464.711 336.367V335.148Z" fill="black"/>
<path d="M242.656 212V204.484H240.234V203.273H244.109V210.789H246.539V212H242.656ZM242.414 200.125C242.414 199.797 242.526 199.552 242.75 199.391C242.974 199.229 243.185 199.148 243.383 199.148C243.586 199.148 243.799 199.229 244.023 199.391C244.247 199.552 244.359 199.797 244.359 200.125C244.359 200.448 244.247 200.69 244.023 200.852C243.799 201.013 243.586 201.094 243.383 201.094C243.185 201.094 242.974 201.013 242.75 200.852C242.526 200.69 242.414 200.448 242.414 200.125ZM249.82 212V203.273H251.273V205.18C251.69 204.508 252.193 203.982 252.781 203.602C253.37 203.221 253.958 203.031 254.547 203.031C255.062 203.031 255.531 203.169 255.953 203.445C256.375 203.716 256.669 204.073 256.836 204.516C257.008 204.958 257.094 205.828 257.094 207.125V212H255.641V206.945C255.641 206.107 255.599 205.555 255.516 205.289C255.438 205.018 255.289 204.797 255.07 204.625C254.857 204.453 254.622 204.367 254.367 204.367C253.857 204.367 253.307 204.609 252.719 205.094C252.135 205.578 251.654 206.185 251.273 206.914V212H249.82ZM266.727 211.648C266.044 211.935 265.549 212.104 265.242 212.156C264.935 212.214 264.638 212.242 264.352 212.242C263.742 212.242 263.185 212.125 262.68 211.891C262.174 211.656 261.792 211.31 261.531 210.852C261.276 210.393 261.148 209.685 261.148 208.727V205.211H258.969V204H261.148V200.484H262.602V204H266.484V205.211H262.602V208.703C262.602 209.406 262.685 209.904 262.852 210.195C263.018 210.482 263.24 210.693 263.516 210.828C263.797 210.964 264.128 211.031 264.508 211.031C265.211 211.031 265.951 210.81 266.727 210.367V211.648ZM272.266 210.789V201.43C271.828 201.779 271.404 202.076 270.992 202.32C270.581 202.565 270.016 202.815 269.297 203.07V201.758C270.438 201.273 271.427 200.646 272.266 199.875H273.719V210.789H276.633V212H269.297V210.789H272.266ZM279.719 206.312C280.094 205.755 280.557 205.302 281.109 204.953C281.667 204.599 282.279 204.422 282.945 204.422C283.576 204.422 284.172 204.576 284.734 204.883C285.302 205.19 285.734 205.62 286.031 206.172C286.328 206.719 286.477 207.357 286.477 208.086C286.477 209.237 286.107 210.24 285.367 211.094C284.633 211.943 283.664 212.367 282.461 212.367C281.044 212.367 279.984 211.776 279.281 210.594C278.583 209.406 278.234 207.898 278.234 206.07C278.234 204.049 278.68 202.453 279.57 201.281C280.461 200.104 281.667 199.516 283.188 199.516C284.005 199.516 284.799 199.635 285.57 199.875V201.344C284.706 200.932 283.891 200.727 283.125 200.727C282.042 200.727 281.203 201.224 280.609 202.219C280.016 203.214 279.719 204.474 279.719 206V206.312ZM282.57 211.156C282.961 211.156 283.354 211.042 283.75 210.812C284.146 210.578 284.456 210.221 284.68 209.742C284.909 209.258 285.023 208.732 285.023 208.164C285.023 207.424 284.831 206.818 284.445 206.344C284.065 205.87 283.521 205.633 282.812 205.633C282.078 205.633 281.474 205.909 281 206.461C280.531 207.008 280.297 207.674 280.297 208.461C280.297 209.253 280.526 209.901 280.984 210.406C281.448 210.906 281.977 211.156 282.57 211.156Z" fill="black"/>
<path d="M317.656 212V204.484H315.234V203.273H319.109V210.789H321.539V212H317.656ZM317.414 200.125C317.414 199.797 317.526 199.552 317.75 199.391C317.974 199.229 318.185 199.148 318.383 199.148C318.586 199.148 318.799 199.229 319.023 199.391C319.247 199.552 319.359 199.797 319.359 200.125C319.359 200.448 319.247 200.69 319.023 200.852C318.799 201.013 318.586 201.094 318.383 201.094C318.185 201.094 317.974 201.013 317.75 200.852C317.526 200.69 317.414 200.448 317.414 200.125ZM324.82 212V203.273H326.273V205.18C326.69 204.508 327.193 203.982 327.781 203.602C328.37 203.221 328.958 203.031 329.547 203.031C330.062 203.031 330.531 203.169 330.953 203.445C331.375 203.716 331.669 204.073 331.836 204.516C332.008 204.958 332.094 205.828 332.094 207.125V212H330.641V206.945C330.641 206.107 330.599 205.555 330.516 205.289C330.438 205.018 330.289 204.797 330.07 204.625C329.857 204.453 329.622 204.367 329.367 204.367C328.857 204.367 328.307 204.609 327.719 205.094C327.135 205.578 326.654 206.185 326.273 206.914V212H324.82ZM341.727 211.648C341.044 211.935 340.549 212.104 340.242 212.156C339.935 212.214 339.638 212.242 339.352 212.242C338.742 212.242 338.185 212.125 337.68 211.891C337.174 211.656 336.792 211.31 336.531 210.852C336.276 210.393 336.148 209.685 336.148 208.727V205.211H333.969V204H336.148V200.484H337.602V204H341.484V205.211H337.602V208.703C337.602 209.406 337.685 209.904 337.852 210.195C338.018 210.482 338.24 210.693 338.516 210.828C338.797 210.964 339.128 211.031 339.508 211.031C340.211 211.031 340.951 210.81 341.727 210.367V211.648ZM347.266 210.789V201.43C346.828 201.779 346.404 202.076 345.992 202.32C345.581 202.565 345.016 202.815 344.297 203.07V201.758C345.438 201.273 346.427 200.646 347.266 199.875H348.719V210.789H351.633V212H344.297V210.789H347.266ZM354.719 206.312C355.094 205.755 355.557 205.302 356.109 204.953C356.667 204.599 357.279 204.422 357.945 204.422C358.576 204.422 359.172 204.576 359.734 204.883C360.302 205.19 360.734 205.62 361.031 206.172C361.328 206.719 361.477 207.357 361.477 208.086C361.477 209.237 361.107 210.24 360.367 211.094C359.633 211.943 358.664 212.367 357.461 212.367C356.044 212.367 354.984 211.776 354.281 210.594C353.583 209.406 353.234 207.898 353.234 206.07C353.234 204.049 353.68 202.453 354.57 201.281C355.461 200.104 356.667 199.516 358.188 199.516C359.005 199.516 359.799 199.635 360.57 199.875V201.344C359.706 200.932 358.891 200.727 358.125 200.727C357.042 200.727 356.203 201.224 355.609 202.219C355.016 203.214 354.719 204.474 354.719 206V206.312ZM357.57 211.156C357.961 211.156 358.354 211.042 358.75 210.812C359.146 210.578 359.456 210.221 359.68 209.742C359.909 209.258 360.023 208.732 360.023 208.164C360.023 207.424 359.831 206.818 359.445 206.344C359.065 205.87 358.521 205.633 357.812 205.633C357.078 205.633 356.474 205.909 356 206.461C355.531 207.008 355.297 207.674 355.297 208.461C355.297 209.253 355.526 209.901 355.984 210.406C356.448 210.906 356.977 211.156 357.57 211.156Z" fill="black"/>
<path d="M344.109 279.469C345.005 278.01 346.073 276.911 347.312 276.172C348.552 275.432 349.693 275.062 350.734 275.062C352.193 275.062 353.505 275.693 354.672 276.953C355.839 278.214 356.422 280.125 356.422 282.688C356.422 284.708 356.031 286.516 355.25 288.109C354.479 289.693 353.448 290.948 352.156 291.875C350.865 292.792 349.266 293.25 347.359 293.25C346.818 293.25 345.984 293.193 344.859 293.078C344.693 293.057 344.443 293.031 344.109 293H341.203V267.781H344.109V279.469ZM344.109 282.922V290.406C345.161 290.677 346.13 290.812 347.016 290.812C348.776 290.812 350.255 290.125 351.453 288.75C352.661 287.365 353.266 285.474 353.266 283.078C353.266 281.339 352.938 280.031 352.281 279.156C351.625 278.281 350.88 277.844 350.047 277.844C349.141 277.844 348.141 278.302 347.047 279.219C345.964 280.135 344.984 281.37 344.109 282.922ZM367.828 293.484C365.328 293.484 363.328 292.615 361.828 290.875C360.328 289.125 359.578 286.922 359.578 284.266C359.578 281.609 360.328 279.411 361.828 277.672C363.328 275.932 365.328 275.062 367.828 275.062C370.318 275.062 372.312 275.932 373.812 277.672C375.312 279.411 376.062 281.609 376.062 284.266C376.062 286.922 375.312 289.125 373.812 290.875C372.312 292.615 370.318 293.484 367.828 293.484ZM367.828 291.062C369.38 291.062 370.615 290.458 371.531 289.25C372.448 288.042 372.906 286.38 372.906 284.266C372.906 282.161 372.448 280.505 371.531 279.297C370.615 278.089 369.38 277.484 367.828 277.484C366.266 277.484 365.026 278.089 364.109 279.297C363.193 280.505 362.734 282.161 362.734 284.266C362.734 286.38 363.193 288.042 364.109 289.25C365.026 290.458 366.266 291.062 367.828 291.062ZM391.516 289.078C390.63 290.536 389.562 291.635 388.312 292.375C387.073 293.115 385.932 293.484 384.891 293.484C383.432 293.484 382.12 292.854 380.953 291.594C379.797 290.333 379.219 288.422 379.219 285.859C379.219 283.839 379.604 282.036 380.375 280.453C381.146 278.859 382.177 277.604 383.469 276.688C384.76 275.76 386.359 275.297 388.266 275.297C388.818 275.297 389.651 275.354 390.766 275.469C390.932 275.49 391.182 275.516 391.516 275.547V267.781H394.438V293H391.516V289.078ZM391.516 285.625V278.141C390.484 277.87 389.526 277.734 388.641 277.734C386.849 277.734 385.354 278.427 384.156 279.812C382.969 281.198 382.375 283.083 382.375 285.469C382.375 287.198 382.698 288.505 383.344 289.391C384 290.266 384.745 290.703 385.578 290.703C386.484 290.703 387.484 290.245 388.578 289.328C389.672 288.411 390.651 287.177 391.516 285.625ZM405.5 292.297L397.438 275.547H400.641L407.062 288.641L412.438 275.547H415.359L408.594 291.766C407.167 295.193 405.807 297.469 404.516 298.594C403.234 299.719 401.573 300.281 399.531 300.281C398.646 300.281 397.854 300.203 397.156 300.047V297.484C397.958 297.734 398.724 297.859 399.453 297.859C400.391 297.859 401.224 297.677 401.953 297.312C402.682 296.948 403.349 296.302 403.953 295.375C404.557 294.448 404.984 293.646 405.234 292.969L405.5 292.297Z" fill="black"/>
<path d="M117.656 212V204.484H115.234V203.273H119.109V210.789H121.539V212H117.656ZM117.414 200.125C117.414 199.797 117.526 199.552 117.75 199.391C117.974 199.229 118.185 199.148 118.383 199.148C118.586 199.148 118.799 199.229 119.023 199.391C119.247 199.552 119.359 199.797 119.359 200.125C119.359 200.448 119.247 200.69 119.023 200.852C118.799 201.013 118.586 201.094 118.383 201.094C118.185 201.094 117.974 201.013 117.75 200.852C117.526 200.69 117.414 200.448 117.414 200.125ZM124.82 212V203.273H126.273V205.18C126.69 204.508 127.193 203.982 127.781 203.602C128.37 203.221 128.958 203.031 129.547 203.031C130.062 203.031 130.531 203.169 130.953 203.445C131.375 203.716 131.669 204.073 131.836 204.516C132.008 204.958 132.094 205.828 132.094 207.125V212H130.641V206.945C130.641 206.107 130.599 205.555 130.516 205.289C130.438 205.018 130.289 204.797 130.07 204.625C129.857 204.453 129.622 204.367 129.367 204.367C128.857 204.367 128.307 204.609 127.719 205.094C127.135 205.578 126.654 206.185 126.273 206.914V212H124.82ZM141.727 211.648C141.044 211.935 140.549 212.104 140.242 212.156C139.935 212.214 139.638 212.242 139.352 212.242C138.742 212.242 138.185 212.125 137.68 211.891C137.174 211.656 136.792 211.31 136.531 210.852C136.276 210.393 136.148 209.685 136.148 208.727V205.211H133.969V204H136.148V200.484H137.602V204H141.484V205.211H137.602V208.703C137.602 209.406 137.685 209.904 137.852 210.195C138.018 210.482 138.24 210.693 138.516 210.828C138.797 210.964 139.128 211.031 139.508 211.031C140.211 211.031 140.951 210.81 141.727 210.367V211.648ZM143.961 211.781V210.25C145.154 210.854 146.188 211.156 147.062 211.156C147.865 211.156 148.526 210.914 149.047 210.43C149.573 209.94 149.836 209.312 149.836 208.547C149.836 207.776 149.547 207.148 148.969 206.664C148.396 206.18 147.419 205.938 146.039 205.938H145.234V204.727H146.352C147.367 204.727 148.102 204.5 148.555 204.047C149.008 203.589 149.234 203.081 149.234 202.523C149.234 202.018 149.049 201.594 148.68 201.25C148.31 200.901 147.742 200.727 146.977 200.727C146.117 200.727 145.193 200.969 144.203 201.453V200.07C145.193 199.701 146.099 199.516 146.922 199.516C148.396 199.516 149.411 199.807 149.969 200.391C150.531 200.969 150.812 201.63 150.812 202.375C150.812 202.927 150.664 203.445 150.367 203.93C150.07 204.414 149.523 204.846 148.727 205.227C149.43 205.435 149.961 205.69 150.32 205.992C150.68 206.294 150.951 206.651 151.133 207.062C151.32 207.474 151.414 207.935 151.414 208.445C151.414 209.581 150.992 210.518 150.148 211.258C149.31 211.997 148.224 212.367 146.891 212.367C146.505 212.367 146.083 212.339 145.625 212.281C145.172 212.224 144.617 212.057 143.961 211.781ZM160.938 212H153.602V210.664C153.602 210.32 153.672 209.953 153.812 209.562C153.953 209.167 154.221 208.724 154.617 208.234C155.013 207.745 155.432 207.273 155.875 206.82L156.703 205.977C156.87 205.805 157.234 205.406 157.797 204.781C158.359 204.156 158.729 203.677 158.906 203.344C159.089 203.01 159.18 202.682 159.18 202.359C159.18 201.839 158.971 201.438 158.555 201.156C158.138 200.87 157.669 200.727 157.148 200.727C156.852 200.727 156.518 200.76 156.148 200.828C155.784 200.896 155.464 200.977 155.188 201.07C154.911 201.159 154.464 201.344 153.844 201.625V200.336C154.5 200.023 155.156 199.81 155.812 199.695C156.474 199.576 157.018 199.516 157.445 199.516C158.076 199.516 158.654 199.62 159.18 199.828C159.711 200.031 160.104 200.349 160.359 200.781C160.62 201.214 160.75 201.674 160.75 202.164C160.75 202.711 160.583 203.271 160.25 203.844C159.922 204.417 159.299 205.154 158.383 206.055L157.492 206.938L156.742 207.672C156.268 208.151 155.885 208.615 155.594 209.062C155.302 209.51 155.141 210.044 155.109 210.664H160.938V212Z" fill="black"/>
<path d="M436.656 212V204.484H434.234V203.273H438.109V210.789H440.539V212H436.656ZM436.414 200.125C436.414 199.797 436.526 199.552 436.75 199.391C436.974 199.229 437.185 199.148 437.383 199.148C437.586 199.148 437.799 199.229 438.023 199.391C438.247 199.552 438.359 199.797 438.359 200.125C438.359 200.448 438.247 200.69 438.023 200.852C437.799 201.013 437.586 201.094 437.383 201.094C437.185 201.094 436.974 201.013 436.75 200.852C436.526 200.69 436.414 200.448 436.414 200.125ZM443.82 212V203.273H445.273V205.18C445.69 204.508 446.193 203.982 446.781 203.602C447.37 203.221 447.958 203.031 448.547 203.031C449.062 203.031 449.531 203.169 449.953 203.445C450.375 203.716 450.669 204.073 450.836 204.516C451.008 204.958 451.094 205.828 451.094 207.125V212H449.641V206.945C449.641 206.107 449.599 205.555 449.516 205.289C449.438 205.018 449.289 204.797 449.07 204.625C448.857 204.453 448.622 204.367 448.367 204.367C447.857 204.367 447.307 204.609 446.719 205.094C446.135 205.578 445.654 206.185 445.273 206.914V212H443.82ZM460.727 211.648C460.044 211.935 459.549 212.104 459.242 212.156C458.935 212.214 458.638 212.242 458.352 212.242C457.742 212.242 457.185 212.125 456.68 211.891C456.174 211.656 455.792 211.31 455.531 210.852C455.276 210.393 455.148 209.685 455.148 208.727V205.211H452.969V204H455.148V200.484H456.602V204H460.484V205.211H456.602V208.703C456.602 209.406 456.685 209.904 456.852 210.195C457.018 210.482 457.24 210.693 457.516 210.828C457.797 210.964 458.128 211.031 458.508 211.031C459.211 211.031 459.951 210.81 460.727 210.367V211.648ZM462.961 211.781V210.25C464.154 210.854 465.188 211.156 466.062 211.156C466.865 211.156 467.526 210.914 468.047 210.43C468.573 209.94 468.836 209.312 468.836 208.547C468.836 207.776 468.547 207.148 467.969 206.664C467.396 206.18 466.419 205.938 465.039 205.938H464.234V204.727H465.352C466.367 204.727 467.102 204.5 467.555 204.047C468.008 203.589 468.234 203.081 468.234 202.523C468.234 202.018 468.049 201.594 467.68 201.25C467.31 200.901 466.742 200.727 465.977 200.727C465.117 200.727 464.193 200.969 463.203 201.453V200.07C464.193 199.701 465.099 199.516 465.922 199.516C467.396 199.516 468.411 199.807 468.969 200.391C469.531 200.969 469.812 201.63 469.812 202.375C469.812 202.927 469.664 203.445 469.367 203.93C469.07 204.414 468.523 204.846 467.727 205.227C468.43 205.435 468.961 205.69 469.32 205.992C469.68 206.294 469.951 206.651 470.133 207.062C470.32 207.474 470.414 207.935 470.414 208.445C470.414 209.581 469.992 210.518 469.148 211.258C468.31 211.997 467.224 212.367 465.891 212.367C465.505 212.367 465.083 212.339 464.625 212.281C464.172 212.224 463.617 212.057 462.961 211.781ZM479.938 212H472.602V210.664C472.602 210.32 472.672 209.953 472.812 209.562C472.953 209.167 473.221 208.724 473.617 208.234C474.013 207.745 474.432 207.273 474.875 206.82L475.703 205.977C475.87 205.805 476.234 205.406 476.797 204.781C477.359 204.156 477.729 203.677 477.906 203.344C478.089 203.01 478.18 202.682 478.18 202.359C478.18 201.839 477.971 201.438 477.555 201.156C477.138 200.87 476.669 200.727 476.148 200.727C475.852 200.727 475.518 200.76 475.148 200.828C474.784 200.896 474.464 200.977 474.188 201.07C473.911 201.159 473.464 201.344 472.844 201.625V200.336C473.5 200.023 474.156 199.81 474.812 199.695C475.474 199.576 476.018 199.516 476.445 199.516C477.076 199.516 477.654 199.62 478.18 199.828C478.711 200.031 479.104 200.349 479.359 200.781C479.62 201.214 479.75 201.674 479.75 202.164C479.75 202.711 479.583 203.271 479.25 203.844C478.922 204.417 478.299 205.154 477.383 206.055L476.492 206.938L475.742 207.672C475.268 208.151 474.885 208.615 474.594 209.062C474.302 209.51 474.141 210.044 474.109 210.664H479.938V212Z" fill="black"/>
<path d="M596.656 212V204.484H594.234V203.273H598.109V210.789H600.539V212H596.656ZM596.414 200.125C596.414 199.797 596.526 199.552 596.75 199.391C596.974 199.229 597.185 199.148 597.383 199.148C597.586 199.148 597.799 199.229 598.023 199.391C598.247 199.552 598.359 199.797 598.359 200.125C598.359 200.448 598.247 200.69 598.023 200.852C597.799 201.013 597.586 201.094 597.383 201.094C597.185 201.094 596.974 201.013 596.75 200.852C596.526 200.69 596.414 200.448 596.414 200.125ZM603.82 212V203.273H605.273V205.18C605.69 204.508 606.193 203.982 606.781 203.602C607.37 203.221 607.958 203.031 608.547 203.031C609.062 203.031 609.531 203.169 609.953 203.445C610.375 203.716 610.669 204.073 610.836 204.516C611.008 204.958 611.094 205.828 611.094 207.125V212H609.641V206.945C609.641 206.107 609.599 205.555 609.516 205.289C609.438 205.018 609.289 204.797 609.07 204.625C608.857 204.453 608.622 204.367 608.367 204.367C607.857 204.367 607.307 204.609 606.719 205.094C606.135 205.578 605.654 206.185 605.273 206.914V212H603.82ZM620.727 211.648C620.044 211.935 619.549 212.104 619.242 212.156C618.935 212.214 618.638 212.242 618.352 212.242C617.742 212.242 617.185 212.125 616.68 211.891C616.174 211.656 615.792 211.31 615.531 210.852C615.276 210.393 615.148 209.685 615.148 208.727V205.211H612.969V204H615.148V200.484H616.602V204H620.484V205.211H616.602V208.703C616.602 209.406 616.685 209.904 616.852 210.195C617.018 210.482 617.24 210.693 617.516 210.828C617.797 210.964 618.128 211.031 618.508 211.031C619.211 211.031 619.951 210.81 620.727 210.367V211.648ZM622.961 211.781V210.25C624.154 210.854 625.188 211.156 626.062 211.156C626.865 211.156 627.526 210.914 628.047 210.43C628.573 209.94 628.836 209.312 628.836 208.547C628.836 207.776 628.547 207.148 627.969 206.664C627.396 206.18 626.419 205.938 625.039 205.938H624.234V204.727H625.352C626.367 204.727 627.102 204.5 627.555 204.047C628.008 203.589 628.234 203.081 628.234 202.523C628.234 202.018 628.049 201.594 627.68 201.25C627.31 200.901 626.742 200.727 625.977 200.727C625.117 200.727 624.193 200.969 623.203 201.453V200.07C624.193 199.701 625.099 199.516 625.922 199.516C627.396 199.516 628.411 199.807 628.969 200.391C629.531 200.969 629.812 201.63 629.812 202.375C629.812 202.927 629.664 203.445 629.367 203.93C629.07 204.414 628.523 204.846 627.727 205.227C628.43 205.435 628.961 205.69 629.32 205.992C629.68 206.294 629.951 206.651 630.133 207.062C630.32 207.474 630.414 207.935 630.414 208.445C630.414 209.581 629.992 210.518 629.148 211.258C628.31 211.997 627.224 212.367 625.891 212.367C625.505 212.367 625.083 212.339 624.625 212.281C624.172 212.224 623.617 212.057 622.961 211.781ZM639.938 212H632.602V210.664C632.602 210.32 632.672 209.953 632.812 209.562C632.953 209.167 633.221 208.724 633.617 208.234C634.013 207.745 634.432 207.273 634.875 206.82L635.703 205.977C635.87 205.805 636.234 205.406 636.797 204.781C637.359 204.156 637.729 203.677 637.906 203.344C638.089 203.01 638.18 202.682 638.18 202.359C638.18 201.839 637.971 201.438 637.555 201.156C637.138 200.87 636.669 200.727 636.148 200.727C635.852 200.727 635.518 200.76 635.148 200.828C634.784 200.896 634.464 200.977 634.188 201.07C633.911 201.159 633.464 201.344 632.844 201.625V200.336C633.5 200.023 634.156 199.81 634.812 199.695C635.474 199.576 636.018 199.516 636.445 199.516C637.076 199.516 637.654 199.62 638.18 199.828C638.711 200.031 639.104 200.349 639.359 200.781C639.62 201.214 639.75 201.674 639.75 202.164C639.75 202.711 639.583 203.271 639.25 203.844C638.922 204.417 638.299 205.154 637.383 206.055L636.492 206.938L635.742 207.672C635.268 208.151 634.885 208.615 634.594 209.062C634.302 209.51 634.141 210.044 634.109 210.664H639.938V212Z" fill="black"/>
<path d="M58 180V179H57V180H58ZM698 180H699V179H698V180ZM698 397V398H699V397H698ZM58 397H57V398H58V397ZM58 181H698V179H58V181ZM697 180V397H699V180H697ZM698 396H58V398H698V396ZM59 397V180H57V397H59Z" fill="#DC3232"/>
<rect x="56" y="178" width="711" height="219" stroke="#5F32BD" stroke-width="2" stroke-dasharray="12 12"/>
<path d="M708.555 286.234C709.003 285.505 709.536 284.956 710.156 284.586C710.776 284.216 711.346 284.031 711.867 284.031C712.596 284.031 713.253 284.346 713.836 284.977C714.419 285.607 714.711 286.562 714.711 287.844C714.711 288.854 714.516 289.758 714.125 290.555C713.74 291.346 713.224 291.974 712.578 292.438C711.932 292.896 711.133 293.125 710.18 293.125C709.909 293.125 709.492 293.096 708.93 293.039C708.846 293.029 708.721 293.016 708.555 293H707.102V280.391H708.555V286.234ZM708.555 287.961V291.703C709.081 291.839 709.565 291.906 710.008 291.906C710.888 291.906 711.628 291.562 712.227 290.875C712.831 290.182 713.133 289.237 713.133 288.039C713.133 287.169 712.969 286.516 712.641 286.078C712.312 285.641 711.94 285.422 711.523 285.422C711.07 285.422 710.57 285.651 710.023 286.109C709.482 286.568 708.992 287.185 708.555 287.961ZM717.562 293V284.273H719.016V286.18C719.469 285.461 719.987 284.924 720.57 284.57C721.159 284.211 721.812 284.031 722.531 284.031C723.057 284.031 723.583 284.112 724.109 284.273V287.422H722.711V285.43C722.466 285.388 722.273 285.367 722.133 285.367C721.591 285.367 721.06 285.581 720.539 286.008C720.018 286.435 719.51 287.076 719.016 287.93V293H717.562ZM727.699 280.328V281.496H740.499V280.328H727.699ZM727.059 280.328V285.512C727.059 287.928 726.963 291.272 725.715 293.624C726.003 293.752 726.499 294.104 726.707 294.296C728.003 291.8 728.195 288.072 728.195 285.512V280.328H727.059ZM728.291 292.456V293.608H740.451V292.456H728.291ZM729.331 285.8V286.952H739.683V285.8H729.331ZM733.699 282.36V293.16H734.931V282.36H733.699ZM736.163 288.68C737.027 289.432 737.971 290.504 738.419 291.208L739.331 290.52C738.867 289.816 737.923 288.84 737.027 288.104L736.163 288.68ZM742.323 290.088C742.323 289.864 743.091 289.512 743.091 289.512V289.496C744.467 287.928 745.859 285.768 746.979 283.624L746.019 283.08C745.059 285.192 743.555 287.448 743.075 288.008C742.627 288.6 742.275 289 741.955 289.048C742.083 289.336 742.259 289.864 742.323 290.088ZM742.323 290.088C742.595 289.912 743.075 289.752 746.307 288.936C746.275 288.696 746.243 288.28 746.259 287.96L742.755 288.744L742.243 289.144L742.323 290.088ZM742.211 286.248C742.211 286.008 742.915 285.64 742.915 285.64V285.608C744.019 284.152 745.091 282.088 745.907 280.104L744.851 279.624C744.211 281.544 743.075 283.624 742.739 284.168C742.387 284.712 742.131 285.096 741.843 285.16C741.987 285.464 742.147 286.008 742.211 286.248ZM742.211 286.248C742.483 286.12 742.915 286.024 745.427 285.736C745.427 285.496 745.459 285.064 745.523 284.76L742.755 285.016L742.195 285.368L742.211 286.248ZM741.923 292.152L742.211 293.288C743.539 292.792 745.267 292.104 746.915 291.464L746.707 290.472C744.931 291.112 743.139 291.768 741.923 292.152ZM752.419 284.28C752.323 285.096 752.067 286.296 751.859 287.048L752.851 287.272C753.091 286.552 753.363 285.48 753.619 284.504L752.419 284.28ZM747.123 281.112V283.72H748.211V282.136H755.283V283.496H756.419V281.112H747.123ZM748.771 283.224C748.355 284.92 747.443 287.016 746.259 288.344C746.451 288.536 746.755 288.92 746.883 289.144C748.227 287.688 749.251 285.432 749.827 283.48L748.771 283.224ZM749.971 283.928V284.92H756.195V283.928H749.971ZM750.707 289.48V290.44H755.379V289.48H750.707ZM750.195 286.552V294.264H751.235V287.528H754.883V294.184H755.971V286.552H750.195ZM747.907 286.44V294.28H748.947V285.512L748.883 285.464L747.907 286.44ZM750.643 279.864C750.979 280.44 751.363 281.224 751.539 281.704L752.595 281.304C752.419 280.824 752.019 280.072 751.651 279.512L750.643 279.864ZM750.739 292.552V293.528H755.379V292.552H750.739ZM708.096 303.136V304.208H711.84V312.512H708.096V313.6H712.96V303.136H708.096ZM707.376 303.136V314.88H708.496V303.136H707.376ZM708.016 307.584V308.656H712.432V307.584H708.016ZM709.824 300.528C709.696 301.36 709.392 302.576 709.12 303.344L710.08 303.584C710.4 302.864 710.8 301.76 711.12 300.768L709.824 300.528ZM715.232 303.088V304.208H720.144V303.088H715.232ZM719.728 303.088V303.344C719.504 310.4 719.248 313.056 718.72 313.632C718.544 313.84 718.352 313.888 718.032 313.888C717.664 313.888 716.704 313.872 715.664 313.792C715.888 314.112 716.032 314.608 716.064 314.96C716.96 315.008 717.904 315.04 718.448 314.976C719.008 314.928 719.376 314.784 719.728 314.32C720.368 313.536 720.592 311.056 720.848 303.712C720.848 303.536 720.848 303.088 720.848 303.088H719.728ZM715.568 300.496C715.056 302.72 714.176 304.928 713.088 306.336C713.376 306.496 713.872 306.832 714.08 307.024C715.184 305.504 716.128 303.152 716.72 300.768L715.568 300.496ZM714.832 307.248C715.712 308.416 716.784 310 717.264 310.976L718.288 310.336C717.776 309.392 716.672 307.84 715.76 306.704L714.832 307.248ZM724.555 307.234C725.003 306.505 725.536 305.956 726.156 305.586C726.776 305.216 727.346 305.031 727.867 305.031C728.596 305.031 729.253 305.346 729.836 305.977C730.419 306.607 730.711 307.562 730.711 308.844C730.711 309.854 730.516 310.758 730.125 311.555C729.74 312.346 729.224 312.974 728.578 313.438C727.932 313.896 727.133 314.125 726.18 314.125C725.909 314.125 725.492 314.096 724.93 314.039C724.846 314.029 724.721 314.016 724.555 314H723.102V301.391H724.555V307.234ZM724.555 308.961V312.703C725.081 312.839 725.565 312.906 726.008 312.906C726.888 312.906 727.628 312.562 728.227 311.875C728.831 311.182 729.133 310.237 729.133 309.039C729.133 308.169 728.969 307.516 728.641 307.078C728.312 306.641 727.94 306.422 727.523 306.422C727.07 306.422 726.57 306.651 726.023 307.109C725.482 307.568 724.992 308.185 724.555 308.961ZM736.414 314.242C735.164 314.242 734.164 313.807 733.414 312.938C732.664 312.062 732.289 310.961 732.289 309.633C732.289 308.305 732.664 307.206 733.414 306.336C734.164 305.466 735.164 305.031 736.414 305.031C737.659 305.031 738.656 305.466 739.406 306.336C740.156 307.206 740.531 308.305 740.531 309.633C740.531 310.961 740.156 312.062 739.406 312.938C738.656 313.807 737.659 314.242 736.414 314.242ZM736.414 313.031C737.19 313.031 737.807 312.729 738.266 312.125C738.724 311.521 738.953 310.69 738.953 309.633C738.953 308.581 738.724 307.753 738.266 307.148C737.807 306.544 737.19 306.242 736.414 306.242C735.633 306.242 735.013 306.544 734.555 307.148C734.096 307.753 733.867 308.581 733.867 309.633C733.867 310.69 734.096 311.521 734.555 312.125C735.013 312.729 735.633 313.031 736.414 313.031ZM748.258 312.039C747.815 312.768 747.281 313.318 746.656 313.688C746.036 314.057 745.466 314.242 744.945 314.242C744.216 314.242 743.56 313.927 742.977 313.297C742.398 312.667 742.109 311.711 742.109 310.43C742.109 309.419 742.302 308.518 742.688 307.727C743.073 306.93 743.589 306.302 744.234 305.844C744.88 305.38 745.68 305.148 746.633 305.148C746.909 305.148 747.326 305.177 747.883 305.234C747.966 305.245 748.091 305.258 748.258 305.273V301.391H749.719V314H748.258V312.039ZM748.258 310.312V306.57C747.742 306.435 747.263 306.367 746.82 306.367C745.924 306.367 745.177 306.714 744.578 307.406C743.984 308.099 743.688 309.042 743.688 310.234C743.688 311.099 743.849 311.753 744.172 312.195C744.5 312.633 744.872 312.852 745.289 312.852C745.742 312.852 746.242 312.622 746.789 312.164C747.336 311.706 747.826 311.089 748.258 310.312ZM755.25 313.648L751.219 305.273H752.82L756.031 311.82L758.719 305.273H760.18L756.797 313.383C756.083 315.096 755.404 316.234 754.758 316.797C754.117 317.359 753.286 317.641 752.266 317.641C751.823 317.641 751.427 317.602 751.078 317.523V316.242C751.479 316.367 751.862 316.43 752.227 316.43C752.695 316.43 753.112 316.339 753.477 316.156C753.841 315.974 754.174 315.651 754.477 315.188C754.779 314.724 754.992 314.323 755.117 313.984L755.25 313.648Z" fill="black"/>
<rect x="56" y="126" width="741" height="272" stroke="black" stroke-width="2" stroke-dasharray="12 12"/>
<path d="M730.555 140.234C731.003 139.505 731.536 138.956 732.156 138.586C732.776 138.216 733.346 138.031 733.867 138.031C734.596 138.031 735.253 138.346 735.836 138.977C736.419 139.607 736.711 140.562 736.711 141.844C736.711 142.854 736.516 143.758 736.125 144.555C735.74 145.346 735.224 145.974 734.578 146.438C733.932 146.896 733.133 147.125 732.18 147.125C731.909 147.125 731.492 147.096 730.93 147.039C730.846 147.029 730.721 147.016 730.555 147V150.391H729.102V138.273H730.555V140.234ZM730.555 141.961V145.703C731.081 145.839 731.565 145.906 732.008 145.906C732.888 145.906 733.628 145.562 734.227 144.875C734.831 144.182 735.133 143.237 735.133 142.039C735.133 141.169 734.969 140.516 734.641 140.078C734.312 139.641 733.94 139.422 733.523 139.422C733.07 139.422 732.57 139.651 732.023 140.109C731.482 140.568 730.992 141.185 730.555 141.961ZM744.555 145.039C744.112 145.768 743.578 146.318 742.953 146.688C742.333 147.057 741.763 147.242 741.242 147.242C740.513 147.242 739.857 146.927 739.273 146.297C738.695 145.667 738.406 144.711 738.406 143.43C738.406 142.419 738.599 141.518 738.984 140.727C739.37 139.93 739.885 139.302 740.531 138.844C741.177 138.38 741.977 138.148 742.93 138.148C743.206 138.148 743.622 138.177 744.18 138.234C744.263 138.245 744.388 138.258 744.555 138.273H746.016V144.438C746.016 145.49 746.125 146.344 746.344 147H744.828C744.714 146.521 744.622 145.867 744.555 145.039ZM744.555 143.312V139.57C744.039 139.435 743.56 139.367 743.117 139.367C742.221 139.367 741.474 139.714 740.875 140.406C740.281 141.099 739.984 142.042 739.984 143.234C739.984 144.099 740.146 144.753 740.469 145.195C740.797 145.633 741.169 145.852 741.586 145.852C742.039 145.852 742.539 145.622 743.086 145.164C743.633 144.706 744.122 144.089 744.555 143.312ZM755.773 146.75C754.799 147.078 753.872 147.242 752.992 147.242C752.117 147.242 751.339 147.042 750.656 146.641C749.979 146.234 749.451 145.688 749.07 145C748.69 144.307 748.5 143.521 748.5 142.641C748.5 141.318 748.93 140.219 749.789 139.344C750.654 138.469 751.695 138.031 752.914 138.031C753.815 138.031 754.768 138.201 755.773 138.539V139.938C754.758 139.474 753.849 139.242 753.047 139.242C752.516 139.242 752.016 139.375 751.547 139.641C751.078 139.901 750.716 140.31 750.461 140.867C750.206 141.424 750.078 141.997 750.078 142.586C750.078 143.372 750.323 144.122 750.812 144.836C751.307 145.549 752.081 145.906 753.133 145.906C753.451 145.906 753.763 145.885 754.07 145.844C754.378 145.797 754.945 145.633 755.773 145.352V146.75ZM758.43 147V134.391H759.883V142.312L764.078 138.273H766.016L761.828 142.312L766.125 147H764.125L759.883 142.312V147H758.43ZM774.906 146.422C773.745 146.974 772.646 147.25 771.609 147.25C770.823 147.25 770.12 147.055 769.5 146.664C768.88 146.273 768.383 145.716 768.008 144.992C767.638 144.263 767.453 143.484 767.453 142.656C767.453 141.859 767.63 141.094 767.984 140.359C768.339 139.625 768.833 139.055 769.469 138.648C770.104 138.237 770.812 138.031 771.594 138.031C772.63 138.031 773.461 138.401 774.086 139.141C774.716 139.88 775.031 141.021 775.031 142.562V142.875H769.016C769.016 143.479 769.141 144.031 769.391 144.531C769.646 145.031 769.979 145.406 770.391 145.656C770.802 145.906 771.271 146.031 771.797 146.031C772.734 146.031 773.771 145.719 774.906 145.094V146.422ZM769.102 141.789H773.453V141.578C773.453 140.865 773.279 140.297 772.93 139.875C772.581 139.453 772.115 139.242 771.531 139.242C770.943 139.242 770.432 139.458 770 139.891C769.573 140.318 769.273 140.951 769.102 141.789ZM784.555 146.648C783.872 146.935 783.378 147.104 783.07 147.156C782.763 147.214 782.466 147.242 782.18 147.242C781.57 147.242 781.013 147.125 780.508 146.891C780.003 146.656 779.62 146.31 779.359 145.852C779.104 145.393 778.977 144.685 778.977 143.727V140.211H776.797V139H778.977V135.484H780.43V139H784.312V140.211H780.43V143.703C780.43 144.406 780.513 144.904 780.68 145.195C780.846 145.482 781.068 145.693 781.344 145.828C781.625 145.964 781.956 146.031 782.336 146.031C783.039 146.031 783.779 145.81 784.555 145.367V146.648Z" fill="black"/>
</svg>
