<svg width="828" height="448" viewBox="0 0 828 448" fill="none" xmlns="http://www.w3.org/2000/svg">
<rect width="828" height="448" fill="white"/>
<rect x="57.5" y="209.5" width="641" height="166" fill="#D9D9D9" stroke="black"/>
<path d="M206.375 327.906C204.932 327.818 203.716 327.409 202.727 326.68C201.737 325.956 200.945 324.977 200.352 323.742C199.763 322.508 199.469 321.271 199.469 320.031C199.469 318.792 199.763 317.555 200.352 316.32C200.945 315.086 201.737 314.107 202.727 313.383C203.716 312.654 204.932 312.242 206.375 312.148V313.367C205.286 313.466 204.349 313.833 203.562 314.469C202.781 315.099 202.167 315.904 201.719 316.883C201.271 317.862 201.047 318.911 201.047 320.031C201.047 321.151 201.271 322.201 201.719 323.18C202.167 324.159 202.781 324.964 203.562 325.594C204.349 326.224 205.286 326.591 206.375 326.695V327.906ZM216 316.273V325H214.547V323.086C214.078 323.805 213.557 324.344 212.984 324.703C212.411 325.062 211.839 325.242 211.266 325.242C210.755 325.242 210.286 325.107 209.859 324.836C209.438 324.56 209.143 324.201 208.977 323.758C208.81 323.31 208.727 322.44 208.727 321.148V316.273H210.18V321.328C210.18 322.167 210.219 322.721 210.297 322.992C210.38 323.258 210.529 323.477 210.742 323.648C210.961 323.82 211.195 323.906 211.445 323.906C211.956 323.906 212.503 323.667 213.086 323.188C213.674 322.703 214.161 322.094 214.547 321.359V316.273H216ZM225.727 324.648C225.044 324.935 224.549 325.104 224.242 325.156C223.935 325.214 223.638 325.242 223.352 325.242C222.742 325.242 222.185 325.125 221.68 324.891C221.174 324.656 220.792 324.31 220.531 323.852C220.276 323.393 220.148 322.685 220.148 321.727V318.211H217.969V317H220.148V313.484H221.602V317H225.484V318.211H221.602V321.703C221.602 322.406 221.685 322.904 221.852 323.195C222.018 323.482 222.24 323.693 222.516 323.828C222.797 323.964 223.128 324.031 223.508 324.031C224.211 324.031 224.951 323.81 225.727 323.367V324.648ZM230.07 325V318.211H228.133V317H230.07V316.594C230.07 315.443 230.201 314.591 230.461 314.039C230.721 313.487 231.122 313.034 231.664 312.68C232.211 312.326 232.932 312.148 233.828 312.148C234.505 312.148 235.193 312.219 235.891 312.359V313.742C235.135 313.492 234.466 313.367 233.883 313.367C233.419 313.367 233.01 313.453 232.656 313.625C232.302 313.797 232.023 314.078 231.82 314.469C231.622 314.854 231.523 315.51 231.523 316.438V317H234.984V318.211H231.523V325H230.07ZM240.023 318.461L239.758 318.266C239.388 318.005 239.026 317.622 238.672 317.117C238.318 316.607 238.141 316.047 238.141 315.438C238.141 314.63 238.458 313.943 239.094 313.375C239.729 312.802 240.536 312.516 241.516 312.516C242.115 312.516 242.654 312.625 243.133 312.844C243.612 313.057 243.982 313.375 244.242 313.797C244.503 314.219 244.633 314.68 244.633 315.18C244.633 315.523 244.573 315.857 244.453 316.18C244.333 316.497 244.154 316.815 243.914 317.133C243.68 317.445 243.211 317.888 242.508 318.461L243.164 318.984C243.93 319.609 244.445 320.148 244.711 320.602C244.977 321.055 245.109 321.562 245.109 322.125C245.109 323 244.792 323.76 244.156 324.406C243.521 325.047 242.568 325.367 241.297 325.367C240.021 325.367 239.065 325.068 238.43 324.469C237.794 323.865 237.477 323.117 237.477 322.227C237.477 320.898 238.326 319.643 240.023 318.461ZM241.516 317.719C242.25 317.161 242.708 316.695 242.891 316.32C243.078 315.945 243.172 315.596 243.172 315.273C243.172 314.883 243 314.529 242.656 314.211C242.312 313.888 241.87 313.727 241.328 313.727C240.745 313.727 240.299 313.901 239.992 314.25C239.69 314.599 239.539 314.961 239.539 315.336C239.539 315.701 239.667 316.044 239.922 316.367C240.177 316.69 240.586 317.052 241.148 317.453L241.516 317.719ZM241.117 319.234C239.742 320.292 239.055 321.281 239.055 322.203C239.055 322.75 239.281 323.211 239.734 323.586C240.188 323.961 240.724 324.148 241.344 324.148C241.911 324.148 242.419 323.969 242.867 323.609C243.315 323.25 243.539 322.802 243.539 322.266C243.539 321.74 243.266 321.206 242.719 320.664C242.177 320.122 241.799 319.768 241.586 319.602L241.117 319.234ZM247.119 322.088C247.119 321.848 247.903 321.496 247.903 321.496V321.48C249.311 319.88 250.735 317.656 251.871 315.464L250.879 314.904C249.919 317.08 248.367 319.368 247.887 319.96C247.423 320.552 247.087 320.968 246.767 321.032C246.895 321.32 247.071 321.864 247.119 322.088ZM247.119 322.088C247.423 321.912 247.919 321.752 251.455 320.92C251.423 320.68 251.375 320.248 251.375 319.928L247.583 320.728L247.055 321.128L247.119 322.088ZM247.023 318.248C247.023 318.008 247.727 317.624 247.727 317.624V317.592C248.767 316.136 249.855 314.008 250.623 311.96L249.487 311.56C248.911 313.512 247.839 315.608 247.503 316.136C247.183 316.696 246.911 317.08 246.639 317.144C246.767 317.448 246.959 318.008 247.023 318.248ZM247.023 318.248C247.279 318.12 247.711 318.008 250.223 317.688C250.239 317.448 250.271 317 250.335 316.696L247.551 316.984L246.991 317.352L247.023 318.248ZM246.687 324.152L246.975 325.24C248.271 324.712 249.951 324.04 251.567 323.368L251.359 322.408C249.615 323.064 247.855 323.752 246.687 324.152ZM256.015 318.968V325.768H256.831V318.968H256.015ZM257.967 318.952V325.752H258.783V318.952H257.967ZM259.967 318.408V325.112C259.967 325.24 259.935 325.272 259.823 325.272C259.711 325.272 259.407 325.272 259.055 325.272C259.183 325.512 259.295 325.912 259.343 326.168C259.903 326.168 260.287 326.152 260.575 325.992C260.863 325.832 260.927 325.56 260.927 325.128V318.408H259.967ZM252.671 313.304V316.76C252.671 319.224 252.527 322.776 251.055 325.336C251.311 325.464 251.791 325.816 251.983 326.024C253.519 323.32 253.775 319.384 253.775 316.76V313.304H252.671ZM253.247 313.304V314.312H259.647V316.04H253.247V317.048H260.767V313.304H253.247ZM253.743 318.408V326.152H254.703V319.4H260.479V318.408H253.743ZM254.223 321.768V322.728H260.399V321.768H254.223ZM255.727 311.8C256.063 312.424 256.431 313.272 256.575 313.832L257.743 313.448C257.583 312.904 257.215 312.072 256.847 311.464L255.727 311.8ZM275.919 318.584V318.792C275.599 322.904 275.231 324.536 274.767 324.968C274.623 325.128 274.447 325.16 274.175 325.16C273.871 325.16 273.167 325.16 272.399 325.064C272.575 325.384 272.703 325.848 272.719 326.184C273.503 326.216 274.239 326.216 274.639 326.184C275.119 326.168 275.439 326.04 275.743 325.704C276.319 325.112 276.671 323.448 277.039 319.128C277.055 318.952 277.071 318.584 277.071 318.584H275.919ZM269.135 312.504V313.608H275.071V312.504H269.135ZM269.903 314.616C269.791 316.184 269.567 318.328 269.359 319.624H270.495C270.671 318.376 270.895 316.28 271.023 314.68L269.903 314.616ZM269.695 318.584V319.624H276.271V318.584H269.695ZM268.591 321.736V322.808H274.719V321.736H268.591ZM274.575 312.504V312.648C274.463 314.152 274.143 317.176 273.855 319.272L274.991 319.352C275.279 317.256 275.583 314.44 275.727 312.552L274.895 312.456L274.703 312.504H274.575ZM262.847 312.424V313.528H268.351V312.424H262.847ZM264.415 317.352V318.424H266.831V323.192H264.415V324.264H267.887V317.352H264.415ZM264.911 312.952C264.479 315.624 263.727 318.12 262.495 319.752C262.703 320.072 262.975 320.76 263.055 321.048C264.527 319.128 265.455 316.216 266.031 313.192L264.911 312.952ZM263.887 317.352V325.56H264.943V317.352H263.887ZM280.143 314.136V315.208H283.887V323.512H280.143V324.6H285.007V314.136H280.143ZM279.423 314.136V325.88H280.543V314.136H279.423ZM280.063 318.584V319.656H284.479V318.584H280.063ZM281.871 311.528C281.743 312.36 281.439 313.576 281.167 314.344L282.127 314.584C282.447 313.864 282.847 312.76 283.167 311.768L281.871 311.528ZM287.279 314.088V315.208H292.191V314.088H287.279ZM291.775 314.088V314.344C291.551 321.4 291.295 324.056 290.767 324.632C290.591 324.84 290.399 324.888 290.079 324.888C289.711 324.888 288.751 324.872 287.711 324.792C287.935 325.112 288.079 325.608 288.111 325.96C289.007 326.008 289.951 326.04 290.495 325.976C291.055 325.928 291.423 325.784 291.775 325.32C292.415 324.536 292.639 322.056 292.895 314.712C292.895 314.536 292.895 314.088 292.895 314.088H291.775ZM287.615 311.496C287.103 313.72 286.223 315.928 285.135 317.336C285.423 317.496 285.919 317.832 286.127 318.024C287.231 316.504 288.175 314.152 288.767 311.768L287.615 311.496ZM286.879 318.248C287.759 319.416 288.831 321 289.311 321.976L290.335 321.336C289.823 320.392 288.719 318.84 287.807 317.704L286.879 318.248ZM295.391 328.422V327.062C296.203 327.302 296.888 327.422 297.445 327.422C297.93 327.422 298.341 327.336 298.68 327.164C299.018 326.997 299.281 326.714 299.469 326.312C299.661 325.911 299.758 325.214 299.758 324.219V317.484H296.055V316.273H301.211V323.945C301.211 325.424 301.036 326.451 300.688 327.023C300.339 327.602 299.917 328.016 299.422 328.266C298.927 328.516 298.25 328.641 297.391 328.641C296.771 328.641 296.104 328.568 295.391 328.422ZM299.516 313.125C299.516 312.797 299.625 312.552 299.844 312.391C300.068 312.229 300.281 312.148 300.484 312.148C300.688 312.148 300.898 312.229 301.117 312.391C301.341 312.552 301.453 312.797 301.453 313.125C301.453 313.448 301.341 313.69 301.117 313.852C300.898 314.013 300.688 314.094 300.484 314.094C300.281 314.094 300.068 314.013 299.844 313.852C299.625 313.69 299.516 313.448 299.516 313.125ZM304.969 324.539V323C305.552 323.38 306.169 323.648 306.82 323.805C307.471 323.956 308.023 324.031 308.477 324.031C309.211 324.031 309.74 323.914 310.062 323.68C310.385 323.44 310.547 323.143 310.547 322.789C310.547 322.555 310.471 322.354 310.32 322.188C310.169 322.021 309.794 321.815 309.195 321.57L308.695 321.367L307.688 320.969C306.604 320.547 305.922 320.156 305.641 319.797C305.354 319.443 305.211 319.01 305.211 318.5C305.211 317.781 305.487 317.19 306.039 316.727C306.596 316.263 307.497 316.031 308.742 316.031C309.674 316.031 310.557 316.167 311.391 316.438V317.758C310.432 317.414 309.531 317.242 308.688 317.242C308.073 317.242 307.591 317.352 307.242 317.57C306.898 317.784 306.727 318.052 306.727 318.375C306.727 318.688 306.878 318.938 307.18 319.125C307.477 319.312 307.961 319.529 308.633 319.773L309.617 320.133C310.518 320.461 311.151 320.818 311.516 321.203C311.88 321.589 312.062 322.07 312.062 322.648C312.062 323.404 311.771 324.026 311.188 324.516C310.609 325 309.682 325.242 308.406 325.242C307.292 325.242 306.146 325.008 304.969 324.539ZM318.07 325.242C316.82 325.242 315.82 324.807 315.07 323.938C314.32 323.062 313.945 321.961 313.945 320.633C313.945 319.305 314.32 318.206 315.07 317.336C315.82 316.466 316.82 316.031 318.07 316.031C319.315 316.031 320.312 316.466 321.062 317.336C321.812 318.206 322.188 319.305 322.188 320.633C322.188 321.961 321.812 323.062 321.062 323.938C320.312 324.807 319.315 325.242 318.07 325.242ZM318.07 324.031C318.846 324.031 319.464 323.729 319.922 323.125C320.38 322.521 320.609 321.69 320.609 320.633C320.609 319.581 320.38 318.753 319.922 318.148C319.464 317.544 318.846 317.242 318.07 317.242C317.289 317.242 316.669 317.544 316.211 318.148C315.753 318.753 315.523 319.581 315.523 320.633C315.523 321.69 315.753 322.521 316.211 323.125C316.669 323.729 317.289 324.031 318.07 324.031ZM324.086 325V316.273H325.539V318.18C325.956 317.508 326.458 316.982 327.047 316.602C327.635 316.221 328.224 316.031 328.812 316.031C329.328 316.031 329.797 316.169 330.219 316.445C330.641 316.716 330.935 317.073 331.102 317.516C331.273 317.958 331.359 318.828 331.359 320.125V325H329.906V319.945C329.906 319.107 329.865 318.555 329.781 318.289C329.703 318.018 329.555 317.797 329.336 317.625C329.122 317.453 328.888 317.367 328.633 317.367C328.122 317.367 327.573 317.609 326.984 318.094C326.401 318.578 325.919 319.185 325.539 319.914V325H324.086ZM336.212 316.2V317.304H343.892V316.2H336.212ZM333.604 320.216V321.352H347.396V320.216H333.604ZM339.86 319.016V324.776C339.86 325 339.78 325.064 339.492 325.08C339.204 325.096 338.164 325.096 337.076 325.064C337.284 325.4 337.524 325.912 337.604 326.264C338.964 326.264 339.812 326.248 340.372 326.056C340.948 325.864 341.124 325.512 341.124 324.792V319.016H339.86ZM343.524 316.2V316.44C342.804 317.336 341.38 318.536 340.132 319.208C340.324 319.368 340.644 319.672 340.788 319.896C342.26 319.144 343.844 317.896 344.9 316.728L344.116 316.136L343.844 316.2H343.524ZM339.828 311.544V314.12H341.092V311.544H339.828ZM333.764 313.304V317.064H334.948V314.44H345.956V317.064H347.188V313.304H333.764ZM353.876 318.088V319.192H363.572V318.088H353.876ZM352.644 316.216C351.812 317.96 350.484 319.688 349.14 320.84C349.396 321.064 349.812 321.576 349.972 321.816C351.38 320.536 352.836 318.552 353.78 316.584L352.644 316.216ZM360.212 316.344V324.744C360.212 325.016 360.132 325.096 359.812 325.096C359.508 325.112 358.452 325.128 357.3 325.096C357.476 325.416 357.668 325.928 357.716 326.248C359.172 326.248 360.116 326.232 360.66 326.056C361.204 325.864 361.38 325.512 361.38 324.76V316.344H360.212ZM351.156 313.096V314.12H356.068V313.096H351.156ZM357.3 313.096V314.12H363.428V313.096H357.3ZM351.396 311.512C350.9 313.128 350.052 314.712 349.044 315.752C349.332 315.912 349.844 316.248 350.068 316.424C351.028 315.288 351.972 313.544 352.548 311.8L351.396 311.512ZM357.684 311.512C357.204 313.128 356.34 314.648 355.268 315.624C355.556 315.8 356.052 316.136 356.276 316.312C357.316 315.224 358.276 313.56 358.836 311.784L357.684 311.512ZM352.276 313.912C352.66 314.664 353.14 315.704 353.38 316.296L354.452 315.912C354.196 315.336 353.684 314.328 353.3 313.608L352.276 313.912ZM358.804 313.912C359.268 314.584 359.86 315.512 360.132 316.072L361.188 315.64C360.884 315.08 360.276 314.184 359.796 313.528L358.804 313.912ZM354.804 320.584C355.508 321.608 356.404 322.984 356.82 323.784L357.828 323.176C357.38 322.392 356.468 321.064 355.764 320.072L354.804 320.584ZM351.524 318.856V326.28H352.676V317.736V317.72L351.524 318.856ZM371.796 311.576V326.264H373.06V311.576H371.796ZM366.148 319.112V324.312H367.38V320.232H377.604V324.28H378.884V319.112H366.148ZM368.004 314.504H376.884V316.712H368.004V314.504ZM366.788 313.416V317.768H378.164V313.416H366.788ZM366.9 322.552V323.64H378.116V322.552H366.9ZM389.3 311.608C389.38 319.192 390.788 326.296 393.972 326.296C395.188 326.296 395.652 325.512 395.86 322.744C395.524 322.632 395.076 322.344 394.804 322.072C394.708 324.2 394.532 325.048 394.068 325.048C392.116 325.048 390.548 318.92 390.58 311.608H389.3ZM391.54 312.36C392.532 312.824 393.7 313.576 394.276 314.12L395.012 313.272C394.42 312.744 393.236 312.04 392.244 311.624L391.54 312.36ZM393.636 316.456C392.372 320.488 390.068 323.56 386.74 325.352C386.996 325.576 387.476 326.056 387.652 326.296C391.012 324.28 393.428 321.064 394.82 316.744L393.636 316.456ZM381.556 314.12V315.304H395.46V314.12H381.556ZM381.476 323.96L381.7 325.192C383.572 324.792 386.196 324.216 388.644 323.672L388.548 322.52C385.94 323.08 383.22 323.624 381.476 323.96ZM383.588 317.768H386.852V320.568H383.588V317.768ZM382.484 316.728V321.592H388.036V316.728H382.484ZM399.039 318.234C399.487 317.505 400.021 316.956 400.641 316.586C401.26 316.216 401.831 316.031 402.352 316.031C403.081 316.031 403.737 316.346 404.32 316.977C404.904 317.607 405.195 318.562 405.195 319.844C405.195 320.854 405 321.758 404.609 322.555C404.224 323.346 403.708 323.974 403.062 324.438C402.417 324.896 401.617 325.125 400.664 325.125C400.393 325.125 399.977 325.096 399.414 325.039C399.331 325.029 399.206 325.016 399.039 325H397.586V312.391H399.039V318.234ZM399.039 319.961V323.703C399.565 323.839 400.049 323.906 400.492 323.906C401.372 323.906 402.112 323.562 402.711 322.875C403.315 322.182 403.617 321.237 403.617 320.039C403.617 319.169 403.453 318.516 403.125 318.078C402.797 317.641 402.424 317.422 402.008 317.422C401.555 317.422 401.055 317.651 400.508 318.109C399.966 318.568 399.477 319.185 399.039 319.961ZM408.047 325V316.273H409.5V318.18C409.953 317.461 410.471 316.924 411.055 316.57C411.643 316.211 412.297 316.031 413.016 316.031C413.542 316.031 414.068 316.112 414.594 316.273V319.422H413.195V317.43C412.951 317.388 412.758 317.367 412.617 317.367C412.076 317.367 411.544 317.581 411.023 318.008C410.503 318.435 409.995 319.076 409.5 319.93V325H408.047ZM418.183 312.328V313.496H430.983V312.328H418.183ZM417.543 312.328V317.512C417.543 319.928 417.447 323.272 416.199 325.624C416.487 325.752 416.983 326.104 417.191 326.296C418.487 323.8 418.679 320.072 418.679 317.512V312.328H417.543ZM418.775 324.456V325.608H430.935V324.456H418.775ZM419.815 317.8V318.952H430.167V317.8H419.815ZM424.183 314.36V325.16H425.415V314.36H424.183ZM426.647 320.68C427.511 321.432 428.455 322.504 428.903 323.208L429.815 322.52C429.351 321.816 428.407 320.84 427.511 320.104L426.647 320.68ZM432.807 322.088C432.807 321.864 433.575 321.512 433.575 321.512V321.496C434.951 319.928 436.343 317.768 437.463 315.624L436.503 315.08C435.543 317.192 434.039 319.448 433.559 320.008C433.111 320.6 432.759 321 432.439 321.048C432.567 321.336 432.743 321.864 432.807 322.088ZM432.807 322.088C433.079 321.912 433.559 321.752 436.791 320.936C436.759 320.696 436.727 320.28 436.743 319.96L433.239 320.744L432.727 321.144L432.807 322.088ZM432.695 318.248C432.695 318.008 433.399 317.64 433.399 317.64V317.608C434.503 316.152 435.575 314.088 436.391 312.104L435.335 311.624C434.695 313.544 433.559 315.624 433.223 316.168C432.871 316.712 432.615 317.096 432.327 317.16C432.471 317.464 432.631 318.008 432.695 318.248ZM432.695 318.248C432.967 318.12 433.399 318.024 435.911 317.736C435.911 317.496 435.943 317.064 436.007 316.76L433.239 317.016L432.679 317.368L432.695 318.248ZM432.407 324.152L432.695 325.288C434.023 324.792 435.751 324.104 437.399 323.464L437.191 322.472C435.415 323.112 433.623 323.768 432.407 324.152ZM442.903 316.28C442.807 317.096 442.551 318.296 442.343 319.048L443.335 319.272C443.575 318.552 443.847 317.48 444.103 316.504L442.903 316.28ZM437.607 313.112V315.72H438.695V314.136H445.767V315.496H446.903V313.112H437.607ZM439.255 315.224C438.839 316.92 437.927 319.016 436.743 320.344C436.935 320.536 437.239 320.92 437.367 321.144C438.711 319.688 439.735 317.432 440.311 315.48L439.255 315.224ZM440.455 315.928V316.92H446.679V315.928H440.455ZM441.191 321.48V322.44H445.863V321.48H441.191ZM440.679 318.552V326.264H441.719V319.528H445.367V326.184H446.455V318.552H440.679ZM438.391 318.44V326.28H439.431V317.512L439.367 317.464L438.391 318.44ZM441.127 311.864C441.463 312.44 441.847 313.224 442.023 313.704L443.079 313.304C442.903 312.824 442.503 312.072 442.135 311.512L441.127 311.864ZM441.223 324.552V325.528H445.863V324.552H441.223ZM449.799 314.136V315.208H453.543V323.512H449.799V324.6H454.663V314.136H449.799ZM449.079 314.136V325.88H450.199V314.136H449.079ZM449.719 318.584V319.656H454.135V318.584H449.719ZM451.527 311.528C451.399 312.36 451.095 313.576 450.823 314.344L451.783 314.584C452.103 313.864 452.503 312.76 452.823 311.768L451.527 311.528ZM456.935 314.088V315.208H461.847V314.088H456.935ZM461.431 314.088V314.344C461.207 321.4 460.951 324.056 460.423 324.632C460.247 324.84 460.055 324.888 459.735 324.888C459.367 324.888 458.407 324.872 457.367 324.792C457.591 325.112 457.735 325.608 457.767 325.96C458.663 326.008 459.607 326.04 460.151 325.976C460.711 325.928 461.079 325.784 461.431 325.32C462.071 324.536 462.295 322.056 462.551 314.712C462.551 314.536 462.551 314.088 462.551 314.088H461.431ZM457.271 311.496C456.759 313.72 455.879 315.928 454.791 317.336C455.079 317.496 455.575 317.832 455.783 318.024C456.887 316.504 457.831 314.152 458.423 311.768L457.271 311.496ZM456.535 318.248C457.415 319.416 458.487 321 458.967 321.976L459.991 321.336C459.479 320.392 458.375 318.84 457.463 317.704L456.535 318.248ZM466.258 318.234C466.706 317.505 467.24 316.956 467.859 316.586C468.479 316.216 469.049 316.031 469.57 316.031C470.299 316.031 470.956 316.346 471.539 316.977C472.122 317.607 472.414 318.562 472.414 319.844C472.414 320.854 472.219 321.758 471.828 322.555C471.443 323.346 470.927 323.974 470.281 324.438C469.635 324.896 468.836 325.125 467.883 325.125C467.612 325.125 467.195 325.096 466.633 325.039C466.549 325.029 466.424 325.016 466.258 325V328.391H464.805V316.273H466.258V318.234ZM466.258 319.961V323.703C466.784 323.839 467.268 323.906 467.711 323.906C468.591 323.906 469.331 323.562 469.93 322.875C470.534 322.182 470.836 321.237 470.836 320.039C470.836 319.169 470.672 318.516 470.344 318.078C470.016 317.641 469.643 317.422 469.227 317.422C468.773 317.422 468.273 317.651 467.727 318.109C467.185 318.568 466.695 319.185 466.258 319.961ZM480.258 323.039C479.815 323.768 479.281 324.318 478.656 324.688C478.036 325.057 477.466 325.242 476.945 325.242C476.216 325.242 475.56 324.927 474.977 324.297C474.398 323.667 474.109 322.711 474.109 321.43C474.109 320.419 474.302 319.518 474.688 318.727C475.073 317.93 475.589 317.302 476.234 316.844C476.88 316.38 477.68 316.148 478.633 316.148C478.909 316.148 479.326 316.177 479.883 316.234C479.966 316.245 480.091 316.258 480.258 316.273H481.719V322.438C481.719 323.49 481.828 324.344 482.047 325H480.531C480.417 324.521 480.326 323.867 480.258 323.039ZM480.258 321.312V317.57C479.742 317.435 479.263 317.367 478.82 317.367C477.924 317.367 477.177 317.714 476.578 318.406C475.984 319.099 475.688 320.042 475.688 321.234C475.688 322.099 475.849 322.753 476.172 323.195C476.5 323.633 476.872 323.852 477.289 323.852C477.742 323.852 478.242 323.622 478.789 323.164C479.336 322.706 479.826 322.089 480.258 321.312ZM491.477 324.75C490.503 325.078 489.576 325.242 488.695 325.242C487.82 325.242 487.042 325.042 486.359 324.641C485.682 324.234 485.154 323.688 484.773 323C484.393 322.307 484.203 321.521 484.203 320.641C484.203 319.318 484.633 318.219 485.492 317.344C486.357 316.469 487.398 316.031 488.617 316.031C489.518 316.031 490.471 316.201 491.477 316.539V317.938C490.461 317.474 489.552 317.242 488.75 317.242C488.219 317.242 487.719 317.375 487.25 317.641C486.781 317.901 486.419 318.31 486.164 318.867C485.909 319.424 485.781 319.997 485.781 320.586C485.781 321.372 486.026 322.122 486.516 322.836C487.01 323.549 487.784 323.906 488.836 323.906C489.154 323.906 489.466 323.885 489.773 323.844C490.081 323.797 490.648 323.633 491.477 323.352V324.75ZM494.133 325V312.391H495.586V320.312L499.781 316.273H501.719L497.531 320.312L501.828 325H499.828L495.586 320.312V325H494.133ZM510.609 324.422C509.448 324.974 508.349 325.25 507.312 325.25C506.526 325.25 505.823 325.055 505.203 324.664C504.583 324.273 504.086 323.716 503.711 322.992C503.341 322.263 503.156 321.484 503.156 320.656C503.156 319.859 503.333 319.094 503.688 318.359C504.042 317.625 504.536 317.055 505.172 316.648C505.807 316.237 506.516 316.031 507.297 316.031C508.333 316.031 509.164 316.401 509.789 317.141C510.419 317.88 510.734 319.021 510.734 320.562V320.875H504.719C504.719 321.479 504.844 322.031 505.094 322.531C505.349 323.031 505.682 323.406 506.094 323.656C506.505 323.906 506.974 324.031 507.5 324.031C508.438 324.031 509.474 323.719 510.609 323.094V324.422ZM504.805 319.789H509.156V319.578C509.156 318.865 508.982 318.297 508.633 317.875C508.284 317.453 507.818 317.242 507.234 317.242C506.646 317.242 506.135 317.458 505.703 317.891C505.276 318.318 504.977 318.951 504.805 319.789ZM520.258 324.648C519.576 324.935 519.081 325.104 518.773 325.156C518.466 325.214 518.169 325.242 517.883 325.242C517.273 325.242 516.716 325.125 516.211 324.891C515.706 324.656 515.323 324.31 515.062 323.852C514.807 323.393 514.68 322.685 514.68 321.727V318.211H512.5V317H514.68V313.484H516.133V317H520.016V318.211H516.133V321.703C516.133 322.406 516.216 322.904 516.383 323.195C516.549 323.482 516.771 323.693 517.047 323.828C517.328 323.964 517.659 324.031 518.039 324.031C518.742 324.031 519.482 323.81 520.258 323.367V324.648ZM522.586 312.148C524.029 312.242 525.245 312.654 526.234 313.383C527.224 314.107 528.013 315.086 528.602 316.32C529.195 317.555 529.492 318.792 529.492 320.031C529.492 321.271 529.195 322.508 528.602 323.742C528.013 324.977 527.224 325.956 526.234 326.68C525.245 327.409 524.029 327.818 522.586 327.906V326.695C523.674 326.591 524.609 326.224 525.391 325.594C526.177 324.964 526.794 324.159 527.242 323.18C527.695 322.201 527.922 321.151 527.922 320.031C527.922 318.911 527.695 317.862 527.242 316.883C526.794 315.904 526.177 315.099 525.391 314.469C524.609 313.833 523.674 313.466 522.586 313.367V312.148Z" fill="black"/>
<path d="M343.987 258.469C344.883 257.01 345.951 255.911 347.191 255.172C348.43 254.432 349.571 254.062 350.612 254.062C352.071 254.062 353.383 254.693 354.55 255.953C355.717 257.214 356.3 259.125 356.3 261.688C356.3 263.708 355.909 265.516 355.128 267.109C354.357 268.693 353.326 269.948 352.034 270.875C350.743 271.792 349.144 272.25 347.237 272.25C346.696 272.25 345.862 272.193 344.737 272.078C344.571 272.057 344.321 272.031 343.987 272H341.081V246.781H343.987V258.469ZM343.987 261.922V269.406C345.04 269.677 346.008 269.812 346.894 269.812C348.654 269.812 350.133 269.125 351.331 267.75C352.54 266.365 353.144 264.474 353.144 262.078C353.144 260.339 352.816 259.031 352.159 258.156C351.503 257.281 350.758 256.844 349.925 256.844C349.019 256.844 348.019 257.302 346.925 258.219C345.842 259.135 344.862 260.37 343.987 261.922ZM367.706 272.484C365.206 272.484 363.206 271.615 361.706 269.875C360.206 268.125 359.456 265.922 359.456 263.266C359.456 260.609 360.206 258.411 361.706 256.672C363.206 254.932 365.206 254.062 367.706 254.062C370.196 254.062 372.191 254.932 373.691 256.672C375.191 258.411 375.941 260.609 375.941 263.266C375.941 265.922 375.191 268.125 373.691 269.875C372.191 271.615 370.196 272.484 367.706 272.484ZM367.706 270.062C369.258 270.062 370.493 269.458 371.409 268.25C372.326 267.042 372.784 265.38 372.784 263.266C372.784 261.161 372.326 259.505 371.409 258.297C370.493 257.089 369.258 256.484 367.706 256.484C366.144 256.484 364.904 257.089 363.987 258.297C363.071 259.505 362.612 261.161 362.612 263.266C362.612 265.38 363.071 267.042 363.987 268.25C364.904 269.458 366.144 270.062 367.706 270.062ZM391.394 268.078C390.508 269.536 389.441 270.635 388.191 271.375C386.951 272.115 385.81 272.484 384.769 272.484C383.31 272.484 381.998 271.854 380.831 270.594C379.675 269.333 379.097 267.422 379.097 264.859C379.097 262.839 379.482 261.036 380.253 259.453C381.024 257.859 382.055 256.604 383.347 255.688C384.639 254.76 386.237 254.297 388.144 254.297C388.696 254.297 389.529 254.354 390.644 254.469C390.81 254.49 391.06 254.516 391.394 254.547V246.781H394.316V272H391.394V268.078ZM391.394 264.625V257.141C390.362 256.87 389.404 256.734 388.519 256.734C386.727 256.734 385.232 257.427 384.034 258.812C382.847 260.198 382.253 262.083 382.253 264.469C382.253 266.198 382.576 267.505 383.222 268.391C383.878 269.266 384.623 269.703 385.456 269.703C386.362 269.703 387.362 269.245 388.456 268.328C389.55 267.411 390.529 266.177 391.394 264.625ZM405.378 271.297L397.316 254.547H400.519L406.941 267.641L412.316 254.547H415.237L408.472 270.766C407.045 274.193 405.685 276.469 404.394 277.594C403.112 278.719 401.451 279.281 399.409 279.281C398.524 279.281 397.732 279.203 397.034 279.047V276.484C397.836 276.734 398.602 276.859 399.331 276.859C400.269 276.859 401.102 276.677 401.831 276.312C402.56 275.948 403.227 275.302 403.831 274.375C404.435 273.448 404.862 272.646 405.112 271.969L405.378 271.297Z" fill="black"/>
<path d="M604.312 140.539V139C604.896 139.38 605.513 139.648 606.164 139.805C606.815 139.956 607.367 140.031 607.82 140.031C608.555 140.031 609.083 139.914 609.406 139.68C609.729 139.44 609.891 139.143 609.891 138.789C609.891 138.555 609.815 138.354 609.664 138.188C609.513 138.021 609.138 137.815 608.539 137.57L608.039 137.367L607.031 136.969C605.948 136.547 605.266 136.156 604.984 135.797C604.698 135.443 604.555 135.01 604.555 134.5C604.555 133.781 604.831 133.19 605.383 132.727C605.94 132.263 606.841 132.031 608.086 132.031C609.018 132.031 609.901 132.167 610.734 132.438V133.758C609.776 133.414 608.875 133.242 608.031 133.242C607.417 133.242 606.935 133.352 606.586 133.57C606.242 133.784 606.07 134.052 606.07 134.375C606.07 134.688 606.221 134.938 606.523 135.125C606.82 135.312 607.305 135.529 607.977 135.773L608.961 136.133C609.862 136.461 610.495 136.818 610.859 137.203C611.224 137.589 611.406 138.07 611.406 138.648C611.406 139.404 611.115 140.026 610.531 140.516C609.953 141 609.026 141.242 607.75 141.242C606.635 141.242 605.49 141.008 604.312 140.539ZM621.078 140.422C619.917 140.974 618.818 141.25 617.781 141.25C616.995 141.25 616.292 141.055 615.672 140.664C615.052 140.273 614.555 139.716 614.18 138.992C613.81 138.263 613.625 137.484 613.625 136.656C613.625 135.859 613.802 135.094 614.156 134.359C614.51 133.625 615.005 133.055 615.641 132.648C616.276 132.237 616.984 132.031 617.766 132.031C618.802 132.031 619.633 132.401 620.258 133.141C620.888 133.88 621.203 135.021 621.203 136.562V136.875H615.188C615.188 137.479 615.312 138.031 615.562 138.531C615.818 139.031 616.151 139.406 616.562 139.656C616.974 139.906 617.443 140.031 617.969 140.031C618.906 140.031 619.943 139.719 621.078 139.094V140.422ZM615.273 135.789H619.625V135.578C619.625 134.865 619.451 134.297 619.102 133.875C618.753 133.453 618.286 133.242 617.703 133.242C617.115 133.242 616.604 133.458 616.172 133.891C615.745 134.318 615.445 134.951 615.273 135.789ZM629.258 139.039C628.815 139.768 628.281 140.318 627.656 140.688C627.036 141.057 626.466 141.242 625.945 141.242C625.216 141.242 624.56 140.927 623.977 140.297C623.398 139.667 623.109 138.711 623.109 137.43C623.109 136.419 623.302 135.518 623.688 134.727C624.073 133.93 624.589 133.302 625.234 132.844C625.88 132.38 626.68 132.148 627.633 132.148C627.909 132.148 628.326 132.177 628.883 132.234C628.966 132.245 629.091 132.258 629.258 132.273H630.719V144.391H629.258V139.039ZM629.258 137.312V133.57C628.742 133.435 628.263 133.367 627.82 133.367C626.924 133.367 626.177 133.714 625.578 134.406C624.984 135.099 624.688 136.042 624.688 137.234C624.688 138.099 624.849 138.753 625.172 139.195C625.5 139.633 625.872 139.852 626.289 139.852C626.742 139.852 627.242 139.622 627.789 139.164C628.336 138.706 628.826 138.089 629.258 137.312Z" fill="black"/>
<path d="M452.805 141.242C451.555 141.242 450.555 140.807 449.805 139.938C449.055 139.062 448.68 137.961 448.68 136.633C448.68 135.305 449.055 134.206 449.805 133.336C450.555 132.466 451.555 132.031 452.805 132.031C454.049 132.031 455.047 132.466 455.797 133.336C456.547 134.206 456.922 135.305 456.922 136.633C456.922 137.961 456.547 139.062 455.797 139.938C455.047 140.807 454.049 141.242 452.805 141.242ZM452.805 140.031C453.581 140.031 454.198 139.729 454.656 139.125C455.115 138.521 455.344 137.69 455.344 136.633C455.344 135.581 455.115 134.753 454.656 134.148C454.198 133.544 453.581 133.242 452.805 133.242C452.023 133.242 451.404 133.544 450.945 134.148C450.487 134.753 450.258 135.581 450.258 136.633C450.258 137.69 450.487 138.521 450.945 139.125C451.404 139.729 452.023 140.031 452.805 140.031ZM460.164 134.234C460.612 133.505 461.146 132.956 461.766 132.586C462.385 132.216 462.956 132.031 463.477 132.031C464.206 132.031 464.862 132.346 465.445 132.977C466.029 133.607 466.32 134.562 466.32 135.844C466.32 136.854 466.125 137.758 465.734 138.555C465.349 139.346 464.833 139.974 464.188 140.438C463.542 140.896 462.742 141.125 461.789 141.125C461.518 141.125 461.102 141.096 460.539 141.039C460.456 141.029 460.331 141.016 460.164 141V144.391H458.711V132.273H460.164V134.234ZM460.164 135.961V139.703C460.69 139.839 461.174 139.906 461.617 139.906C462.497 139.906 463.237 139.562 463.836 138.875C464.44 138.182 464.742 137.237 464.742 136.039C464.742 135.169 464.578 134.516 464.25 134.078C463.922 133.641 463.549 133.422 463.133 133.422C462.68 133.422 462.18 133.651 461.633 134.109C461.091 134.568 460.602 135.185 460.164 135.961Z" fill="black"/>
<path d="M306.555 134.234C307.003 133.505 307.536 132.956 308.156 132.586C308.776 132.216 309.346 132.031 309.867 132.031C310.596 132.031 311.253 132.346 311.836 132.977C312.419 133.607 312.711 134.562 312.711 135.844C312.711 136.854 312.516 137.758 312.125 138.555C311.74 139.346 311.224 139.974 310.578 140.438C309.932 140.896 309.133 141.125 308.18 141.125C307.909 141.125 307.492 141.096 306.93 141.039C306.846 141.029 306.721 141.016 306.555 141V144.391H305.102V132.273H306.555V134.234ZM306.555 135.961V139.703C307.081 139.839 307.565 139.906 308.008 139.906C308.888 139.906 309.628 139.562 310.227 138.875C310.831 138.182 311.133 137.237 311.133 136.039C311.133 135.169 310.969 134.516 310.641 134.078C310.312 133.641 309.94 133.422 309.523 133.422C309.07 133.422 308.57 133.651 308.023 134.109C307.482 134.568 306.992 135.185 306.555 135.961ZM315.562 141V132.273H317.016V134.18C317.469 133.461 317.987 132.924 318.57 132.57C319.159 132.211 319.812 132.031 320.531 132.031C321.057 132.031 321.583 132.112 322.109 132.273V135.422H320.711V133.43C320.466 133.388 320.273 133.367 320.133 133.367C319.591 133.367 319.06 133.581 318.539 134.008C318.018 134.435 317.51 135.076 317.016 135.93V141H315.562ZM328.023 141.242C326.773 141.242 325.773 140.807 325.023 139.938C324.273 139.062 323.898 137.961 323.898 136.633C323.898 135.305 324.273 134.206 325.023 133.336C325.773 132.466 326.773 132.031 328.023 132.031C329.268 132.031 330.266 132.466 331.016 133.336C331.766 134.206 332.141 135.305 332.141 136.633C332.141 137.961 331.766 139.062 331.016 139.938C330.266 140.807 329.268 141.242 328.023 141.242ZM328.023 140.031C328.799 140.031 329.417 139.729 329.875 139.125C330.333 138.521 330.562 137.69 330.562 136.633C330.562 135.581 330.333 134.753 329.875 134.148C329.417 133.544 328.799 133.242 328.023 133.242C327.242 133.242 326.622 133.544 326.164 134.148C325.706 134.753 325.477 135.581 325.477 136.633C325.477 137.69 325.706 138.521 326.164 139.125C326.622 139.729 327.242 140.031 328.023 140.031ZM341.336 140.648C340.654 140.935 340.159 141.104 339.852 141.156C339.544 141.214 339.247 141.242 338.961 141.242C338.352 141.242 337.794 141.125 337.289 140.891C336.784 140.656 336.401 140.31 336.141 139.852C335.885 139.393 335.758 138.685 335.758 137.727V134.211H333.578V133H335.758V129.484H337.211V133H341.094V134.211H337.211V137.703C337.211 138.406 337.294 138.904 337.461 139.195C337.628 139.482 337.849 139.693 338.125 139.828C338.406 139.964 338.737 140.031 339.117 140.031C339.82 140.031 340.56 139.81 341.336 139.367V140.648ZM347.242 141.242C345.992 141.242 344.992 140.807 344.242 139.938C343.492 139.062 343.117 137.961 343.117 136.633C343.117 135.305 343.492 134.206 344.242 133.336C344.992 132.466 345.992 132.031 347.242 132.031C348.487 132.031 349.484 132.466 350.234 133.336C350.984 134.206 351.359 135.305 351.359 136.633C351.359 137.961 350.984 139.062 350.234 139.938C349.484 140.807 348.487 141.242 347.242 141.242ZM347.242 140.031C348.018 140.031 348.635 139.729 349.094 139.125C349.552 138.521 349.781 137.69 349.781 136.633C349.781 135.581 349.552 134.753 349.094 134.148C348.635 133.544 348.018 133.242 347.242 133.242C346.461 133.242 345.841 133.544 345.383 134.148C344.924 134.753 344.695 135.581 344.695 136.633C344.695 137.69 344.924 138.521 345.383 139.125C345.841 139.729 346.461 140.031 347.242 140.031ZM359.883 128.875H361.398L357.664 141H356.062L352.305 128.875H353.969L356.602 137.344L356.945 138.578L357.25 137.352L359.883 128.875ZM370.125 140.422C368.964 140.974 367.865 141.25 366.828 141.25C366.042 141.25 365.339 141.055 364.719 140.664C364.099 140.273 363.602 139.716 363.227 138.992C362.857 138.263 362.672 137.484 362.672 136.656C362.672 135.859 362.849 135.094 363.203 134.359C363.557 133.625 364.052 133.055 364.688 132.648C365.323 132.237 366.031 132.031 366.812 132.031C367.849 132.031 368.68 132.401 369.305 133.141C369.935 133.88 370.25 135.021 370.25 136.562V136.875H364.234C364.234 137.479 364.359 138.031 364.609 138.531C364.865 139.031 365.198 139.406 365.609 139.656C366.021 139.906 366.49 140.031 367.016 140.031C367.953 140.031 368.99 139.719 370.125 139.094V140.422ZM364.32 135.789H368.672V135.578C368.672 134.865 368.497 134.297 368.148 133.875C367.799 133.453 367.333 133.242 366.75 133.242C366.161 133.242 365.651 133.458 365.219 133.891C364.792 134.318 364.492 134.951 364.32 135.789ZM373.219 141V132.273H374.672V134.18C375.125 133.461 375.643 132.924 376.227 132.57C376.815 132.211 377.469 132.031 378.188 132.031C378.714 132.031 379.24 132.112 379.766 132.273V135.422H378.367V133.43C378.122 133.388 377.93 133.367 377.789 133.367C377.247 133.367 376.716 133.581 376.195 134.008C375.674 134.435 375.167 135.076 374.672 135.93V141H373.219Z" fill="black"/>
<path d="M240.211 141V128.391H241.664V134.18C242.081 133.508 242.583 132.982 243.172 132.602C243.76 132.221 244.349 132.031 244.938 132.031C245.432 132.031 245.883 132.159 246.289 132.414C246.701 132.664 246.987 132.969 247.148 133.328C247.279 133.604 247.367 133.898 247.414 134.211C247.461 134.518 247.484 135.156 247.484 136.125V141H246.031V135.945C246.031 135.107 245.99 134.555 245.906 134.289C245.828 134.018 245.68 133.797 245.461 133.625C245.247 133.453 245.013 133.367 244.758 133.367C244.247 133.367 243.698 133.609 243.109 134.094C242.526 134.578 242.044 135.185 241.664 135.914V141H240.211ZM256.867 139.664V141H250.32V128.875H251.898V139.664H256.867ZM266.688 140.422C265.526 140.974 264.427 141.25 263.391 141.25C262.604 141.25 261.901 141.055 261.281 140.664C260.661 140.273 260.164 139.716 259.789 138.992C259.419 138.263 259.234 137.484 259.234 136.656C259.234 135.859 259.411 135.094 259.766 134.359C260.12 133.625 260.615 133.055 261.25 132.648C261.885 132.237 262.594 132.031 263.375 132.031C264.411 132.031 265.242 132.401 265.867 133.141C266.497 133.88 266.812 135.021 266.812 136.562V136.875H260.797C260.797 137.479 260.922 138.031 261.172 138.531C261.427 139.031 261.76 139.406 262.172 139.656C262.583 139.906 263.052 140.031 263.578 140.031C264.516 140.031 265.552 139.719 266.688 139.094V140.422ZM260.883 135.789H265.234V135.578C265.234 134.865 265.06 134.297 264.711 133.875C264.362 133.453 263.896 133.242 263.312 133.242C262.724 133.242 262.214 133.458 261.781 133.891C261.354 134.318 261.055 134.951 260.883 135.789ZM269.039 141V132.273H270.492V134.18C270.909 133.508 271.411 132.982 272 132.602C272.589 132.221 273.177 132.031 273.766 132.031C274.281 132.031 274.75 132.169 275.172 132.445C275.594 132.716 275.888 133.073 276.055 133.516C276.227 133.958 276.312 134.828 276.312 136.125V141H274.859V135.945C274.859 135.107 274.818 134.555 274.734 134.289C274.656 134.018 274.508 133.797 274.289 133.625C274.076 133.453 273.841 133.367 273.586 133.367C273.076 133.367 272.526 133.609 271.938 134.094C271.354 134.578 270.872 135.185 270.492 135.914V141H269.039Z" fill="black"/>
<path d="M97.5547 134.234C98.0026 133.505 98.5365 132.956 99.1562 132.586C99.776 132.216 100.346 132.031 100.867 132.031C101.596 132.031 102.253 132.346 102.836 132.977C103.419 133.607 103.711 134.562 103.711 135.844C103.711 136.854 103.516 137.758 103.125 138.555C102.74 139.346 102.224 139.974 101.578 140.438C100.932 140.896 100.133 141.125 99.1797 141.125C98.9089 141.125 98.4922 141.096 97.9297 141.039C97.8464 141.029 97.7214 141.016 97.5547 141V144.391H96.1016V132.273H97.5547V134.234ZM97.5547 135.961V139.703C98.0807 139.839 98.5651 139.906 99.0078 139.906C99.888 139.906 100.628 139.562 101.227 138.875C101.831 138.182 102.133 137.237 102.133 136.039C102.133 135.169 101.969 134.516 101.641 134.078C101.312 133.641 100.94 133.422 100.523 133.422C100.07 133.422 99.5703 133.651 99.0234 134.109C98.4818 134.568 97.9922 135.185 97.5547 135.961ZM111.555 139.039C111.112 139.768 110.578 140.318 109.953 140.688C109.333 141.057 108.763 141.242 108.242 141.242C107.513 141.242 106.857 140.927 106.273 140.297C105.695 139.667 105.406 138.711 105.406 137.43C105.406 136.419 105.599 135.518 105.984 134.727C106.37 133.93 106.885 133.302 107.531 132.844C108.177 132.38 108.977 132.148 109.93 132.148C110.206 132.148 110.622 132.177 111.18 132.234C111.263 132.245 111.388 132.258 111.555 132.273H113.016V138.438C113.016 139.49 113.125 140.344 113.344 141H111.828C111.714 140.521 111.622 139.867 111.555 139.039ZM111.555 137.312V133.57C111.039 133.435 110.56 133.367 110.117 133.367C109.221 133.367 108.474 133.714 107.875 134.406C107.281 135.099 106.984 136.042 106.984 137.234C106.984 138.099 107.146 138.753 107.469 139.195C107.797 139.633 108.169 139.852 108.586 139.852C109.039 139.852 109.539 139.622 110.086 139.164C110.633 138.706 111.122 138.089 111.555 137.312ZM122.773 140.75C121.799 141.078 120.872 141.242 119.992 141.242C119.117 141.242 118.339 141.042 117.656 140.641C116.979 140.234 116.451 139.688 116.07 139C115.69 138.307 115.5 137.521 115.5 136.641C115.5 135.318 115.93 134.219 116.789 133.344C117.654 132.469 118.695 132.031 119.914 132.031C120.815 132.031 121.768 132.201 122.773 132.539V133.938C121.758 133.474 120.849 133.242 120.047 133.242C119.516 133.242 119.016 133.375 118.547 133.641C118.078 133.901 117.716 134.31 117.461 134.867C117.206 135.424 117.078 135.997 117.078 136.586C117.078 137.372 117.323 138.122 117.812 138.836C118.307 139.549 119.081 139.906 120.133 139.906C120.451 139.906 120.763 139.885 121.07 139.844C121.378 139.797 121.945 139.633 122.773 139.352V140.75ZM125.43 141V128.391H126.883V136.312L131.078 132.273H133.016L128.828 136.312L133.125 141H131.125L126.883 136.312V141H125.43ZM141.906 140.422C140.745 140.974 139.646 141.25 138.609 141.25C137.823 141.25 137.12 141.055 136.5 140.664C135.88 140.273 135.383 139.716 135.008 138.992C134.638 138.263 134.453 137.484 134.453 136.656C134.453 135.859 134.63 135.094 134.984 134.359C135.339 133.625 135.833 133.055 136.469 132.648C137.104 132.237 137.812 132.031 138.594 132.031C139.63 132.031 140.461 132.401 141.086 133.141C141.716 133.88 142.031 135.021 142.031 136.562V136.875H136.016C136.016 137.479 136.141 138.031 136.391 138.531C136.646 139.031 136.979 139.406 137.391 139.656C137.802 139.906 138.271 140.031 138.797 140.031C139.734 140.031 140.771 139.719 141.906 139.094V140.422ZM136.102 135.789H140.453V135.578C140.453 134.865 140.279 134.297 139.93 133.875C139.581 133.453 139.115 133.242 138.531 133.242C137.943 133.242 137.432 133.458 137 133.891C136.573 134.318 136.273 134.951 136.102 135.789ZM151.555 140.648C150.872 140.935 150.378 141.104 150.07 141.156C149.763 141.214 149.466 141.242 149.18 141.242C148.57 141.242 148.013 141.125 147.508 140.891C147.003 140.656 146.62 140.31 146.359 139.852C146.104 139.393 145.977 138.685 145.977 137.727V134.211H143.797V133H145.977V129.484H147.43V133H151.312V134.211H147.43V137.703C147.43 138.406 147.513 138.904 147.68 139.195C147.846 139.482 148.068 139.693 148.344 139.828C148.625 139.964 148.956 140.031 149.336 140.031C150.039 140.031 150.779 139.81 151.555 139.367V140.648ZM160.914 139.664V141H154.367V128.875H155.945V139.664H160.914ZM170.734 140.422C169.573 140.974 168.474 141.25 167.438 141.25C166.651 141.25 165.948 141.055 165.328 140.664C164.708 140.273 164.211 139.716 163.836 138.992C163.466 138.263 163.281 137.484 163.281 136.656C163.281 135.859 163.458 135.094 163.812 134.359C164.167 133.625 164.661 133.055 165.297 132.648C165.932 132.237 166.641 132.031 167.422 132.031C168.458 132.031 169.289 132.401 169.914 133.141C170.544 133.88 170.859 135.021 170.859 136.562V136.875H164.844C164.844 137.479 164.969 138.031 165.219 138.531C165.474 139.031 165.807 139.406 166.219 139.656C166.63 139.906 167.099 140.031 167.625 140.031C168.562 140.031 169.599 139.719 170.734 139.094V140.422ZM164.93 135.789H169.281V135.578C169.281 134.865 169.107 134.297 168.758 133.875C168.409 133.453 167.943 133.242 167.359 133.242C166.771 133.242 166.26 133.458 165.828 133.891C165.401 134.318 165.102 134.951 164.93 135.789ZM173.086 141V132.273H174.539V134.18C174.956 133.508 175.458 132.982 176.047 132.602C176.635 132.221 177.224 132.031 177.812 132.031C178.328 132.031 178.797 132.169 179.219 132.445C179.641 132.716 179.935 133.073 180.102 133.516C180.273 133.958 180.359 134.828 180.359 136.125V141H178.906V135.945C178.906 135.107 178.865 134.555 178.781 134.289C178.703 134.018 178.555 133.797 178.336 133.625C178.122 133.453 177.888 133.367 177.633 133.367C177.122 133.367 176.573 133.609 175.984 134.094C175.401 134.578 174.919 135.185 174.539 135.914V141H173.086Z" fill="black"/>
<mask id="path-9-outside-1_10_127" maskUnits="userSpaceOnUse" x="537" y="158" width="162" height="52" fill="black">
<rect fill="white" x="537" y="158" width="162" height="52"/>
<path fill-rule="evenodd" clip-rule="evenodd" d="M618 159H538V209H618H698V159H618Z"/>
</mask>
<path fill-rule="evenodd" clip-rule="evenodd" d="M618 159H538V209H618H698V159H618Z" fill="#D9D9D9"/>
<path d="M538 159V158H537V159H538ZM538 209H537V210H538V209ZM698 209V210H699V209H698ZM698 159H699V158H698V159ZM538 160H618V158H538V160ZM539 209V159H537V209H539ZM618 208H538V210H618V208ZM698 208H618V210H698V208ZM697 159V209H699V159H697ZM618 160H698V158H618V160Z" fill="black" mask="url(#path-9-outside-1_10_127)"/>
<mask id="path-11-outside-2_10_127" maskUnits="userSpaceOnUse" x="377" y="158" width="162" height="52" fill="black">
<rect fill="white" x="377" y="158" width="162" height="52"/>
<path fill-rule="evenodd" clip-rule="evenodd" d="M458 159H378V209H458H538V159H458Z"/>
</mask>
<path fill-rule="evenodd" clip-rule="evenodd" d="M458 159H378V209H458H538V159H458Z" fill="#D9D9D9"/>
<path d="M378 159V158H377V159H378ZM378 209H377V210H378V209ZM538 209V210H539V209H538ZM538 159H539V158H538V159ZM378 160H458V158H378V160ZM379 209V159H377V209H379ZM458 208H378V210H458V208ZM538 208H458V210H538V208ZM537 159V209H539V159H537ZM458 160H538V158H458V160Z" fill="black" mask="url(#path-11-outside-2_10_127)"/>
<mask id="path-13-outside-3_10_127" maskUnits="userSpaceOnUse" x="57" y="158" width="162" height="52" fill="black">
<rect fill="white" x="57" y="158" width="162" height="52"/>
<path fill-rule="evenodd" clip-rule="evenodd" d="M138 159H58V209H138H218V159H138Z"/>
</mask>
<path fill-rule="evenodd" clip-rule="evenodd" d="M138 159H58V209H138H218V159H138Z" fill="#D9D9D9"/>
<path d="M58 159V158H57V159H58ZM58 209H57V210H58V209ZM218 209V210H219V209H218ZM218 159H219V158H218V159ZM58 160H138V158H58V160ZM59 209V159H57V209H59ZM138 208H58V210H138V208ZM218 208H138V210H218V208ZM217 159V209H219V159H217ZM138 160H218V158H138V160Z" fill="black" mask="url(#path-13-outside-3_10_127)"/>
<rect x="217.5" y="158.5" width="81" height="51" fill="#D9D9D9" stroke="black"/>
<rect x="297.5" y="158.5" width="81" height="51" fill="#D9D9D9" stroke="black"/>
<path d="M242.656 191V183.484H240.234V182.273H244.109V189.789H246.539V191H242.656ZM242.414 179.125C242.414 178.797 242.526 178.552 242.75 178.391C242.974 178.229 243.185 178.148 243.383 178.148C243.586 178.148 243.799 178.229 244.023 178.391C244.247 178.552 244.359 178.797 244.359 179.125C244.359 179.448 244.247 179.69 244.023 179.852C243.799 180.013 243.586 180.094 243.383 180.094C243.185 180.094 242.974 180.013 242.75 179.852C242.526 179.69 242.414 179.448 242.414 179.125ZM249.82 191V182.273H251.273V184.18C251.69 183.508 252.193 182.982 252.781 182.602C253.37 182.221 253.958 182.031 254.547 182.031C255.062 182.031 255.531 182.169 255.953 182.445C256.375 182.716 256.669 183.073 256.836 183.516C257.008 183.958 257.094 184.828 257.094 186.125V191H255.641V185.945C255.641 185.107 255.599 184.555 255.516 184.289C255.438 184.018 255.289 183.797 255.07 183.625C254.857 183.453 254.622 183.367 254.367 183.367C253.857 183.367 253.307 183.609 252.719 184.094C252.135 184.578 251.654 185.185 251.273 185.914V191H249.82ZM266.727 190.648C266.044 190.935 265.549 191.104 265.242 191.156C264.935 191.214 264.638 191.242 264.352 191.242C263.742 191.242 263.185 191.125 262.68 190.891C262.174 190.656 261.792 190.31 261.531 189.852C261.276 189.393 261.148 188.685 261.148 187.727V184.211H258.969V183H261.148V179.484H262.602V183H266.484V184.211H262.602V187.703C262.602 188.406 262.685 188.904 262.852 189.195C263.018 189.482 263.24 189.693 263.516 189.828C263.797 189.964 264.128 190.031 264.508 190.031C265.211 190.031 265.951 189.81 266.727 189.367V190.648ZM272.266 189.789V180.43C271.828 180.779 271.404 181.076 270.992 181.32C270.581 181.565 270.016 181.815 269.297 182.07V180.758C270.438 180.273 271.427 179.646 272.266 178.875H273.719V189.789H276.633V191H269.297V189.789H272.266ZM279.719 185.312C280.094 184.755 280.557 184.302 281.109 183.953C281.667 183.599 282.279 183.422 282.945 183.422C283.576 183.422 284.172 183.576 284.734 183.883C285.302 184.19 285.734 184.62 286.031 185.172C286.328 185.719 286.477 186.357 286.477 187.086C286.477 188.237 286.107 189.24 285.367 190.094C284.633 190.943 283.664 191.367 282.461 191.367C281.044 191.367 279.984 190.776 279.281 189.594C278.583 188.406 278.234 186.898 278.234 185.07C278.234 183.049 278.68 181.453 279.57 180.281C280.461 179.104 281.667 178.516 283.188 178.516C284.005 178.516 284.799 178.635 285.57 178.875V180.344C284.706 179.932 283.891 179.727 283.125 179.727C282.042 179.727 281.203 180.224 280.609 181.219C280.016 182.214 279.719 183.474 279.719 185V185.312ZM282.57 190.156C282.961 190.156 283.354 190.042 283.75 189.812C284.146 189.578 284.456 189.221 284.68 188.742C284.909 188.258 285.023 187.732 285.023 187.164C285.023 186.424 284.831 185.818 284.445 185.344C284.065 184.87 283.521 184.633 282.812 184.633C282.078 184.633 281.474 184.909 281 185.461C280.531 186.008 280.297 186.674 280.297 187.461C280.297 188.253 280.526 188.901 280.984 189.406C281.448 189.906 281.977 190.156 282.57 190.156Z" fill="black"/>
<path d="M317.656 191V183.484H315.234V182.273H319.109V189.789H321.539V191H317.656ZM317.414 179.125C317.414 178.797 317.526 178.552 317.75 178.391C317.974 178.229 318.185 178.148 318.383 178.148C318.586 178.148 318.799 178.229 319.023 178.391C319.247 178.552 319.359 178.797 319.359 179.125C319.359 179.448 319.247 179.69 319.023 179.852C318.799 180.013 318.586 180.094 318.383 180.094C318.185 180.094 317.974 180.013 317.75 179.852C317.526 179.69 317.414 179.448 317.414 179.125ZM324.82 191V182.273H326.273V184.18C326.69 183.508 327.193 182.982 327.781 182.602C328.37 182.221 328.958 182.031 329.547 182.031C330.062 182.031 330.531 182.169 330.953 182.445C331.375 182.716 331.669 183.073 331.836 183.516C332.008 183.958 332.094 184.828 332.094 186.125V191H330.641V185.945C330.641 185.107 330.599 184.555 330.516 184.289C330.438 184.018 330.289 183.797 330.07 183.625C329.857 183.453 329.622 183.367 329.367 183.367C328.857 183.367 328.307 183.609 327.719 184.094C327.135 184.578 326.654 185.185 326.273 185.914V191H324.82ZM341.727 190.648C341.044 190.935 340.549 191.104 340.242 191.156C339.935 191.214 339.638 191.242 339.352 191.242C338.742 191.242 338.185 191.125 337.68 190.891C337.174 190.656 336.792 190.31 336.531 189.852C336.276 189.393 336.148 188.685 336.148 187.727V184.211H333.969V183H336.148V179.484H337.602V183H341.484V184.211H337.602V187.703C337.602 188.406 337.685 188.904 337.852 189.195C338.018 189.482 338.24 189.693 338.516 189.828C338.797 189.964 339.128 190.031 339.508 190.031C340.211 190.031 340.951 189.81 341.727 189.367V190.648ZM347.266 189.789V180.43C346.828 180.779 346.404 181.076 345.992 181.32C345.581 181.565 345.016 181.815 344.297 182.07V180.758C345.438 180.273 346.427 179.646 347.266 178.875H348.719V189.789H351.633V191H344.297V189.789H347.266ZM354.719 185.312C355.094 184.755 355.557 184.302 356.109 183.953C356.667 183.599 357.279 183.422 357.945 183.422C358.576 183.422 359.172 183.576 359.734 183.883C360.302 184.19 360.734 184.62 361.031 185.172C361.328 185.719 361.477 186.357 361.477 187.086C361.477 188.237 361.107 189.24 360.367 190.094C359.633 190.943 358.664 191.367 357.461 191.367C356.044 191.367 354.984 190.776 354.281 189.594C353.583 188.406 353.234 186.898 353.234 185.07C353.234 183.049 353.68 181.453 354.57 180.281C355.461 179.104 356.667 178.516 358.188 178.516C359.005 178.516 359.799 178.635 360.57 178.875V180.344C359.706 179.932 358.891 179.727 358.125 179.727C357.042 179.727 356.203 180.224 355.609 181.219C355.016 182.214 354.719 183.474 354.719 185V185.312ZM357.57 190.156C357.961 190.156 358.354 190.042 358.75 189.812C359.146 189.578 359.456 189.221 359.68 188.742C359.909 188.258 360.023 187.732 360.023 187.164C360.023 186.424 359.831 185.818 359.445 185.344C359.065 184.87 358.521 184.633 357.812 184.633C357.078 184.633 356.474 184.909 356 185.461C355.531 186.008 355.297 186.674 355.297 187.461C355.297 188.253 355.526 188.901 355.984 189.406C356.448 189.906 356.977 190.156 357.57 190.156Z" fill="black"/>
<path d="M117.656 191V183.484H115.234V182.273H119.109V189.789H121.539V191H117.656ZM117.414 179.125C117.414 178.797 117.526 178.552 117.75 178.391C117.974 178.229 118.185 178.148 118.383 178.148C118.586 178.148 118.799 178.229 119.023 178.391C119.247 178.552 119.359 178.797 119.359 179.125C119.359 179.448 119.247 179.69 119.023 179.852C118.799 180.013 118.586 180.094 118.383 180.094C118.185 180.094 117.974 180.013 117.75 179.852C117.526 179.69 117.414 179.448 117.414 179.125ZM124.82 191V182.273H126.273V184.18C126.69 183.508 127.193 182.982 127.781 182.602C128.37 182.221 128.958 182.031 129.547 182.031C130.062 182.031 130.531 182.169 130.953 182.445C131.375 182.716 131.669 183.073 131.836 183.516C132.008 183.958 132.094 184.828 132.094 186.125V191H130.641V185.945C130.641 185.107 130.599 184.555 130.516 184.289C130.438 184.018 130.289 183.797 130.07 183.625C129.857 183.453 129.622 183.367 129.367 183.367C128.857 183.367 128.307 183.609 127.719 184.094C127.135 184.578 126.654 185.185 126.273 185.914V191H124.82ZM141.727 190.648C141.044 190.935 140.549 191.104 140.242 191.156C139.935 191.214 139.638 191.242 139.352 191.242C138.742 191.242 138.185 191.125 137.68 190.891C137.174 190.656 136.792 190.31 136.531 189.852C136.276 189.393 136.148 188.685 136.148 187.727V184.211H133.969V183H136.148V179.484H137.602V183H141.484V184.211H137.602V187.703C137.602 188.406 137.685 188.904 137.852 189.195C138.018 189.482 138.24 189.693 138.516 189.828C138.797 189.964 139.128 190.031 139.508 190.031C140.211 190.031 140.951 189.81 141.727 189.367V190.648ZM143.961 190.781V189.25C145.154 189.854 146.188 190.156 147.062 190.156C147.865 190.156 148.526 189.914 149.047 189.43C149.573 188.94 149.836 188.312 149.836 187.547C149.836 186.776 149.547 186.148 148.969 185.664C148.396 185.18 147.419 184.938 146.039 184.938H145.234V183.727H146.352C147.367 183.727 148.102 183.5 148.555 183.047C149.008 182.589 149.234 182.081 149.234 181.523C149.234 181.018 149.049 180.594 148.68 180.25C148.31 179.901 147.742 179.727 146.977 179.727C146.117 179.727 145.193 179.969 144.203 180.453V179.07C145.193 178.701 146.099 178.516 146.922 178.516C148.396 178.516 149.411 178.807 149.969 179.391C150.531 179.969 150.812 180.63 150.812 181.375C150.812 181.927 150.664 182.445 150.367 182.93C150.07 183.414 149.523 183.846 148.727 184.227C149.43 184.435 149.961 184.69 150.32 184.992C150.68 185.294 150.951 185.651 151.133 186.062C151.32 186.474 151.414 186.935 151.414 187.445C151.414 188.581 150.992 189.518 150.148 190.258C149.31 190.997 148.224 191.367 146.891 191.367C146.505 191.367 146.083 191.339 145.625 191.281C145.172 191.224 144.617 191.057 143.961 190.781ZM160.938 191H153.602V189.664C153.602 189.32 153.672 188.953 153.812 188.562C153.953 188.167 154.221 187.724 154.617 187.234C155.013 186.745 155.432 186.273 155.875 185.82L156.703 184.977C156.87 184.805 157.234 184.406 157.797 183.781C158.359 183.156 158.729 182.677 158.906 182.344C159.089 182.01 159.18 181.682 159.18 181.359C159.18 180.839 158.971 180.438 158.555 180.156C158.138 179.87 157.669 179.727 157.148 179.727C156.852 179.727 156.518 179.76 156.148 179.828C155.784 179.896 155.464 179.977 155.188 180.07C154.911 180.159 154.464 180.344 153.844 180.625V179.336C154.5 179.023 155.156 178.81 155.812 178.695C156.474 178.576 157.018 178.516 157.445 178.516C158.076 178.516 158.654 178.62 159.18 178.828C159.711 179.031 160.104 179.349 160.359 179.781C160.62 180.214 160.75 180.674 160.75 181.164C160.75 181.711 160.583 182.271 160.25 182.844C159.922 183.417 159.299 184.154 158.383 185.055L157.492 185.938L156.742 186.672C156.268 187.151 155.885 187.615 155.594 188.062C155.302 188.51 155.141 189.044 155.109 189.664H160.938V191Z" fill="black"/>
<path d="M436.656 191V183.484H434.234V182.273H438.109V189.789H440.539V191H436.656ZM436.414 179.125C436.414 178.797 436.526 178.552 436.75 178.391C436.974 178.229 437.185 178.148 437.383 178.148C437.586 178.148 437.799 178.229 438.023 178.391C438.247 178.552 438.359 178.797 438.359 179.125C438.359 179.448 438.247 179.69 438.023 179.852C437.799 180.013 437.586 180.094 437.383 180.094C437.185 180.094 436.974 180.013 436.75 179.852C436.526 179.69 436.414 179.448 436.414 179.125ZM443.82 191V182.273H445.273V184.18C445.69 183.508 446.193 182.982 446.781 182.602C447.37 182.221 447.958 182.031 448.547 182.031C449.062 182.031 449.531 182.169 449.953 182.445C450.375 182.716 450.669 183.073 450.836 183.516C451.008 183.958 451.094 184.828 451.094 186.125V191H449.641V185.945C449.641 185.107 449.599 184.555 449.516 184.289C449.438 184.018 449.289 183.797 449.07 183.625C448.857 183.453 448.622 183.367 448.367 183.367C447.857 183.367 447.307 183.609 446.719 184.094C446.135 184.578 445.654 185.185 445.273 185.914V191H443.82ZM460.727 190.648C460.044 190.935 459.549 191.104 459.242 191.156C458.935 191.214 458.638 191.242 458.352 191.242C457.742 191.242 457.185 191.125 456.68 190.891C456.174 190.656 455.792 190.31 455.531 189.852C455.276 189.393 455.148 188.685 455.148 187.727V184.211H452.969V183H455.148V179.484H456.602V183H460.484V184.211H456.602V187.703C456.602 188.406 456.685 188.904 456.852 189.195C457.018 189.482 457.24 189.693 457.516 189.828C457.797 189.964 458.128 190.031 458.508 190.031C459.211 190.031 459.951 189.81 460.727 189.367V190.648ZM462.961 190.781V189.25C464.154 189.854 465.188 190.156 466.062 190.156C466.865 190.156 467.526 189.914 468.047 189.43C468.573 188.94 468.836 188.312 468.836 187.547C468.836 186.776 468.547 186.148 467.969 185.664C467.396 185.18 466.419 184.938 465.039 184.938H464.234V183.727H465.352C466.367 183.727 467.102 183.5 467.555 183.047C468.008 182.589 468.234 182.081 468.234 181.523C468.234 181.018 468.049 180.594 467.68 180.25C467.31 179.901 466.742 179.727 465.977 179.727C465.117 179.727 464.193 179.969 463.203 180.453V179.07C464.193 178.701 465.099 178.516 465.922 178.516C467.396 178.516 468.411 178.807 468.969 179.391C469.531 179.969 469.812 180.63 469.812 181.375C469.812 181.927 469.664 182.445 469.367 182.93C469.07 183.414 468.523 183.846 467.727 184.227C468.43 184.435 468.961 184.69 469.32 184.992C469.68 185.294 469.951 185.651 470.133 186.062C470.32 186.474 470.414 186.935 470.414 187.445C470.414 188.581 469.992 189.518 469.148 190.258C468.31 190.997 467.224 191.367 465.891 191.367C465.505 191.367 465.083 191.339 464.625 191.281C464.172 191.224 463.617 191.057 462.961 190.781ZM479.938 191H472.602V189.664C472.602 189.32 472.672 188.953 472.812 188.562C472.953 188.167 473.221 187.724 473.617 187.234C474.013 186.745 474.432 186.273 474.875 185.82L475.703 184.977C475.87 184.805 476.234 184.406 476.797 183.781C477.359 183.156 477.729 182.677 477.906 182.344C478.089 182.01 478.18 181.682 478.18 181.359C478.18 180.839 477.971 180.438 477.555 180.156C477.138 179.87 476.669 179.727 476.148 179.727C475.852 179.727 475.518 179.76 475.148 179.828C474.784 179.896 474.464 179.977 474.188 180.07C473.911 180.159 473.464 180.344 472.844 180.625V179.336C473.5 179.023 474.156 178.81 474.812 178.695C475.474 178.576 476.018 178.516 476.445 178.516C477.076 178.516 477.654 178.62 478.18 178.828C478.711 179.031 479.104 179.349 479.359 179.781C479.62 180.214 479.75 180.674 479.75 181.164C479.75 181.711 479.583 182.271 479.25 182.844C478.922 183.417 478.299 184.154 477.383 185.055L476.492 185.938L475.742 186.672C475.268 187.151 474.885 187.615 474.594 188.062C474.302 188.51 474.141 189.044 474.109 189.664H479.938V191Z" fill="black"/>
<path d="M596.656 191V183.484H594.234V182.273H598.109V189.789H600.539V191H596.656ZM596.414 179.125C596.414 178.797 596.526 178.552 596.75 178.391C596.974 178.229 597.185 178.148 597.383 178.148C597.586 178.148 597.799 178.229 598.023 178.391C598.247 178.552 598.359 178.797 598.359 179.125C598.359 179.448 598.247 179.69 598.023 179.852C597.799 180.013 597.586 180.094 597.383 180.094C597.185 180.094 596.974 180.013 596.75 179.852C596.526 179.69 596.414 179.448 596.414 179.125ZM603.82 191V182.273H605.273V184.18C605.69 183.508 606.193 182.982 606.781 182.602C607.37 182.221 607.958 182.031 608.547 182.031C609.062 182.031 609.531 182.169 609.953 182.445C610.375 182.716 610.669 183.073 610.836 183.516C611.008 183.958 611.094 184.828 611.094 186.125V191H609.641V185.945C609.641 185.107 609.599 184.555 609.516 184.289C609.438 184.018 609.289 183.797 609.07 183.625C608.857 183.453 608.622 183.367 608.367 183.367C607.857 183.367 607.307 183.609 606.719 184.094C606.135 184.578 605.654 185.185 605.273 185.914V191H603.82ZM620.727 190.648C620.044 190.935 619.549 191.104 619.242 191.156C618.935 191.214 618.638 191.242 618.352 191.242C617.742 191.242 617.185 191.125 616.68 190.891C616.174 190.656 615.792 190.31 615.531 189.852C615.276 189.393 615.148 188.685 615.148 187.727V184.211H612.969V183H615.148V179.484H616.602V183H620.484V184.211H616.602V187.703C616.602 188.406 616.685 188.904 616.852 189.195C617.018 189.482 617.24 189.693 617.516 189.828C617.797 189.964 618.128 190.031 618.508 190.031C619.211 190.031 619.951 189.81 620.727 189.367V190.648ZM622.961 190.781V189.25C624.154 189.854 625.188 190.156 626.062 190.156C626.865 190.156 627.526 189.914 628.047 189.43C628.573 188.94 628.836 188.312 628.836 187.547C628.836 186.776 628.547 186.148 627.969 185.664C627.396 185.18 626.419 184.938 625.039 184.938H624.234V183.727H625.352C626.367 183.727 627.102 183.5 627.555 183.047C628.008 182.589 628.234 182.081 628.234 181.523C628.234 181.018 628.049 180.594 627.68 180.25C627.31 179.901 626.742 179.727 625.977 179.727C625.117 179.727 624.193 179.969 623.203 180.453V179.07C624.193 178.701 625.099 178.516 625.922 178.516C627.396 178.516 628.411 178.807 628.969 179.391C629.531 179.969 629.812 180.63 629.812 181.375C629.812 181.927 629.664 182.445 629.367 182.93C629.07 183.414 628.523 183.846 627.727 184.227C628.43 184.435 628.961 184.69 629.32 184.992C629.68 185.294 629.951 185.651 630.133 186.062C630.32 186.474 630.414 186.935 630.414 187.445C630.414 188.581 629.992 189.518 629.148 190.258C628.31 190.997 627.224 191.367 625.891 191.367C625.505 191.367 625.083 191.339 624.625 191.281C624.172 191.224 623.617 191.057 622.961 190.781ZM639.938 191H632.602V189.664C632.602 189.32 632.672 188.953 632.812 188.562C632.953 188.167 633.221 187.724 633.617 187.234C634.013 186.745 634.432 186.273 634.875 185.82L635.703 184.977C635.87 184.805 636.234 184.406 636.797 183.781C637.359 183.156 637.729 182.677 637.906 182.344C638.089 182.01 638.18 181.682 638.18 181.359C638.18 180.839 637.971 180.438 637.555 180.156C637.138 179.87 636.669 179.727 636.148 179.727C635.852 179.727 635.518 179.76 635.148 179.828C634.784 179.896 634.464 179.977 634.188 180.07C633.911 180.159 633.464 180.344 632.844 180.625V179.336C633.5 179.023 634.156 178.81 634.812 178.695C635.474 178.576 636.018 178.516 636.445 178.516C637.076 178.516 637.654 178.62 638.18 178.828C638.711 179.031 639.104 179.349 639.359 179.781C639.62 180.214 639.75 180.674 639.75 181.164C639.75 181.711 639.583 182.271 639.25 182.844C638.922 183.417 638.299 184.154 637.383 185.055L636.492 185.938L635.742 186.672C635.268 187.151 634.885 187.615 634.594 188.062C634.302 188.51 634.141 189.044 634.109 189.664H639.938V191Z" fill="black"/>
<rect x="57" y="158" width="743" height="218" stroke="black" stroke-width="2" stroke-dasharray="12 12"/>
<path d="M732.555 175.352C733.003 174.623 733.536 174.074 734.156 173.704C734.776 173.334 735.346 173.149 735.867 173.149C736.596 173.149 737.253 173.464 737.836 174.095C738.419 174.725 738.711 175.681 738.711 176.962C738.711 177.972 738.516 178.876 738.125 179.673C737.74 180.464 737.224 181.092 736.578 181.556C735.932 182.014 735.133 182.243 734.18 182.243C733.909 182.243 733.492 182.214 732.93 182.157C732.846 182.147 732.721 182.134 732.555 182.118V185.509H731.102V173.392H732.555V175.352ZM732.555 177.079V180.821C733.081 180.957 733.565 181.024 734.008 181.024C734.888 181.024 735.628 180.681 736.227 179.993C736.831 179.3 737.133 178.355 737.133 177.157C737.133 176.287 736.969 175.634 736.641 175.196C736.312 174.759 735.94 174.54 735.523 174.54C735.07 174.54 734.57 174.769 734.023 175.227C733.482 175.686 732.992 176.303 732.555 177.079ZM746.555 180.157C746.112 180.886 745.578 181.436 744.953 181.806C744.333 182.175 743.763 182.36 743.242 182.36C742.513 182.36 741.857 182.045 741.273 181.415C740.695 180.785 740.406 179.829 740.406 178.548C740.406 177.537 740.599 176.636 740.984 175.845C741.37 175.048 741.885 174.42 742.531 173.962C743.177 173.498 743.977 173.267 744.93 173.267C745.206 173.267 745.622 173.295 746.18 173.352C746.263 173.363 746.388 173.376 746.555 173.392H748.016V179.556C748.016 180.608 748.125 181.462 748.344 182.118H746.828C746.714 181.639 746.622 180.985 746.555 180.157ZM746.555 178.431V174.688C746.039 174.553 745.56 174.485 745.117 174.485C744.221 174.485 743.474 174.832 742.875 175.524C742.281 176.217 741.984 177.16 741.984 178.352C741.984 179.217 742.146 179.871 742.469 180.313C742.797 180.751 743.169 180.97 743.586 180.97C744.039 180.97 744.539 180.74 745.086 180.282C745.633 179.824 746.122 179.207 746.555 178.431ZM757.773 181.868C756.799 182.196 755.872 182.36 754.992 182.36C754.117 182.36 753.339 182.16 752.656 181.759C751.979 181.352 751.451 180.806 751.07 180.118C750.69 179.425 750.5 178.639 750.5 177.759C750.5 176.436 750.93 175.337 751.789 174.462C752.654 173.587 753.695 173.149 754.914 173.149C755.815 173.149 756.768 173.319 757.773 173.657V175.056C756.758 174.592 755.849 174.36 755.047 174.36C754.516 174.36 754.016 174.493 753.547 174.759C753.078 175.019 752.716 175.428 752.461 175.985C752.206 176.543 752.078 177.115 752.078 177.704C752.078 178.49 752.323 179.24 752.812 179.954C753.307 180.668 754.081 181.024 755.133 181.024C755.451 181.024 755.763 181.003 756.07 180.962C756.378 180.915 756.945 180.751 757.773 180.47V181.868ZM760.43 182.118V169.509H761.883V177.431L766.078 173.392H768.016L763.828 177.431L768.125 182.118H766.125L761.883 177.431V182.118H760.43ZM776.906 181.54C775.745 182.092 774.646 182.368 773.609 182.368C772.823 182.368 772.12 182.173 771.5 181.782C770.88 181.392 770.383 180.834 770.008 180.11C769.638 179.381 769.453 178.602 769.453 177.774C769.453 176.977 769.63 176.212 769.984 175.477C770.339 174.743 770.833 174.173 771.469 173.767C772.104 173.355 772.812 173.149 773.594 173.149C774.63 173.149 775.461 173.519 776.086 174.259C776.716 174.998 777.031 176.139 777.031 177.681V177.993H771.016C771.016 178.597 771.141 179.149 771.391 179.649C771.646 180.149 771.979 180.524 772.391 180.774C772.802 181.024 773.271 181.149 773.797 181.149C774.734 181.149 775.771 180.837 776.906 180.212V181.54ZM771.102 176.907H775.453V176.696C775.453 175.983 775.279 175.415 774.93 174.993C774.581 174.571 774.115 174.36 773.531 174.36C772.943 174.36 772.432 174.576 772 175.009C771.573 175.436 771.273 176.069 771.102 176.907ZM786.555 181.767C785.872 182.053 785.378 182.222 785.07 182.274C784.763 182.332 784.466 182.36 784.18 182.36C783.57 182.36 783.013 182.243 782.508 182.009C782.003 181.774 781.62 181.428 781.359 180.97C781.104 180.511 780.977 179.803 780.977 178.845V175.329H778.797V174.118H780.977V170.602H782.43V174.118H786.312V175.329H782.43V178.821C782.43 179.524 782.513 180.022 782.68 180.313C782.846 180.6 783.068 180.811 783.344 180.946C783.625 181.082 783.956 181.149 784.336 181.149C785.039 181.149 785.779 180.928 786.555 180.485V181.767Z" fill="black"/>
<path d="M297.109 58.4688C298.005 57.0104 299.073 55.9115 300.312 55.1719C301.552 54.4323 302.693 54.0625 303.734 54.0625C305.193 54.0625 306.505 54.6927 307.672 55.9531C308.839 57.2135 309.422 59.125 309.422 61.6875C309.422 63.7083 309.031 65.5156 308.25 67.1094C307.479 68.6927 306.448 69.9479 305.156 70.875C303.865 71.7917 302.266 72.25 300.359 72.25C299.818 72.25 298.984 72.1927 297.859 72.0781C297.693 72.0573 297.443 72.0312 297.109 72V78.7812H294.203V54.5469H297.109V58.4688ZM297.109 61.9219V69.4062C298.161 69.6771 299.13 69.8125 300.016 69.8125C301.776 69.8125 303.255 69.125 304.453 67.75C305.661 66.3646 306.266 64.474 306.266 62.0781C306.266 60.3385 305.938 59.0312 305.281 58.1562C304.625 57.2812 303.88 56.8438 303.047 56.8438C302.141 56.8438 301.141 57.3021 300.047 58.2188C298.964 59.1354 297.984 60.3698 297.109 61.9219ZM325.109 68.0781C324.224 69.5365 323.156 70.6354 321.906 71.375C320.667 72.1146 319.526 72.4844 318.484 72.4844C317.026 72.4844 315.714 71.8542 314.547 70.5938C313.391 69.3333 312.812 67.4219 312.812 64.8594C312.812 62.8385 313.198 61.0365 313.969 59.4531C314.74 57.8594 315.771 56.6042 317.062 55.6875C318.354 54.7604 319.953 54.2969 321.859 54.2969C322.411 54.2969 323.245 54.3542 324.359 54.4688C324.526 54.4896 324.776 54.5156 325.109 54.5469H328.031V66.875C328.031 68.9792 328.25 70.6875 328.688 72H325.656C325.427 71.0417 325.245 69.7344 325.109 68.0781ZM325.109 64.625V57.1406C324.078 56.8698 323.12 56.7344 322.234 56.7344C320.443 56.7344 318.948 57.4271 317.75 58.8125C316.562 60.1979 315.969 62.0833 315.969 64.4688C315.969 66.1979 316.292 67.5052 316.938 68.3906C317.594 69.2656 318.339 69.7031 319.172 69.7031C320.078 69.7031 321.078 69.2448 322.172 68.3281C323.266 67.4115 324.245 66.1771 325.109 64.625ZM347.547 71.5C345.599 72.1562 343.745 72.4844 341.984 72.4844C340.234 72.4844 338.677 72.0833 337.312 71.2812C335.958 70.4688 334.901 69.375 334.141 68C333.38 66.6146 333 65.0417 333 63.2812C333 60.6354 333.859 58.4375 335.578 56.6875C337.307 54.9375 339.391 54.0625 341.828 54.0625C343.63 54.0625 345.536 54.401 347.547 55.0781V57.875C345.516 56.9479 343.698 56.4844 342.094 56.4844C341.031 56.4844 340.031 56.75 339.094 57.2812C338.156 57.8021 337.432 58.6198 336.922 59.7344C336.411 60.849 336.156 61.9948 336.156 63.1719C336.156 64.7448 336.646 66.2448 337.625 67.6719C338.615 69.099 340.161 69.8125 342.266 69.8125C342.901 69.8125 343.526 69.7708 344.141 69.6875C344.755 69.5938 345.891 69.2656 347.547 68.7031V71.5ZM352.859 72V46.7812H355.766V62.625L364.156 54.5469H368.031L359.656 62.625L368.25 72H364.25L355.766 62.625V72H352.859ZM385.812 70.8438C383.49 71.9479 381.292 72.5 379.219 72.5C377.646 72.5 376.24 72.1094 375 71.3281C373.76 70.5469 372.766 69.4323 372.016 67.9844C371.276 66.526 370.906 64.9688 370.906 63.3125C370.906 61.7188 371.26 60.1875 371.969 58.7188C372.677 57.25 373.667 56.1094 374.938 55.2969C376.208 54.474 377.625 54.0625 379.188 54.0625C381.26 54.0625 382.922 54.8021 384.172 56.2812C385.432 57.7604 386.062 60.0417 386.062 63.125V63.75H374.031C374.031 64.9583 374.281 66.0625 374.781 67.0625C375.292 68.0625 375.958 68.8125 376.781 69.3125C377.604 69.8125 378.542 70.0625 379.594 70.0625C381.469 70.0625 383.542 69.4375 385.812 68.1875V70.8438ZM374.203 61.5781H382.906V61.1562C382.906 59.7292 382.557 58.5938 381.859 57.75C381.161 56.9062 380.229 56.4844 379.062 56.4844C377.885 56.4844 376.865 56.9167 376 57.7812C375.146 58.6354 374.547 59.901 374.203 61.5781ZM405.109 71.2969C403.745 71.8698 402.755 72.2083 402.141 72.3125C401.526 72.4271 400.932 72.4844 400.359 72.4844C399.141 72.4844 398.026 72.25 397.016 71.7812C396.005 71.3125 395.24 70.6198 394.719 69.7031C394.208 68.7865 393.953 67.3698 393.953 65.4531V58.4219H389.594V56H393.953V48.9688H396.859V56H404.625V58.4219H396.859V65.4062C396.859 66.8125 397.026 67.8073 397.359 68.3906C397.693 68.9635 398.135 69.3854 398.688 69.6562C399.25 69.9271 399.911 70.0625 400.672 70.0625C402.078 70.0625 403.557 69.6198 405.109 68.7344V71.2969ZM409.457 66.176C409.457 65.696 411.025 64.992 411.025 64.992V64.96C413.841 61.76 416.689 57.312 418.961 52.928L416.977 51.808C415.057 56.16 411.953 60.736 410.993 61.92C410.065 63.104 409.393 63.936 408.753 64.064C409.009 64.64 409.361 65.728 409.457 66.176ZM409.457 66.176C410.065 65.824 411.057 65.504 418.129 63.84C418.065 63.36 417.969 62.496 417.969 61.856L410.385 63.456L409.329 64.256L409.457 66.176ZM409.265 58.496C409.265 58.016 410.673 57.248 410.673 57.248V57.184C412.753 54.272 414.929 50.016 416.465 45.92L414.193 45.12C413.041 49.024 410.897 53.216 410.225 54.272C409.585 55.392 409.041 56.16 408.497 56.288C408.753 56.896 409.137 58.016 409.265 58.496ZM409.265 58.496C409.777 58.24 410.641 58.016 415.665 57.376C415.697 56.896 415.76 56 415.889 55.392L410.321 55.968L409.201 56.704L409.265 58.496ZM408.593 70.304L409.169 72.48C411.761 71.424 415.121 70.08 418.353 68.736L417.937 66.816C414.449 68.128 410.929 69.504 408.593 70.304ZM427.249 59.936V73.536H428.881V59.936H427.249ZM431.153 59.904V73.504H432.785V59.904H431.153ZM435.153 58.816V72.224C435.153 72.48 435.089 72.544 434.865 72.544C434.641 72.544 434.033 72.544 433.329 72.544C433.585 73.024 433.809 73.824 433.905 74.336C435.025 74.336 435.793 74.304 436.369 73.984C436.945 73.664 437.073 73.12 437.073 72.256V58.816H435.153ZM420.561 48.608V55.52C420.561 60.448 420.273 67.552 417.329 72.672C417.841 72.928 418.801 73.632 419.185 74.048C422.257 68.64 422.769 60.768 422.769 55.52V48.608H420.561ZM421.713 48.608V50.624H434.513V54.08H421.713V56.096H436.753V48.608H421.713ZM422.705 58.816V74.304H424.625V60.8H436.177V58.816H422.705ZM423.665 65.536V67.456H436.017V65.536H423.665ZM426.673 45.6C427.345 46.848 428.081 48.544 428.369 49.664L430.705 48.896C430.385 47.808 429.649 46.144 428.913 44.928L426.673 45.6ZM467.057 59.168V59.584C466.417 67.808 465.681 71.072 464.753 71.936C464.465 72.256 464.113 72.32 463.569 72.32C462.961 72.32 461.553 72.32 460.017 72.128C460.369 72.768 460.625 73.696 460.657 74.368C462.225 74.432 463.697 74.432 464.497 74.368C465.457 74.336 466.097 74.08 466.705 73.408C467.857 72.224 468.561 68.896 469.297 60.256C469.329 59.904 469.361 59.168 469.361 59.168H467.057ZM453.489 47.008V49.216H465.361V47.008H453.489ZM455.025 51.232C454.801 54.368 454.353 58.656 453.937 61.248H456.208C456.561 58.752 457.009 54.56 457.265 51.36L455.025 51.232ZM454.609 59.168V61.248H467.761V59.168H454.609ZM452.401 65.472V67.616H464.657V65.472H452.401ZM464.369 47.008V47.296C464.145 50.304 463.505 56.352 462.929 60.544L465.201 60.704C465.777 56.512 466.385 50.88 466.673 47.104L465.009 46.912L464.625 47.008H464.369ZM440.913 46.848V49.056H451.921V46.848H440.913ZM444.049 56.704V58.848H448.881V68.384H444.049V70.528H450.993V56.704H444.049ZM445.041 47.904C444.177 53.248 442.673 58.24 440.209 61.504C440.625 62.144 441.169 63.52 441.329 64.096C444.273 60.256 446.129 54.432 447.281 48.384L445.041 47.904ZM442.993 56.704V73.12H445.105V56.704H442.993ZM473.329 66.144C473.329 65.632 474.993 64.864 474.993 64.864V64.8C478.193 61.76 481.457 57.504 484.177 53.216L482.001 51.872C479.697 56.16 476.177 60.576 475.025 61.696C474.001 62.848 473.233 63.648 472.497 63.776C472.785 64.416 473.201 65.632 473.329 66.144ZM473.329 66.144C474.065 65.728 475.217 65.44 484.177 63.808C484.081 63.296 484.017 62.368 484.017 61.728L474.481 63.296L473.201 64.128L473.329 66.144ZM473.105 58.368C473.105 57.824 474.737 57.024 474.737 57.024V56.96C476.913 54.208 479.185 50.208 480.849 46.336L478.417 45.344C477.105 49.056 474.801 53.024 474.097 54.048C473.424 55.104 472.849 55.808 472.241 55.968C472.561 56.608 472.945 57.824 473.105 58.368ZM473.105 58.368C473.681 58.08 474.673 57.888 480.817 57.216C480.817 56.736 480.881 55.808 481.009 55.2L474.257 55.808L473.041 56.544L473.105 58.368ZM472.433 70.336L472.849 72.8C476.016 72.064 480.273 71.2 484.305 70.272L484.113 68.032C479.825 68.928 475.377 69.824 472.433 70.336ZM484.369 49.408V51.744H501.457V49.408H484.369ZM485.169 56.704V59.008H500.913V56.704H485.169ZM487.281 70.976V73.184H498.897V70.976H487.281ZM491.729 45.12V57.888H494.225V45.12H491.729ZM486.001 62.272V74.56H488.337V64.48H497.713V74.432H500.145V62.272H486.001ZM504.849 52V54.272H516.369V52H504.849ZM509.809 45.12V74.528H512.113V45.12H509.809ZM509.713 53.408C508.689 57.888 506.321 63.328 504.017 66.112C504.433 66.688 505.009 67.648 505.265 68.288C507.729 65.12 510.129 59.008 511.249 53.984L509.713 53.408ZM511.985 56.64L510.769 57.76C511.793 59.04 514.321 62.624 515.185 64.16L516.689 62.208C515.985 61.28 512.849 57.536 511.985 56.64ZM520.017 45.12C518.865 49.664 516.881 54.08 514.385 56.896C514.961 57.248 515.953 58.048 516.401 58.432C518.929 55.328 521.073 50.624 522.417 45.664L520.017 45.12ZM519.569 50.368L518.513 52.64H531.921V50.368H519.569ZM530.993 50.368V50.944C530.577 65.312 530.065 70.624 529.105 71.744C528.753 72.16 528.433 72.288 527.857 72.256C527.217 72.256 525.649 72.256 523.953 72.096C524.369 72.768 524.657 73.792 524.689 74.464C526.257 74.56 527.857 74.592 528.849 74.496C529.873 74.368 530.577 74.112 531.217 73.184C532.433 71.648 532.881 66.656 533.329 51.648C533.329 51.296 533.361 50.368 533.361 50.368H530.993ZM523.825 61.152C525.169 63.584 526.513 66.784 526.929 68.8L528.945 68.064C528.433 66.08 527.057 62.944 525.649 60.544L523.825 61.152ZM520.977 55.072C520.305 58.4 518.993 63.168 517.841 66.016L519.76 66.528C520.944 63.744 522.321 59.2 523.312 55.584L520.977 55.072ZM515.473 65.792L515.985 68.032C519.089 67.584 523.121 67.008 527.089 66.368L527.025 64.48C522.737 65.024 518.353 65.536 515.473 65.792Z" fill="black"/>
</svg>
