<svg width="828" height="501" viewBox="0 0 828 501" fill="none" xmlns="http://www.w3.org/2000/svg">
<rect width="828" height="501" fill="white"/>
<rect x="57.5" y="260.5" width="641" height="166" fill="#D9D9D9" stroke="black"/>
<path d="M289.072 380.906C287.629 380.818 286.413 380.409 285.423 379.68C284.434 378.956 283.642 377.977 283.048 376.742C282.46 375.508 282.166 374.271 282.166 373.031C282.166 371.792 282.46 370.555 283.048 369.32C283.642 368.086 284.434 367.107 285.423 366.383C286.413 365.654 287.629 365.242 289.072 365.148V366.367C287.983 366.466 287.046 366.833 286.259 367.469C285.478 368.099 284.864 368.904 284.416 369.883C283.968 370.862 283.744 371.911 283.744 373.031C283.744 374.151 283.968 375.201 284.416 376.18C284.864 377.159 285.478 377.964 286.259 378.594C287.046 379.224 287.983 379.591 289.072 379.695V380.906ZM298.697 369.273V378H297.244V376.086C296.775 376.805 296.254 377.344 295.681 377.703C295.108 378.062 294.535 378.242 293.962 378.242C293.452 378.242 292.983 378.107 292.556 377.836C292.134 377.56 291.84 377.201 291.673 376.758C291.507 376.31 291.423 375.44 291.423 374.148V369.273H292.877V374.328C292.877 375.167 292.916 375.721 292.994 375.992C293.077 376.258 293.226 376.477 293.439 376.648C293.658 376.82 293.892 376.906 294.142 376.906C294.653 376.906 295.199 376.667 295.783 376.188C296.371 375.703 296.858 375.094 297.244 374.359V369.273H298.697ZM308.423 377.648C307.741 377.935 307.246 378.104 306.939 378.156C306.632 378.214 306.335 378.242 306.048 378.242C305.439 378.242 304.882 378.125 304.377 377.891C303.871 377.656 303.489 377.31 303.228 376.852C302.973 376.393 302.845 375.685 302.845 374.727V371.211H300.666V370H302.845V366.484H304.298V370H308.181V371.211H304.298V374.703C304.298 375.406 304.382 375.904 304.548 376.195C304.715 376.482 304.936 376.693 305.212 376.828C305.494 376.964 305.824 377.031 306.205 377.031C306.908 377.031 307.647 376.81 308.423 376.367V377.648ZM312.767 378V371.211H310.83V370H312.767V369.594C312.767 368.443 312.897 367.591 313.158 367.039C313.418 366.487 313.819 366.034 314.361 365.68C314.908 365.326 315.629 365.148 316.525 365.148C317.202 365.148 317.89 365.219 318.587 365.359V366.742C317.832 366.492 317.163 366.367 316.58 366.367C316.116 366.367 315.707 366.453 315.353 366.625C314.999 366.797 314.72 367.078 314.517 367.469C314.319 367.854 314.22 368.51 314.22 369.438V370H317.681V371.211H314.22V378H312.767ZM322.72 371.461L322.455 371.266C322.085 371.005 321.723 370.622 321.369 370.117C321.015 369.607 320.837 369.047 320.837 368.438C320.837 367.63 321.155 366.943 321.791 366.375C322.426 365.802 323.233 365.516 324.212 365.516C324.811 365.516 325.351 365.625 325.83 365.844C326.309 366.057 326.679 366.375 326.939 366.797C327.199 367.219 327.33 367.68 327.33 368.18C327.33 368.523 327.27 368.857 327.15 369.18C327.03 369.497 326.851 369.815 326.611 370.133C326.377 370.445 325.908 370.888 325.205 371.461L325.861 371.984C326.627 372.609 327.142 373.148 327.408 373.602C327.673 374.055 327.806 374.562 327.806 375.125C327.806 376 327.489 376.76 326.853 377.406C326.218 378.047 325.265 378.367 323.994 378.367C322.718 378.367 321.762 378.068 321.127 377.469C320.491 376.865 320.173 376.117 320.173 375.227C320.173 373.898 321.022 372.643 322.72 371.461ZM324.212 370.719C324.947 370.161 325.405 369.695 325.587 369.32C325.775 368.945 325.869 368.596 325.869 368.273C325.869 367.883 325.697 367.529 325.353 367.211C325.009 366.888 324.567 366.727 324.025 366.727C323.442 366.727 322.996 366.901 322.689 367.25C322.387 367.599 322.236 367.961 322.236 368.336C322.236 368.701 322.364 369.044 322.619 369.367C322.874 369.69 323.283 370.052 323.845 370.453L324.212 370.719ZM323.814 372.234C322.439 373.292 321.752 374.281 321.752 375.203C321.752 375.75 321.978 376.211 322.431 376.586C322.884 376.961 323.421 377.148 324.041 377.148C324.608 377.148 325.116 376.969 325.564 376.609C326.012 376.25 326.236 375.802 326.236 375.266C326.236 374.74 325.962 374.206 325.416 373.664C324.874 373.122 324.496 372.768 324.283 372.602L323.814 372.234ZM329.816 375.088C329.816 374.848 330.6 374.496 330.6 374.496V374.48C332.008 372.88 333.432 370.656 334.568 368.464L333.576 367.904C332.616 370.08 331.064 372.368 330.584 372.96C330.12 373.552 329.784 373.968 329.464 374.032C329.592 374.32 329.768 374.864 329.816 375.088ZM329.816 375.088C330.12 374.912 330.616 374.752 334.152 373.92C334.12 373.68 334.072 373.248 334.072 372.928L330.28 373.728L329.752 374.128L329.816 375.088ZM329.72 371.248C329.72 371.008 330.424 370.624 330.424 370.624V370.592C331.464 369.136 332.552 367.008 333.32 364.96L332.184 364.56C331.608 366.512 330.536 368.608 330.2 369.136C329.88 369.696 329.608 370.08 329.336 370.144C329.464 370.448 329.656 371.008 329.72 371.248ZM329.72 371.248C329.976 371.12 330.408 371.008 332.92 370.688C332.936 370.448 332.968 370 333.032 369.696L330.248 369.984L329.688 370.352L329.72 371.248ZM329.384 377.152L329.672 378.24C330.968 377.712 332.648 377.04 334.264 376.368L334.056 375.408C332.312 376.064 330.552 376.752 329.384 377.152ZM338.712 371.968V378.768H339.528V371.968H338.712ZM340.664 371.952V378.752H341.48V371.952H340.664ZM342.664 371.408V378.112C342.664 378.24 342.632 378.272 342.52 378.272C342.408 378.272 342.104 378.272 341.752 378.272C341.88 378.512 341.992 378.912 342.04 379.168C342.6 379.168 342.984 379.152 343.272 378.992C343.56 378.832 343.624 378.56 343.624 378.128V371.408H342.664ZM335.368 366.304V369.76C335.368 372.224 335.224 375.776 333.752 378.336C334.008 378.464 334.488 378.816 334.68 379.024C336.216 376.32 336.472 372.384 336.472 369.76V366.304H335.368ZM335.944 366.304V367.312H342.344V369.04H335.944V370.048H343.464V366.304H335.944ZM336.44 371.408V379.152H337.4V372.4H343.176V371.408H336.44ZM336.92 374.768V375.728H343.096V374.768H336.92ZM338.424 364.8C338.76 365.424 339.128 366.272 339.272 366.832L340.44 366.448C340.28 365.904 339.912 365.072 339.544 364.464L338.424 364.8ZM358.616 371.584V371.792C358.296 375.904 357.928 377.536 357.464 377.968C357.32 378.128 357.144 378.16 356.872 378.16C356.568 378.16 355.864 378.16 355.096 378.064C355.272 378.384 355.4 378.848 355.416 379.184C356.2 379.216 356.936 379.216 357.336 379.184C357.816 379.168 358.136 379.04 358.44 378.704C359.016 378.112 359.368 376.448 359.736 372.128C359.752 371.952 359.768 371.584 359.768 371.584H358.616ZM351.832 365.504V366.608H357.768V365.504H351.832ZM352.6 367.616C352.488 369.184 352.264 371.328 352.056 372.624H353.192C353.368 371.376 353.592 369.28 353.72 367.68L352.6 367.616ZM352.392 371.584V372.624H358.968V371.584H352.392ZM351.288 374.736V375.808H357.416V374.736H351.288ZM357.272 365.504V365.648C357.16 367.152 356.84 370.176 356.552 372.272L357.688 372.352C357.976 370.256 358.28 367.44 358.424 365.552L357.592 365.456L357.4 365.504H357.272ZM345.544 365.424V366.528H351.048V365.424H345.544ZM347.112 370.352V371.424H349.528V376.192H347.112V377.264H350.584V370.352H347.112ZM347.608 365.952C347.176 368.624 346.424 371.12 345.192 372.752C345.4 373.072 345.672 373.76 345.752 374.048C347.224 372.128 348.152 369.216 348.728 366.192L347.608 365.952ZM346.584 370.352V378.56H347.64V370.352H346.584ZM362.84 367.136V368.208H366.584V376.512H362.84V377.6H367.704V367.136H362.84ZM362.12 367.136V378.88H363.24V367.136H362.12ZM362.76 371.584V372.656H367.176V371.584H362.76ZM364.568 364.528C364.44 365.36 364.136 366.576 363.864 367.344L364.824 367.584C365.144 366.864 365.544 365.76 365.864 364.768L364.568 364.528ZM369.976 367.088V368.208H374.888V367.088H369.976ZM374.472 367.088V367.344C374.248 374.4 373.992 377.056 373.464 377.632C373.288 377.84 373.096 377.888 372.776 377.888C372.408 377.888 371.448 377.872 370.408 377.792C370.632 378.112 370.776 378.608 370.808 378.96C371.704 379.008 372.648 379.04 373.192 378.976C373.752 378.928 374.12 378.784 374.472 378.32C375.112 377.536 375.336 375.056 375.592 367.712C375.592 367.536 375.592 367.088 375.592 367.088H374.472ZM370.312 364.496C369.8 366.72 368.92 368.928 367.832 370.336C368.12 370.496 368.616 370.832 368.824 371.024C369.928 369.504 370.872 367.152 371.464 364.768L370.312 364.496ZM369.576 371.248C370.456 372.416 371.528 374 372.008 374.976L373.032 374.336C372.52 373.392 371.416 371.84 370.504 370.704L369.576 371.248ZM378.087 381.422V380.062C378.9 380.302 379.585 380.422 380.142 380.422C380.627 380.422 381.038 380.336 381.377 380.164C381.715 379.997 381.978 379.714 382.166 379.312C382.358 378.911 382.455 378.214 382.455 377.219V370.484H378.752V369.273H383.908V376.945C383.908 378.424 383.733 379.451 383.384 380.023C383.035 380.602 382.614 381.016 382.119 381.266C381.624 381.516 380.947 381.641 380.087 381.641C379.468 381.641 378.801 381.568 378.087 381.422ZM382.212 366.125C382.212 365.797 382.322 365.552 382.541 365.391C382.765 365.229 382.978 365.148 383.181 365.148C383.384 365.148 383.595 365.229 383.814 365.391C384.038 365.552 384.15 365.797 384.15 366.125C384.15 366.448 384.038 366.69 383.814 366.852C383.595 367.013 383.384 367.094 383.181 367.094C382.978 367.094 382.765 367.013 382.541 366.852C382.322 366.69 382.212 366.448 382.212 366.125ZM387.666 377.539V376C388.249 376.38 388.866 376.648 389.517 376.805C390.168 376.956 390.72 377.031 391.173 377.031C391.908 377.031 392.436 376.914 392.759 376.68C393.082 376.44 393.244 376.143 393.244 375.789C393.244 375.555 393.168 375.354 393.017 375.188C392.866 375.021 392.491 374.815 391.892 374.57L391.392 374.367L390.384 373.969C389.301 373.547 388.619 373.156 388.337 372.797C388.051 372.443 387.908 372.01 387.908 371.5C387.908 370.781 388.184 370.19 388.736 369.727C389.293 369.263 390.194 369.031 391.439 369.031C392.371 369.031 393.254 369.167 394.087 369.438V370.758C393.129 370.414 392.228 370.242 391.384 370.242C390.77 370.242 390.288 370.352 389.939 370.57C389.595 370.784 389.423 371.052 389.423 371.375C389.423 371.688 389.574 371.938 389.877 372.125C390.173 372.312 390.658 372.529 391.33 372.773L392.314 373.133C393.215 373.461 393.848 373.818 394.212 374.203C394.577 374.589 394.759 375.07 394.759 375.648C394.759 376.404 394.468 377.026 393.884 377.516C393.306 378 392.379 378.242 391.103 378.242C389.989 378.242 388.843 378.008 387.666 377.539ZM400.767 378.242C399.517 378.242 398.517 377.807 397.767 376.938C397.017 376.062 396.642 374.961 396.642 373.633C396.642 372.305 397.017 371.206 397.767 370.336C398.517 369.466 399.517 369.031 400.767 369.031C402.012 369.031 403.009 369.466 403.759 370.336C404.509 371.206 404.884 372.305 404.884 373.633C404.884 374.961 404.509 376.062 403.759 376.938C403.009 377.807 402.012 378.242 400.767 378.242ZM400.767 377.031C401.543 377.031 402.16 376.729 402.619 376.125C403.077 375.521 403.306 374.69 403.306 373.633C403.306 372.581 403.077 371.753 402.619 371.148C402.16 370.544 401.543 370.242 400.767 370.242C399.986 370.242 399.366 370.544 398.908 371.148C398.449 371.753 398.22 372.581 398.22 373.633C398.22 374.69 398.449 375.521 398.908 376.125C399.366 376.729 399.986 377.031 400.767 377.031ZM406.783 378V369.273H408.236V371.18C408.653 370.508 409.155 369.982 409.744 369.602C410.332 369.221 410.921 369.031 411.509 369.031C412.025 369.031 412.494 369.169 412.916 369.445C413.337 369.716 413.632 370.073 413.798 370.516C413.97 370.958 414.056 371.828 414.056 373.125V378H412.603V372.945C412.603 372.107 412.561 371.555 412.478 371.289C412.4 371.018 412.252 370.797 412.033 370.625C411.819 370.453 411.585 370.367 411.33 370.367C410.819 370.367 410.27 370.609 409.681 371.094C409.098 371.578 408.616 372.185 408.236 372.914V378H406.783ZM418.909 369.2V370.304H426.589V369.2H418.909ZM416.301 373.216V374.352H430.093V373.216H416.301ZM422.557 372.016V377.776C422.557 378 422.477 378.064 422.189 378.08C421.901 378.096 420.861 378.096 419.773 378.064C419.981 378.4 420.221 378.912 420.301 379.264C421.661 379.264 422.509 379.248 423.069 379.056C423.645 378.864 423.821 378.512 423.821 377.792V372.016H422.557ZM426.221 369.2V369.44C425.501 370.336 424.077 371.536 422.829 372.208C423.021 372.368 423.341 372.672 423.485 372.896C424.957 372.144 426.541 370.896 427.597 369.728L426.813 369.136L426.541 369.2H426.221ZM422.525 364.544V367.12H423.789V364.544H422.525ZM416.461 366.304V370.064H417.645V367.44H428.653V370.064H429.885V366.304H416.461ZM436.573 371.088V372.192H446.269V371.088H436.573ZM435.341 369.216C434.509 370.96 433.181 372.688 431.837 373.84C432.093 374.064 432.509 374.576 432.669 374.816C434.077 373.536 435.533 371.552 436.477 369.584L435.341 369.216ZM442.909 369.344V377.744C442.909 378.016 442.829 378.096 442.509 378.096C442.205 378.112 441.149 378.128 439.997 378.096C440.173 378.416 440.365 378.928 440.413 379.248C441.869 379.248 442.813 379.232 443.357 379.056C443.901 378.864 444.077 378.512 444.077 377.76V369.344H442.909ZM433.853 366.096V367.12H438.765V366.096H433.853ZM439.997 366.096V367.12H446.125V366.096H439.997ZM434.093 364.512C433.597 366.128 432.749 367.712 431.741 368.752C432.029 368.912 432.541 369.248 432.765 369.424C433.725 368.288 434.669 366.544 435.245 364.8L434.093 364.512ZM440.381 364.512C439.901 366.128 439.037 367.648 437.965 368.624C438.253 368.8 438.749 369.136 438.973 369.312C440.013 368.224 440.973 366.56 441.533 364.784L440.381 364.512ZM434.973 366.912C435.357 367.664 435.837 368.704 436.077 369.296L437.149 368.912C436.893 368.336 436.381 367.328 435.997 366.608L434.973 366.912ZM441.501 366.912C441.965 367.584 442.557 368.512 442.829 369.072L443.885 368.64C443.581 368.08 442.973 367.184 442.493 366.528L441.501 366.912ZM437.501 373.584C438.205 374.608 439.101 375.984 439.517 376.784L440.525 376.176C440.077 375.392 439.165 374.064 438.461 373.072L437.501 373.584ZM434.221 371.856V379.28H435.373V370.736V370.72L434.221 371.856ZM454.493 364.576V379.264H455.757V364.576H454.493ZM448.845 372.112V377.312H450.077V373.232H460.301V377.28H461.581V372.112H448.845ZM450.701 367.504H459.581V369.712H450.701V367.504ZM449.485 366.416V370.768H460.861V366.416H449.485ZM449.597 375.552V376.64H460.813V375.552H449.597ZM464.408 365.148C465.851 365.242 467.067 365.654 468.056 366.383C469.046 367.107 469.835 368.086 470.423 369.32C471.017 370.555 471.314 371.792 471.314 373.031C471.314 374.271 471.017 375.508 470.423 376.742C469.835 377.977 469.046 378.956 468.056 379.68C467.067 380.409 465.851 380.818 464.408 380.906V379.695C465.496 379.591 466.431 379.224 467.212 378.594C467.999 377.964 468.616 377.159 469.064 376.18C469.517 375.201 469.744 374.151 469.744 373.031C469.744 371.911 469.517 370.862 469.064 369.883C468.616 368.904 467.999 368.099 467.212 367.469C466.431 366.833 465.496 366.466 464.408 366.367V365.148Z" fill="black"/>
<path d="M343.987 309.469C344.883 308.01 345.951 306.911 347.191 306.172C348.43 305.432 349.571 305.062 350.612 305.062C352.071 305.062 353.383 305.693 354.55 306.953C355.717 308.214 356.3 310.125 356.3 312.688C356.3 314.708 355.909 316.516 355.128 318.109C354.357 319.693 353.326 320.948 352.034 321.875C350.743 322.792 349.144 323.25 347.237 323.25C346.696 323.25 345.862 323.193 344.737 323.078C344.571 323.057 344.321 323.031 343.987 323H341.081V297.781H343.987V309.469ZM343.987 312.922V320.406C345.04 320.677 346.008 320.812 346.894 320.812C348.654 320.812 350.133 320.125 351.331 318.75C352.54 317.365 353.144 315.474 353.144 313.078C353.144 311.339 352.816 310.031 352.159 309.156C351.503 308.281 350.758 307.844 349.925 307.844C349.019 307.844 348.019 308.302 346.925 309.219C345.842 310.135 344.862 311.37 343.987 312.922ZM367.706 323.484C365.206 323.484 363.206 322.615 361.706 320.875C360.206 319.125 359.456 316.922 359.456 314.266C359.456 311.609 360.206 309.411 361.706 307.672C363.206 305.932 365.206 305.062 367.706 305.062C370.196 305.062 372.191 305.932 373.691 307.672C375.191 309.411 375.941 311.609 375.941 314.266C375.941 316.922 375.191 319.125 373.691 320.875C372.191 322.615 370.196 323.484 367.706 323.484ZM367.706 321.062C369.258 321.062 370.493 320.458 371.409 319.25C372.326 318.042 372.784 316.38 372.784 314.266C372.784 312.161 372.326 310.505 371.409 309.297C370.493 308.089 369.258 307.484 367.706 307.484C366.144 307.484 364.904 308.089 363.987 309.297C363.071 310.505 362.612 312.161 362.612 314.266C362.612 316.38 363.071 318.042 363.987 319.25C364.904 320.458 366.144 321.062 367.706 321.062ZM391.394 319.078C390.508 320.536 389.441 321.635 388.191 322.375C386.951 323.115 385.81 323.484 384.769 323.484C383.31 323.484 381.998 322.854 380.831 321.594C379.675 320.333 379.097 318.422 379.097 315.859C379.097 313.839 379.482 312.036 380.253 310.453C381.024 308.859 382.055 307.604 383.347 306.688C384.639 305.76 386.237 305.297 388.144 305.297C388.696 305.297 389.529 305.354 390.644 305.469C390.81 305.49 391.06 305.516 391.394 305.547V297.781H394.316V323H391.394V319.078ZM391.394 315.625V308.141C390.362 307.87 389.404 307.734 388.519 307.734C386.727 307.734 385.232 308.427 384.034 309.812C382.847 311.198 382.253 313.083 382.253 315.469C382.253 317.198 382.576 318.505 383.222 319.391C383.878 320.266 384.623 320.703 385.456 320.703C386.362 320.703 387.362 320.245 388.456 319.328C389.55 318.411 390.529 317.177 391.394 315.625ZM405.378 322.297L397.316 305.547H400.519L406.941 318.641L412.316 305.547H415.237L408.472 321.766C407.045 325.193 405.685 327.469 404.394 328.594C403.112 329.719 401.451 330.281 399.409 330.281C398.524 330.281 397.732 330.203 397.034 330.047V327.484C397.836 327.734 398.602 327.859 399.331 327.859C400.269 327.859 401.102 327.677 401.831 327.312C402.56 326.948 403.227 326.302 403.831 325.375C404.435 324.448 404.862 323.646 405.112 322.969L405.378 322.297Z" fill="black"/>
<path d="M604.312 140.539V139C604.896 139.38 605.513 139.648 606.164 139.805C606.815 139.956 607.367 140.031 607.82 140.031C608.555 140.031 609.083 139.914 609.406 139.68C609.729 139.44 609.891 139.143 609.891 138.789C609.891 138.555 609.815 138.354 609.664 138.188C609.513 138.021 609.138 137.815 608.539 137.57L608.039 137.367L607.031 136.969C605.948 136.547 605.266 136.156 604.984 135.797C604.698 135.443 604.555 135.01 604.555 134.5C604.555 133.781 604.831 133.19 605.383 132.727C605.94 132.263 606.841 132.031 608.086 132.031C609.018 132.031 609.901 132.167 610.734 132.438V133.758C609.776 133.414 608.875 133.242 608.031 133.242C607.417 133.242 606.935 133.352 606.586 133.57C606.242 133.784 606.07 134.052 606.07 134.375C606.07 134.688 606.221 134.938 606.523 135.125C606.82 135.312 607.305 135.529 607.977 135.773L608.961 136.133C609.862 136.461 610.495 136.818 610.859 137.203C611.224 137.589 611.406 138.07 611.406 138.648C611.406 139.404 611.115 140.026 610.531 140.516C609.953 141 609.026 141.242 607.75 141.242C606.635 141.242 605.49 141.008 604.312 140.539ZM621.078 140.422C619.917 140.974 618.818 141.25 617.781 141.25C616.995 141.25 616.292 141.055 615.672 140.664C615.052 140.273 614.555 139.716 614.18 138.992C613.81 138.263 613.625 137.484 613.625 136.656C613.625 135.859 613.802 135.094 614.156 134.359C614.51 133.625 615.005 133.055 615.641 132.648C616.276 132.237 616.984 132.031 617.766 132.031C618.802 132.031 619.633 132.401 620.258 133.141C620.888 133.88 621.203 135.021 621.203 136.562V136.875H615.188C615.188 137.479 615.312 138.031 615.562 138.531C615.818 139.031 616.151 139.406 616.562 139.656C616.974 139.906 617.443 140.031 617.969 140.031C618.906 140.031 619.943 139.719 621.078 139.094V140.422ZM615.273 135.789H619.625V135.578C619.625 134.865 619.451 134.297 619.102 133.875C618.753 133.453 618.286 133.242 617.703 133.242C617.115 133.242 616.604 133.458 616.172 133.891C615.745 134.318 615.445 134.951 615.273 135.789ZM629.258 139.039C628.815 139.768 628.281 140.318 627.656 140.688C627.036 141.057 626.466 141.242 625.945 141.242C625.216 141.242 624.56 140.927 623.977 140.297C623.398 139.667 623.109 138.711 623.109 137.43C623.109 136.419 623.302 135.518 623.688 134.727C624.073 133.93 624.589 133.302 625.234 132.844C625.88 132.38 626.68 132.148 627.633 132.148C627.909 132.148 628.326 132.177 628.883 132.234C628.966 132.245 629.091 132.258 629.258 132.273H630.719V144.391H629.258V139.039ZM629.258 137.312V133.57C628.742 133.435 628.263 133.367 627.82 133.367C626.924 133.367 626.177 133.714 625.578 134.406C624.984 135.099 624.688 136.042 624.688 137.234C624.688 138.099 624.849 138.753 625.172 139.195C625.5 139.633 625.872 139.852 626.289 139.852C626.742 139.852 627.242 139.622 627.789 139.164C628.336 138.706 628.826 138.089 629.258 137.312Z" fill="black"/>
<path d="M452.805 141.242C451.555 141.242 450.555 140.807 449.805 139.938C449.055 139.062 448.68 137.961 448.68 136.633C448.68 135.305 449.055 134.206 449.805 133.336C450.555 132.466 451.555 132.031 452.805 132.031C454.049 132.031 455.047 132.466 455.797 133.336C456.547 134.206 456.922 135.305 456.922 136.633C456.922 137.961 456.547 139.062 455.797 139.938C455.047 140.807 454.049 141.242 452.805 141.242ZM452.805 140.031C453.581 140.031 454.198 139.729 454.656 139.125C455.115 138.521 455.344 137.69 455.344 136.633C455.344 135.581 455.115 134.753 454.656 134.148C454.198 133.544 453.581 133.242 452.805 133.242C452.023 133.242 451.404 133.544 450.945 134.148C450.487 134.753 450.258 135.581 450.258 136.633C450.258 137.69 450.487 138.521 450.945 139.125C451.404 139.729 452.023 140.031 452.805 140.031ZM460.164 134.234C460.612 133.505 461.146 132.956 461.766 132.586C462.385 132.216 462.956 132.031 463.477 132.031C464.206 132.031 464.862 132.346 465.445 132.977C466.029 133.607 466.32 134.562 466.32 135.844C466.32 136.854 466.125 137.758 465.734 138.555C465.349 139.346 464.833 139.974 464.188 140.438C463.542 140.896 462.742 141.125 461.789 141.125C461.518 141.125 461.102 141.096 460.539 141.039C460.456 141.029 460.331 141.016 460.164 141V144.391H458.711V132.273H460.164V134.234ZM460.164 135.961V139.703C460.69 139.839 461.174 139.906 461.617 139.906C462.497 139.906 463.237 139.562 463.836 138.875C464.44 138.182 464.742 137.237 464.742 136.039C464.742 135.169 464.578 134.516 464.25 134.078C463.922 133.641 463.549 133.422 463.133 133.422C462.68 133.422 462.18 133.651 461.633 134.109C461.091 134.568 460.602 135.185 460.164 135.961Z" fill="black"/>
<path d="M306.555 134.234C307.003 133.505 307.536 132.956 308.156 132.586C308.776 132.216 309.346 132.031 309.867 132.031C310.596 132.031 311.253 132.346 311.836 132.977C312.419 133.607 312.711 134.562 312.711 135.844C312.711 136.854 312.516 137.758 312.125 138.555C311.74 139.346 311.224 139.974 310.578 140.438C309.932 140.896 309.133 141.125 308.18 141.125C307.909 141.125 307.492 141.096 306.93 141.039C306.846 141.029 306.721 141.016 306.555 141V144.391H305.102V132.273H306.555V134.234ZM306.555 135.961V139.703C307.081 139.839 307.565 139.906 308.008 139.906C308.888 139.906 309.628 139.562 310.227 138.875C310.831 138.182 311.133 137.237 311.133 136.039C311.133 135.169 310.969 134.516 310.641 134.078C310.312 133.641 309.94 133.422 309.523 133.422C309.07 133.422 308.57 133.651 308.023 134.109C307.482 134.568 306.992 135.185 306.555 135.961ZM315.562 141V132.273H317.016V134.18C317.469 133.461 317.987 132.924 318.57 132.57C319.159 132.211 319.812 132.031 320.531 132.031C321.057 132.031 321.583 132.112 322.109 132.273V135.422H320.711V133.43C320.466 133.388 320.273 133.367 320.133 133.367C319.591 133.367 319.06 133.581 318.539 134.008C318.018 134.435 317.51 135.076 317.016 135.93V141H315.562ZM328.023 141.242C326.773 141.242 325.773 140.807 325.023 139.938C324.273 139.062 323.898 137.961 323.898 136.633C323.898 135.305 324.273 134.206 325.023 133.336C325.773 132.466 326.773 132.031 328.023 132.031C329.268 132.031 330.266 132.466 331.016 133.336C331.766 134.206 332.141 135.305 332.141 136.633C332.141 137.961 331.766 139.062 331.016 139.938C330.266 140.807 329.268 141.242 328.023 141.242ZM328.023 140.031C328.799 140.031 329.417 139.729 329.875 139.125C330.333 138.521 330.562 137.69 330.562 136.633C330.562 135.581 330.333 134.753 329.875 134.148C329.417 133.544 328.799 133.242 328.023 133.242C327.242 133.242 326.622 133.544 326.164 134.148C325.706 134.753 325.477 135.581 325.477 136.633C325.477 137.69 325.706 138.521 326.164 139.125C326.622 139.729 327.242 140.031 328.023 140.031ZM341.336 140.648C340.654 140.935 340.159 141.104 339.852 141.156C339.544 141.214 339.247 141.242 338.961 141.242C338.352 141.242 337.794 141.125 337.289 140.891C336.784 140.656 336.401 140.31 336.141 139.852C335.885 139.393 335.758 138.685 335.758 137.727V134.211H333.578V133H335.758V129.484H337.211V133H341.094V134.211H337.211V137.703C337.211 138.406 337.294 138.904 337.461 139.195C337.628 139.482 337.849 139.693 338.125 139.828C338.406 139.964 338.737 140.031 339.117 140.031C339.82 140.031 340.56 139.81 341.336 139.367V140.648ZM347.242 141.242C345.992 141.242 344.992 140.807 344.242 139.938C343.492 139.062 343.117 137.961 343.117 136.633C343.117 135.305 343.492 134.206 344.242 133.336C344.992 132.466 345.992 132.031 347.242 132.031C348.487 132.031 349.484 132.466 350.234 133.336C350.984 134.206 351.359 135.305 351.359 136.633C351.359 137.961 350.984 139.062 350.234 139.938C349.484 140.807 348.487 141.242 347.242 141.242ZM347.242 140.031C348.018 140.031 348.635 139.729 349.094 139.125C349.552 138.521 349.781 137.69 349.781 136.633C349.781 135.581 349.552 134.753 349.094 134.148C348.635 133.544 348.018 133.242 347.242 133.242C346.461 133.242 345.841 133.544 345.383 134.148C344.924 134.753 344.695 135.581 344.695 136.633C344.695 137.69 344.924 138.521 345.383 139.125C345.841 139.729 346.461 140.031 347.242 140.031ZM359.883 128.875H361.398L357.664 141H356.062L352.305 128.875H353.969L356.602 137.344L356.945 138.578L357.25 137.352L359.883 128.875ZM370.125 140.422C368.964 140.974 367.865 141.25 366.828 141.25C366.042 141.25 365.339 141.055 364.719 140.664C364.099 140.273 363.602 139.716 363.227 138.992C362.857 138.263 362.672 137.484 362.672 136.656C362.672 135.859 362.849 135.094 363.203 134.359C363.557 133.625 364.052 133.055 364.688 132.648C365.323 132.237 366.031 132.031 366.812 132.031C367.849 132.031 368.68 132.401 369.305 133.141C369.935 133.88 370.25 135.021 370.25 136.562V136.875H364.234C364.234 137.479 364.359 138.031 364.609 138.531C364.865 139.031 365.198 139.406 365.609 139.656C366.021 139.906 366.49 140.031 367.016 140.031C367.953 140.031 368.99 139.719 370.125 139.094V140.422ZM364.32 135.789H368.672V135.578C368.672 134.865 368.497 134.297 368.148 133.875C367.799 133.453 367.333 133.242 366.75 133.242C366.161 133.242 365.651 133.458 365.219 133.891C364.792 134.318 364.492 134.951 364.32 135.789ZM373.219 141V132.273H374.672V134.18C375.125 133.461 375.643 132.924 376.227 132.57C376.815 132.211 377.469 132.031 378.188 132.031C378.714 132.031 379.24 132.112 379.766 132.273V135.422H378.367V133.43C378.122 133.388 377.93 133.367 377.789 133.367C377.247 133.367 376.716 133.581 376.195 134.008C375.674 134.435 375.167 135.076 374.672 135.93V141H373.219Z" fill="black"/>
<path d="M240.211 141V128.391H241.664V134.18C242.081 133.508 242.583 132.982 243.172 132.602C243.76 132.221 244.349 132.031 244.938 132.031C245.432 132.031 245.883 132.159 246.289 132.414C246.701 132.664 246.987 132.969 247.148 133.328C247.279 133.604 247.367 133.898 247.414 134.211C247.461 134.518 247.484 135.156 247.484 136.125V141H246.031V135.945C246.031 135.107 245.99 134.555 245.906 134.289C245.828 134.018 245.68 133.797 245.461 133.625C245.247 133.453 245.013 133.367 244.758 133.367C244.247 133.367 243.698 133.609 243.109 134.094C242.526 134.578 242.044 135.185 241.664 135.914V141H240.211ZM256.867 139.664V141H250.32V128.875H251.898V139.664H256.867ZM266.688 140.422C265.526 140.974 264.427 141.25 263.391 141.25C262.604 141.25 261.901 141.055 261.281 140.664C260.661 140.273 260.164 139.716 259.789 138.992C259.419 138.263 259.234 137.484 259.234 136.656C259.234 135.859 259.411 135.094 259.766 134.359C260.12 133.625 260.615 133.055 261.25 132.648C261.885 132.237 262.594 132.031 263.375 132.031C264.411 132.031 265.242 132.401 265.867 133.141C266.497 133.88 266.812 135.021 266.812 136.562V136.875H260.797C260.797 137.479 260.922 138.031 261.172 138.531C261.427 139.031 261.76 139.406 262.172 139.656C262.583 139.906 263.052 140.031 263.578 140.031C264.516 140.031 265.552 139.719 266.688 139.094V140.422ZM260.883 135.789H265.234V135.578C265.234 134.865 265.06 134.297 264.711 133.875C264.362 133.453 263.896 133.242 263.312 133.242C262.724 133.242 262.214 133.458 261.781 133.891C261.354 134.318 261.055 134.951 260.883 135.789ZM269.039 141V132.273H270.492V134.18C270.909 133.508 271.411 132.982 272 132.602C272.589 132.221 273.177 132.031 273.766 132.031C274.281 132.031 274.75 132.169 275.172 132.445C275.594 132.716 275.888 133.073 276.055 133.516C276.227 133.958 276.312 134.828 276.312 136.125V141H274.859V135.945C274.859 135.107 274.818 134.555 274.734 134.289C274.656 134.018 274.508 133.797 274.289 133.625C274.076 133.453 273.841 133.367 273.586 133.367C273.076 133.367 272.526 133.609 271.938 134.094C271.354 134.578 270.872 135.185 270.492 135.914V141H269.039Z" fill="black"/>
<path d="M97.5547 134.234C98.0026 133.505 98.5365 132.956 99.1562 132.586C99.776 132.216 100.346 132.031 100.867 132.031C101.596 132.031 102.253 132.346 102.836 132.977C103.419 133.607 103.711 134.562 103.711 135.844C103.711 136.854 103.516 137.758 103.125 138.555C102.74 139.346 102.224 139.974 101.578 140.438C100.932 140.896 100.133 141.125 99.1797 141.125C98.9089 141.125 98.4922 141.096 97.9297 141.039C97.8464 141.029 97.7214 141.016 97.5547 141V144.391H96.1016V132.273H97.5547V134.234ZM97.5547 135.961V139.703C98.0807 139.839 98.5651 139.906 99.0078 139.906C99.888 139.906 100.628 139.562 101.227 138.875C101.831 138.182 102.133 137.237 102.133 136.039C102.133 135.169 101.969 134.516 101.641 134.078C101.312 133.641 100.94 133.422 100.523 133.422C100.07 133.422 99.5703 133.651 99.0234 134.109C98.4818 134.568 97.9922 135.185 97.5547 135.961ZM111.555 139.039C111.112 139.768 110.578 140.318 109.953 140.688C109.333 141.057 108.763 141.242 108.242 141.242C107.513 141.242 106.857 140.927 106.273 140.297C105.695 139.667 105.406 138.711 105.406 137.43C105.406 136.419 105.599 135.518 105.984 134.727C106.37 133.93 106.885 133.302 107.531 132.844C108.177 132.38 108.977 132.148 109.93 132.148C110.206 132.148 110.622 132.177 111.18 132.234C111.263 132.245 111.388 132.258 111.555 132.273H113.016V138.438C113.016 139.49 113.125 140.344 113.344 141H111.828C111.714 140.521 111.622 139.867 111.555 139.039ZM111.555 137.312V133.57C111.039 133.435 110.56 133.367 110.117 133.367C109.221 133.367 108.474 133.714 107.875 134.406C107.281 135.099 106.984 136.042 106.984 137.234C106.984 138.099 107.146 138.753 107.469 139.195C107.797 139.633 108.169 139.852 108.586 139.852C109.039 139.852 109.539 139.622 110.086 139.164C110.633 138.706 111.122 138.089 111.555 137.312ZM122.773 140.75C121.799 141.078 120.872 141.242 119.992 141.242C119.117 141.242 118.339 141.042 117.656 140.641C116.979 140.234 116.451 139.688 116.07 139C115.69 138.307 115.5 137.521 115.5 136.641C115.5 135.318 115.93 134.219 116.789 133.344C117.654 132.469 118.695 132.031 119.914 132.031C120.815 132.031 121.768 132.201 122.773 132.539V133.938C121.758 133.474 120.849 133.242 120.047 133.242C119.516 133.242 119.016 133.375 118.547 133.641C118.078 133.901 117.716 134.31 117.461 134.867C117.206 135.424 117.078 135.997 117.078 136.586C117.078 137.372 117.323 138.122 117.812 138.836C118.307 139.549 119.081 139.906 120.133 139.906C120.451 139.906 120.763 139.885 121.07 139.844C121.378 139.797 121.945 139.633 122.773 139.352V140.75ZM125.43 141V128.391H126.883V136.312L131.078 132.273H133.016L128.828 136.312L133.125 141H131.125L126.883 136.312V141H125.43ZM141.906 140.422C140.745 140.974 139.646 141.25 138.609 141.25C137.823 141.25 137.12 141.055 136.5 140.664C135.88 140.273 135.383 139.716 135.008 138.992C134.638 138.263 134.453 137.484 134.453 136.656C134.453 135.859 134.63 135.094 134.984 134.359C135.339 133.625 135.833 133.055 136.469 132.648C137.104 132.237 137.812 132.031 138.594 132.031C139.63 132.031 140.461 132.401 141.086 133.141C141.716 133.88 142.031 135.021 142.031 136.562V136.875H136.016C136.016 137.479 136.141 138.031 136.391 138.531C136.646 139.031 136.979 139.406 137.391 139.656C137.802 139.906 138.271 140.031 138.797 140.031C139.734 140.031 140.771 139.719 141.906 139.094V140.422ZM136.102 135.789H140.453V135.578C140.453 134.865 140.279 134.297 139.93 133.875C139.581 133.453 139.115 133.242 138.531 133.242C137.943 133.242 137.432 133.458 137 133.891C136.573 134.318 136.273 134.951 136.102 135.789ZM151.555 140.648C150.872 140.935 150.378 141.104 150.07 141.156C149.763 141.214 149.466 141.242 149.18 141.242C148.57 141.242 148.013 141.125 147.508 140.891C147.003 140.656 146.62 140.31 146.359 139.852C146.104 139.393 145.977 138.685 145.977 137.727V134.211H143.797V133H145.977V129.484H147.43V133H151.312V134.211H147.43V137.703C147.43 138.406 147.513 138.904 147.68 139.195C147.846 139.482 148.068 139.693 148.344 139.828C148.625 139.964 148.956 140.031 149.336 140.031C150.039 140.031 150.779 139.81 151.555 139.367V140.648ZM160.914 139.664V141H154.367V128.875H155.945V139.664H160.914ZM170.734 140.422C169.573 140.974 168.474 141.25 167.438 141.25C166.651 141.25 165.948 141.055 165.328 140.664C164.708 140.273 164.211 139.716 163.836 138.992C163.466 138.263 163.281 137.484 163.281 136.656C163.281 135.859 163.458 135.094 163.812 134.359C164.167 133.625 164.661 133.055 165.297 132.648C165.932 132.237 166.641 132.031 167.422 132.031C168.458 132.031 169.289 132.401 169.914 133.141C170.544 133.88 170.859 135.021 170.859 136.562V136.875H164.844C164.844 137.479 164.969 138.031 165.219 138.531C165.474 139.031 165.807 139.406 166.219 139.656C166.63 139.906 167.099 140.031 167.625 140.031C168.562 140.031 169.599 139.719 170.734 139.094V140.422ZM164.93 135.789H169.281V135.578C169.281 134.865 169.107 134.297 168.758 133.875C168.409 133.453 167.943 133.242 167.359 133.242C166.771 133.242 166.26 133.458 165.828 133.891C165.401 134.318 165.102 134.951 164.93 135.789ZM173.086 141V132.273H174.539V134.18C174.956 133.508 175.458 132.982 176.047 132.602C176.635 132.221 177.224 132.031 177.812 132.031C178.328 132.031 178.797 132.169 179.219 132.445C179.641 132.716 179.935 133.073 180.102 133.516C180.273 133.958 180.359 134.828 180.359 136.125V141H178.906V135.945C178.906 135.107 178.865 134.555 178.781 134.289C178.703 134.018 178.555 133.797 178.336 133.625C178.122 133.453 177.888 133.367 177.633 133.367C177.122 133.367 176.573 133.609 175.984 134.094C175.401 134.578 174.919 135.185 174.539 135.914V141H173.086Z" fill="black"/>
<mask id="path-9-outside-1_10_22" maskUnits="userSpaceOnUse" x="537" y="158" width="162" height="52" fill="black">
<rect fill="white" x="537" y="158" width="162" height="52"/>
<path fill-rule="evenodd" clip-rule="evenodd" d="M618 159H538V209H618H698V159H618Z"/>
</mask>
<path fill-rule="evenodd" clip-rule="evenodd" d="M618 159H538V209H618H698V159H618Z" fill="#D9D9D9"/>
<path d="M538 159V158H537V159H538ZM538 209H537V210H538V209ZM698 209V210H699V209H698ZM698 159H699V158H698V159ZM538 160H618V158H538V160ZM539 209V159H537V209H539ZM618 208H538V210H618V208ZM698 208H618V210H698V208ZM697 159V209H699V159H697ZM618 160H698V158H618V160Z" fill="black" mask="url(#path-9-outside-1_10_22)"/>
<mask id="path-11-outside-2_10_22" maskUnits="userSpaceOnUse" x="377" y="158" width="162" height="52" fill="black">
<rect fill="white" x="377" y="158" width="162" height="52"/>
<path fill-rule="evenodd" clip-rule="evenodd" d="M458 159H378V209H458H538V159H458Z"/>
</mask>
<path fill-rule="evenodd" clip-rule="evenodd" d="M458 159H378V209H458H538V159H458Z" fill="#D9D9D9"/>
<path d="M378 159V158H377V159H378ZM378 209H377V210H378V209ZM538 209V210H539V209H538ZM538 159H539V158H538V159ZM378 160H458V158H378V160ZM379 209V159H377V209H379ZM458 208H378V210H458V208ZM538 208H458V210H538V208ZM537 159V209H539V159H537ZM458 160H538V158H458V160Z" fill="black" mask="url(#path-11-outside-2_10_22)"/>
<mask id="path-13-outside-3_10_22" maskUnits="userSpaceOnUse" x="57" y="158" width="162" height="52" fill="black">
<rect fill="white" x="57" y="158" width="162" height="52"/>
<path fill-rule="evenodd" clip-rule="evenodd" d="M138 159H58V209H138H218V159H138Z"/>
</mask>
<path fill-rule="evenodd" clip-rule="evenodd" d="M138 159H58V209H138H218V159H138Z" fill="#D9D9D9"/>
<path d="M58 159V158H57V159H58ZM58 209H57V210H58V209ZM218 209V210H219V209H218ZM218 159H219V158H218V159ZM58 160H138V158H58V160ZM59 209V159H57V209H59ZM138 208H58V210H138V208ZM218 208H138V210H218V208ZM217 159V209H219V159H217ZM138 160H218V158H138V160Z" fill="black" mask="url(#path-13-outside-3_10_22)"/>
<rect x="217.5" y="158.5" width="81" height="51" fill="#D9D9D9" stroke="black"/>
<rect x="297.5" y="158.5" width="81" height="51" fill="#D9D9D9" stroke="black"/>
<path d="M242.656 191V183.484H240.234V182.273H244.109V189.789H246.539V191H242.656ZM242.414 179.125C242.414 178.797 242.526 178.552 242.75 178.391C242.974 178.229 243.185 178.148 243.383 178.148C243.586 178.148 243.799 178.229 244.023 178.391C244.247 178.552 244.359 178.797 244.359 179.125C244.359 179.448 244.247 179.69 244.023 179.852C243.799 180.013 243.586 180.094 243.383 180.094C243.185 180.094 242.974 180.013 242.75 179.852C242.526 179.69 242.414 179.448 242.414 179.125ZM249.82 191V182.273H251.273V184.18C251.69 183.508 252.193 182.982 252.781 182.602C253.37 182.221 253.958 182.031 254.547 182.031C255.062 182.031 255.531 182.169 255.953 182.445C256.375 182.716 256.669 183.073 256.836 183.516C257.008 183.958 257.094 184.828 257.094 186.125V191H255.641V185.945C255.641 185.107 255.599 184.555 255.516 184.289C255.438 184.018 255.289 183.797 255.07 183.625C254.857 183.453 254.622 183.367 254.367 183.367C253.857 183.367 253.307 183.609 252.719 184.094C252.135 184.578 251.654 185.185 251.273 185.914V191H249.82ZM266.727 190.648C266.044 190.935 265.549 191.104 265.242 191.156C264.935 191.214 264.638 191.242 264.352 191.242C263.742 191.242 263.185 191.125 262.68 190.891C262.174 190.656 261.792 190.31 261.531 189.852C261.276 189.393 261.148 188.685 261.148 187.727V184.211H258.969V183H261.148V179.484H262.602V183H266.484V184.211H262.602V187.703C262.602 188.406 262.685 188.904 262.852 189.195C263.018 189.482 263.24 189.693 263.516 189.828C263.797 189.964 264.128 190.031 264.508 190.031C265.211 190.031 265.951 189.81 266.727 189.367V190.648ZM272.266 189.789V180.43C271.828 180.779 271.404 181.076 270.992 181.32C270.581 181.565 270.016 181.815 269.297 182.07V180.758C270.438 180.273 271.427 179.646 272.266 178.875H273.719V189.789H276.633V191H269.297V189.789H272.266ZM279.719 185.312C280.094 184.755 280.557 184.302 281.109 183.953C281.667 183.599 282.279 183.422 282.945 183.422C283.576 183.422 284.172 183.576 284.734 183.883C285.302 184.19 285.734 184.62 286.031 185.172C286.328 185.719 286.477 186.357 286.477 187.086C286.477 188.237 286.107 189.24 285.367 190.094C284.633 190.943 283.664 191.367 282.461 191.367C281.044 191.367 279.984 190.776 279.281 189.594C278.583 188.406 278.234 186.898 278.234 185.07C278.234 183.049 278.68 181.453 279.57 180.281C280.461 179.104 281.667 178.516 283.188 178.516C284.005 178.516 284.799 178.635 285.57 178.875V180.344C284.706 179.932 283.891 179.727 283.125 179.727C282.042 179.727 281.203 180.224 280.609 181.219C280.016 182.214 279.719 183.474 279.719 185V185.312ZM282.57 190.156C282.961 190.156 283.354 190.042 283.75 189.812C284.146 189.578 284.456 189.221 284.68 188.742C284.909 188.258 285.023 187.732 285.023 187.164C285.023 186.424 284.831 185.818 284.445 185.344C284.065 184.87 283.521 184.633 282.812 184.633C282.078 184.633 281.474 184.909 281 185.461C280.531 186.008 280.297 186.674 280.297 187.461C280.297 188.253 280.526 188.901 280.984 189.406C281.448 189.906 281.977 190.156 282.57 190.156Z" fill="black"/>
<path d="M317.656 191V183.484H315.234V182.273H319.109V189.789H321.539V191H317.656ZM317.414 179.125C317.414 178.797 317.526 178.552 317.75 178.391C317.974 178.229 318.185 178.148 318.383 178.148C318.586 178.148 318.799 178.229 319.023 178.391C319.247 178.552 319.359 178.797 319.359 179.125C319.359 179.448 319.247 179.69 319.023 179.852C318.799 180.013 318.586 180.094 318.383 180.094C318.185 180.094 317.974 180.013 317.75 179.852C317.526 179.69 317.414 179.448 317.414 179.125ZM324.82 191V182.273H326.273V184.18C326.69 183.508 327.193 182.982 327.781 182.602C328.37 182.221 328.958 182.031 329.547 182.031C330.062 182.031 330.531 182.169 330.953 182.445C331.375 182.716 331.669 183.073 331.836 183.516C332.008 183.958 332.094 184.828 332.094 186.125V191H330.641V185.945C330.641 185.107 330.599 184.555 330.516 184.289C330.438 184.018 330.289 183.797 330.07 183.625C329.857 183.453 329.622 183.367 329.367 183.367C328.857 183.367 328.307 183.609 327.719 184.094C327.135 184.578 326.654 185.185 326.273 185.914V191H324.82ZM341.727 190.648C341.044 190.935 340.549 191.104 340.242 191.156C339.935 191.214 339.638 191.242 339.352 191.242C338.742 191.242 338.185 191.125 337.68 190.891C337.174 190.656 336.792 190.31 336.531 189.852C336.276 189.393 336.148 188.685 336.148 187.727V184.211H333.969V183H336.148V179.484H337.602V183H341.484V184.211H337.602V187.703C337.602 188.406 337.685 188.904 337.852 189.195C338.018 189.482 338.24 189.693 338.516 189.828C338.797 189.964 339.128 190.031 339.508 190.031C340.211 190.031 340.951 189.81 341.727 189.367V190.648ZM347.266 189.789V180.43C346.828 180.779 346.404 181.076 345.992 181.32C345.581 181.565 345.016 181.815 344.297 182.07V180.758C345.438 180.273 346.427 179.646 347.266 178.875H348.719V189.789H351.633V191H344.297V189.789H347.266ZM354.719 185.312C355.094 184.755 355.557 184.302 356.109 183.953C356.667 183.599 357.279 183.422 357.945 183.422C358.576 183.422 359.172 183.576 359.734 183.883C360.302 184.19 360.734 184.62 361.031 185.172C361.328 185.719 361.477 186.357 361.477 187.086C361.477 188.237 361.107 189.24 360.367 190.094C359.633 190.943 358.664 191.367 357.461 191.367C356.044 191.367 354.984 190.776 354.281 189.594C353.583 188.406 353.234 186.898 353.234 185.07C353.234 183.049 353.68 181.453 354.57 180.281C355.461 179.104 356.667 178.516 358.188 178.516C359.005 178.516 359.799 178.635 360.57 178.875V180.344C359.706 179.932 358.891 179.727 358.125 179.727C357.042 179.727 356.203 180.224 355.609 181.219C355.016 182.214 354.719 183.474 354.719 185V185.312ZM357.57 190.156C357.961 190.156 358.354 190.042 358.75 189.812C359.146 189.578 359.456 189.221 359.68 188.742C359.909 188.258 360.023 187.732 360.023 187.164C360.023 186.424 359.831 185.818 359.445 185.344C359.065 184.87 358.521 184.633 357.812 184.633C357.078 184.633 356.474 184.909 356 185.461C355.531 186.008 355.297 186.674 355.297 187.461C355.297 188.253 355.526 188.901 355.984 189.406C356.448 189.906 356.977 190.156 357.57 190.156Z" fill="black"/>
<path d="M117.656 191V183.484H115.234V182.273H119.109V189.789H121.539V191H117.656ZM117.414 179.125C117.414 178.797 117.526 178.552 117.75 178.391C117.974 178.229 118.185 178.148 118.383 178.148C118.586 178.148 118.799 178.229 119.023 178.391C119.247 178.552 119.359 178.797 119.359 179.125C119.359 179.448 119.247 179.69 119.023 179.852C118.799 180.013 118.586 180.094 118.383 180.094C118.185 180.094 117.974 180.013 117.75 179.852C117.526 179.69 117.414 179.448 117.414 179.125ZM124.82 191V182.273H126.273V184.18C126.69 183.508 127.193 182.982 127.781 182.602C128.37 182.221 128.958 182.031 129.547 182.031C130.062 182.031 130.531 182.169 130.953 182.445C131.375 182.716 131.669 183.073 131.836 183.516C132.008 183.958 132.094 184.828 132.094 186.125V191H130.641V185.945C130.641 185.107 130.599 184.555 130.516 184.289C130.438 184.018 130.289 183.797 130.07 183.625C129.857 183.453 129.622 183.367 129.367 183.367C128.857 183.367 128.307 183.609 127.719 184.094C127.135 184.578 126.654 185.185 126.273 185.914V191H124.82ZM141.727 190.648C141.044 190.935 140.549 191.104 140.242 191.156C139.935 191.214 139.638 191.242 139.352 191.242C138.742 191.242 138.185 191.125 137.68 190.891C137.174 190.656 136.792 190.31 136.531 189.852C136.276 189.393 136.148 188.685 136.148 187.727V184.211H133.969V183H136.148V179.484H137.602V183H141.484V184.211H137.602V187.703C137.602 188.406 137.685 188.904 137.852 189.195C138.018 189.482 138.24 189.693 138.516 189.828C138.797 189.964 139.128 190.031 139.508 190.031C140.211 190.031 140.951 189.81 141.727 189.367V190.648ZM143.961 190.781V189.25C145.154 189.854 146.188 190.156 147.062 190.156C147.865 190.156 148.526 189.914 149.047 189.43C149.573 188.94 149.836 188.312 149.836 187.547C149.836 186.776 149.547 186.148 148.969 185.664C148.396 185.18 147.419 184.938 146.039 184.938H145.234V183.727H146.352C147.367 183.727 148.102 183.5 148.555 183.047C149.008 182.589 149.234 182.081 149.234 181.523C149.234 181.018 149.049 180.594 148.68 180.25C148.31 179.901 147.742 179.727 146.977 179.727C146.117 179.727 145.193 179.969 144.203 180.453V179.07C145.193 178.701 146.099 178.516 146.922 178.516C148.396 178.516 149.411 178.807 149.969 179.391C150.531 179.969 150.812 180.63 150.812 181.375C150.812 181.927 150.664 182.445 150.367 182.93C150.07 183.414 149.523 183.846 148.727 184.227C149.43 184.435 149.961 184.69 150.32 184.992C150.68 185.294 150.951 185.651 151.133 186.062C151.32 186.474 151.414 186.935 151.414 187.445C151.414 188.581 150.992 189.518 150.148 190.258C149.31 190.997 148.224 191.367 146.891 191.367C146.505 191.367 146.083 191.339 145.625 191.281C145.172 191.224 144.617 191.057 143.961 190.781ZM160.938 191H153.602V189.664C153.602 189.32 153.672 188.953 153.812 188.562C153.953 188.167 154.221 187.724 154.617 187.234C155.013 186.745 155.432 186.273 155.875 185.82L156.703 184.977C156.87 184.805 157.234 184.406 157.797 183.781C158.359 183.156 158.729 182.677 158.906 182.344C159.089 182.01 159.18 181.682 159.18 181.359C159.18 180.839 158.971 180.438 158.555 180.156C158.138 179.87 157.669 179.727 157.148 179.727C156.852 179.727 156.518 179.76 156.148 179.828C155.784 179.896 155.464 179.977 155.188 180.07C154.911 180.159 154.464 180.344 153.844 180.625V179.336C154.5 179.023 155.156 178.81 155.812 178.695C156.474 178.576 157.018 178.516 157.445 178.516C158.076 178.516 158.654 178.62 159.18 178.828C159.711 179.031 160.104 179.349 160.359 179.781C160.62 180.214 160.75 180.674 160.75 181.164C160.75 181.711 160.583 182.271 160.25 182.844C159.922 183.417 159.299 184.154 158.383 185.055L157.492 185.938L156.742 186.672C156.268 187.151 155.885 187.615 155.594 188.062C155.302 188.51 155.141 189.044 155.109 189.664H160.938V191Z" fill="black"/>
<path d="M436.656 191V183.484H434.234V182.273H438.109V189.789H440.539V191H436.656ZM436.414 179.125C436.414 178.797 436.526 178.552 436.75 178.391C436.974 178.229 437.185 178.148 437.383 178.148C437.586 178.148 437.799 178.229 438.023 178.391C438.247 178.552 438.359 178.797 438.359 179.125C438.359 179.448 438.247 179.69 438.023 179.852C437.799 180.013 437.586 180.094 437.383 180.094C437.185 180.094 436.974 180.013 436.75 179.852C436.526 179.69 436.414 179.448 436.414 179.125ZM443.82 191V182.273H445.273V184.18C445.69 183.508 446.193 182.982 446.781 182.602C447.37 182.221 447.958 182.031 448.547 182.031C449.062 182.031 449.531 182.169 449.953 182.445C450.375 182.716 450.669 183.073 450.836 183.516C451.008 183.958 451.094 184.828 451.094 186.125V191H449.641V185.945C449.641 185.107 449.599 184.555 449.516 184.289C449.438 184.018 449.289 183.797 449.07 183.625C448.857 183.453 448.622 183.367 448.367 183.367C447.857 183.367 447.307 183.609 446.719 184.094C446.135 184.578 445.654 185.185 445.273 185.914V191H443.82ZM460.727 190.648C460.044 190.935 459.549 191.104 459.242 191.156C458.935 191.214 458.638 191.242 458.352 191.242C457.742 191.242 457.185 191.125 456.68 190.891C456.174 190.656 455.792 190.31 455.531 189.852C455.276 189.393 455.148 188.685 455.148 187.727V184.211H452.969V183H455.148V179.484H456.602V183H460.484V184.211H456.602V187.703C456.602 188.406 456.685 188.904 456.852 189.195C457.018 189.482 457.24 189.693 457.516 189.828C457.797 189.964 458.128 190.031 458.508 190.031C459.211 190.031 459.951 189.81 460.727 189.367V190.648ZM462.961 190.781V189.25C464.154 189.854 465.188 190.156 466.062 190.156C466.865 190.156 467.526 189.914 468.047 189.43C468.573 188.94 468.836 188.312 468.836 187.547C468.836 186.776 468.547 186.148 467.969 185.664C467.396 185.18 466.419 184.938 465.039 184.938H464.234V183.727H465.352C466.367 183.727 467.102 183.5 467.555 183.047C468.008 182.589 468.234 182.081 468.234 181.523C468.234 181.018 468.049 180.594 467.68 180.25C467.31 179.901 466.742 179.727 465.977 179.727C465.117 179.727 464.193 179.969 463.203 180.453V179.07C464.193 178.701 465.099 178.516 465.922 178.516C467.396 178.516 468.411 178.807 468.969 179.391C469.531 179.969 469.812 180.63 469.812 181.375C469.812 181.927 469.664 182.445 469.367 182.93C469.07 183.414 468.523 183.846 467.727 184.227C468.43 184.435 468.961 184.69 469.32 184.992C469.68 185.294 469.951 185.651 470.133 186.062C470.32 186.474 470.414 186.935 470.414 187.445C470.414 188.581 469.992 189.518 469.148 190.258C468.31 190.997 467.224 191.367 465.891 191.367C465.505 191.367 465.083 191.339 464.625 191.281C464.172 191.224 463.617 191.057 462.961 190.781ZM479.938 191H472.602V189.664C472.602 189.32 472.672 188.953 472.812 188.562C472.953 188.167 473.221 187.724 473.617 187.234C474.013 186.745 474.432 186.273 474.875 185.82L475.703 184.977C475.87 184.805 476.234 184.406 476.797 183.781C477.359 183.156 477.729 182.677 477.906 182.344C478.089 182.01 478.18 181.682 478.18 181.359C478.18 180.839 477.971 180.438 477.555 180.156C477.138 179.87 476.669 179.727 476.148 179.727C475.852 179.727 475.518 179.76 475.148 179.828C474.784 179.896 474.464 179.977 474.188 180.07C473.911 180.159 473.464 180.344 472.844 180.625V179.336C473.5 179.023 474.156 178.81 474.812 178.695C475.474 178.576 476.018 178.516 476.445 178.516C477.076 178.516 477.654 178.62 478.18 178.828C478.711 179.031 479.104 179.349 479.359 179.781C479.62 180.214 479.75 180.674 479.75 181.164C479.75 181.711 479.583 182.271 479.25 182.844C478.922 183.417 478.299 184.154 477.383 185.055L476.492 185.938L475.742 186.672C475.268 187.151 474.885 187.615 474.594 188.062C474.302 188.51 474.141 189.044 474.109 189.664H479.938V191Z" fill="black"/>
<path d="M596.656 191V183.484H594.234V182.273H598.109V189.789H600.539V191H596.656ZM596.414 179.125C596.414 178.797 596.526 178.552 596.75 178.391C596.974 178.229 597.185 178.148 597.383 178.148C597.586 178.148 597.799 178.229 598.023 178.391C598.247 178.552 598.359 178.797 598.359 179.125C598.359 179.448 598.247 179.69 598.023 179.852C597.799 180.013 597.586 180.094 597.383 180.094C597.185 180.094 596.974 180.013 596.75 179.852C596.526 179.69 596.414 179.448 596.414 179.125ZM603.82 191V182.273H605.273V184.18C605.69 183.508 606.193 182.982 606.781 182.602C607.37 182.221 607.958 182.031 608.547 182.031C609.062 182.031 609.531 182.169 609.953 182.445C610.375 182.716 610.669 183.073 610.836 183.516C611.008 183.958 611.094 184.828 611.094 186.125V191H609.641V185.945C609.641 185.107 609.599 184.555 609.516 184.289C609.438 184.018 609.289 183.797 609.07 183.625C608.857 183.453 608.622 183.367 608.367 183.367C607.857 183.367 607.307 183.609 606.719 184.094C606.135 184.578 605.654 185.185 605.273 185.914V191H603.82ZM620.727 190.648C620.044 190.935 619.549 191.104 619.242 191.156C618.935 191.214 618.638 191.242 618.352 191.242C617.742 191.242 617.185 191.125 616.68 190.891C616.174 190.656 615.792 190.31 615.531 189.852C615.276 189.393 615.148 188.685 615.148 187.727V184.211H612.969V183H615.148V179.484H616.602V183H620.484V184.211H616.602V187.703C616.602 188.406 616.685 188.904 616.852 189.195C617.018 189.482 617.24 189.693 617.516 189.828C617.797 189.964 618.128 190.031 618.508 190.031C619.211 190.031 619.951 189.81 620.727 189.367V190.648ZM622.961 190.781V189.25C624.154 189.854 625.188 190.156 626.062 190.156C626.865 190.156 627.526 189.914 628.047 189.43C628.573 188.94 628.836 188.312 628.836 187.547C628.836 186.776 628.547 186.148 627.969 185.664C627.396 185.18 626.419 184.938 625.039 184.938H624.234V183.727H625.352C626.367 183.727 627.102 183.5 627.555 183.047C628.008 182.589 628.234 182.081 628.234 181.523C628.234 181.018 628.049 180.594 627.68 180.25C627.31 179.901 626.742 179.727 625.977 179.727C625.117 179.727 624.193 179.969 623.203 180.453V179.07C624.193 178.701 625.099 178.516 625.922 178.516C627.396 178.516 628.411 178.807 628.969 179.391C629.531 179.969 629.812 180.63 629.812 181.375C629.812 181.927 629.664 182.445 629.367 182.93C629.07 183.414 628.523 183.846 627.727 184.227C628.43 184.435 628.961 184.69 629.32 184.992C629.68 185.294 629.951 185.651 630.133 186.062C630.32 186.474 630.414 186.935 630.414 187.445C630.414 188.581 629.992 189.518 629.148 190.258C628.31 190.997 627.224 191.367 625.891 191.367C625.505 191.367 625.083 191.339 624.625 191.281C624.172 191.224 623.617 191.057 622.961 190.781ZM639.938 191H632.602V189.664C632.602 189.32 632.672 188.953 632.812 188.562C632.953 188.167 633.221 187.724 633.617 187.234C634.013 186.745 634.432 186.273 634.875 185.82L635.703 184.977C635.87 184.805 636.234 184.406 636.797 183.781C637.359 183.156 637.729 182.677 637.906 182.344C638.089 182.01 638.18 181.682 638.18 181.359C638.18 180.839 637.971 180.438 637.555 180.156C637.138 179.87 636.669 179.727 636.148 179.727C635.852 179.727 635.518 179.76 635.148 179.828C634.784 179.896 634.464 179.977 634.188 180.07C633.911 180.159 633.464 180.344 632.844 180.625V179.336C633.5 179.023 634.156 178.81 634.812 178.695C635.474 178.576 636.018 178.516 636.445 178.516C637.076 178.516 637.654 178.62 638.18 178.828C638.711 179.031 639.104 179.349 639.359 179.781C639.62 180.214 639.75 180.674 639.75 181.164C639.75 181.711 639.583 182.271 639.25 182.844C638.922 183.417 638.299 184.154 637.383 185.055L636.492 185.938L635.742 186.672C635.268 187.151 634.885 187.615 634.594 188.062C634.302 188.51 634.141 189.044 634.109 189.664H639.938V191Z" fill="black"/>
<mask id="path-22-outside-4_10_22" maskUnits="userSpaceOnUse" x="537" y="209" width="162" height="52" fill="black">
<rect fill="white" x="537" y="209" width="162" height="52"/>
<path fill-rule="evenodd" clip-rule="evenodd" d="M618 210H538V260H618H698V210H618Z"/>
</mask>
<path fill-rule="evenodd" clip-rule="evenodd" d="M618 210H538V260H618H698V210H618Z" fill="#D9D9D9"/>
<path d="M538 210V209H537V210H538ZM538 260H537V261H538V260ZM698 260V261H699V260H698ZM698 210H699V209H698V210ZM538 211H618V209H538V211ZM539 260V210H537V260H539ZM618 259H538V261H618V259ZM698 259H618V261H698V259ZM697 210V260H699V210H697ZM618 211H698V209H618V211Z" fill="black" mask="url(#path-22-outside-4_10_22)"/>
<mask id="path-24-outside-5_10_22" maskUnits="userSpaceOnUse" x="377" y="209" width="162" height="52" fill="black">
<rect fill="white" x="377" y="209" width="162" height="52"/>
<path fill-rule="evenodd" clip-rule="evenodd" d="M458 210H378V260H458H538V210H458Z"/>
</mask>
<path fill-rule="evenodd" clip-rule="evenodd" d="M458 210H378V260H458H538V210H458Z" fill="#D9D9D9"/>
<path d="M378 210V209H377V210H378ZM378 260H377V261H378V260ZM538 260V261H539V260H538ZM538 210H539V209H538V210ZM378 211H458V209H378V211ZM379 260V210H377V260H379ZM458 259H378V261H458V259ZM538 259H458V261H538V259ZM537 210V260H539V210H537ZM458 211H538V209H458V211Z" fill="black" mask="url(#path-24-outside-5_10_22)"/>
<mask id="path-26-outside-6_10_22" maskUnits="userSpaceOnUse" x="57" y="209" width="162" height="52" fill="black">
<rect fill="white" x="57" y="209" width="162" height="52"/>
<path fill-rule="evenodd" clip-rule="evenodd" d="M138 210H58V260H138H218V210H138Z"/>
</mask>
<path fill-rule="evenodd" clip-rule="evenodd" d="M138 210H58V260H138H218V210H138Z" fill="#D9D9D9"/>
<path d="M58 210V209H57V210H58ZM58 260H57V261H58V260ZM218 260V261H219V260H218ZM218 210H219V209H218V210ZM58 211H138V209H58V211ZM59 260V210H57V260H59ZM138 259H58V261H138V259ZM218 259H138V261H218V259ZM217 210V260H219V210H217ZM138 211H218V209H138V211Z" fill="black" mask="url(#path-26-outside-6_10_22)"/>
<rect x="217.5" y="209.5" width="81" height="51" fill="#D9D9D9" stroke="black"/>
<rect x="297.5" y="209.5" width="81" height="51" fill="#D9D9D9" stroke="black"/>
<path d="M242.656 242V234.484H240.234V233.273H244.109V240.789H246.539V242H242.656ZM242.414 230.125C242.414 229.797 242.526 229.552 242.75 229.391C242.974 229.229 243.185 229.148 243.383 229.148C243.586 229.148 243.799 229.229 244.023 229.391C244.247 229.552 244.359 229.797 244.359 230.125C244.359 230.448 244.247 230.69 244.023 230.852C243.799 231.013 243.586 231.094 243.383 231.094C243.185 231.094 242.974 231.013 242.75 230.852C242.526 230.69 242.414 230.448 242.414 230.125ZM249.82 242V233.273H251.273V235.18C251.69 234.508 252.193 233.982 252.781 233.602C253.37 233.221 253.958 233.031 254.547 233.031C255.062 233.031 255.531 233.169 255.953 233.445C256.375 233.716 256.669 234.073 256.836 234.516C257.008 234.958 257.094 235.828 257.094 237.125V242H255.641V236.945C255.641 236.107 255.599 235.555 255.516 235.289C255.438 235.018 255.289 234.797 255.07 234.625C254.857 234.453 254.622 234.367 254.367 234.367C253.857 234.367 253.307 234.609 252.719 235.094C252.135 235.578 251.654 236.185 251.273 236.914V242H249.82ZM266.727 241.648C266.044 241.935 265.549 242.104 265.242 242.156C264.935 242.214 264.638 242.242 264.352 242.242C263.742 242.242 263.185 242.125 262.68 241.891C262.174 241.656 261.792 241.31 261.531 240.852C261.276 240.393 261.148 239.685 261.148 238.727V235.211H258.969V234H261.148V230.484H262.602V234H266.484V235.211H262.602V238.703C262.602 239.406 262.685 239.904 262.852 240.195C263.018 240.482 263.24 240.693 263.516 240.828C263.797 240.964 264.128 241.031 264.508 241.031C265.211 241.031 265.951 240.81 266.727 240.367V241.648ZM272.266 240.789V231.43C271.828 231.779 271.404 232.076 270.992 232.32C270.581 232.565 270.016 232.815 269.297 233.07V231.758C270.438 231.273 271.427 230.646 272.266 229.875H273.719V240.789H276.633V242H269.297V240.789H272.266ZM279.719 236.312C280.094 235.755 280.557 235.302 281.109 234.953C281.667 234.599 282.279 234.422 282.945 234.422C283.576 234.422 284.172 234.576 284.734 234.883C285.302 235.19 285.734 235.62 286.031 236.172C286.328 236.719 286.477 237.357 286.477 238.086C286.477 239.237 286.107 240.24 285.367 241.094C284.633 241.943 283.664 242.367 282.461 242.367C281.044 242.367 279.984 241.776 279.281 240.594C278.583 239.406 278.234 237.898 278.234 236.07C278.234 234.049 278.68 232.453 279.57 231.281C280.461 230.104 281.667 229.516 283.188 229.516C284.005 229.516 284.799 229.635 285.57 229.875V231.344C284.706 230.932 283.891 230.727 283.125 230.727C282.042 230.727 281.203 231.224 280.609 232.219C280.016 233.214 279.719 234.474 279.719 236V236.312ZM282.57 241.156C282.961 241.156 283.354 241.042 283.75 240.812C284.146 240.578 284.456 240.221 284.68 239.742C284.909 239.258 285.023 238.732 285.023 238.164C285.023 237.424 284.831 236.818 284.445 236.344C284.065 235.87 283.521 235.633 282.812 235.633C282.078 235.633 281.474 235.909 281 236.461C280.531 237.008 280.297 237.674 280.297 238.461C280.297 239.253 280.526 239.901 280.984 240.406C281.448 240.906 281.977 241.156 282.57 241.156Z" fill="black"/>
<path d="M317.656 242V234.484H315.234V233.273H319.109V240.789H321.539V242H317.656ZM317.414 230.125C317.414 229.797 317.526 229.552 317.75 229.391C317.974 229.229 318.185 229.148 318.383 229.148C318.586 229.148 318.799 229.229 319.023 229.391C319.247 229.552 319.359 229.797 319.359 230.125C319.359 230.448 319.247 230.69 319.023 230.852C318.799 231.013 318.586 231.094 318.383 231.094C318.185 231.094 317.974 231.013 317.75 230.852C317.526 230.69 317.414 230.448 317.414 230.125ZM324.82 242V233.273H326.273V235.18C326.69 234.508 327.193 233.982 327.781 233.602C328.37 233.221 328.958 233.031 329.547 233.031C330.062 233.031 330.531 233.169 330.953 233.445C331.375 233.716 331.669 234.073 331.836 234.516C332.008 234.958 332.094 235.828 332.094 237.125V242H330.641V236.945C330.641 236.107 330.599 235.555 330.516 235.289C330.438 235.018 330.289 234.797 330.07 234.625C329.857 234.453 329.622 234.367 329.367 234.367C328.857 234.367 328.307 234.609 327.719 235.094C327.135 235.578 326.654 236.185 326.273 236.914V242H324.82ZM341.727 241.648C341.044 241.935 340.549 242.104 340.242 242.156C339.935 242.214 339.638 242.242 339.352 242.242C338.742 242.242 338.185 242.125 337.68 241.891C337.174 241.656 336.792 241.31 336.531 240.852C336.276 240.393 336.148 239.685 336.148 238.727V235.211H333.969V234H336.148V230.484H337.602V234H341.484V235.211H337.602V238.703C337.602 239.406 337.685 239.904 337.852 240.195C338.018 240.482 338.24 240.693 338.516 240.828C338.797 240.964 339.128 241.031 339.508 241.031C340.211 241.031 340.951 240.81 341.727 240.367V241.648ZM347.266 240.789V231.43C346.828 231.779 346.404 232.076 345.992 232.32C345.581 232.565 345.016 232.815 344.297 233.07V231.758C345.438 231.273 346.427 230.646 347.266 229.875H348.719V240.789H351.633V242H344.297V240.789H347.266ZM354.719 236.312C355.094 235.755 355.557 235.302 356.109 234.953C356.667 234.599 357.279 234.422 357.945 234.422C358.576 234.422 359.172 234.576 359.734 234.883C360.302 235.19 360.734 235.62 361.031 236.172C361.328 236.719 361.477 237.357 361.477 238.086C361.477 239.237 361.107 240.24 360.367 241.094C359.633 241.943 358.664 242.367 357.461 242.367C356.044 242.367 354.984 241.776 354.281 240.594C353.583 239.406 353.234 237.898 353.234 236.07C353.234 234.049 353.68 232.453 354.57 231.281C355.461 230.104 356.667 229.516 358.188 229.516C359.005 229.516 359.799 229.635 360.57 229.875V231.344C359.706 230.932 358.891 230.727 358.125 230.727C357.042 230.727 356.203 231.224 355.609 232.219C355.016 233.214 354.719 234.474 354.719 236V236.312ZM357.57 241.156C357.961 241.156 358.354 241.042 358.75 240.812C359.146 240.578 359.456 240.221 359.68 239.742C359.909 239.258 360.023 238.732 360.023 238.164C360.023 237.424 359.831 236.818 359.445 236.344C359.065 235.87 358.521 235.633 357.812 235.633C357.078 235.633 356.474 235.909 356 236.461C355.531 237.008 355.297 237.674 355.297 238.461C355.297 239.253 355.526 239.901 355.984 240.406C356.448 240.906 356.977 241.156 357.57 241.156Z" fill="black"/>
<path d="M117.656 242V234.484H115.234V233.273H119.109V240.789H121.539V242H117.656ZM117.414 230.125C117.414 229.797 117.526 229.552 117.75 229.391C117.974 229.229 118.185 229.148 118.383 229.148C118.586 229.148 118.799 229.229 119.023 229.391C119.247 229.552 119.359 229.797 119.359 230.125C119.359 230.448 119.247 230.69 119.023 230.852C118.799 231.013 118.586 231.094 118.383 231.094C118.185 231.094 117.974 231.013 117.75 230.852C117.526 230.69 117.414 230.448 117.414 230.125ZM124.82 242V233.273H126.273V235.18C126.69 234.508 127.193 233.982 127.781 233.602C128.37 233.221 128.958 233.031 129.547 233.031C130.062 233.031 130.531 233.169 130.953 233.445C131.375 233.716 131.669 234.073 131.836 234.516C132.008 234.958 132.094 235.828 132.094 237.125V242H130.641V236.945C130.641 236.107 130.599 235.555 130.516 235.289C130.438 235.018 130.289 234.797 130.07 234.625C129.857 234.453 129.622 234.367 129.367 234.367C128.857 234.367 128.307 234.609 127.719 235.094C127.135 235.578 126.654 236.185 126.273 236.914V242H124.82ZM141.727 241.648C141.044 241.935 140.549 242.104 140.242 242.156C139.935 242.214 139.638 242.242 139.352 242.242C138.742 242.242 138.185 242.125 137.68 241.891C137.174 241.656 136.792 241.31 136.531 240.852C136.276 240.393 136.148 239.685 136.148 238.727V235.211H133.969V234H136.148V230.484H137.602V234H141.484V235.211H137.602V238.703C137.602 239.406 137.685 239.904 137.852 240.195C138.018 240.482 138.24 240.693 138.516 240.828C138.797 240.964 139.128 241.031 139.508 241.031C140.211 241.031 140.951 240.81 141.727 240.367V241.648ZM143.961 241.781V240.25C145.154 240.854 146.188 241.156 147.062 241.156C147.865 241.156 148.526 240.914 149.047 240.43C149.573 239.94 149.836 239.312 149.836 238.547C149.836 237.776 149.547 237.148 148.969 236.664C148.396 236.18 147.419 235.938 146.039 235.938H145.234V234.727H146.352C147.367 234.727 148.102 234.5 148.555 234.047C149.008 233.589 149.234 233.081 149.234 232.523C149.234 232.018 149.049 231.594 148.68 231.25C148.31 230.901 147.742 230.727 146.977 230.727C146.117 230.727 145.193 230.969 144.203 231.453V230.07C145.193 229.701 146.099 229.516 146.922 229.516C148.396 229.516 149.411 229.807 149.969 230.391C150.531 230.969 150.812 231.63 150.812 232.375C150.812 232.927 150.664 233.445 150.367 233.93C150.07 234.414 149.523 234.846 148.727 235.227C149.43 235.435 149.961 235.69 150.32 235.992C150.68 236.294 150.951 236.651 151.133 237.062C151.32 237.474 151.414 237.935 151.414 238.445C151.414 239.581 150.992 240.518 150.148 241.258C149.31 241.997 148.224 242.367 146.891 242.367C146.505 242.367 146.083 242.339 145.625 242.281C145.172 242.224 144.617 242.057 143.961 241.781ZM160.938 242H153.602V240.664C153.602 240.32 153.672 239.953 153.812 239.562C153.953 239.167 154.221 238.724 154.617 238.234C155.013 237.745 155.432 237.273 155.875 236.82L156.703 235.977C156.87 235.805 157.234 235.406 157.797 234.781C158.359 234.156 158.729 233.677 158.906 233.344C159.089 233.01 159.18 232.682 159.18 232.359C159.18 231.839 158.971 231.438 158.555 231.156C158.138 230.87 157.669 230.727 157.148 230.727C156.852 230.727 156.518 230.76 156.148 230.828C155.784 230.896 155.464 230.977 155.188 231.07C154.911 231.159 154.464 231.344 153.844 231.625V230.336C154.5 230.023 155.156 229.81 155.812 229.695C156.474 229.576 157.018 229.516 157.445 229.516C158.076 229.516 158.654 229.62 159.18 229.828C159.711 230.031 160.104 230.349 160.359 230.781C160.62 231.214 160.75 231.674 160.75 232.164C160.75 232.711 160.583 233.271 160.25 233.844C159.922 234.417 159.299 235.154 158.383 236.055L157.492 236.938L156.742 237.672C156.268 238.151 155.885 238.615 155.594 239.062C155.302 239.51 155.141 240.044 155.109 240.664H160.938V242Z" fill="black"/>
<path d="M436.656 242V234.484H434.234V233.273H438.109V240.789H440.539V242H436.656ZM436.414 230.125C436.414 229.797 436.526 229.552 436.75 229.391C436.974 229.229 437.185 229.148 437.383 229.148C437.586 229.148 437.799 229.229 438.023 229.391C438.247 229.552 438.359 229.797 438.359 230.125C438.359 230.448 438.247 230.69 438.023 230.852C437.799 231.013 437.586 231.094 437.383 231.094C437.185 231.094 436.974 231.013 436.75 230.852C436.526 230.69 436.414 230.448 436.414 230.125ZM443.82 242V233.273H445.273V235.18C445.69 234.508 446.193 233.982 446.781 233.602C447.37 233.221 447.958 233.031 448.547 233.031C449.062 233.031 449.531 233.169 449.953 233.445C450.375 233.716 450.669 234.073 450.836 234.516C451.008 234.958 451.094 235.828 451.094 237.125V242H449.641V236.945C449.641 236.107 449.599 235.555 449.516 235.289C449.438 235.018 449.289 234.797 449.07 234.625C448.857 234.453 448.622 234.367 448.367 234.367C447.857 234.367 447.307 234.609 446.719 235.094C446.135 235.578 445.654 236.185 445.273 236.914V242H443.82ZM460.727 241.648C460.044 241.935 459.549 242.104 459.242 242.156C458.935 242.214 458.638 242.242 458.352 242.242C457.742 242.242 457.185 242.125 456.68 241.891C456.174 241.656 455.792 241.31 455.531 240.852C455.276 240.393 455.148 239.685 455.148 238.727V235.211H452.969V234H455.148V230.484H456.602V234H460.484V235.211H456.602V238.703C456.602 239.406 456.685 239.904 456.852 240.195C457.018 240.482 457.24 240.693 457.516 240.828C457.797 240.964 458.128 241.031 458.508 241.031C459.211 241.031 459.951 240.81 460.727 240.367V241.648ZM462.961 241.781V240.25C464.154 240.854 465.188 241.156 466.062 241.156C466.865 241.156 467.526 240.914 468.047 240.43C468.573 239.94 468.836 239.312 468.836 238.547C468.836 237.776 468.547 237.148 467.969 236.664C467.396 236.18 466.419 235.938 465.039 235.938H464.234V234.727H465.352C466.367 234.727 467.102 234.5 467.555 234.047C468.008 233.589 468.234 233.081 468.234 232.523C468.234 232.018 468.049 231.594 467.68 231.25C467.31 230.901 466.742 230.727 465.977 230.727C465.117 230.727 464.193 230.969 463.203 231.453V230.07C464.193 229.701 465.099 229.516 465.922 229.516C467.396 229.516 468.411 229.807 468.969 230.391C469.531 230.969 469.812 231.63 469.812 232.375C469.812 232.927 469.664 233.445 469.367 233.93C469.07 234.414 468.523 234.846 467.727 235.227C468.43 235.435 468.961 235.69 469.32 235.992C469.68 236.294 469.951 236.651 470.133 237.062C470.32 237.474 470.414 237.935 470.414 238.445C470.414 239.581 469.992 240.518 469.148 241.258C468.31 241.997 467.224 242.367 465.891 242.367C465.505 242.367 465.083 242.339 464.625 242.281C464.172 242.224 463.617 242.057 462.961 241.781ZM479.938 242H472.602V240.664C472.602 240.32 472.672 239.953 472.812 239.562C472.953 239.167 473.221 238.724 473.617 238.234C474.013 237.745 474.432 237.273 474.875 236.82L475.703 235.977C475.87 235.805 476.234 235.406 476.797 234.781C477.359 234.156 477.729 233.677 477.906 233.344C478.089 233.01 478.18 232.682 478.18 232.359C478.18 231.839 477.971 231.438 477.555 231.156C477.138 230.87 476.669 230.727 476.148 230.727C475.852 230.727 475.518 230.76 475.148 230.828C474.784 230.896 474.464 230.977 474.188 231.07C473.911 231.159 473.464 231.344 472.844 231.625V230.336C473.5 230.023 474.156 229.81 474.812 229.695C475.474 229.576 476.018 229.516 476.445 229.516C477.076 229.516 477.654 229.62 478.18 229.828C478.711 230.031 479.104 230.349 479.359 230.781C479.62 231.214 479.75 231.674 479.75 232.164C479.75 232.711 479.583 233.271 479.25 233.844C478.922 234.417 478.299 235.154 477.383 236.055L476.492 236.938L475.742 237.672C475.268 238.151 474.885 238.615 474.594 239.062C474.302 239.51 474.141 240.044 474.109 240.664H479.938V242Z" fill="black"/>
<path d="M596.656 242V234.484H594.234V233.273H598.109V240.789H600.539V242H596.656ZM596.414 230.125C596.414 229.797 596.526 229.552 596.75 229.391C596.974 229.229 597.185 229.148 597.383 229.148C597.586 229.148 597.799 229.229 598.023 229.391C598.247 229.552 598.359 229.797 598.359 230.125C598.359 230.448 598.247 230.69 598.023 230.852C597.799 231.013 597.586 231.094 597.383 231.094C597.185 231.094 596.974 231.013 596.75 230.852C596.526 230.69 596.414 230.448 596.414 230.125ZM603.82 242V233.273H605.273V235.18C605.69 234.508 606.193 233.982 606.781 233.602C607.37 233.221 607.958 233.031 608.547 233.031C609.062 233.031 609.531 233.169 609.953 233.445C610.375 233.716 610.669 234.073 610.836 234.516C611.008 234.958 611.094 235.828 611.094 237.125V242H609.641V236.945C609.641 236.107 609.599 235.555 609.516 235.289C609.438 235.018 609.289 234.797 609.07 234.625C608.857 234.453 608.622 234.367 608.367 234.367C607.857 234.367 607.307 234.609 606.719 235.094C606.135 235.578 605.654 236.185 605.273 236.914V242H603.82ZM620.727 241.648C620.044 241.935 619.549 242.104 619.242 242.156C618.935 242.214 618.638 242.242 618.352 242.242C617.742 242.242 617.185 242.125 616.68 241.891C616.174 241.656 615.792 241.31 615.531 240.852C615.276 240.393 615.148 239.685 615.148 238.727V235.211H612.969V234H615.148V230.484H616.602V234H620.484V235.211H616.602V238.703C616.602 239.406 616.685 239.904 616.852 240.195C617.018 240.482 617.24 240.693 617.516 240.828C617.797 240.964 618.128 241.031 618.508 241.031C619.211 241.031 619.951 240.81 620.727 240.367V241.648ZM622.961 241.781V240.25C624.154 240.854 625.188 241.156 626.062 241.156C626.865 241.156 627.526 240.914 628.047 240.43C628.573 239.94 628.836 239.312 628.836 238.547C628.836 237.776 628.547 237.148 627.969 236.664C627.396 236.18 626.419 235.938 625.039 235.938H624.234V234.727H625.352C626.367 234.727 627.102 234.5 627.555 234.047C628.008 233.589 628.234 233.081 628.234 232.523C628.234 232.018 628.049 231.594 627.68 231.25C627.31 230.901 626.742 230.727 625.977 230.727C625.117 230.727 624.193 230.969 623.203 231.453V230.07C624.193 229.701 625.099 229.516 625.922 229.516C627.396 229.516 628.411 229.807 628.969 230.391C629.531 230.969 629.812 231.63 629.812 232.375C629.812 232.927 629.664 233.445 629.367 233.93C629.07 234.414 628.523 234.846 627.727 235.227C628.43 235.435 628.961 235.69 629.32 235.992C629.68 236.294 629.951 236.651 630.133 237.062C630.32 237.474 630.414 237.935 630.414 238.445C630.414 239.581 629.992 240.518 629.148 241.258C628.31 241.997 627.224 242.367 625.891 242.367C625.505 242.367 625.083 242.339 624.625 242.281C624.172 242.224 623.617 242.057 622.961 241.781ZM639.938 242H632.602V240.664C632.602 240.32 632.672 239.953 632.812 239.562C632.953 239.167 633.221 238.724 633.617 238.234C634.013 237.745 634.432 237.273 634.875 236.82L635.703 235.977C635.87 235.805 636.234 235.406 636.797 234.781C637.359 234.156 637.729 233.677 637.906 233.344C638.089 233.01 638.18 232.682 638.18 232.359C638.18 231.839 637.971 231.438 637.555 231.156C637.138 230.87 636.669 230.727 636.148 230.727C635.852 230.727 635.518 230.76 635.148 230.828C634.784 230.896 634.464 230.977 634.188 231.07C633.911 231.159 633.464 231.344 632.844 231.625V230.336C633.5 230.023 634.156 229.81 634.812 229.695C635.474 229.576 636.018 229.516 636.445 229.516C637.076 229.516 637.654 229.62 638.18 229.828C638.711 230.031 639.104 230.349 639.359 230.781C639.62 231.214 639.75 231.674 639.75 232.164C639.75 232.711 639.583 233.271 639.25 233.844C638.922 234.417 638.299 235.154 637.383 236.055L636.492 236.938L635.742 237.672C635.268 238.151 634.885 238.615 634.594 239.062C634.302 239.51 634.141 240.044 634.109 240.664H639.938V242Z" fill="black"/>
<rect x="57" y="158" width="743" height="269" stroke="black" stroke-width="2" stroke-dasharray="12 12"/>
<path d="M732.555 177.234C733.003 176.505 733.536 175.956 734.156 175.586C734.776 175.216 735.346 175.031 735.867 175.031C736.596 175.031 737.253 175.346 737.836 175.977C738.419 176.607 738.711 177.562 738.711 178.844C738.711 179.854 738.516 180.758 738.125 181.555C737.74 182.346 737.224 182.974 736.578 183.438C735.932 183.896 735.133 184.125 734.18 184.125C733.909 184.125 733.492 184.096 732.93 184.039C732.846 184.029 732.721 184.016 732.555 184V187.391H731.102V175.273H732.555V177.234ZM732.555 178.961V182.703C733.081 182.839 733.565 182.906 734.008 182.906C734.888 182.906 735.628 182.562 736.227 181.875C736.831 181.182 737.133 180.237 737.133 179.039C737.133 178.169 736.969 177.516 736.641 177.078C736.312 176.641 735.94 176.422 735.523 176.422C735.07 176.422 734.57 176.651 734.023 177.109C733.482 177.568 732.992 178.185 732.555 178.961ZM746.555 182.039C746.112 182.768 745.578 183.318 744.953 183.688C744.333 184.057 743.763 184.242 743.242 184.242C742.513 184.242 741.857 183.927 741.273 183.297C740.695 182.667 740.406 181.711 740.406 180.43C740.406 179.419 740.599 178.518 740.984 177.727C741.37 176.93 741.885 176.302 742.531 175.844C743.177 175.38 743.977 175.148 744.93 175.148C745.206 175.148 745.622 175.177 746.18 175.234C746.263 175.245 746.388 175.258 746.555 175.273H748.016V181.438C748.016 182.49 748.125 183.344 748.344 184H746.828C746.714 183.521 746.622 182.867 746.555 182.039ZM746.555 180.312V176.57C746.039 176.435 745.56 176.367 745.117 176.367C744.221 176.367 743.474 176.714 742.875 177.406C742.281 178.099 741.984 179.042 741.984 180.234C741.984 181.099 742.146 181.753 742.469 182.195C742.797 182.633 743.169 182.852 743.586 182.852C744.039 182.852 744.539 182.622 745.086 182.164C745.633 181.706 746.122 181.089 746.555 180.312ZM757.773 183.75C756.799 184.078 755.872 184.242 754.992 184.242C754.117 184.242 753.339 184.042 752.656 183.641C751.979 183.234 751.451 182.688 751.07 182C750.69 181.307 750.5 180.521 750.5 179.641C750.5 178.318 750.93 177.219 751.789 176.344C752.654 175.469 753.695 175.031 754.914 175.031C755.815 175.031 756.768 175.201 757.773 175.539V176.938C756.758 176.474 755.849 176.242 755.047 176.242C754.516 176.242 754.016 176.375 753.547 176.641C753.078 176.901 752.716 177.31 752.461 177.867C752.206 178.424 752.078 178.997 752.078 179.586C752.078 180.372 752.323 181.122 752.812 181.836C753.307 182.549 754.081 182.906 755.133 182.906C755.451 182.906 755.763 182.885 756.07 182.844C756.378 182.797 756.945 182.633 757.773 182.352V183.75ZM760.43 184V171.391H761.883V179.312L766.078 175.273H768.016L763.828 179.312L768.125 184H766.125L761.883 179.312V184H760.43ZM776.906 183.422C775.745 183.974 774.646 184.25 773.609 184.25C772.823 184.25 772.12 184.055 771.5 183.664C770.88 183.273 770.383 182.716 770.008 181.992C769.638 181.263 769.453 180.484 769.453 179.656C769.453 178.859 769.63 178.094 769.984 177.359C770.339 176.625 770.833 176.055 771.469 175.648C772.104 175.237 772.812 175.031 773.594 175.031C774.63 175.031 775.461 175.401 776.086 176.141C776.716 176.88 777.031 178.021 777.031 179.562V179.875H771.016C771.016 180.479 771.141 181.031 771.391 181.531C771.646 182.031 771.979 182.406 772.391 182.656C772.802 182.906 773.271 183.031 773.797 183.031C774.734 183.031 775.771 182.719 776.906 182.094V183.422ZM771.102 178.789H775.453V178.578C775.453 177.865 775.279 177.297 774.93 176.875C774.581 176.453 774.115 176.242 773.531 176.242C772.943 176.242 772.432 176.458 772 176.891C771.573 177.318 771.273 177.951 771.102 178.789ZM786.555 183.648C785.872 183.935 785.378 184.104 785.07 184.156C784.763 184.214 784.466 184.242 784.18 184.242C783.57 184.242 783.013 184.125 782.508 183.891C782.003 183.656 781.62 183.31 781.359 182.852C781.104 182.393 780.977 181.685 780.977 180.727V177.211H778.797V176H780.977V172.484H782.43V176H786.312V177.211H782.43V180.703C782.43 181.406 782.513 181.904 782.68 182.195C782.846 182.482 783.068 182.693 783.344 182.828C783.625 182.964 783.956 183.031 784.336 183.031C785.039 183.031 785.779 182.81 786.555 182.367V183.648Z" fill="black"/>
<rect x="57" y="209" width="730" height="218" stroke="#EB7431" stroke-width="2" stroke-dasharray="12 12"/>
<path d="M721.555 312.234C722.003 311.505 722.536 310.956 723.156 310.586C723.776 310.216 724.346 310.031 724.867 310.031C725.596 310.031 726.253 310.346 726.836 310.977C727.419 311.607 727.711 312.562 727.711 313.844C727.711 314.854 727.516 315.758 727.125 316.555C726.74 317.346 726.224 317.974 725.578 318.438C724.932 318.896 724.133 319.125 723.18 319.125C722.909 319.125 722.492 319.096 721.93 319.039C721.846 319.029 721.721 319.016 721.555 319H720.102V306.391H721.555V312.234ZM721.555 313.961V317.703C722.081 317.839 722.565 317.906 723.008 317.906C723.888 317.906 724.628 317.562 725.227 316.875C725.831 316.182 726.133 315.237 726.133 314.039C726.133 313.169 725.969 312.516 725.641 312.078C725.312 311.641 724.94 311.422 724.523 311.422C724.07 311.422 723.57 311.651 723.023 312.109C722.482 312.568 721.992 313.185 721.555 313.961ZM730.562 319V310.273H732.016V312.18C732.469 311.461 732.987 310.924 733.57 310.57C734.159 310.211 734.812 310.031 735.531 310.031C736.057 310.031 736.583 310.112 737.109 310.273V313.422H735.711V311.43C735.466 311.388 735.273 311.367 735.133 311.367C734.591 311.367 734.06 311.581 733.539 312.008C733.018 312.435 732.51 313.076 732.016 313.93V319H730.562ZM740.699 306.328V307.496H753.499V306.328H740.699ZM740.059 306.328V311.512C740.059 313.928 739.963 317.272 738.715 319.624C739.003 319.752 739.499 320.104 739.707 320.296C741.003 317.8 741.195 314.072 741.195 311.512V306.328H740.059ZM741.291 318.456V319.608H753.451V318.456H741.291ZM742.331 311.8V312.952H752.683V311.8H742.331ZM746.699 308.36V319.16H747.931V308.36H746.699ZM749.163 314.68C750.027 315.432 750.971 316.504 751.419 317.208L752.331 316.52C751.867 315.816 750.923 314.84 750.027 314.104L749.163 314.68ZM755.323 316.088C755.323 315.864 756.091 315.512 756.091 315.512V315.496C757.467 313.928 758.859 311.768 759.979 309.624L759.019 309.08C758.059 311.192 756.555 313.448 756.075 314.008C755.627 314.6 755.275 315 754.955 315.048C755.083 315.336 755.259 315.864 755.323 316.088ZM755.323 316.088C755.595 315.912 756.075 315.752 759.307 314.936C759.275 314.696 759.243 314.28 759.259 313.96L755.755 314.744L755.243 315.144L755.323 316.088ZM755.211 312.248C755.211 312.008 755.915 311.64 755.915 311.64V311.608C757.019 310.152 758.091 308.088 758.907 306.104L757.851 305.624C757.211 307.544 756.075 309.624 755.739 310.168C755.387 310.712 755.131 311.096 754.843 311.16C754.987 311.464 755.147 312.008 755.211 312.248ZM755.211 312.248C755.483 312.12 755.915 312.024 758.427 311.736C758.427 311.496 758.459 311.064 758.523 310.76L755.755 311.016L755.195 311.368L755.211 312.248ZM754.923 318.152L755.211 319.288C756.539 318.792 758.267 318.104 759.915 317.464L759.707 316.472C757.931 317.112 756.139 317.768 754.923 318.152ZM765.419 310.28C765.323 311.096 765.067 312.296 764.859 313.048L765.851 313.272C766.091 312.552 766.363 311.48 766.619 310.504L765.419 310.28ZM760.123 307.112V309.72H761.211V308.136H768.283V309.496H769.419V307.112H760.123ZM761.771 309.224C761.355 310.92 760.443 313.016 759.259 314.344C759.451 314.536 759.755 314.92 759.883 315.144C761.227 313.688 762.251 311.432 762.827 309.48L761.771 309.224ZM762.971 309.928V310.92H769.195V309.928H762.971ZM763.707 315.48V316.44H768.379V315.48H763.707ZM763.195 312.552V320.264H764.235V313.528H767.883V320.184H768.971V312.552H763.195ZM760.907 312.44V320.28H761.947V311.512L761.883 311.464L760.907 312.44ZM763.643 305.864C763.979 306.44 764.363 307.224 764.539 307.704L765.595 307.304C765.419 306.824 765.019 306.072 764.651 305.512L763.643 305.864ZM763.739 318.552V319.528H768.379V318.552H763.739Z" fill="black"/>
<path d="M197.109 51.4688C198.005 50.0104 199.073 48.9115 200.312 48.1719C201.552 47.4323 202.693 47.0625 203.734 47.0625C205.193 47.0625 206.505 47.6927 207.672 48.9531C208.839 50.2135 209.422 52.125 209.422 54.6875C209.422 56.7083 209.031 58.5156 208.25 60.1094C207.479 61.6927 206.448 62.9479 205.156 63.875C203.865 64.7917 202.266 65.25 200.359 65.25C199.818 65.25 198.984 65.1927 197.859 65.0781C197.693 65.0573 197.443 65.0312 197.109 65V71.7812H194.203V47.5469H197.109V51.4688ZM197.109 54.9219V62.4062C198.161 62.6771 199.13 62.8125 200.016 62.8125C201.776 62.8125 203.255 62.125 204.453 60.75C205.661 59.3646 206.266 57.474 206.266 55.0781C206.266 53.3385 205.938 52.0312 205.281 51.1562C204.625 50.2812 203.88 49.8438 203.047 49.8438C202.141 49.8438 201.141 50.3021 200.047 51.2188C198.964 52.1354 197.984 53.3698 197.109 54.9219ZM225.109 61.0781C224.224 62.5365 223.156 63.6354 221.906 64.375C220.667 65.1146 219.526 65.4844 218.484 65.4844C217.026 65.4844 215.714 64.8542 214.547 63.5938C213.391 62.3333 212.812 60.4219 212.812 57.8594C212.812 55.8385 213.198 54.0365 213.969 52.4531C214.74 50.8594 215.771 49.6042 217.062 48.6875C218.354 47.7604 219.953 47.2969 221.859 47.2969C222.411 47.2969 223.245 47.3542 224.359 47.4688C224.526 47.4896 224.776 47.5156 225.109 47.5469H228.031V59.875C228.031 61.9792 228.25 63.6875 228.688 65H225.656C225.427 64.0417 225.245 62.7344 225.109 61.0781ZM225.109 57.625V50.1406C224.078 49.8698 223.12 49.7344 222.234 49.7344C220.443 49.7344 218.948 50.4271 217.75 51.8125C216.562 53.1979 215.969 55.0833 215.969 57.4688C215.969 59.1979 216.292 60.5052 216.938 61.3906C217.594 62.2656 218.339 62.7031 219.172 62.7031C220.078 62.7031 221.078 62.2448 222.172 61.3281C223.266 60.4115 224.245 59.1771 225.109 57.625ZM247.547 64.5C245.599 65.1562 243.745 65.4844 241.984 65.4844C240.234 65.4844 238.677 65.0833 237.312 64.2812C235.958 63.4688 234.901 62.375 234.141 61C233.38 59.6146 233 58.0417 233 56.2812C233 53.6354 233.859 51.4375 235.578 49.6875C237.307 47.9375 239.391 47.0625 241.828 47.0625C243.63 47.0625 245.536 47.401 247.547 48.0781V50.875C245.516 49.9479 243.698 49.4844 242.094 49.4844C241.031 49.4844 240.031 49.75 239.094 50.2812C238.156 50.8021 237.432 51.6198 236.922 52.7344C236.411 53.849 236.156 54.9948 236.156 56.1719C236.156 57.7448 236.646 59.2448 237.625 60.6719C238.615 62.099 240.161 62.8125 242.266 62.8125C242.901 62.8125 243.526 62.7708 244.141 62.6875C244.755 62.5938 245.891 62.2656 247.547 61.7031V64.5ZM252.859 65V39.7812H255.766V55.625L264.156 47.5469H268.031L259.656 55.625L268.25 65H264.25L255.766 55.625V65H252.859ZM285.812 63.8438C283.49 64.9479 281.292 65.5 279.219 65.5C277.646 65.5 276.24 65.1094 275 64.3281C273.76 63.5469 272.766 62.4323 272.016 60.9844C271.276 59.526 270.906 57.9688 270.906 56.3125C270.906 54.7188 271.26 53.1875 271.969 51.7188C272.677 50.25 273.667 49.1094 274.938 48.2969C276.208 47.474 277.625 47.0625 279.188 47.0625C281.26 47.0625 282.922 47.8021 284.172 49.2812C285.432 50.7604 286.062 53.0417 286.062 56.125V56.75H274.031C274.031 57.9583 274.281 59.0625 274.781 60.0625C275.292 61.0625 275.958 61.8125 276.781 62.3125C277.604 62.8125 278.542 63.0625 279.594 63.0625C281.469 63.0625 283.542 62.4375 285.812 61.1875V63.8438ZM274.203 54.5781H282.906V54.1562C282.906 52.7292 282.557 51.5938 281.859 50.75C281.161 49.9062 280.229 49.4844 279.062 49.4844C277.885 49.4844 276.865 49.9167 276 50.7812C275.146 51.6354 274.547 52.901 274.203 54.5781ZM305.109 64.2969C303.745 64.8698 302.755 65.2083 302.141 65.3125C301.526 65.4271 300.932 65.4844 300.359 65.4844C299.141 65.4844 298.026 65.25 297.016 64.7812C296.005 64.3125 295.24 63.6198 294.719 62.7031C294.208 61.7865 293.953 60.3698 293.953 58.4531V51.4219H289.594V49H293.953V41.9688H296.859V49H304.625V51.4219H296.859V58.4062C296.859 59.8125 297.026 60.8073 297.359 61.3906C297.693 61.9635 298.135 62.3854 298.688 62.6562C299.25 62.9271 299.911 63.0625 300.672 63.0625C302.078 63.0625 303.557 62.6198 305.109 61.7344V64.2969ZM309.457 59.176C309.457 58.696 311.025 57.992 311.025 57.992V57.96C313.841 54.76 316.689 50.312 318.961 45.928L316.977 44.808C315.057 49.16 311.953 53.736 310.993 54.92C310.065 56.104 309.393 56.936 308.753 57.064C309.009 57.64 309.361 58.728 309.457 59.176ZM309.457 59.176C310.065 58.824 311.057 58.504 318.129 56.84C318.065 56.36 317.969 55.496 317.969 54.856L310.385 56.456L309.329 57.256L309.457 59.176ZM309.265 51.496C309.265 51.016 310.673 50.248 310.673 50.248V50.184C312.753 47.272 314.929 43.016 316.465 38.92L314.193 38.12C313.041 42.024 310.897 46.216 310.225 47.272C309.585 48.392 309.041 49.16 308.497 49.288C308.753 49.896 309.137 51.016 309.265 51.496ZM309.265 51.496C309.777 51.24 310.641 51.016 315.665 50.376C315.697 49.896 315.76 49 315.889 48.392L310.321 48.968L309.201 49.704L309.265 51.496ZM308.593 63.304L309.169 65.48C311.761 64.424 315.121 63.08 318.353 61.736L317.937 59.816C314.449 61.128 310.929 62.504 308.593 63.304ZM327.249 52.936V66.536H328.881V52.936H327.249ZM331.153 52.904V66.504H332.785V52.904H331.153ZM335.153 51.816V65.224C335.153 65.48 335.089 65.544 334.865 65.544C334.641 65.544 334.033 65.544 333.329 65.544C333.585 66.024 333.809 66.824 333.905 67.336C335.025 67.336 335.793 67.304 336.369 66.984C336.945 66.664 337.073 66.12 337.073 65.256V51.816H335.153ZM320.561 41.608V48.52C320.561 53.448 320.273 60.552 317.329 65.672C317.841 65.928 318.801 66.632 319.185 67.048C322.257 61.64 322.769 53.768 322.769 48.52V41.608H320.561ZM321.713 41.608V43.624H334.513V47.08H321.713V49.096H336.753V41.608H321.713ZM322.705 51.816V67.304H324.625V53.8H336.177V51.816H322.705ZM323.665 58.536V60.456H336.017V58.536H323.665ZM326.673 38.6C327.345 39.848 328.081 41.544 328.369 42.664L330.705 41.896C330.385 40.808 329.649 39.144 328.913 37.928L326.673 38.6ZM367.057 52.168V52.584C366.417 60.808 365.681 64.072 364.753 64.936C364.465 65.256 364.113 65.32 363.569 65.32C362.961 65.32 361.553 65.32 360.017 65.128C360.369 65.768 360.625 66.696 360.657 67.368C362.225 67.432 363.697 67.432 364.497 67.368C365.457 67.336 366.097 67.08 366.705 66.408C367.857 65.224 368.561 61.896 369.297 53.256C369.329 52.904 369.361 52.168 369.361 52.168H367.057ZM353.489 40.008V42.216H365.361V40.008H353.489ZM355.025 44.232C354.801 47.368 354.353 51.656 353.937 54.248H356.208C356.561 51.752 357.009 47.56 357.265 44.36L355.025 44.232ZM354.609 52.168V54.248H367.761V52.168H354.609ZM352.401 58.472V60.616H364.657V58.472H352.401ZM364.369 40.008V40.296C364.145 43.304 363.505 49.352 362.929 53.544L365.201 53.704C365.777 49.512 366.385 43.88 366.673 40.104L365.009 39.912L364.625 40.008H364.369ZM340.913 39.848V42.056H351.921V39.848H340.913ZM344.049 49.704V51.848H348.881V61.384H344.049V63.528H350.993V49.704H344.049ZM345.041 40.904C344.177 46.248 342.673 51.24 340.209 54.504C340.625 55.144 341.169 56.52 341.329 57.096C344.273 53.256 346.129 47.432 347.281 41.384L345.041 40.904ZM342.993 49.704V66.12H345.105V49.704H342.993ZM373.329 59.144C373.329 58.632 374.993 57.864 374.993 57.864V57.8C378.193 54.76 381.457 50.504 384.177 46.216L382.001 44.872C379.697 49.16 376.177 53.576 375.025 54.696C374.001 55.848 373.233 56.648 372.497 56.776C372.785 57.416 373.201 58.632 373.329 59.144ZM373.329 59.144C374.065 58.728 375.217 58.44 384.177 56.808C384.081 56.296 384.017 55.368 384.017 54.728L374.481 56.296L373.201 57.128L373.329 59.144ZM373.105 51.368C373.105 50.824 374.737 50.024 374.737 50.024V49.96C376.913 47.208 379.185 43.208 380.849 39.336L378.417 38.344C377.105 42.056 374.801 46.024 374.097 47.048C373.424 48.104 372.849 48.808 372.241 48.968C372.561 49.608 372.945 50.824 373.105 51.368ZM373.105 51.368C373.681 51.08 374.673 50.888 380.817 50.216C380.817 49.736 380.881 48.808 381.009 48.2L374.257 48.808L373.041 49.544L373.105 51.368ZM372.433 63.336L372.849 65.8C376.016 65.064 380.273 64.2 384.305 63.272L384.113 61.032C379.825 61.928 375.377 62.824 372.433 63.336ZM384.369 42.408V44.744H401.457V42.408H384.369ZM385.169 49.704V52.008H400.913V49.704H385.169ZM387.281 63.976V66.184H398.897V63.976H387.281ZM391.729 38.12V50.888H394.225V38.12H391.729ZM386.001 55.272V67.56H388.337V57.48H397.713V67.432H400.145V55.272H386.001ZM404.849 45V47.272H416.369V45H404.849ZM409.809 38.12V67.528H412.113V38.12H409.809ZM409.713 46.408C408.689 50.888 406.321 56.328 404.017 59.112C404.433 59.688 405.009 60.648 405.265 61.288C407.729 58.12 410.129 52.008 411.249 46.984L409.713 46.408ZM411.985 49.64L410.769 50.76C411.793 52.04 414.321 55.624 415.185 57.16L416.689 55.208C415.985 54.28 412.849 50.536 411.985 49.64ZM420.017 38.12C418.865 42.664 416.881 47.08 414.385 49.896C414.961 50.248 415.953 51.048 416.401 51.432C418.929 48.328 421.073 43.624 422.417 38.664L420.017 38.12ZM419.569 43.368L418.513 45.64H431.921V43.368H419.569ZM430.993 43.368V43.944C430.577 58.312 430.065 63.624 429.105 64.744C428.753 65.16 428.433 65.288 427.857 65.256C427.217 65.256 425.649 65.256 423.953 65.096C424.369 65.768 424.657 66.792 424.689 67.464C426.257 67.56 427.857 67.592 428.849 67.496C429.873 67.368 430.577 67.112 431.217 66.184C432.433 64.648 432.881 59.656 433.329 44.648C433.329 44.296 433.361 43.368 433.361 43.368H430.993ZM423.825 54.152C425.169 56.584 426.513 59.784 426.929 61.8L428.945 61.064C428.433 59.08 427.057 55.944 425.649 53.544L423.825 54.152ZM420.977 48.072C420.305 51.4 418.993 56.168 417.841 59.016L419.76 59.528C420.944 56.744 422.321 52.2 423.312 48.584L420.977 48.072ZM415.473 58.792L415.985 61.032C419.089 60.584 423.121 60.008 427.089 59.368L427.025 57.48C422.737 58.024 418.353 58.536 415.473 58.792ZM452.062 70.8125C449.177 70.6354 446.745 69.8177 444.766 68.3594C442.786 66.9115 441.203 64.9531 440.016 62.4844C438.839 60.0156 438.25 57.5417 438.25 55.0625C438.25 52.5833 438.839 50.1094 440.016 47.6406C441.203 45.1719 442.786 43.2135 444.766 41.7656C446.745 40.3073 449.177 39.4844 452.062 39.2969V41.7344C449.885 41.9323 448.01 42.6667 446.438 43.9375C444.875 45.1979 443.646 46.8073 442.75 48.7656C441.854 50.724 441.406 52.8229 441.406 55.0625C441.406 57.3021 441.854 59.401 442.75 61.3594C443.646 63.3177 444.875 64.9271 446.438 66.1875C448.01 67.4479 449.885 68.1823 452.062 68.3906V70.8125ZM459.641 51.4688C460.536 50.0104 461.604 48.9115 462.844 48.1719C464.083 47.4323 465.224 47.0625 466.266 47.0625C467.724 47.0625 469.036 47.6927 470.203 48.9531C471.37 50.2135 471.953 52.125 471.953 54.6875C471.953 56.7083 471.562 58.5156 470.781 60.1094C470.01 61.6927 468.979 62.9479 467.688 63.875C466.396 64.7917 464.797 65.25 462.891 65.25C462.349 65.25 461.516 65.1927 460.391 65.0781C460.224 65.0573 459.974 65.0312 459.641 65H456.734V39.7812H459.641V51.4688ZM459.641 54.9219V62.4062C460.693 62.6771 461.661 62.8125 462.547 62.8125C464.307 62.8125 465.786 62.125 466.984 60.75C468.193 59.3646 468.797 57.474 468.797 55.0781C468.797 53.3385 468.469 52.0312 467.812 51.1562C467.156 50.2812 466.411 49.8438 465.578 49.8438C464.672 49.8438 463.672 50.3021 462.578 51.2188C461.495 52.1354 460.516 53.3698 459.641 54.9219ZM477.656 65V47.5469H480.562V51.3594C481.469 49.9219 482.505 48.849 483.672 48.1406C484.849 47.4219 486.156 47.0625 487.594 47.0625C488.646 47.0625 489.698 47.224 490.75 47.5469V53.8438H487.953V49.8594C487.464 49.776 487.078 49.7344 486.797 49.7344C485.714 49.7344 484.651 50.1615 483.609 51.0156C482.568 51.8698 481.552 53.151 480.562 54.8594V65H477.656ZM497.929 39.656V41.992H523.529V39.656H497.929ZM496.649 39.656V50.024C496.649 54.856 496.457 61.544 493.961 66.248C494.537 66.504 495.529 67.208 495.945 67.592C498.537 62.6 498.921 55.144 498.921 50.024V39.656H496.649ZM499.113 63.912V66.216H523.433V63.912H499.113ZM501.193 50.6V52.904H521.897V50.6H501.193ZM509.929 43.72V65.32H512.393V43.72H509.929ZM514.857 56.36C516.585 57.864 518.473 60.008 519.369 61.416L521.193 60.04C520.265 58.632 518.377 56.68 516.585 55.208L514.857 56.36ZM527.177 59.176C527.177 58.728 528.713 58.024 528.713 58.024V57.992C531.465 54.856 534.249 50.536 536.489 46.248L534.569 45.16C532.649 49.384 529.641 53.896 528.681 55.016C527.785 56.2 527.081 57 526.441 57.096C526.697 57.672 527.049 58.728 527.177 59.176ZM527.177 59.176C527.721 58.824 528.681 58.504 535.145 56.872C535.081 56.392 535.017 55.56 535.049 54.92L528.041 56.488L527.017 57.288L527.177 59.176ZM526.953 51.496C526.953 51.016 528.361 50.28 528.361 50.28V50.216C530.569 47.304 532.713 43.176 534.345 39.208L532.233 38.248C530.953 42.088 528.681 46.248 528.009 47.336C527.305 48.424 526.793 49.192 526.217 49.32C526.505 49.928 526.825 51.016 526.953 51.496ZM526.953 51.496C527.497 51.24 528.361 51.048 533.385 50.472C533.385 49.992 533.449 49.128 533.577 48.52L528.041 49.032L526.921 49.736L526.953 51.496ZM526.377 63.304L526.953 65.576C529.609 64.584 533.065 63.208 536.361 61.928L535.945 59.944C532.393 61.224 528.809 62.536 526.377 63.304ZM547.369 47.56C547.177 49.192 546.665 51.592 546.249 53.096L548.233 53.544C548.713 52.104 549.257 49.96 549.769 48.008L547.369 47.56ZM536.777 41.224V46.44H538.953V43.272H553.097V45.992H555.369V41.224H536.777ZM540.073 45.448C539.241 48.84 537.417 53.032 535.049 55.688C535.433 56.072 536.041 56.84 536.297 57.288C538.985 54.376 541.033 49.864 542.185 45.96L540.073 45.448ZM542.473 46.856V48.84H554.921V46.856H542.473ZM543.945 57.96V59.88H553.289V57.96H543.945ZM542.921 52.104V67.528H545.001V54.056H552.297V67.368H554.473V52.104H542.921ZM538.345 51.88V67.56H540.425V50.024L540.297 49.928L538.345 51.88ZM543.817 38.728C544.489 39.88 545.257 41.448 545.609 42.408L547.721 41.608C547.369 40.648 546.569 39.144 545.833 38.024L543.817 38.728ZM544.009 64.104V66.056H553.289V64.104H544.009ZM559.422 39.2969C562.307 39.4844 564.74 40.3073 566.719 41.7656C568.698 43.2135 570.276 45.1719 571.453 47.6406C572.641 50.1094 573.234 52.5833 573.234 55.0625C573.234 57.5417 572.641 60.0156 571.453 62.4844C570.276 64.9531 568.698 66.9115 566.719 68.3594C564.74 69.8177 562.307 70.6354 559.422 70.8125V68.3906C561.599 68.1823 563.469 67.4479 565.031 66.1875C566.604 64.9271 567.839 63.3177 568.734 61.3594C569.641 59.401 570.094 57.3021 570.094 55.0625C570.094 52.8229 569.641 50.724 568.734 48.7656C567.839 46.8073 566.604 45.1979 565.031 43.9375C563.469 42.6667 561.599 41.9323 559.422 41.7344V39.2969Z" fill="black"/>
</svg>
