<svg width="828" height="448" viewBox="0 0 828 448" fill="none" xmlns="http://www.w3.org/2000/svg">
<rect width="828" height="448" fill="white"/>
<rect x="57.5" y="209.5" width="641" height="166" fill="#D9D9D9" stroke="black"/>
<path d="M289.072 329.906C287.629 329.818 286.413 329.409 285.423 328.68C284.434 327.956 283.642 326.977 283.048 325.742C282.46 324.508 282.166 323.271 282.166 322.031C282.166 320.792 282.46 319.555 283.048 318.32C283.642 317.086 284.434 316.107 285.423 315.383C286.413 314.654 287.629 314.242 289.072 314.148V315.367C287.983 315.466 287.046 315.833 286.259 316.469C285.478 317.099 284.864 317.904 284.416 318.883C283.968 319.862 283.744 320.911 283.744 322.031C283.744 323.151 283.968 324.201 284.416 325.18C284.864 326.159 285.478 326.964 286.259 327.594C287.046 328.224 287.983 328.591 289.072 328.695V329.906ZM298.697 318.273V327H297.244V325.086C296.775 325.805 296.254 326.344 295.681 326.703C295.108 327.062 294.535 327.242 293.962 327.242C293.452 327.242 292.983 327.107 292.556 326.836C292.134 326.56 291.84 326.201 291.673 325.758C291.507 325.31 291.423 324.44 291.423 323.148V318.273H292.877V323.328C292.877 324.167 292.916 324.721 292.994 324.992C293.077 325.258 293.226 325.477 293.439 325.648C293.658 325.82 293.892 325.906 294.142 325.906C294.653 325.906 295.199 325.667 295.783 325.188C296.371 324.703 296.858 324.094 297.244 323.359V318.273H298.697ZM308.423 326.648C307.741 326.935 307.246 327.104 306.939 327.156C306.632 327.214 306.335 327.242 306.048 327.242C305.439 327.242 304.882 327.125 304.377 326.891C303.871 326.656 303.489 326.31 303.228 325.852C302.973 325.393 302.845 324.685 302.845 323.727V320.211H300.666V319H302.845V315.484H304.298V319H308.181V320.211H304.298V323.703C304.298 324.406 304.382 324.904 304.548 325.195C304.715 325.482 304.936 325.693 305.212 325.828C305.494 325.964 305.824 326.031 306.205 326.031C306.908 326.031 307.647 325.81 308.423 325.367V326.648ZM312.767 327V320.211H310.83V319H312.767V318.594C312.767 317.443 312.897 316.591 313.158 316.039C313.418 315.487 313.819 315.034 314.361 314.68C314.908 314.326 315.629 314.148 316.525 314.148C317.202 314.148 317.89 314.219 318.587 314.359V315.742C317.832 315.492 317.163 315.367 316.58 315.367C316.116 315.367 315.707 315.453 315.353 315.625C314.999 315.797 314.72 316.078 314.517 316.469C314.319 316.854 314.22 317.51 314.22 318.438V319H317.681V320.211H314.22V327H312.767ZM322.72 320.461L322.455 320.266C322.085 320.005 321.723 319.622 321.369 319.117C321.015 318.607 320.837 318.047 320.837 317.438C320.837 316.63 321.155 315.943 321.791 315.375C322.426 314.802 323.233 314.516 324.212 314.516C324.811 314.516 325.351 314.625 325.83 314.844C326.309 315.057 326.679 315.375 326.939 315.797C327.199 316.219 327.33 316.68 327.33 317.18C327.33 317.523 327.27 317.857 327.15 318.18C327.03 318.497 326.851 318.815 326.611 319.133C326.377 319.445 325.908 319.888 325.205 320.461L325.861 320.984C326.627 321.609 327.142 322.148 327.408 322.602C327.673 323.055 327.806 323.562 327.806 324.125C327.806 325 327.489 325.76 326.853 326.406C326.218 327.047 325.265 327.367 323.994 327.367C322.718 327.367 321.762 327.068 321.127 326.469C320.491 325.865 320.173 325.117 320.173 324.227C320.173 322.898 321.022 321.643 322.72 320.461ZM324.212 319.719C324.947 319.161 325.405 318.695 325.587 318.32C325.775 317.945 325.869 317.596 325.869 317.273C325.869 316.883 325.697 316.529 325.353 316.211C325.009 315.888 324.567 315.727 324.025 315.727C323.442 315.727 322.996 315.901 322.689 316.25C322.387 316.599 322.236 316.961 322.236 317.336C322.236 317.701 322.364 318.044 322.619 318.367C322.874 318.69 323.283 319.052 323.845 319.453L324.212 319.719ZM323.814 321.234C322.439 322.292 321.752 323.281 321.752 324.203C321.752 324.75 321.978 325.211 322.431 325.586C322.884 325.961 323.421 326.148 324.041 326.148C324.608 326.148 325.116 325.969 325.564 325.609C326.012 325.25 326.236 324.802 326.236 324.266C326.236 323.74 325.962 323.206 325.416 322.664C324.874 322.122 324.496 321.768 324.283 321.602L323.814 321.234ZM329.816 324.088C329.816 323.848 330.6 323.496 330.6 323.496V323.48C332.008 321.88 333.432 319.656 334.568 317.464L333.576 316.904C332.616 319.08 331.064 321.368 330.584 321.96C330.12 322.552 329.784 322.968 329.464 323.032C329.592 323.32 329.768 323.864 329.816 324.088ZM329.816 324.088C330.12 323.912 330.616 323.752 334.152 322.92C334.12 322.68 334.072 322.248 334.072 321.928L330.28 322.728L329.752 323.128L329.816 324.088ZM329.72 320.248C329.72 320.008 330.424 319.624 330.424 319.624V319.592C331.464 318.136 332.552 316.008 333.32 313.96L332.184 313.56C331.608 315.512 330.536 317.608 330.2 318.136C329.88 318.696 329.608 319.08 329.336 319.144C329.464 319.448 329.656 320.008 329.72 320.248ZM329.72 320.248C329.976 320.12 330.408 320.008 332.92 319.688C332.936 319.448 332.968 319 333.032 318.696L330.248 318.984L329.688 319.352L329.72 320.248ZM329.384 326.152L329.672 327.24C330.968 326.712 332.648 326.04 334.264 325.368L334.056 324.408C332.312 325.064 330.552 325.752 329.384 326.152ZM338.712 320.968V327.768H339.528V320.968H338.712ZM340.664 320.952V327.752H341.48V320.952H340.664ZM342.664 320.408V327.112C342.664 327.24 342.632 327.272 342.52 327.272C342.408 327.272 342.104 327.272 341.752 327.272C341.88 327.512 341.992 327.912 342.04 328.168C342.6 328.168 342.984 328.152 343.272 327.992C343.56 327.832 343.624 327.56 343.624 327.128V320.408H342.664ZM335.368 315.304V318.76C335.368 321.224 335.224 324.776 333.752 327.336C334.008 327.464 334.488 327.816 334.68 328.024C336.216 325.32 336.472 321.384 336.472 318.76V315.304H335.368ZM335.944 315.304V316.312H342.344V318.04H335.944V319.048H343.464V315.304H335.944ZM336.44 320.408V328.152H337.4V321.4H343.176V320.408H336.44ZM336.92 323.768V324.728H343.096V323.768H336.92ZM338.424 313.8C338.76 314.424 339.128 315.272 339.272 315.832L340.44 315.448C340.28 314.904 339.912 314.072 339.544 313.464L338.424 313.8ZM358.616 320.584V320.792C358.296 324.904 357.928 326.536 357.464 326.968C357.32 327.128 357.144 327.16 356.872 327.16C356.568 327.16 355.864 327.16 355.096 327.064C355.272 327.384 355.4 327.848 355.416 328.184C356.2 328.216 356.936 328.216 357.336 328.184C357.816 328.168 358.136 328.04 358.44 327.704C359.016 327.112 359.368 325.448 359.736 321.128C359.752 320.952 359.768 320.584 359.768 320.584H358.616ZM351.832 314.504V315.608H357.768V314.504H351.832ZM352.6 316.616C352.488 318.184 352.264 320.328 352.056 321.624H353.192C353.368 320.376 353.592 318.28 353.72 316.68L352.6 316.616ZM352.392 320.584V321.624H358.968V320.584H352.392ZM351.288 323.736V324.808H357.416V323.736H351.288ZM357.272 314.504V314.648C357.16 316.152 356.84 319.176 356.552 321.272L357.688 321.352C357.976 319.256 358.28 316.44 358.424 314.552L357.592 314.456L357.4 314.504H357.272ZM345.544 314.424V315.528H351.048V314.424H345.544ZM347.112 319.352V320.424H349.528V325.192H347.112V326.264H350.584V319.352H347.112ZM347.608 314.952C347.176 317.624 346.424 320.12 345.192 321.752C345.4 322.072 345.672 322.76 345.752 323.048C347.224 321.128 348.152 318.216 348.728 315.192L347.608 314.952ZM346.584 319.352V327.56H347.64V319.352H346.584ZM362.84 316.136V317.208H366.584V325.512H362.84V326.6H367.704V316.136H362.84ZM362.12 316.136V327.88H363.24V316.136H362.12ZM362.76 320.584V321.656H367.176V320.584H362.76ZM364.568 313.528C364.44 314.36 364.136 315.576 363.864 316.344L364.824 316.584C365.144 315.864 365.544 314.76 365.864 313.768L364.568 313.528ZM369.976 316.088V317.208H374.888V316.088H369.976ZM374.472 316.088V316.344C374.248 323.4 373.992 326.056 373.464 326.632C373.288 326.84 373.096 326.888 372.776 326.888C372.408 326.888 371.448 326.872 370.408 326.792C370.632 327.112 370.776 327.608 370.808 327.96C371.704 328.008 372.648 328.04 373.192 327.976C373.752 327.928 374.12 327.784 374.472 327.32C375.112 326.536 375.336 324.056 375.592 316.712C375.592 316.536 375.592 316.088 375.592 316.088H374.472ZM370.312 313.496C369.8 315.72 368.92 317.928 367.832 319.336C368.12 319.496 368.616 319.832 368.824 320.024C369.928 318.504 370.872 316.152 371.464 313.768L370.312 313.496ZM369.576 320.248C370.456 321.416 371.528 323 372.008 323.976L373.032 323.336C372.52 322.392 371.416 320.84 370.504 319.704L369.576 320.248ZM378.087 330.422V329.062C378.9 329.302 379.585 329.422 380.142 329.422C380.627 329.422 381.038 329.336 381.377 329.164C381.715 328.997 381.978 328.714 382.166 328.312C382.358 327.911 382.455 327.214 382.455 326.219V319.484H378.752V318.273H383.908V325.945C383.908 327.424 383.733 328.451 383.384 329.023C383.035 329.602 382.614 330.016 382.119 330.266C381.624 330.516 380.947 330.641 380.087 330.641C379.468 330.641 378.801 330.568 378.087 330.422ZM382.212 315.125C382.212 314.797 382.322 314.552 382.541 314.391C382.765 314.229 382.978 314.148 383.181 314.148C383.384 314.148 383.595 314.229 383.814 314.391C384.038 314.552 384.15 314.797 384.15 315.125C384.15 315.448 384.038 315.69 383.814 315.852C383.595 316.013 383.384 316.094 383.181 316.094C382.978 316.094 382.765 316.013 382.541 315.852C382.322 315.69 382.212 315.448 382.212 315.125ZM387.666 326.539V325C388.249 325.38 388.866 325.648 389.517 325.805C390.168 325.956 390.72 326.031 391.173 326.031C391.908 326.031 392.436 325.914 392.759 325.68C393.082 325.44 393.244 325.143 393.244 324.789C393.244 324.555 393.168 324.354 393.017 324.188C392.866 324.021 392.491 323.815 391.892 323.57L391.392 323.367L390.384 322.969C389.301 322.547 388.619 322.156 388.337 321.797C388.051 321.443 387.908 321.01 387.908 320.5C387.908 319.781 388.184 319.19 388.736 318.727C389.293 318.263 390.194 318.031 391.439 318.031C392.371 318.031 393.254 318.167 394.087 318.438V319.758C393.129 319.414 392.228 319.242 391.384 319.242C390.77 319.242 390.288 319.352 389.939 319.57C389.595 319.784 389.423 320.052 389.423 320.375C389.423 320.688 389.574 320.938 389.877 321.125C390.173 321.312 390.658 321.529 391.33 321.773L392.314 322.133C393.215 322.461 393.848 322.818 394.212 323.203C394.577 323.589 394.759 324.07 394.759 324.648C394.759 325.404 394.468 326.026 393.884 326.516C393.306 327 392.379 327.242 391.103 327.242C389.989 327.242 388.843 327.008 387.666 326.539ZM400.767 327.242C399.517 327.242 398.517 326.807 397.767 325.938C397.017 325.062 396.642 323.961 396.642 322.633C396.642 321.305 397.017 320.206 397.767 319.336C398.517 318.466 399.517 318.031 400.767 318.031C402.012 318.031 403.009 318.466 403.759 319.336C404.509 320.206 404.884 321.305 404.884 322.633C404.884 323.961 404.509 325.062 403.759 325.938C403.009 326.807 402.012 327.242 400.767 327.242ZM400.767 326.031C401.543 326.031 402.16 325.729 402.619 325.125C403.077 324.521 403.306 323.69 403.306 322.633C403.306 321.581 403.077 320.753 402.619 320.148C402.16 319.544 401.543 319.242 400.767 319.242C399.986 319.242 399.366 319.544 398.908 320.148C398.449 320.753 398.22 321.581 398.22 322.633C398.22 323.69 398.449 324.521 398.908 325.125C399.366 325.729 399.986 326.031 400.767 326.031ZM406.783 327V318.273H408.236V320.18C408.653 319.508 409.155 318.982 409.744 318.602C410.332 318.221 410.921 318.031 411.509 318.031C412.025 318.031 412.494 318.169 412.916 318.445C413.337 318.716 413.632 319.073 413.798 319.516C413.97 319.958 414.056 320.828 414.056 322.125V327H412.603V321.945C412.603 321.107 412.561 320.555 412.478 320.289C412.4 320.018 412.252 319.797 412.033 319.625C411.819 319.453 411.585 319.367 411.33 319.367C410.819 319.367 410.27 319.609 409.681 320.094C409.098 320.578 408.616 321.185 408.236 321.914V327H406.783ZM418.909 318.2V319.304H426.589V318.2H418.909ZM416.301 322.216V323.352H430.093V322.216H416.301ZM422.557 321.016V326.776C422.557 327 422.477 327.064 422.189 327.08C421.901 327.096 420.861 327.096 419.773 327.064C419.981 327.4 420.221 327.912 420.301 328.264C421.661 328.264 422.509 328.248 423.069 328.056C423.645 327.864 423.821 327.512 423.821 326.792V321.016H422.557ZM426.221 318.2V318.44C425.501 319.336 424.077 320.536 422.829 321.208C423.021 321.368 423.341 321.672 423.485 321.896C424.957 321.144 426.541 319.896 427.597 318.728L426.813 318.136L426.541 318.2H426.221ZM422.525 313.544V316.12H423.789V313.544H422.525ZM416.461 315.304V319.064H417.645V316.44H428.653V319.064H429.885V315.304H416.461ZM436.573 320.088V321.192H446.269V320.088H436.573ZM435.341 318.216C434.509 319.96 433.181 321.688 431.837 322.84C432.093 323.064 432.509 323.576 432.669 323.816C434.077 322.536 435.533 320.552 436.477 318.584L435.341 318.216ZM442.909 318.344V326.744C442.909 327.016 442.829 327.096 442.509 327.096C442.205 327.112 441.149 327.128 439.997 327.096C440.173 327.416 440.365 327.928 440.413 328.248C441.869 328.248 442.813 328.232 443.357 328.056C443.901 327.864 444.077 327.512 444.077 326.76V318.344H442.909ZM433.853 315.096V316.12H438.765V315.096H433.853ZM439.997 315.096V316.12H446.125V315.096H439.997ZM434.093 313.512C433.597 315.128 432.749 316.712 431.741 317.752C432.029 317.912 432.541 318.248 432.765 318.424C433.725 317.288 434.669 315.544 435.245 313.8L434.093 313.512ZM440.381 313.512C439.901 315.128 439.037 316.648 437.965 317.624C438.253 317.8 438.749 318.136 438.973 318.312C440.013 317.224 440.973 315.56 441.533 313.784L440.381 313.512ZM434.973 315.912C435.357 316.664 435.837 317.704 436.077 318.296L437.149 317.912C436.893 317.336 436.381 316.328 435.997 315.608L434.973 315.912ZM441.501 315.912C441.965 316.584 442.557 317.512 442.829 318.072L443.885 317.64C443.581 317.08 442.973 316.184 442.493 315.528L441.501 315.912ZM437.501 322.584C438.205 323.608 439.101 324.984 439.517 325.784L440.525 325.176C440.077 324.392 439.165 323.064 438.461 322.072L437.501 322.584ZM434.221 320.856V328.28H435.373V319.736V319.72L434.221 320.856ZM454.493 313.576V328.264H455.757V313.576H454.493ZM448.845 321.112V326.312H450.077V322.232H460.301V326.28H461.581V321.112H448.845ZM450.701 316.504H459.581V318.712H450.701V316.504ZM449.485 315.416V319.768H460.861V315.416H449.485ZM449.597 324.552V325.64H460.813V324.552H449.597ZM464.408 314.148C465.851 314.242 467.067 314.654 468.056 315.383C469.046 316.107 469.835 317.086 470.423 318.32C471.017 319.555 471.314 320.792 471.314 322.031C471.314 323.271 471.017 324.508 470.423 325.742C469.835 326.977 469.046 327.956 468.056 328.68C467.067 329.409 465.851 329.818 464.408 329.906V328.695C465.496 328.591 466.431 328.224 467.212 327.594C467.999 326.964 468.616 326.159 469.064 325.18C469.517 324.201 469.744 323.151 469.744 322.031C469.744 320.911 469.517 319.862 469.064 318.883C468.616 317.904 467.999 317.099 467.212 316.469C466.431 315.833 465.496 315.466 464.408 315.367V314.148Z" fill="black"/>
<path d="M343.987 258.469C344.883 257.01 345.951 255.911 347.191 255.172C348.43 254.432 349.571 254.062 350.612 254.062C352.071 254.062 353.383 254.693 354.55 255.953C355.717 257.214 356.3 259.125 356.3 261.688C356.3 263.708 355.909 265.516 355.128 267.109C354.357 268.693 353.326 269.948 352.034 270.875C350.743 271.792 349.144 272.25 347.237 272.25C346.696 272.25 345.862 272.193 344.737 272.078C344.571 272.057 344.321 272.031 343.987 272H341.081V246.781H343.987V258.469ZM343.987 261.922V269.406C345.04 269.677 346.008 269.812 346.894 269.812C348.654 269.812 350.133 269.125 351.331 267.75C352.54 266.365 353.144 264.474 353.144 262.078C353.144 260.339 352.816 259.031 352.159 258.156C351.503 257.281 350.758 256.844 349.925 256.844C349.019 256.844 348.019 257.302 346.925 258.219C345.842 259.135 344.862 260.37 343.987 261.922ZM367.706 272.484C365.206 272.484 363.206 271.615 361.706 269.875C360.206 268.125 359.456 265.922 359.456 263.266C359.456 260.609 360.206 258.411 361.706 256.672C363.206 254.932 365.206 254.062 367.706 254.062C370.196 254.062 372.191 254.932 373.691 256.672C375.191 258.411 375.941 260.609 375.941 263.266C375.941 265.922 375.191 268.125 373.691 269.875C372.191 271.615 370.196 272.484 367.706 272.484ZM367.706 270.062C369.258 270.062 370.493 269.458 371.409 268.25C372.326 267.042 372.784 265.38 372.784 263.266C372.784 261.161 372.326 259.505 371.409 258.297C370.493 257.089 369.258 256.484 367.706 256.484C366.144 256.484 364.904 257.089 363.987 258.297C363.071 259.505 362.612 261.161 362.612 263.266C362.612 265.38 363.071 267.042 363.987 268.25C364.904 269.458 366.144 270.062 367.706 270.062ZM391.394 268.078C390.508 269.536 389.441 270.635 388.191 271.375C386.951 272.115 385.81 272.484 384.769 272.484C383.31 272.484 381.998 271.854 380.831 270.594C379.675 269.333 379.097 267.422 379.097 264.859C379.097 262.839 379.482 261.036 380.253 259.453C381.024 257.859 382.055 256.604 383.347 255.688C384.639 254.76 386.237 254.297 388.144 254.297C388.696 254.297 389.529 254.354 390.644 254.469C390.81 254.49 391.06 254.516 391.394 254.547V246.781H394.316V272H391.394V268.078ZM391.394 264.625V257.141C390.362 256.87 389.404 256.734 388.519 256.734C386.727 256.734 385.232 257.427 384.034 258.812C382.847 260.198 382.253 262.083 382.253 264.469C382.253 266.198 382.576 267.505 383.222 268.391C383.878 269.266 384.623 269.703 385.456 269.703C386.362 269.703 387.362 269.245 388.456 268.328C389.55 267.411 390.529 266.177 391.394 264.625ZM405.378 271.297L397.316 254.547H400.519L406.941 267.641L412.316 254.547H415.237L408.472 270.766C407.045 274.193 405.685 276.469 404.394 277.594C403.112 278.719 401.451 279.281 399.409 279.281C398.524 279.281 397.732 279.203 397.034 279.047V276.484C397.836 276.734 398.602 276.859 399.331 276.859C400.269 276.859 401.102 276.677 401.831 276.312C402.56 275.948 403.227 275.302 403.831 274.375C404.435 273.448 404.862 272.646 405.112 271.969L405.378 271.297Z" fill="black"/>
<path d="M604.312 140.539V139C604.896 139.38 605.513 139.648 606.164 139.805C606.815 139.956 607.367 140.031 607.82 140.031C608.555 140.031 609.083 139.914 609.406 139.68C609.729 139.44 609.891 139.143 609.891 138.789C609.891 138.555 609.815 138.354 609.664 138.188C609.513 138.021 609.138 137.815 608.539 137.57L608.039 137.367L607.031 136.969C605.948 136.547 605.266 136.156 604.984 135.797C604.698 135.443 604.555 135.01 604.555 134.5C604.555 133.781 604.831 133.19 605.383 132.727C605.94 132.263 606.841 132.031 608.086 132.031C609.018 132.031 609.901 132.167 610.734 132.438V133.758C609.776 133.414 608.875 133.242 608.031 133.242C607.417 133.242 606.935 133.352 606.586 133.57C606.242 133.784 606.07 134.052 606.07 134.375C606.07 134.688 606.221 134.938 606.523 135.125C606.82 135.312 607.305 135.529 607.977 135.773L608.961 136.133C609.862 136.461 610.495 136.818 610.859 137.203C611.224 137.589 611.406 138.07 611.406 138.648C611.406 139.404 611.115 140.026 610.531 140.516C609.953 141 609.026 141.242 607.75 141.242C606.635 141.242 605.49 141.008 604.312 140.539ZM621.078 140.422C619.917 140.974 618.818 141.25 617.781 141.25C616.995 141.25 616.292 141.055 615.672 140.664C615.052 140.273 614.555 139.716 614.18 138.992C613.81 138.263 613.625 137.484 613.625 136.656C613.625 135.859 613.802 135.094 614.156 134.359C614.51 133.625 615.005 133.055 615.641 132.648C616.276 132.237 616.984 132.031 617.766 132.031C618.802 132.031 619.633 132.401 620.258 133.141C620.888 133.88 621.203 135.021 621.203 136.562V136.875H615.188C615.188 137.479 615.312 138.031 615.562 138.531C615.818 139.031 616.151 139.406 616.562 139.656C616.974 139.906 617.443 140.031 617.969 140.031C618.906 140.031 619.943 139.719 621.078 139.094V140.422ZM615.273 135.789H619.625V135.578C619.625 134.865 619.451 134.297 619.102 133.875C618.753 133.453 618.286 133.242 617.703 133.242C617.115 133.242 616.604 133.458 616.172 133.891C615.745 134.318 615.445 134.951 615.273 135.789ZM629.258 139.039C628.815 139.768 628.281 140.318 627.656 140.688C627.036 141.057 626.466 141.242 625.945 141.242C625.216 141.242 624.56 140.927 623.977 140.297C623.398 139.667 623.109 138.711 623.109 137.43C623.109 136.419 623.302 135.518 623.688 134.727C624.073 133.93 624.589 133.302 625.234 132.844C625.88 132.38 626.68 132.148 627.633 132.148C627.909 132.148 628.326 132.177 628.883 132.234C628.966 132.245 629.091 132.258 629.258 132.273H630.719V144.391H629.258V139.039ZM629.258 137.312V133.57C628.742 133.435 628.263 133.367 627.82 133.367C626.924 133.367 626.177 133.714 625.578 134.406C624.984 135.099 624.688 136.042 624.688 137.234C624.688 138.099 624.849 138.753 625.172 139.195C625.5 139.633 625.872 139.852 626.289 139.852C626.742 139.852 627.242 139.622 627.789 139.164C628.336 138.706 628.826 138.089 629.258 137.312Z" fill="black"/>
<path d="M452.805 141.242C451.555 141.242 450.555 140.807 449.805 139.938C449.055 139.062 448.68 137.961 448.68 136.633C448.68 135.305 449.055 134.206 449.805 133.336C450.555 132.466 451.555 132.031 452.805 132.031C454.049 132.031 455.047 132.466 455.797 133.336C456.547 134.206 456.922 135.305 456.922 136.633C456.922 137.961 456.547 139.062 455.797 139.938C455.047 140.807 454.049 141.242 452.805 141.242ZM452.805 140.031C453.581 140.031 454.198 139.729 454.656 139.125C455.115 138.521 455.344 137.69 455.344 136.633C455.344 135.581 455.115 134.753 454.656 134.148C454.198 133.544 453.581 133.242 452.805 133.242C452.023 133.242 451.404 133.544 450.945 134.148C450.487 134.753 450.258 135.581 450.258 136.633C450.258 137.69 450.487 138.521 450.945 139.125C451.404 139.729 452.023 140.031 452.805 140.031ZM460.164 134.234C460.612 133.505 461.146 132.956 461.766 132.586C462.385 132.216 462.956 132.031 463.477 132.031C464.206 132.031 464.862 132.346 465.445 132.977C466.029 133.607 466.32 134.562 466.32 135.844C466.32 136.854 466.125 137.758 465.734 138.555C465.349 139.346 464.833 139.974 464.188 140.438C463.542 140.896 462.742 141.125 461.789 141.125C461.518 141.125 461.102 141.096 460.539 141.039C460.456 141.029 460.331 141.016 460.164 141V144.391H458.711V132.273H460.164V134.234ZM460.164 135.961V139.703C460.69 139.839 461.174 139.906 461.617 139.906C462.497 139.906 463.237 139.562 463.836 138.875C464.44 138.182 464.742 137.237 464.742 136.039C464.742 135.169 464.578 134.516 464.25 134.078C463.922 133.641 463.549 133.422 463.133 133.422C462.68 133.422 462.18 133.651 461.633 134.109C461.091 134.568 460.602 135.185 460.164 135.961Z" fill="black"/>
<path d="M306.555 134.234C307.003 133.505 307.536 132.956 308.156 132.586C308.776 132.216 309.346 132.031 309.867 132.031C310.596 132.031 311.253 132.346 311.836 132.977C312.419 133.607 312.711 134.562 312.711 135.844C312.711 136.854 312.516 137.758 312.125 138.555C311.74 139.346 311.224 139.974 310.578 140.438C309.932 140.896 309.133 141.125 308.18 141.125C307.909 141.125 307.492 141.096 306.93 141.039C306.846 141.029 306.721 141.016 306.555 141V144.391H305.102V132.273H306.555V134.234ZM306.555 135.961V139.703C307.081 139.839 307.565 139.906 308.008 139.906C308.888 139.906 309.628 139.562 310.227 138.875C310.831 138.182 311.133 137.237 311.133 136.039C311.133 135.169 310.969 134.516 310.641 134.078C310.312 133.641 309.94 133.422 309.523 133.422C309.07 133.422 308.57 133.651 308.023 134.109C307.482 134.568 306.992 135.185 306.555 135.961ZM315.562 141V132.273H317.016V134.18C317.469 133.461 317.987 132.924 318.57 132.57C319.159 132.211 319.812 132.031 320.531 132.031C321.057 132.031 321.583 132.112 322.109 132.273V135.422H320.711V133.43C320.466 133.388 320.273 133.367 320.133 133.367C319.591 133.367 319.06 133.581 318.539 134.008C318.018 134.435 317.51 135.076 317.016 135.93V141H315.562ZM328.023 141.242C326.773 141.242 325.773 140.807 325.023 139.938C324.273 139.062 323.898 137.961 323.898 136.633C323.898 135.305 324.273 134.206 325.023 133.336C325.773 132.466 326.773 132.031 328.023 132.031C329.268 132.031 330.266 132.466 331.016 133.336C331.766 134.206 332.141 135.305 332.141 136.633C332.141 137.961 331.766 139.062 331.016 139.938C330.266 140.807 329.268 141.242 328.023 141.242ZM328.023 140.031C328.799 140.031 329.417 139.729 329.875 139.125C330.333 138.521 330.562 137.69 330.562 136.633C330.562 135.581 330.333 134.753 329.875 134.148C329.417 133.544 328.799 133.242 328.023 133.242C327.242 133.242 326.622 133.544 326.164 134.148C325.706 134.753 325.477 135.581 325.477 136.633C325.477 137.69 325.706 138.521 326.164 139.125C326.622 139.729 327.242 140.031 328.023 140.031ZM341.336 140.648C340.654 140.935 340.159 141.104 339.852 141.156C339.544 141.214 339.247 141.242 338.961 141.242C338.352 141.242 337.794 141.125 337.289 140.891C336.784 140.656 336.401 140.31 336.141 139.852C335.885 139.393 335.758 138.685 335.758 137.727V134.211H333.578V133H335.758V129.484H337.211V133H341.094V134.211H337.211V137.703C337.211 138.406 337.294 138.904 337.461 139.195C337.628 139.482 337.849 139.693 338.125 139.828C338.406 139.964 338.737 140.031 339.117 140.031C339.82 140.031 340.56 139.81 341.336 139.367V140.648ZM347.242 141.242C345.992 141.242 344.992 140.807 344.242 139.938C343.492 139.062 343.117 137.961 343.117 136.633C343.117 135.305 343.492 134.206 344.242 133.336C344.992 132.466 345.992 132.031 347.242 132.031C348.487 132.031 349.484 132.466 350.234 133.336C350.984 134.206 351.359 135.305 351.359 136.633C351.359 137.961 350.984 139.062 350.234 139.938C349.484 140.807 348.487 141.242 347.242 141.242ZM347.242 140.031C348.018 140.031 348.635 139.729 349.094 139.125C349.552 138.521 349.781 137.69 349.781 136.633C349.781 135.581 349.552 134.753 349.094 134.148C348.635 133.544 348.018 133.242 347.242 133.242C346.461 133.242 345.841 133.544 345.383 134.148C344.924 134.753 344.695 135.581 344.695 136.633C344.695 137.69 344.924 138.521 345.383 139.125C345.841 139.729 346.461 140.031 347.242 140.031ZM359.883 128.875H361.398L357.664 141H356.062L352.305 128.875H353.969L356.602 137.344L356.945 138.578L357.25 137.352L359.883 128.875ZM370.125 140.422C368.964 140.974 367.865 141.25 366.828 141.25C366.042 141.25 365.339 141.055 364.719 140.664C364.099 140.273 363.602 139.716 363.227 138.992C362.857 138.263 362.672 137.484 362.672 136.656C362.672 135.859 362.849 135.094 363.203 134.359C363.557 133.625 364.052 133.055 364.688 132.648C365.323 132.237 366.031 132.031 366.812 132.031C367.849 132.031 368.68 132.401 369.305 133.141C369.935 133.88 370.25 135.021 370.25 136.562V136.875H364.234C364.234 137.479 364.359 138.031 364.609 138.531C364.865 139.031 365.198 139.406 365.609 139.656C366.021 139.906 366.49 140.031 367.016 140.031C367.953 140.031 368.99 139.719 370.125 139.094V140.422ZM364.32 135.789H368.672V135.578C368.672 134.865 368.497 134.297 368.148 133.875C367.799 133.453 367.333 133.242 366.75 133.242C366.161 133.242 365.651 133.458 365.219 133.891C364.792 134.318 364.492 134.951 364.32 135.789ZM373.219 141V132.273H374.672V134.18C375.125 133.461 375.643 132.924 376.227 132.57C376.815 132.211 377.469 132.031 378.188 132.031C378.714 132.031 379.24 132.112 379.766 132.273V135.422H378.367V133.43C378.122 133.388 377.93 133.367 377.789 133.367C377.247 133.367 376.716 133.581 376.195 134.008C375.674 134.435 375.167 135.076 374.672 135.93V141H373.219Z" fill="black"/>
<path d="M240.211 141V128.391H241.664V134.18C242.081 133.508 242.583 132.982 243.172 132.602C243.76 132.221 244.349 132.031 244.938 132.031C245.432 132.031 245.883 132.159 246.289 132.414C246.701 132.664 246.987 132.969 247.148 133.328C247.279 133.604 247.367 133.898 247.414 134.211C247.461 134.518 247.484 135.156 247.484 136.125V141H246.031V135.945C246.031 135.107 245.99 134.555 245.906 134.289C245.828 134.018 245.68 133.797 245.461 133.625C245.247 133.453 245.013 133.367 244.758 133.367C244.247 133.367 243.698 133.609 243.109 134.094C242.526 134.578 242.044 135.185 241.664 135.914V141H240.211ZM256.867 139.664V141H250.32V128.875H251.898V139.664H256.867ZM266.688 140.422C265.526 140.974 264.427 141.25 263.391 141.25C262.604 141.25 261.901 141.055 261.281 140.664C260.661 140.273 260.164 139.716 259.789 138.992C259.419 138.263 259.234 137.484 259.234 136.656C259.234 135.859 259.411 135.094 259.766 134.359C260.12 133.625 260.615 133.055 261.25 132.648C261.885 132.237 262.594 132.031 263.375 132.031C264.411 132.031 265.242 132.401 265.867 133.141C266.497 133.88 266.812 135.021 266.812 136.562V136.875H260.797C260.797 137.479 260.922 138.031 261.172 138.531C261.427 139.031 261.76 139.406 262.172 139.656C262.583 139.906 263.052 140.031 263.578 140.031C264.516 140.031 265.552 139.719 266.688 139.094V140.422ZM260.883 135.789H265.234V135.578C265.234 134.865 265.06 134.297 264.711 133.875C264.362 133.453 263.896 133.242 263.312 133.242C262.724 133.242 262.214 133.458 261.781 133.891C261.354 134.318 261.055 134.951 260.883 135.789ZM269.039 141V132.273H270.492V134.18C270.909 133.508 271.411 132.982 272 132.602C272.589 132.221 273.177 132.031 273.766 132.031C274.281 132.031 274.75 132.169 275.172 132.445C275.594 132.716 275.888 133.073 276.055 133.516C276.227 133.958 276.312 134.828 276.312 136.125V141H274.859V135.945C274.859 135.107 274.818 134.555 274.734 134.289C274.656 134.018 274.508 133.797 274.289 133.625C274.076 133.453 273.841 133.367 273.586 133.367C273.076 133.367 272.526 133.609 271.938 134.094C271.354 134.578 270.872 135.185 270.492 135.914V141H269.039Z" fill="black"/>
<path d="M97.5547 134.234C98.0026 133.505 98.5365 132.956 99.1562 132.586C99.776 132.216 100.346 132.031 100.867 132.031C101.596 132.031 102.253 132.346 102.836 132.977C103.419 133.607 103.711 134.562 103.711 135.844C103.711 136.854 103.516 137.758 103.125 138.555C102.74 139.346 102.224 139.974 101.578 140.438C100.932 140.896 100.133 141.125 99.1797 141.125C98.9089 141.125 98.4922 141.096 97.9297 141.039C97.8464 141.029 97.7214 141.016 97.5547 141V144.391H96.1016V132.273H97.5547V134.234ZM97.5547 135.961V139.703C98.0807 139.839 98.5651 139.906 99.0078 139.906C99.888 139.906 100.628 139.562 101.227 138.875C101.831 138.182 102.133 137.237 102.133 136.039C102.133 135.169 101.969 134.516 101.641 134.078C101.312 133.641 100.94 133.422 100.523 133.422C100.07 133.422 99.5703 133.651 99.0234 134.109C98.4818 134.568 97.9922 135.185 97.5547 135.961ZM111.555 139.039C111.112 139.768 110.578 140.318 109.953 140.688C109.333 141.057 108.763 141.242 108.242 141.242C107.513 141.242 106.857 140.927 106.273 140.297C105.695 139.667 105.406 138.711 105.406 137.43C105.406 136.419 105.599 135.518 105.984 134.727C106.37 133.93 106.885 133.302 107.531 132.844C108.177 132.38 108.977 132.148 109.93 132.148C110.206 132.148 110.622 132.177 111.18 132.234C111.263 132.245 111.388 132.258 111.555 132.273H113.016V138.438C113.016 139.49 113.125 140.344 113.344 141H111.828C111.714 140.521 111.622 139.867 111.555 139.039ZM111.555 137.312V133.57C111.039 133.435 110.56 133.367 110.117 133.367C109.221 133.367 108.474 133.714 107.875 134.406C107.281 135.099 106.984 136.042 106.984 137.234C106.984 138.099 107.146 138.753 107.469 139.195C107.797 139.633 108.169 139.852 108.586 139.852C109.039 139.852 109.539 139.622 110.086 139.164C110.633 138.706 111.122 138.089 111.555 137.312ZM122.773 140.75C121.799 141.078 120.872 141.242 119.992 141.242C119.117 141.242 118.339 141.042 117.656 140.641C116.979 140.234 116.451 139.688 116.07 139C115.69 138.307 115.5 137.521 115.5 136.641C115.5 135.318 115.93 134.219 116.789 133.344C117.654 132.469 118.695 132.031 119.914 132.031C120.815 132.031 121.768 132.201 122.773 132.539V133.938C121.758 133.474 120.849 133.242 120.047 133.242C119.516 133.242 119.016 133.375 118.547 133.641C118.078 133.901 117.716 134.31 117.461 134.867C117.206 135.424 117.078 135.997 117.078 136.586C117.078 137.372 117.323 138.122 117.812 138.836C118.307 139.549 119.081 139.906 120.133 139.906C120.451 139.906 120.763 139.885 121.07 139.844C121.378 139.797 121.945 139.633 122.773 139.352V140.75ZM125.43 141V128.391H126.883V136.312L131.078 132.273H133.016L128.828 136.312L133.125 141H131.125L126.883 136.312V141H125.43ZM141.906 140.422C140.745 140.974 139.646 141.25 138.609 141.25C137.823 141.25 137.12 141.055 136.5 140.664C135.88 140.273 135.383 139.716 135.008 138.992C134.638 138.263 134.453 137.484 134.453 136.656C134.453 135.859 134.63 135.094 134.984 134.359C135.339 133.625 135.833 133.055 136.469 132.648C137.104 132.237 137.812 132.031 138.594 132.031C139.63 132.031 140.461 132.401 141.086 133.141C141.716 133.88 142.031 135.021 142.031 136.562V136.875H136.016C136.016 137.479 136.141 138.031 136.391 138.531C136.646 139.031 136.979 139.406 137.391 139.656C137.802 139.906 138.271 140.031 138.797 140.031C139.734 140.031 140.771 139.719 141.906 139.094V140.422ZM136.102 135.789H140.453V135.578C140.453 134.865 140.279 134.297 139.93 133.875C139.581 133.453 139.115 133.242 138.531 133.242C137.943 133.242 137.432 133.458 137 133.891C136.573 134.318 136.273 134.951 136.102 135.789ZM151.555 140.648C150.872 140.935 150.378 141.104 150.07 141.156C149.763 141.214 149.466 141.242 149.18 141.242C148.57 141.242 148.013 141.125 147.508 140.891C147.003 140.656 146.62 140.31 146.359 139.852C146.104 139.393 145.977 138.685 145.977 137.727V134.211H143.797V133H145.977V129.484H147.43V133H151.312V134.211H147.43V137.703C147.43 138.406 147.513 138.904 147.68 139.195C147.846 139.482 148.068 139.693 148.344 139.828C148.625 139.964 148.956 140.031 149.336 140.031C150.039 140.031 150.779 139.81 151.555 139.367V140.648ZM160.914 139.664V141H154.367V128.875H155.945V139.664H160.914ZM170.734 140.422C169.573 140.974 168.474 141.25 167.438 141.25C166.651 141.25 165.948 141.055 165.328 140.664C164.708 140.273 164.211 139.716 163.836 138.992C163.466 138.263 163.281 137.484 163.281 136.656C163.281 135.859 163.458 135.094 163.812 134.359C164.167 133.625 164.661 133.055 165.297 132.648C165.932 132.237 166.641 132.031 167.422 132.031C168.458 132.031 169.289 132.401 169.914 133.141C170.544 133.88 170.859 135.021 170.859 136.562V136.875H164.844C164.844 137.479 164.969 138.031 165.219 138.531C165.474 139.031 165.807 139.406 166.219 139.656C166.63 139.906 167.099 140.031 167.625 140.031C168.562 140.031 169.599 139.719 170.734 139.094V140.422ZM164.93 135.789H169.281V135.578C169.281 134.865 169.107 134.297 168.758 133.875C168.409 133.453 167.943 133.242 167.359 133.242C166.771 133.242 166.26 133.458 165.828 133.891C165.401 134.318 165.102 134.951 164.93 135.789ZM173.086 141V132.273H174.539V134.18C174.956 133.508 175.458 132.982 176.047 132.602C176.635 132.221 177.224 132.031 177.812 132.031C178.328 132.031 178.797 132.169 179.219 132.445C179.641 132.716 179.935 133.073 180.102 133.516C180.273 133.958 180.359 134.828 180.359 136.125V141H178.906V135.945C178.906 135.107 178.865 134.555 178.781 134.289C178.703 134.018 178.555 133.797 178.336 133.625C178.122 133.453 177.888 133.367 177.633 133.367C177.122 133.367 176.573 133.609 175.984 134.094C175.401 134.578 174.919 135.185 174.539 135.914V141H173.086Z" fill="black"/>
<mask id="path-9-outside-1_10_75" maskUnits="userSpaceOnUse" x="537" y="158" width="162" height="52" fill="black">
<rect fill="white" x="537" y="158" width="162" height="52"/>
<path fill-rule="evenodd" clip-rule="evenodd" d="M618 159H538V209H618H698V159H618Z"/>
</mask>
<path fill-rule="evenodd" clip-rule="evenodd" d="M618 159H538V209H618H698V159H618Z" fill="#D9D9D9"/>
<path d="M538 159V158H537V159H538ZM538 209H537V210H538V209ZM698 209V210H699V209H698ZM698 159H699V158H698V159ZM538 160H618V158H538V160ZM539 209V159H537V209H539ZM618 208H538V210H618V208ZM698 208H618V210H698V208ZM697 159V209H699V159H697ZM618 160H698V158H618V160Z" fill="black" mask="url(#path-9-outside-1_10_75)"/>
<mask id="path-11-outside-2_10_75" maskUnits="userSpaceOnUse" x="377" y="158" width="162" height="52" fill="black">
<rect fill="white" x="377" y="158" width="162" height="52"/>
<path fill-rule="evenodd" clip-rule="evenodd" d="M458 159H378V209H458H538V159H458Z"/>
</mask>
<path fill-rule="evenodd" clip-rule="evenodd" d="M458 159H378V209H458H538V159H458Z" fill="#D9D9D9"/>
<path d="M378 159V158H377V159H378ZM378 209H377V210H378V209ZM538 209V210H539V209H538ZM538 159H539V158H538V159ZM378 160H458V158H378V160ZM379 209V159H377V209H379ZM458 208H378V210H458V208ZM538 208H458V210H538V208ZM537 159V209H539V159H537ZM458 160H538V158H458V160Z" fill="black" mask="url(#path-11-outside-2_10_75)"/>
<mask id="path-13-outside-3_10_75" maskUnits="userSpaceOnUse" x="57" y="158" width="162" height="52" fill="black">
<rect fill="white" x="57" y="158" width="162" height="52"/>
<path fill-rule="evenodd" clip-rule="evenodd" d="M138 159H58V209H138H218V159H138Z"/>
</mask>
<path fill-rule="evenodd" clip-rule="evenodd" d="M138 159H58V209H138H218V159H138Z" fill="#D9D9D9"/>
<path d="M58 159V158H57V159H58ZM58 209H57V210H58V209ZM218 209V210H219V209H218ZM218 159H219V158H218V159ZM58 160H138V158H58V160ZM59 209V159H57V209H59ZM138 208H58V210H138V208ZM218 208H138V210H218V208ZM217 159V209H219V159H217ZM138 160H218V158H138V160Z" fill="black" mask="url(#path-13-outside-3_10_75)"/>
<rect x="217.5" y="158.5" width="81" height="51" fill="#D9D9D9" stroke="black"/>
<rect x="297.5" y="158.5" width="81" height="51" fill="#D9D9D9" stroke="black"/>
<path d="M242.656 191V183.484H240.234V182.273H244.109V189.789H246.539V191H242.656ZM242.414 179.125C242.414 178.797 242.526 178.552 242.75 178.391C242.974 178.229 243.185 178.148 243.383 178.148C243.586 178.148 243.799 178.229 244.023 178.391C244.247 178.552 244.359 178.797 244.359 179.125C244.359 179.448 244.247 179.69 244.023 179.852C243.799 180.013 243.586 180.094 243.383 180.094C243.185 180.094 242.974 180.013 242.75 179.852C242.526 179.69 242.414 179.448 242.414 179.125ZM249.82 191V182.273H251.273V184.18C251.69 183.508 252.193 182.982 252.781 182.602C253.37 182.221 253.958 182.031 254.547 182.031C255.062 182.031 255.531 182.169 255.953 182.445C256.375 182.716 256.669 183.073 256.836 183.516C257.008 183.958 257.094 184.828 257.094 186.125V191H255.641V185.945C255.641 185.107 255.599 184.555 255.516 184.289C255.438 184.018 255.289 183.797 255.07 183.625C254.857 183.453 254.622 183.367 254.367 183.367C253.857 183.367 253.307 183.609 252.719 184.094C252.135 184.578 251.654 185.185 251.273 185.914V191H249.82ZM266.727 190.648C266.044 190.935 265.549 191.104 265.242 191.156C264.935 191.214 264.638 191.242 264.352 191.242C263.742 191.242 263.185 191.125 262.68 190.891C262.174 190.656 261.792 190.31 261.531 189.852C261.276 189.393 261.148 188.685 261.148 187.727V184.211H258.969V183H261.148V179.484H262.602V183H266.484V184.211H262.602V187.703C262.602 188.406 262.685 188.904 262.852 189.195C263.018 189.482 263.24 189.693 263.516 189.828C263.797 189.964 264.128 190.031 264.508 190.031C265.211 190.031 265.951 189.81 266.727 189.367V190.648ZM272.266 189.789V180.43C271.828 180.779 271.404 181.076 270.992 181.32C270.581 181.565 270.016 181.815 269.297 182.07V180.758C270.438 180.273 271.427 179.646 272.266 178.875H273.719V189.789H276.633V191H269.297V189.789H272.266ZM279.719 185.312C280.094 184.755 280.557 184.302 281.109 183.953C281.667 183.599 282.279 183.422 282.945 183.422C283.576 183.422 284.172 183.576 284.734 183.883C285.302 184.19 285.734 184.62 286.031 185.172C286.328 185.719 286.477 186.357 286.477 187.086C286.477 188.237 286.107 189.24 285.367 190.094C284.633 190.943 283.664 191.367 282.461 191.367C281.044 191.367 279.984 190.776 279.281 189.594C278.583 188.406 278.234 186.898 278.234 185.07C278.234 183.049 278.68 181.453 279.57 180.281C280.461 179.104 281.667 178.516 283.188 178.516C284.005 178.516 284.799 178.635 285.57 178.875V180.344C284.706 179.932 283.891 179.727 283.125 179.727C282.042 179.727 281.203 180.224 280.609 181.219C280.016 182.214 279.719 183.474 279.719 185V185.312ZM282.57 190.156C282.961 190.156 283.354 190.042 283.75 189.812C284.146 189.578 284.456 189.221 284.68 188.742C284.909 188.258 285.023 187.732 285.023 187.164C285.023 186.424 284.831 185.818 284.445 185.344C284.065 184.87 283.521 184.633 282.812 184.633C282.078 184.633 281.474 184.909 281 185.461C280.531 186.008 280.297 186.674 280.297 187.461C280.297 188.253 280.526 188.901 280.984 189.406C281.448 189.906 281.977 190.156 282.57 190.156Z" fill="black"/>
<path d="M317.656 191V183.484H315.234V182.273H319.109V189.789H321.539V191H317.656ZM317.414 179.125C317.414 178.797 317.526 178.552 317.75 178.391C317.974 178.229 318.185 178.148 318.383 178.148C318.586 178.148 318.799 178.229 319.023 178.391C319.247 178.552 319.359 178.797 319.359 179.125C319.359 179.448 319.247 179.69 319.023 179.852C318.799 180.013 318.586 180.094 318.383 180.094C318.185 180.094 317.974 180.013 317.75 179.852C317.526 179.69 317.414 179.448 317.414 179.125ZM324.82 191V182.273H326.273V184.18C326.69 183.508 327.193 182.982 327.781 182.602C328.37 182.221 328.958 182.031 329.547 182.031C330.062 182.031 330.531 182.169 330.953 182.445C331.375 182.716 331.669 183.073 331.836 183.516C332.008 183.958 332.094 184.828 332.094 186.125V191H330.641V185.945C330.641 185.107 330.599 184.555 330.516 184.289C330.438 184.018 330.289 183.797 330.07 183.625C329.857 183.453 329.622 183.367 329.367 183.367C328.857 183.367 328.307 183.609 327.719 184.094C327.135 184.578 326.654 185.185 326.273 185.914V191H324.82ZM341.727 190.648C341.044 190.935 340.549 191.104 340.242 191.156C339.935 191.214 339.638 191.242 339.352 191.242C338.742 191.242 338.185 191.125 337.68 190.891C337.174 190.656 336.792 190.31 336.531 189.852C336.276 189.393 336.148 188.685 336.148 187.727V184.211H333.969V183H336.148V179.484H337.602V183H341.484V184.211H337.602V187.703C337.602 188.406 337.685 188.904 337.852 189.195C338.018 189.482 338.24 189.693 338.516 189.828C338.797 189.964 339.128 190.031 339.508 190.031C340.211 190.031 340.951 189.81 341.727 189.367V190.648ZM347.266 189.789V180.43C346.828 180.779 346.404 181.076 345.992 181.32C345.581 181.565 345.016 181.815 344.297 182.07V180.758C345.438 180.273 346.427 179.646 347.266 178.875H348.719V189.789H351.633V191H344.297V189.789H347.266ZM354.719 185.312C355.094 184.755 355.557 184.302 356.109 183.953C356.667 183.599 357.279 183.422 357.945 183.422C358.576 183.422 359.172 183.576 359.734 183.883C360.302 184.19 360.734 184.62 361.031 185.172C361.328 185.719 361.477 186.357 361.477 187.086C361.477 188.237 361.107 189.24 360.367 190.094C359.633 190.943 358.664 191.367 357.461 191.367C356.044 191.367 354.984 190.776 354.281 189.594C353.583 188.406 353.234 186.898 353.234 185.07C353.234 183.049 353.68 181.453 354.57 180.281C355.461 179.104 356.667 178.516 358.188 178.516C359.005 178.516 359.799 178.635 360.57 178.875V180.344C359.706 179.932 358.891 179.727 358.125 179.727C357.042 179.727 356.203 180.224 355.609 181.219C355.016 182.214 354.719 183.474 354.719 185V185.312ZM357.57 190.156C357.961 190.156 358.354 190.042 358.75 189.812C359.146 189.578 359.456 189.221 359.68 188.742C359.909 188.258 360.023 187.732 360.023 187.164C360.023 186.424 359.831 185.818 359.445 185.344C359.065 184.87 358.521 184.633 357.812 184.633C357.078 184.633 356.474 184.909 356 185.461C355.531 186.008 355.297 186.674 355.297 187.461C355.297 188.253 355.526 188.901 355.984 189.406C356.448 189.906 356.977 190.156 357.57 190.156Z" fill="black"/>
<path d="M117.656 191V183.484H115.234V182.273H119.109V189.789H121.539V191H117.656ZM117.414 179.125C117.414 178.797 117.526 178.552 117.75 178.391C117.974 178.229 118.185 178.148 118.383 178.148C118.586 178.148 118.799 178.229 119.023 178.391C119.247 178.552 119.359 178.797 119.359 179.125C119.359 179.448 119.247 179.69 119.023 179.852C118.799 180.013 118.586 180.094 118.383 180.094C118.185 180.094 117.974 180.013 117.75 179.852C117.526 179.69 117.414 179.448 117.414 179.125ZM124.82 191V182.273H126.273V184.18C126.69 183.508 127.193 182.982 127.781 182.602C128.37 182.221 128.958 182.031 129.547 182.031C130.062 182.031 130.531 182.169 130.953 182.445C131.375 182.716 131.669 183.073 131.836 183.516C132.008 183.958 132.094 184.828 132.094 186.125V191H130.641V185.945C130.641 185.107 130.599 184.555 130.516 184.289C130.438 184.018 130.289 183.797 130.07 183.625C129.857 183.453 129.622 183.367 129.367 183.367C128.857 183.367 128.307 183.609 127.719 184.094C127.135 184.578 126.654 185.185 126.273 185.914V191H124.82ZM141.727 190.648C141.044 190.935 140.549 191.104 140.242 191.156C139.935 191.214 139.638 191.242 139.352 191.242C138.742 191.242 138.185 191.125 137.68 190.891C137.174 190.656 136.792 190.31 136.531 189.852C136.276 189.393 136.148 188.685 136.148 187.727V184.211H133.969V183H136.148V179.484H137.602V183H141.484V184.211H137.602V187.703C137.602 188.406 137.685 188.904 137.852 189.195C138.018 189.482 138.24 189.693 138.516 189.828C138.797 189.964 139.128 190.031 139.508 190.031C140.211 190.031 140.951 189.81 141.727 189.367V190.648ZM143.961 190.781V189.25C145.154 189.854 146.188 190.156 147.062 190.156C147.865 190.156 148.526 189.914 149.047 189.43C149.573 188.94 149.836 188.312 149.836 187.547C149.836 186.776 149.547 186.148 148.969 185.664C148.396 185.18 147.419 184.938 146.039 184.938H145.234V183.727H146.352C147.367 183.727 148.102 183.5 148.555 183.047C149.008 182.589 149.234 182.081 149.234 181.523C149.234 181.018 149.049 180.594 148.68 180.25C148.31 179.901 147.742 179.727 146.977 179.727C146.117 179.727 145.193 179.969 144.203 180.453V179.07C145.193 178.701 146.099 178.516 146.922 178.516C148.396 178.516 149.411 178.807 149.969 179.391C150.531 179.969 150.812 180.63 150.812 181.375C150.812 181.927 150.664 182.445 150.367 182.93C150.07 183.414 149.523 183.846 148.727 184.227C149.43 184.435 149.961 184.69 150.32 184.992C150.68 185.294 150.951 185.651 151.133 186.062C151.32 186.474 151.414 186.935 151.414 187.445C151.414 188.581 150.992 189.518 150.148 190.258C149.31 190.997 148.224 191.367 146.891 191.367C146.505 191.367 146.083 191.339 145.625 191.281C145.172 191.224 144.617 191.057 143.961 190.781ZM160.938 191H153.602V189.664C153.602 189.32 153.672 188.953 153.812 188.562C153.953 188.167 154.221 187.724 154.617 187.234C155.013 186.745 155.432 186.273 155.875 185.82L156.703 184.977C156.87 184.805 157.234 184.406 157.797 183.781C158.359 183.156 158.729 182.677 158.906 182.344C159.089 182.01 159.18 181.682 159.18 181.359C159.18 180.839 158.971 180.438 158.555 180.156C158.138 179.87 157.669 179.727 157.148 179.727C156.852 179.727 156.518 179.76 156.148 179.828C155.784 179.896 155.464 179.977 155.188 180.07C154.911 180.159 154.464 180.344 153.844 180.625V179.336C154.5 179.023 155.156 178.81 155.812 178.695C156.474 178.576 157.018 178.516 157.445 178.516C158.076 178.516 158.654 178.62 159.18 178.828C159.711 179.031 160.104 179.349 160.359 179.781C160.62 180.214 160.75 180.674 160.75 181.164C160.75 181.711 160.583 182.271 160.25 182.844C159.922 183.417 159.299 184.154 158.383 185.055L157.492 185.938L156.742 186.672C156.268 187.151 155.885 187.615 155.594 188.062C155.302 188.51 155.141 189.044 155.109 189.664H160.938V191Z" fill="black"/>
<path d="M436.656 191V183.484H434.234V182.273H438.109V189.789H440.539V191H436.656ZM436.414 179.125C436.414 178.797 436.526 178.552 436.75 178.391C436.974 178.229 437.185 178.148 437.383 178.148C437.586 178.148 437.799 178.229 438.023 178.391C438.247 178.552 438.359 178.797 438.359 179.125C438.359 179.448 438.247 179.69 438.023 179.852C437.799 180.013 437.586 180.094 437.383 180.094C437.185 180.094 436.974 180.013 436.75 179.852C436.526 179.69 436.414 179.448 436.414 179.125ZM443.82 191V182.273H445.273V184.18C445.69 183.508 446.193 182.982 446.781 182.602C447.37 182.221 447.958 182.031 448.547 182.031C449.062 182.031 449.531 182.169 449.953 182.445C450.375 182.716 450.669 183.073 450.836 183.516C451.008 183.958 451.094 184.828 451.094 186.125V191H449.641V185.945C449.641 185.107 449.599 184.555 449.516 184.289C449.438 184.018 449.289 183.797 449.07 183.625C448.857 183.453 448.622 183.367 448.367 183.367C447.857 183.367 447.307 183.609 446.719 184.094C446.135 184.578 445.654 185.185 445.273 185.914V191H443.82ZM460.727 190.648C460.044 190.935 459.549 191.104 459.242 191.156C458.935 191.214 458.638 191.242 458.352 191.242C457.742 191.242 457.185 191.125 456.68 190.891C456.174 190.656 455.792 190.31 455.531 189.852C455.276 189.393 455.148 188.685 455.148 187.727V184.211H452.969V183H455.148V179.484H456.602V183H460.484V184.211H456.602V187.703C456.602 188.406 456.685 188.904 456.852 189.195C457.018 189.482 457.24 189.693 457.516 189.828C457.797 189.964 458.128 190.031 458.508 190.031C459.211 190.031 459.951 189.81 460.727 189.367V190.648ZM462.961 190.781V189.25C464.154 189.854 465.188 190.156 466.062 190.156C466.865 190.156 467.526 189.914 468.047 189.43C468.573 188.94 468.836 188.312 468.836 187.547C468.836 186.776 468.547 186.148 467.969 185.664C467.396 185.18 466.419 184.938 465.039 184.938H464.234V183.727H465.352C466.367 183.727 467.102 183.5 467.555 183.047C468.008 182.589 468.234 182.081 468.234 181.523C468.234 181.018 468.049 180.594 467.68 180.25C467.31 179.901 466.742 179.727 465.977 179.727C465.117 179.727 464.193 179.969 463.203 180.453V179.07C464.193 178.701 465.099 178.516 465.922 178.516C467.396 178.516 468.411 178.807 468.969 179.391C469.531 179.969 469.812 180.63 469.812 181.375C469.812 181.927 469.664 182.445 469.367 182.93C469.07 183.414 468.523 183.846 467.727 184.227C468.43 184.435 468.961 184.69 469.32 184.992C469.68 185.294 469.951 185.651 470.133 186.062C470.32 186.474 470.414 186.935 470.414 187.445C470.414 188.581 469.992 189.518 469.148 190.258C468.31 190.997 467.224 191.367 465.891 191.367C465.505 191.367 465.083 191.339 464.625 191.281C464.172 191.224 463.617 191.057 462.961 190.781ZM479.938 191H472.602V189.664C472.602 189.32 472.672 188.953 472.812 188.562C472.953 188.167 473.221 187.724 473.617 187.234C474.013 186.745 474.432 186.273 474.875 185.82L475.703 184.977C475.87 184.805 476.234 184.406 476.797 183.781C477.359 183.156 477.729 182.677 477.906 182.344C478.089 182.01 478.18 181.682 478.18 181.359C478.18 180.839 477.971 180.438 477.555 180.156C477.138 179.87 476.669 179.727 476.148 179.727C475.852 179.727 475.518 179.76 475.148 179.828C474.784 179.896 474.464 179.977 474.188 180.07C473.911 180.159 473.464 180.344 472.844 180.625V179.336C473.5 179.023 474.156 178.81 474.812 178.695C475.474 178.576 476.018 178.516 476.445 178.516C477.076 178.516 477.654 178.62 478.18 178.828C478.711 179.031 479.104 179.349 479.359 179.781C479.62 180.214 479.75 180.674 479.75 181.164C479.75 181.711 479.583 182.271 479.25 182.844C478.922 183.417 478.299 184.154 477.383 185.055L476.492 185.938L475.742 186.672C475.268 187.151 474.885 187.615 474.594 188.062C474.302 188.51 474.141 189.044 474.109 189.664H479.938V191Z" fill="black"/>
<path d="M596.656 191V183.484H594.234V182.273H598.109V189.789H600.539V191H596.656ZM596.414 179.125C596.414 178.797 596.526 178.552 596.75 178.391C596.974 178.229 597.185 178.148 597.383 178.148C597.586 178.148 597.799 178.229 598.023 178.391C598.247 178.552 598.359 178.797 598.359 179.125C598.359 179.448 598.247 179.69 598.023 179.852C597.799 180.013 597.586 180.094 597.383 180.094C597.185 180.094 596.974 180.013 596.75 179.852C596.526 179.69 596.414 179.448 596.414 179.125ZM603.82 191V182.273H605.273V184.18C605.69 183.508 606.193 182.982 606.781 182.602C607.37 182.221 607.958 182.031 608.547 182.031C609.062 182.031 609.531 182.169 609.953 182.445C610.375 182.716 610.669 183.073 610.836 183.516C611.008 183.958 611.094 184.828 611.094 186.125V191H609.641V185.945C609.641 185.107 609.599 184.555 609.516 184.289C609.438 184.018 609.289 183.797 609.07 183.625C608.857 183.453 608.622 183.367 608.367 183.367C607.857 183.367 607.307 183.609 606.719 184.094C606.135 184.578 605.654 185.185 605.273 185.914V191H603.82ZM620.727 190.648C620.044 190.935 619.549 191.104 619.242 191.156C618.935 191.214 618.638 191.242 618.352 191.242C617.742 191.242 617.185 191.125 616.68 190.891C616.174 190.656 615.792 190.31 615.531 189.852C615.276 189.393 615.148 188.685 615.148 187.727V184.211H612.969V183H615.148V179.484H616.602V183H620.484V184.211H616.602V187.703C616.602 188.406 616.685 188.904 616.852 189.195C617.018 189.482 617.24 189.693 617.516 189.828C617.797 189.964 618.128 190.031 618.508 190.031C619.211 190.031 619.951 189.81 620.727 189.367V190.648ZM622.961 190.781V189.25C624.154 189.854 625.188 190.156 626.062 190.156C626.865 190.156 627.526 189.914 628.047 189.43C628.573 188.94 628.836 188.312 628.836 187.547C628.836 186.776 628.547 186.148 627.969 185.664C627.396 185.18 626.419 184.938 625.039 184.938H624.234V183.727H625.352C626.367 183.727 627.102 183.5 627.555 183.047C628.008 182.589 628.234 182.081 628.234 181.523C628.234 181.018 628.049 180.594 627.68 180.25C627.31 179.901 626.742 179.727 625.977 179.727C625.117 179.727 624.193 179.969 623.203 180.453V179.07C624.193 178.701 625.099 178.516 625.922 178.516C627.396 178.516 628.411 178.807 628.969 179.391C629.531 179.969 629.812 180.63 629.812 181.375C629.812 181.927 629.664 182.445 629.367 182.93C629.07 183.414 628.523 183.846 627.727 184.227C628.43 184.435 628.961 184.69 629.32 184.992C629.68 185.294 629.951 185.651 630.133 186.062C630.32 186.474 630.414 186.935 630.414 187.445C630.414 188.581 629.992 189.518 629.148 190.258C628.31 190.997 627.224 191.367 625.891 191.367C625.505 191.367 625.083 191.339 624.625 191.281C624.172 191.224 623.617 191.057 622.961 190.781ZM639.938 191H632.602V189.664C632.602 189.32 632.672 188.953 632.812 188.562C632.953 188.167 633.221 187.724 633.617 187.234C634.013 186.745 634.432 186.273 634.875 185.82L635.703 184.977C635.87 184.805 636.234 184.406 636.797 183.781C637.359 183.156 637.729 182.677 637.906 182.344C638.089 182.01 638.18 181.682 638.18 181.359C638.18 180.839 637.971 180.438 637.555 180.156C637.138 179.87 636.669 179.727 636.148 179.727C635.852 179.727 635.518 179.76 635.148 179.828C634.784 179.896 634.464 179.977 634.188 180.07C633.911 180.159 633.464 180.344 632.844 180.625V179.336C633.5 179.023 634.156 178.81 634.812 178.695C635.474 178.576 636.018 178.516 636.445 178.516C637.076 178.516 637.654 178.62 638.18 178.828C638.711 179.031 639.104 179.349 639.359 179.781C639.62 180.214 639.75 180.674 639.75 181.164C639.75 181.711 639.583 182.271 639.25 182.844C638.922 183.417 638.299 184.154 637.383 185.055L636.492 185.938L635.742 186.672C635.268 187.151 634.885 187.615 634.594 188.062C634.302 188.51 634.141 189.044 634.109 189.664H639.938V191Z" fill="black"/>
<rect x="57" y="158" width="743" height="218" stroke="black" stroke-width="2" stroke-dasharray="12 12"/>
<path d="M732.555 175.352C733.003 174.623 733.536 174.074 734.156 173.704C734.776 173.334 735.346 173.149 735.867 173.149C736.596 173.149 737.253 173.464 737.836 174.095C738.419 174.725 738.711 175.681 738.711 176.962C738.711 177.972 738.516 178.876 738.125 179.673C737.74 180.464 737.224 181.092 736.578 181.556C735.932 182.014 735.133 182.243 734.18 182.243C733.909 182.243 733.492 182.214 732.93 182.157C732.846 182.147 732.721 182.134 732.555 182.118V185.509H731.102V173.392H732.555V175.352ZM732.555 177.079V180.821C733.081 180.957 733.565 181.024 734.008 181.024C734.888 181.024 735.628 180.681 736.227 179.993C736.831 179.3 737.133 178.355 737.133 177.157C737.133 176.287 736.969 175.634 736.641 175.196C736.312 174.759 735.94 174.54 735.523 174.54C735.07 174.54 734.57 174.769 734.023 175.227C733.482 175.686 732.992 176.303 732.555 177.079ZM746.555 180.157C746.112 180.886 745.578 181.436 744.953 181.806C744.333 182.175 743.763 182.36 743.242 182.36C742.513 182.36 741.857 182.045 741.273 181.415C740.695 180.785 740.406 179.829 740.406 178.548C740.406 177.537 740.599 176.636 740.984 175.845C741.37 175.048 741.885 174.42 742.531 173.962C743.177 173.498 743.977 173.267 744.93 173.267C745.206 173.267 745.622 173.295 746.18 173.352C746.263 173.363 746.388 173.376 746.555 173.392H748.016V179.556C748.016 180.608 748.125 181.462 748.344 182.118H746.828C746.714 181.639 746.622 180.985 746.555 180.157ZM746.555 178.431V174.688C746.039 174.553 745.56 174.485 745.117 174.485C744.221 174.485 743.474 174.832 742.875 175.524C742.281 176.217 741.984 177.16 741.984 178.352C741.984 179.217 742.146 179.871 742.469 180.313C742.797 180.751 743.169 180.97 743.586 180.97C744.039 180.97 744.539 180.74 745.086 180.282C745.633 179.824 746.122 179.207 746.555 178.431ZM757.773 181.868C756.799 182.196 755.872 182.36 754.992 182.36C754.117 182.36 753.339 182.16 752.656 181.759C751.979 181.352 751.451 180.806 751.07 180.118C750.69 179.425 750.5 178.639 750.5 177.759C750.5 176.436 750.93 175.337 751.789 174.462C752.654 173.587 753.695 173.149 754.914 173.149C755.815 173.149 756.768 173.319 757.773 173.657V175.056C756.758 174.592 755.849 174.36 755.047 174.36C754.516 174.36 754.016 174.493 753.547 174.759C753.078 175.019 752.716 175.428 752.461 175.985C752.206 176.543 752.078 177.115 752.078 177.704C752.078 178.49 752.323 179.24 752.812 179.954C753.307 180.668 754.081 181.024 755.133 181.024C755.451 181.024 755.763 181.003 756.07 180.962C756.378 180.915 756.945 180.751 757.773 180.47V181.868ZM760.43 182.118V169.509H761.883V177.431L766.078 173.392H768.016L763.828 177.431L768.125 182.118H766.125L761.883 177.431V182.118H760.43ZM776.906 181.54C775.745 182.092 774.646 182.368 773.609 182.368C772.823 182.368 772.12 182.173 771.5 181.782C770.88 181.392 770.383 180.834 770.008 180.11C769.638 179.381 769.453 178.602 769.453 177.774C769.453 176.977 769.63 176.212 769.984 175.477C770.339 174.743 770.833 174.173 771.469 173.767C772.104 173.355 772.812 173.149 773.594 173.149C774.63 173.149 775.461 173.519 776.086 174.259C776.716 174.998 777.031 176.139 777.031 177.681V177.993H771.016C771.016 178.597 771.141 179.149 771.391 179.649C771.646 180.149 771.979 180.524 772.391 180.774C772.802 181.024 773.271 181.149 773.797 181.149C774.734 181.149 775.771 180.837 776.906 180.212V181.54ZM771.102 176.907H775.453V176.696C775.453 175.983 775.279 175.415 774.93 174.993C774.581 174.571 774.115 174.36 773.531 174.36C772.943 174.36 772.432 174.576 772 175.009C771.573 175.436 771.273 176.069 771.102 176.907ZM786.555 181.767C785.872 182.053 785.378 182.222 785.07 182.274C784.763 182.332 784.466 182.36 784.18 182.36C783.57 182.36 783.013 182.243 782.508 182.009C782.003 181.774 781.62 181.428 781.359 180.97C781.104 180.511 780.977 179.803 780.977 178.845V175.329H778.797V174.118H780.977V170.602H782.43V174.118H786.312V175.329H782.43V178.821C782.43 179.524 782.513 180.022 782.68 180.313C782.846 180.6 783.068 180.811 783.344 180.946C783.625 181.082 783.956 181.149 784.336 181.149C785.039 181.149 785.779 180.928 786.555 180.485V181.767Z" fill="black"/>
<path d="M197.109 51.4688C198.005 50.0104 199.073 48.9115 200.312 48.1719C201.552 47.4323 202.693 47.0625 203.734 47.0625C205.193 47.0625 206.505 47.6927 207.672 48.9531C208.839 50.2135 209.422 52.125 209.422 54.6875C209.422 56.7083 209.031 58.5156 208.25 60.1094C207.479 61.6927 206.448 62.9479 205.156 63.875C203.865 64.7917 202.266 65.25 200.359 65.25C199.818 65.25 198.984 65.1927 197.859 65.0781C197.693 65.0573 197.443 65.0312 197.109 65V71.7812H194.203V47.5469H197.109V51.4688ZM197.109 54.9219V62.4062C198.161 62.6771 199.13 62.8125 200.016 62.8125C201.776 62.8125 203.255 62.125 204.453 60.75C205.661 59.3646 206.266 57.474 206.266 55.0781C206.266 53.3385 205.938 52.0312 205.281 51.1562C204.625 50.2812 203.88 49.8438 203.047 49.8438C202.141 49.8438 201.141 50.3021 200.047 51.2188C198.964 52.1354 197.984 53.3698 197.109 54.9219ZM225.109 61.0781C224.224 62.5365 223.156 63.6354 221.906 64.375C220.667 65.1146 219.526 65.4844 218.484 65.4844C217.026 65.4844 215.714 64.8542 214.547 63.5938C213.391 62.3333 212.812 60.4219 212.812 57.8594C212.812 55.8385 213.198 54.0365 213.969 52.4531C214.74 50.8594 215.771 49.6042 217.062 48.6875C218.354 47.7604 219.953 47.2969 221.859 47.2969C222.411 47.2969 223.245 47.3542 224.359 47.4688C224.526 47.4896 224.776 47.5156 225.109 47.5469H228.031V59.875C228.031 61.9792 228.25 63.6875 228.688 65H225.656C225.427 64.0417 225.245 62.7344 225.109 61.0781ZM225.109 57.625V50.1406C224.078 49.8698 223.12 49.7344 222.234 49.7344C220.443 49.7344 218.948 50.4271 217.75 51.8125C216.562 53.1979 215.969 55.0833 215.969 57.4688C215.969 59.1979 216.292 60.5052 216.938 61.3906C217.594 62.2656 218.339 62.7031 219.172 62.7031C220.078 62.7031 221.078 62.2448 222.172 61.3281C223.266 60.4115 224.245 59.1771 225.109 57.625ZM247.547 64.5C245.599 65.1562 243.745 65.4844 241.984 65.4844C240.234 65.4844 238.677 65.0833 237.312 64.2812C235.958 63.4688 234.901 62.375 234.141 61C233.38 59.6146 233 58.0417 233 56.2812C233 53.6354 233.859 51.4375 235.578 49.6875C237.307 47.9375 239.391 47.0625 241.828 47.0625C243.63 47.0625 245.536 47.401 247.547 48.0781V50.875C245.516 49.9479 243.698 49.4844 242.094 49.4844C241.031 49.4844 240.031 49.75 239.094 50.2812C238.156 50.8021 237.432 51.6198 236.922 52.7344C236.411 53.849 236.156 54.9948 236.156 56.1719C236.156 57.7448 236.646 59.2448 237.625 60.6719C238.615 62.099 240.161 62.8125 242.266 62.8125C242.901 62.8125 243.526 62.7708 244.141 62.6875C244.755 62.5938 245.891 62.2656 247.547 61.7031V64.5ZM252.859 65V39.7812H255.766V55.625L264.156 47.5469H268.031L259.656 55.625L268.25 65H264.25L255.766 55.625V65H252.859ZM285.812 63.8438C283.49 64.9479 281.292 65.5 279.219 65.5C277.646 65.5 276.24 65.1094 275 64.3281C273.76 63.5469 272.766 62.4323 272.016 60.9844C271.276 59.526 270.906 57.9688 270.906 56.3125C270.906 54.7188 271.26 53.1875 271.969 51.7188C272.677 50.25 273.667 49.1094 274.938 48.2969C276.208 47.474 277.625 47.0625 279.188 47.0625C281.26 47.0625 282.922 47.8021 284.172 49.2812C285.432 50.7604 286.062 53.0417 286.062 56.125V56.75H274.031C274.031 57.9583 274.281 59.0625 274.781 60.0625C275.292 61.0625 275.958 61.8125 276.781 62.3125C277.604 62.8125 278.542 63.0625 279.594 63.0625C281.469 63.0625 283.542 62.4375 285.812 61.1875V63.8438ZM274.203 54.5781H282.906V54.1562C282.906 52.7292 282.557 51.5938 281.859 50.75C281.161 49.9062 280.229 49.4844 279.062 49.4844C277.885 49.4844 276.865 49.9167 276 50.7812C275.146 51.6354 274.547 52.901 274.203 54.5781ZM305.109 64.2969C303.745 64.8698 302.755 65.2083 302.141 65.3125C301.526 65.4271 300.932 65.4844 300.359 65.4844C299.141 65.4844 298.026 65.25 297.016 64.7812C296.005 64.3125 295.24 63.6198 294.719 62.7031C294.208 61.7865 293.953 60.3698 293.953 58.4531V51.4219H289.594V49H293.953V41.9688H296.859V49H304.625V51.4219H296.859V58.4062C296.859 59.8125 297.026 60.8073 297.359 61.3906C297.693 61.9635 298.135 62.3854 298.688 62.6562C299.25 62.9271 299.911 63.0625 300.672 63.0625C302.078 63.0625 303.557 62.6198 305.109 61.7344V64.2969ZM309.457 59.176C309.457 58.696 311.025 57.992 311.025 57.992V57.96C313.841 54.76 316.689 50.312 318.961 45.928L316.977 44.808C315.057 49.16 311.953 53.736 310.993 54.92C310.065 56.104 309.393 56.936 308.753 57.064C309.009 57.64 309.361 58.728 309.457 59.176ZM309.457 59.176C310.065 58.824 311.057 58.504 318.129 56.84C318.065 56.36 317.969 55.496 317.969 54.856L310.385 56.456L309.329 57.256L309.457 59.176ZM309.265 51.496C309.265 51.016 310.673 50.248 310.673 50.248V50.184C312.753 47.272 314.929 43.016 316.465 38.92L314.193 38.12C313.041 42.024 310.897 46.216 310.225 47.272C309.585 48.392 309.041 49.16 308.497 49.288C308.753 49.896 309.137 51.016 309.265 51.496ZM309.265 51.496C309.777 51.24 310.641 51.016 315.665 50.376C315.697 49.896 315.76 49 315.889 48.392L310.321 48.968L309.201 49.704L309.265 51.496ZM308.593 63.304L309.169 65.48C311.761 64.424 315.121 63.08 318.353 61.736L317.937 59.816C314.449 61.128 310.929 62.504 308.593 63.304ZM327.249 52.936V66.536H328.881V52.936H327.249ZM331.153 52.904V66.504H332.785V52.904H331.153ZM335.153 51.816V65.224C335.153 65.48 335.089 65.544 334.865 65.544C334.641 65.544 334.033 65.544 333.329 65.544C333.585 66.024 333.809 66.824 333.905 67.336C335.025 67.336 335.793 67.304 336.369 66.984C336.945 66.664 337.073 66.12 337.073 65.256V51.816H335.153ZM320.561 41.608V48.52C320.561 53.448 320.273 60.552 317.329 65.672C317.841 65.928 318.801 66.632 319.185 67.048C322.257 61.64 322.769 53.768 322.769 48.52V41.608H320.561ZM321.713 41.608V43.624H334.513V47.08H321.713V49.096H336.753V41.608H321.713ZM322.705 51.816V67.304H324.625V53.8H336.177V51.816H322.705ZM323.665 58.536V60.456H336.017V58.536H323.665ZM326.673 38.6C327.345 39.848 328.081 41.544 328.369 42.664L330.705 41.896C330.385 40.808 329.649 39.144 328.913 37.928L326.673 38.6ZM367.057 52.168V52.584C366.417 60.808 365.681 64.072 364.753 64.936C364.465 65.256 364.113 65.32 363.569 65.32C362.961 65.32 361.553 65.32 360.017 65.128C360.369 65.768 360.625 66.696 360.657 67.368C362.225 67.432 363.697 67.432 364.497 67.368C365.457 67.336 366.097 67.08 366.705 66.408C367.857 65.224 368.561 61.896 369.297 53.256C369.329 52.904 369.361 52.168 369.361 52.168H367.057ZM353.489 40.008V42.216H365.361V40.008H353.489ZM355.025 44.232C354.801 47.368 354.353 51.656 353.937 54.248H356.208C356.561 51.752 357.009 47.56 357.265 44.36L355.025 44.232ZM354.609 52.168V54.248H367.761V52.168H354.609ZM352.401 58.472V60.616H364.657V58.472H352.401ZM364.369 40.008V40.296C364.145 43.304 363.505 49.352 362.929 53.544L365.201 53.704C365.777 49.512 366.385 43.88 366.673 40.104L365.009 39.912L364.625 40.008H364.369ZM340.913 39.848V42.056H351.921V39.848H340.913ZM344.049 49.704V51.848H348.881V61.384H344.049V63.528H350.993V49.704H344.049ZM345.041 40.904C344.177 46.248 342.673 51.24 340.209 54.504C340.625 55.144 341.169 56.52 341.329 57.096C344.273 53.256 346.129 47.432 347.281 41.384L345.041 40.904ZM342.993 49.704V66.12H345.105V49.704H342.993ZM373.329 59.144C373.329 58.632 374.993 57.864 374.993 57.864V57.8C378.193 54.76 381.457 50.504 384.177 46.216L382.001 44.872C379.697 49.16 376.177 53.576 375.025 54.696C374.001 55.848 373.233 56.648 372.497 56.776C372.785 57.416 373.201 58.632 373.329 59.144ZM373.329 59.144C374.065 58.728 375.217 58.44 384.177 56.808C384.081 56.296 384.017 55.368 384.017 54.728L374.481 56.296L373.201 57.128L373.329 59.144ZM373.105 51.368C373.105 50.824 374.737 50.024 374.737 50.024V49.96C376.913 47.208 379.185 43.208 380.849 39.336L378.417 38.344C377.105 42.056 374.801 46.024 374.097 47.048C373.424 48.104 372.849 48.808 372.241 48.968C372.561 49.608 372.945 50.824 373.105 51.368ZM373.105 51.368C373.681 51.08 374.673 50.888 380.817 50.216C380.817 49.736 380.881 48.808 381.009 48.2L374.257 48.808L373.041 49.544L373.105 51.368ZM372.433 63.336L372.849 65.8C376.016 65.064 380.273 64.2 384.305 63.272L384.113 61.032C379.825 61.928 375.377 62.824 372.433 63.336ZM384.369 42.408V44.744H401.457V42.408H384.369ZM385.169 49.704V52.008H400.913V49.704H385.169ZM387.281 63.976V66.184H398.897V63.976H387.281ZM391.729 38.12V50.888H394.225V38.12H391.729ZM386.001 55.272V67.56H388.337V57.48H397.713V67.432H400.145V55.272H386.001ZM404.849 45V47.272H416.369V45H404.849ZM409.809 38.12V67.528H412.113V38.12H409.809ZM409.713 46.408C408.689 50.888 406.321 56.328 404.017 59.112C404.433 59.688 405.009 60.648 405.265 61.288C407.729 58.12 410.129 52.008 411.249 46.984L409.713 46.408ZM411.985 49.64L410.769 50.76C411.793 52.04 414.321 55.624 415.185 57.16L416.689 55.208C415.985 54.28 412.849 50.536 411.985 49.64ZM420.017 38.12C418.865 42.664 416.881 47.08 414.385 49.896C414.961 50.248 415.953 51.048 416.401 51.432C418.929 48.328 421.073 43.624 422.417 38.664L420.017 38.12ZM419.569 43.368L418.513 45.64H431.921V43.368H419.569ZM430.993 43.368V43.944C430.577 58.312 430.065 63.624 429.105 64.744C428.753 65.16 428.433 65.288 427.857 65.256C427.217 65.256 425.649 65.256 423.953 65.096C424.369 65.768 424.657 66.792 424.689 67.464C426.257 67.56 427.857 67.592 428.849 67.496C429.873 67.368 430.577 67.112 431.217 66.184C432.433 64.648 432.881 59.656 433.329 44.648C433.329 44.296 433.361 43.368 433.361 43.368H430.993ZM423.825 54.152C425.169 56.584 426.513 59.784 426.929 61.8L428.945 61.064C428.433 59.08 427.057 55.944 425.649 53.544L423.825 54.152ZM420.977 48.072C420.305 51.4 418.993 56.168 417.841 59.016L419.76 59.528C420.944 56.744 422.321 52.2 423.312 48.584L420.977 48.072ZM415.473 58.792L415.985 61.032C419.089 60.584 423.121 60.008 427.089 59.368L427.025 57.48C422.737 58.024 418.353 58.536 415.473 58.792ZM452.062 70.8125C449.177 70.6354 446.745 69.8177 444.766 68.3594C442.786 66.9115 441.203 64.9531 440.016 62.4844C438.839 60.0156 438.25 57.5417 438.25 55.0625C438.25 52.5833 438.839 50.1094 440.016 47.6406C441.203 45.1719 442.786 43.2135 444.766 41.7656C446.745 40.3073 449.177 39.4844 452.062 39.2969V41.7344C449.885 41.9323 448.01 42.6667 446.438 43.9375C444.875 45.1979 443.646 46.8073 442.75 48.7656C441.854 50.724 441.406 52.8229 441.406 55.0625C441.406 57.3021 441.854 59.401 442.75 61.3594C443.646 63.3177 444.875 64.9271 446.438 66.1875C448.01 67.4479 449.885 68.1823 452.062 68.3906V70.8125ZM456.195 49.736V52.04H484.899V49.736H456.195ZM458.179 40.264V42.568H483.043V40.264H458.179ZM470.883 53.352V63.56C470.883 66.44 471.811 67.24 475.139 67.24C475.843 67.24 480.483 67.24 481.219 67.24C484.323 67.24 485.059 65.896 485.411 60.744C484.739 60.616 483.651 60.2 483.075 59.752C482.883 64.168 482.659 64.872 481.059 64.872C480.035 64.872 476.131 64.872 475.395 64.872C473.699 64.872 473.379 64.648 473.379 63.56V53.352H470.883ZM468.867 41.192C468.707 52.744 468.707 61.672 455.811 65.608C456.355 66.12 457.059 67.016 457.347 67.656C470.755 63.272 471.075 53.544 471.299 41.192H468.867ZM491.491 39.656V41.992H517.091V39.656H491.491ZM490.211 39.656V50.024C490.211 54.856 490.019 61.544 487.523 66.248C488.099 66.504 489.091 67.208 489.507 67.592C492.099 62.6 492.483 55.144 492.483 50.024V39.656H490.211ZM492.675 63.912V66.216H516.995V63.912H492.675ZM494.755 50.6V52.904H515.459V50.6H494.755ZM503.491 43.72V65.32H505.955V43.72H503.491ZM508.419 56.36C510.147 57.864 512.035 60.008 512.931 61.416L514.755 60.04C513.827 58.632 511.939 56.68 510.147 55.208L508.419 56.36ZM520.739 59.176C520.739 58.728 522.275 58.024 522.275 58.024V57.992C525.027 54.856 527.811 50.536 530.051 46.248L528.131 45.16C526.211 49.384 523.203 53.896 522.243 55.016C521.347 56.2 520.643 57 520.003 57.096C520.259 57.672 520.611 58.728 520.739 59.176ZM520.739 59.176C521.283 58.824 522.243 58.504 528.707 56.872C528.643 56.392 528.579 55.56 528.611 54.92L521.603 56.488L520.579 57.288L520.739 59.176ZM520.515 51.496C520.515 51.016 521.923 50.28 521.923 50.28V50.216C524.131 47.304 526.275 43.176 527.907 39.208L525.795 38.248C524.515 42.088 522.243 46.248 521.571 47.336C520.867 48.424 520.355 49.192 519.779 49.32C520.067 49.928 520.387 51.016 520.515 51.496ZM520.515 51.496C521.059 51.24 521.923 51.048 526.947 50.472C526.947 49.992 527.011 49.128 527.139 48.52L521.603 49.032L520.483 49.736L520.515 51.496ZM519.939 63.304L520.515 65.576C523.171 64.584 526.627 63.208 529.923 61.928L529.507 59.944C525.955 61.224 522.371 62.536 519.939 63.304ZM540.931 47.56C540.739 49.192 540.227 51.592 539.811 53.096L541.795 53.544C542.275 52.104 542.819 49.96 543.331 48.008L540.931 47.56ZM530.339 41.224V46.44H532.515V43.272H546.659V45.992H548.931V41.224H530.339ZM533.635 45.448C532.803 48.84 530.979 53.032 528.611 55.688C528.995 56.072 529.603 56.84 529.859 57.288C532.547 54.376 534.595 49.864 535.747 45.96L533.635 45.448ZM536.035 46.856V48.84H548.483V46.856H536.035ZM537.507 57.96V59.88H546.851V57.96H537.507ZM536.483 52.104V67.528H538.563V54.056H545.859V67.368H548.035V52.104H536.483ZM531.907 51.88V67.56H533.987V50.024L533.859 49.928L531.907 51.88ZM537.379 38.728C538.051 39.88 538.819 41.448 539.171 42.408L541.283 41.608C540.931 40.648 540.131 39.144 539.395 38.024L537.379 38.728ZM537.571 64.104V66.056H546.851V64.104H537.571ZM552.984 39.2969C555.87 39.4844 558.302 40.3073 560.281 41.7656C562.26 43.2135 563.839 45.1719 565.016 47.6406C566.203 50.1094 566.797 52.5833 566.797 55.0625C566.797 57.5417 566.203 60.0156 565.016 62.4844C563.839 64.9531 562.26 66.9115 560.281 68.3594C558.302 69.8177 555.87 70.6354 552.984 70.8125V68.3906C555.161 68.1823 557.031 67.4479 558.594 66.1875C560.167 64.9271 561.401 63.3177 562.297 61.3594C563.203 59.401 563.656 57.3021 563.656 55.0625C563.656 52.8229 563.203 50.724 562.297 48.7656C561.401 46.8073 560.167 45.1979 558.594 43.9375C557.031 42.6667 555.161 41.9323 552.984 41.7344V39.2969Z" fill="black"/>
</svg>
